<svg xmlns="http://www.w3.org/2000/svg" viewBox="0 0 500 350"><g style="opacity:0.6000000000000001"><path d="M310.68416,153.68434h30.85547A8.45327,8.45327,0,0,1,350,162.14471v29.66107a8.45327,8.45327,0,0,1-8.46037,8.46037H310.68416a8.45327,8.45327,0,0,1-8.46037-8.46037V162.14471A8.45327,8.45327,0,0,1,310.68416,153.68434Z" style="fill:#470137"/><path d="M327.34611,165.927l-5.972,9.85384,6.37016,10.451a.34262.34262,0,0,1,.03981.23888c-.01991.07962-.09953.01991-.219.03981h-4.55865c-.31851,0-.53748-.01991-.67683-.219-.418-.83609-.856-1.65227-1.274-2.48835-.418-.81618-.8759-1.65226-1.35366-2.50825s-.95553-1.712-1.43329-2.58788h-.03981c-.418.856-.8759,1.712-1.33375,2.568s-.91571,1.712-1.35366,2.54807c-.45786.83608-.91571,1.69207-1.37357,2.50825-.07963.19907-.23888.219-.45786.219H309.3305c-.07963,0-.13935.03982-.13935-.05972a.27642.27642,0,0,1,.03982-.219l6.191-10.15245-6.03175-10.21216c-.05972-.07963-.07963-.15925-.03981-.19907a.2308.2308,0,0,1,.19906-.07962h4.51884a1.17473,1.17473,0,0,1,.27869.03981.56455.56455,0,0,1,.19907.17916c.37823.856.81618,1.712,1.274,2.568.47776.856.93562,1.69208,1.43329,2.52816.47776.83608.91571,1.67217,1.33375,2.52816h.03981c.418-.8759.856-1.73189,1.29394-2.568s.89581-1.67216,1.35366-2.50825.89581-1.69207,1.33375-2.50825a.33859.33859,0,0,1,.11944-.19907.3796.3796,0,0,1,.25879-.03981h4.20033a.18336.18336,0,0,1,.219.13935c.01991.01991-.0199.09953-.05972.13935Z" style="fill:#ff61f6"/><path d="M336.543,186.92862a9.89667,9.89667,0,0,1-4.27995-.8958,6.94012,6.94012,0,0,1-3.00592-2.70732,8.61355,8.61355,0,0,1-1.09487-4.53874,8.17584,8.17584,0,0,1,1.09487-4.20033,8.26675,8.26675,0,0,1,3.16517-3.08554,10.18261,10.18261,0,0,1,5.03641-1.1546,3.55416,3.55416,0,0,1,.418.01991c.17916.01991.37823.01991.61711.03981v-6.29053c0-.13934.05973-.219.19907-.219H342.734a.1785.1785,0,0,1,.19907.13935v18.991c0,.35832.01991.75646.03981,1.1944.03982.418.05973.81618.07963,1.1546a.32328.32328,0,0,1-.19907.31851,15.20363,15.20363,0,0,1-3.2448.95552A17.55942,17.55942,0,0,1,336.543,186.92862Zm1.95086-3.98135v-8.759a5.09048,5.09048,0,0,0-.53748-.09953c-.219-.01991-.43794-.03982-.65692-.03982a4.90734,4.90734,0,0,0-2.24946.51758,4.46263,4.46263,0,0,0-1.69208,1.4731,4.41275,4.41275,0,0,0-.65692,2.52816,5.54732,5.54732,0,0,0,.33841,2.05039,3.89055,3.89055,0,0,0,.89581,1.41338,3.43891,3.43891,0,0,0,1.35366.79627,5.21082,5.21082,0,0,0,1.65226.25879c.2986,0,.57729-.01991.83608-.03981A1.74109,1.74109,0,0,0,338.49389,182.94727Z" style="fill:#ff61f6"/><path d="M152.22011,185.86358a7.35784,7.35784,0,0,1,.0001-10.53415l8.04016-7.90069a7.68421,7.68421,0,0,1,9.22826-1.14093,1.53411,1.53411,0,0,1,.15184,2.45768,3.02868,3.02868,0,0,1-2.95266.37594,3.83594,3.83594,0,0,0-3.7474.94085l-8.04017,7.90068a3.67885,3.67885,0,0,0-.00007,5.267,3.8376,3.8376,0,0,0,5.3601,0l16.08-15.80116a7.67554,7.67554,0,0,1,10.72034,0l8.04,7.90058a7.35752,7.35752,0,0,1,0,10.53419,7.675,7.675,0,0,1-10.72,0l-2.68-2.63364-3.35008,3.29182a7.68437,7.68437,0,0,1-9.22829,1.141,1.534,1.534,0,0,1-.1518-2.45761,3.02869,3.02869,0,0,1,2.95265-.37594,3.83609,3.83609,0,0,0,3.74744-.94085l3.44566-3.386a3.70081,3.70081,0,0,1,5.16884,0l2.77558,2.72761a3.83757,3.83757,0,0,0,5.36,0,3.6787,3.6787,0,0,0,0-5.267l-8.04-7.90058a3.838,3.838,0,0,0-5.36034,0l-16.08,15.80119A7.67526,7.67526,0,0,1,152.22011,185.86358Z" style="fill-rule:evenodd"/><path d="M227.5977,169.46915a4.81378,4.81378,0,0,0-4.20537,1.98316,4.20923,4.20923,0,0,0-3.83812-1.98316,4.40052,4.40052,0,0,0-3.92284,1.84543v-1.4598h-3.641V183.6266h3.641v-7.73978c0-2.01068,1.044-3.11244,2.65268-3.11244,1.496,0,2.37087.964,2.37087,2.61666v8.23556h3.64066v-7.73978c0-2.01068.95961-3.11244,2.62468-3.11244,1.49562,0,2.37051.964,2.37051,2.61666v8.23556h3.641v-8.48346C232.93178,171.70018,230.8431,169.46915,227.5977,169.46915Z"/><path d="M246.46619,171.47983a5.58431,5.58431,0,0,0-4.60027-2.01068,6.50978,6.50978,0,0,0-4.85445,2.12085,7.65763,7.65763,0,0,0,0,10.32889,6.48285,6.48285,0,0,0,4.85445,2.0933,5.58431,5.58431,0,0,0,4.60027-2.01068v1.62509h3.64067V169.85478h-3.64067Zm-6.717,8.0703a3.83625,3.83625,0,0,1-1.10071-2.80946,3.95141,3.95141,0,0,1,6.68862-2.78191,3.647,3.647,0,0,1,1.12905,2.78191,3.74952,3.74952,0,0,1-1.12905,2.80946,4.17059,4.17059,0,0,1-5.58791,0Z"/><path d="M263.5401,172.2235v-2.36872H252.95665v3.33275h5.67263l-5.95481,8.07031v2.36876h11.14781v-3.33279h-6.26534Z"/><path d="M279.04486,178.20051a9.07753,9.07753,0,0,0,.1411-1.45984,7.14372,7.14372,0,0,0-2.032-5.17819,6.73056,6.73056,0,0,0-5.10828-2.09333,7.21442,7.21442,0,0,0-5.36209,2.09333,7.46148,7.46148,0,0,0,.028,10.384,7.68186,7.68186,0,0,0,5.61627,2.06575,7.06836,7.06836,0,0,0,6.1526-2.94715l-2.9352-1.65264a3.78619,3.78619,0,0,1-3.16069,1.37718c-2.17341,0-3.49957-.85385-3.97956-2.58907Zm-10.69617-2.75439a3.5037,3.5037,0,0,1,3.697-2.78191,3.393,3.393,0,0,1,3.49958,2.78191Z"/><path d="M186.93606,144.574H155.80264A5.8197,5.8197,0,0,1,150,138.77134V107.63793a5.8197,5.8197,0,0,1,5.80264-5.80264h31.13342a5.8197,5.8197,0,0,1,5.80264,5.80264v31.13341A5.8197,5.8197,0,0,1,186.93606,144.574Z" style="fill:#353535"/><path d="M166.90578,136.59535a4.46234,4.46234,0,0,0,4.46357-4.46357v-4.46357h-4.46357a4.46357,4.46357,0,0,0,0,8.92714Z" style="fill:#0acf83"/><path d="M162.44221,123.20464a4.46235,4.46235,0,0,1,4.46357-4.46358h4.46357v8.92715h-4.46357A4.46234,4.46234,0,0,1,162.44221,123.20464Z" style="fill:#a259ff"/><path d="M162.44221,114.27749a4.46234,4.46234,0,0,1,4.46357-4.46357h4.46357v8.92714h-4.46357A4.46234,4.46234,0,0,1,162.44221,114.27749Z" style="fill:#f24e1e"/><path d="M171.36935,109.81392h4.46357a4.46357,4.46357,0,0,1,0,8.92714h-4.46357Z" style="fill:#ff7262"/><path d="M180.29649,123.20464a4.46357,4.46357,0,1,1-4.46357-4.46358A4.46234,4.46234,0,0,1,180.29649,123.20464Z" style="fill:#1abcfe"/><path d="M273.23835,126.98535a4.442,4.442,0,0,1-3.37292,1.36161h-3.15867v-9.92524h3.15867a4.45211,4.45211,0,0,1,3.37292,1.36161,5.62028,5.62028,0,0,1,0,7.1882m2.28087-9.44142a7.55336,7.55336,0,0,0-5.65379-2.36381h-6.55232v16.43609h6.55232a7.53439,7.53439,0,0,0,5.65379-2.37072,8.66385,8.66385,0,0,0,0-11.70156" style="fill:#230078;fill-rule:evenodd"/><path d="M285.36152,128.817a2.93816,2.93816,0,0,1-2.18411-.87088,3.28259,3.28259,0,0,1,0-4.465,2.87637,2.87637,0,0,1,2.18411-.87087,2.93817,2.93817,0,0,1,2.1841.87087,3.28257,3.28257,0,0,1,0,4.465,2.94869,2.94869,0,0,1-2.1841.87088m4.43042-7.52687a6.341,6.341,0,1,0,1.81779,4.67924v-.26265a6.08608,6.08608,0,0,0-1.81779-4.41659" style="fill:#230078;fill-rule:evenodd"/><path d="M304.24437,119.81789l-4.49263,11.79141H296.206l-4.4788-11.79141h3.50425l2.74395,7.92775,2.76469-7.92775Z" style="fill:#230078;fill-rule:evenodd"/><path d="M307.67949,124.52478a2.89177,2.89177,0,0,1,.98838-1.56205,3.08917,3.08917,0,0,1,1.93529-.59441,2.94533,2.94533,0,0,1,1.7694.55985,2.66454,2.66454,0,0,1,.98838,1.58969Zm7.21585-3.23469A5.66188,5.66188,0,0,0,310.617,119.493a6.01927,6.01927,0,0,0-4.47881,1.77631,6.52,6.52,0,0,0,.02073,8.90922,6.38454,6.38454,0,0,0,4.68616,1.75558,5.83851,5.83851,0,0,0,5.13542-2.52278l.06911-.08294-2.585-1.486-.04837.0622a2.99875,2.99875,0,0,1-2.5297,1.12661c-1.70028,0-2.73013-.65661-3.14483-1.98366h8.70878l.02073-.08986a6.89094,6.89094,0,0,0,.1175-1.24411,6.28163,6.28163,0,0,0-1.69337-4.4235Z" style="fill:#230078;fill-rule:evenodd"/><path d="M322.33927,122.8867v4.73453a1.02842,1.02842,0,0,0,.26955.80176,1.35659,1.35659,0,0,0,.81559.2972h.546c.26956,0,.56676,0,.89852-.02764h.09677v2.90984h-.08986a13.0473,13.0473,0,0,1-1.55513.09676,4.876,4.876,0,0,1-2.86146-.69117,3.94893,3.94893,0,0,1-1.30632-3.39366v-4.72071h-2.02514V119.8248H319.153v-2.32234l3.18631-.96764v3.29h2.61954v3.06881Z" style="fill:#230078;fill-rule:evenodd"/><path d="M332.22995,128.893a2.98551,2.98551,0,0,1-2.22558-.89161,3.40037,3.40037,0,0,1,0-4.57557,2.996,2.996,0,0,1,2.22558-.89161,3.06941,3.06941,0,0,1,2.24631.89161,3.17962,3.17962,0,0,1-2.24631,5.46718Zm3.131-9.0751v1.20264A4.70089,4.70089,0,0,0,331.677,119.493a5.37546,5.37546,0,0,0-4.05718,1.79705,6.63546,6.63546,0,0,0,0,8.8401,5.33275,5.33275,0,0,0,4.05027,1.804,4.66842,4.66842,0,0,0,3.68395-1.52749v1.19572h3.18631V119.81789Z" style="fill:#230078;fill-rule:evenodd"/><path d="M341.29814,118.04157a1.85437,1.85437,0,0,1-.57368-1.36161,1.89729,1.89729,0,0,1,.57368-1.36161,1.7991,1.7991,0,0,1,1.36161-.58058,1.93878,1.93878,0,1,1,0,3.87748,1.98044,1.98044,0,0,1-1.36161-.57368" style="fill:#230078;fill-rule:evenodd"/><path d="M341.07005,131.6093h3.19322V119.81789h-3.19322Z" style="fill:#230078;fill-rule:evenodd"/><path d="M346.81369,131.6093H350V114.46821h-3.18631Z" style="fill:#230078;fill-rule:evenodd"/><path d="M237.11765,136.30236l-7.64437,4.36821v-8.73642l-7.63746-4.3613,7.64437-4.36821,7.64438,4.36821v8.72951Z" style="fill:#230078;fill-rule:evenodd"/><path d="M252.39949,127.57285l-7.64438,4.36821v-8.73642l-7.63746-4.4166,7.64438-4.31983,7.64437,4.36821v8.73643Z" style="fill:#230078;fill-rule:evenodd"/><path d="M237.11765,118.83642l-7.64437,4.36822v-8.73643l-7.63746-4.3613,7.64437-4.36821,7.64438,4.36821v8.72951Z" style="fill:#230078;fill-rule:evenodd"/><path d="M349.46574,235.04505a.31593.31593,0,0,0-.29177.24288c-.74077,2.12532-1.76067,3.40048-2.58671,3.40048-.47364,0-.66751-.53433-.66751-1.37235,0-2.08882,1.25041-6.50945,1.88193-8.53764a2.35283,2.35283,0,0,0,.12189-.64364c0-.583-.31576-.87441-1.11779-.87441-.862,0-1.77268.34-2.67133,1.90669a2.36769,2.36769,0,0,0-2.55071-1.99169,5.53047,5.53047,0,0,0-4.1775,2.55033c-1.20241,1.5788-2.61134,2.101-3.67986,1.83387a11.73122,11.73122,0,0,0,1.04453-4.31138c0-1.62737-.802-2.61109-2.10107-2.61109-1.97981,0-3.1216,1.88244-3.1216,3.87412a4.213,4.213,0,0,0,2.22295,3.87419c-1.28767,2.90252-3.1576,5.52579-3.86237,5.52579-.92265,0-1.18978-4.49351-1.14116-7.69974.036-1.84593.18188-1.94312.18188-2.50176,0-.31576-.20651-.53433-1.04441-.53433-1.94312,0-2.55033,1.65161-2.63533,3.53405a9.02544,9.02544,0,0,1-.34007,2.12531c-.81372,2.90253-2.48964,5.10072-3.58267,5.10072-.51008,0-.64365-.51008-.64365-1.16584,0-2.08888,1.16591-4.7,1.16591-6.92247,0-1.63949-.71658-2.67177-2.06462-2.67177-1.59093,0-3.70412,1.89456-5.69581,5.44073.65584-2.7204.923-5.3436-1.02015-5.3436a2.57051,2.57051,0,0,0-1.20229.31576.67008.67008,0,0,0-.38863.668c.18212,2.8904-2.33176,10.29863-4.71215,10.29863-.4372,0-.64365-.47364-.64365-1.2266,0-2.08888,1.25092-6.50952,1.87025-8.52552a2.237,2.237,0,0,0,.1215-.68008c0-.55871-.34007-.838-1.11734-.838-.85009,0-1.77312.328-2.67177,1.89456a2.37943,2.37943,0,0,0-2.56252-1.99168c-2.14963,0-4.54208,2.271-5.59867,5.22216-1.4088,3.947-4.25063,7.76042-8.07619,7.76042-3.47336,0-5.30716-2.8904-5.30716-7.45679,0-6.59451,4.83352-11.97462,8.42832-11.97462,1.71243,0,2.53827,1.093,2.53827,2.769,0,2.02812-1.12948,2.9754-1.12948,3.74049a.51545.51545,0,0,0,.583.47363c1.55448,0,3.40048-1.8338,3.40048-4.33557s-2.02819-4.3235-5.623-4.3235c-5.92656,0-11.90168,5.963-11.90168,13.6141,0,6.08444,2.99972,9.75212,8.19763,9.75212,3.54617,0,6.631-2.75684,8.30688-5.963.19432,2.65964,1.39661,4.05631,3.2426,4.05631,1.63955,0,2.96328-.97159,3.98344-2.69614.38863,1.79743,1.42092,2.67183,2.769,2.67183,1.54236,0,2.82971-.97159,4.05631-2.79328-.02431,1.42092.30364,2.769,1.54236,2.769.583,0,1.27516-.13357,1.39667-.64365,1.29941-5.38,4.51776-9.76424,5.50148-9.76424.29145,0,.37645.27932.37645.60721,0,1.45736-1.03228,4.45707-1.03228,6.36376,0,2.06462.8744,3.43692,2.69614,3.43692,2.016,0,4.05625-2.46533,5.41648-6.06013.42508,3.364,1.348,6.07231,2.79353,6.07231,1.77267,0,4.91827-3.72842,6.82483-7.67542a4.09889,4.09889,0,0,0,2.95109-.69221,10.12244,10.12244,0,0,0-.72877,3.70412c0,3.66767,1.74931,4.68776,3.25485,4.68776,1.63942,0,2.96372-.97153,3.98363-2.69608.33975,1.55449,1.19041,2.67183,2.76921,2.67183A4.984,4.984,0,0,0,350,235.90733C349.976,235.37294,349.74486,235.04505,349.46574,235.04505Zm-51.11671,3.449c-.99584,0-1.38448-1.008-1.38448-2.48963,0-2.599,1.77312-6.92241,3.65555-6.92241.81365,0,1.12941.95941,1.12941,2.14957C301.74951,233.85489,300.06146,238.49409,298.349,238.49409Zm34.06568-7.73611a3.93491,3.93491,0,0,1-.814-2.52608c0-1.05653.389-1.94312.85066-1.94312.461,0,.60688.46151.60688,1.093A12.63452,12.63452,0,0,1,332.41471,230.758Zm7.71148,7.73611c-.99527,0-1.38429-1.15372-1.38429-2.48963,0-2.50177,1.77331-6.92241,3.66787-6.92241.826,0,1.10516.95941,1.10516,2.14957C343.52693,233.85489,341.86287,238.49409,340.12619,238.49409Z" style="fill:#230078"/><path d="M150,213.327h34.83772v34.83771H150Z" style="fill:#ffd02f"/><path d="M173.739,217.972h-3.71893l3.3016,5.11679-6.97988-5.11679h-3.71893l3.3016,6.70481-6.97988-6.70481h-3.71892l3.24716,8.65572-3.24716,16.89193h3.71892l6.97988-18.112-3.30159,18.112h3.71892l6.97988-19.69927-3.3016,19.69927H173.739l7.03432-21.6393Z" style="fill:#050038"/><path d="M207.92882,227.82417a6.84024,6.84024,0,0,1,3.299-.69479c2.20588.07622,3.41762,1.19478,3.46564,3.38936.05367,2.29912.03671,4.57842.0282,6.87468,0,.935-.24574,1.14956-1.16931,1.14956h-1.27951c-.8163,0-1.07049-.24853-1.08745-1.07042v-6.15449c0-.95183-.44911-1.34448-1.41219-1.30491a3.18849,3.18849,0,0,0-.5.048c-1.26249.257-1.336.34737-1.336,1.63533v5.4851c0,1.17217-.20052,1.36983-1.35573,1.36983h-1.27938c-.60162,0-.86711-.28239-.90668-.90376V223.1553c0-1.05917.226-1.28224,1.26821-1.28224h1.12974c.87562,0,1.14391.24568,1.16093,1.12974.0254,1.32468,0,2.64928,0,3.97116A8.4008,8.4008,0,0,0,207.92882,227.82417Z"/><path d="M226.785,233.19355c-.07629.61-.12151,1.39232-.28252,2.155a4.00242,4.00242,0,0,1-3.30183,3.36116,7.97336,7.97336,0,0,1-3.54751-.04529,3.85243,3.85243,0,0,1-3.01087-2.85837,10.11089,10.11089,0,0,1,0-5.63194,4.13187,4.13187,0,0,1,4.20565-3.04206,10.19313,10.19313,0,0,1,2.333.14405,4.18384,4.18384,0,0,1,3.46285,4.05309C226.70871,231.90273,226.7284,232.45627,226.785,233.19355Zm-3.56454.04516c-.03956-.63-.06211-1.05924-.10175-1.48295a3.61733,3.61733,0,0,0-.13554-.65529,1.41226,1.41226,0,0,0-1.49972-1.15515,1.37836,1.37836,0,0,0-1.46034,1.12974,7.91142,7.91142,0,0,0,0,3.86954,1.36981,1.36981,0,0,0,1.50264,1.11,1.34433,1.34433,0,0,0,1.4122-1.08446,16.30334,16.30334,0,0,0,.28251-1.73428h0Z"/><path d="M249.37789,231.48188c.15536-1.18062-.10734-1.54494-1.24553-1.49133a22.11857,22.11857,0,0,0-2.75954.40948c-.77114.13846-1.336-.05647-1.44325-.65516-.17518-.98849-.10734-1.8359.68628-2.07313a10.73247,10.73247,0,0,1,5.68-.28252,3.09819,3.09819,0,0,1,2.54194,3.38936v6.54135c0,.49434,0,1.00278-.58738,1.19485a1.6353,1.6353,0,0,1-1.82746-.50278l-.18076-.26264a5.19448,5.19448,0,0,1-3.54478,1.12974,3.58158,3.58158,0,0,1-3.17189-5.276,3.41707,3.41707,0,0,1,2.86136-1.76528C247.39228,231.688,248.38934,231.59481,249.37789,231.48188Zm.05373,1.92622c-.6751.10169-1.2682.15809-1.84435.28252a1.22578,1.22578,0,0,0-1.06775,1.18907,1.29918,1.29918,0,0,0,.76828,1.463,2.33745,2.33745,0,0,0,2.04207-.384.45479.45479,0,0,0,.08467-.25425c.01708-.74287.01708-1.48295.01708-2.30477h0Z"/><path d="M229.20549,227.52476v-1.46021a.89553.89553,0,0,1,.6751-.97165,18.12708,18.12708,0,0,1,1.754-.49148.81629.81629,0,0,1,1.06769.87276c.01976.62988,0,1.2541,0,1.95455h1.6749c.81629.01982,1.09589.28232,1.12987,1.12974.04516,1.71726-.048,1.81342-1.74552,1.81342h-.98582a4.276,4.276,0,0,0-.05367.46309v3.62392c0,1.12974.339,1.47431,1.43766,1.55339.96314.07063,1.22591.28251,1.22591,1.06769.03385,1.25118-.22046,1.67489-1.22591,1.73422a9.51355,9.51355,0,0,1-2.38671-.12138,2.97827,2.97827,0,0,1-2.57026-3.12107c-.048-1.50829-.01976-3.01945-.02534-4.51923v-.6779h-.98855a.84727.84727,0,0,1-.91227-.77386v-.07629c-.13567-1.15521.07056-1.46307,1.16931-1.77385Z"/><path d="M241.48919,234.54934c0,1.95716.03671,3.91457,0,5.87185a4.08712,4.08712,0,0,1-4.74515,4.01644c-.788-.09883-1.06769-.40948-1.07893-1.22578v-.726c.03391-.68349.2458-.92078.92363-1.04508,1.045-.19474,1.38686-.58752,1.38959-1.68042V228.62916c0-.94345.24021-1.19484,1.1864-1.22577h1.285c.75984.03379,1.045.31065,1.05061,1.07594v6.03311Z"/><path d="M257.2666,228.2026a5.72309,5.72309,0,0,1,3.16629-1.07049c1.12974,0,1.38965.23729,1.38679,1.3558v.50278c0,.72312-.29935.9801-1.00551,1.05353a19.11823,19.11823,0,0,0-1.9771.34743c-.43775.0933-.60447.35873-.596.84735.03379,2.04208,0,4.06719,0,6.09809,0,.997-.2176,1.206-1.22591,1.22577h-1.45456a.75962.75962,0,0,1-.81623-.84722v-9.3944a.75986.75986,0,0,1,.69886-.81617l.00159-.00012h.03385C256.182,227.38636,256.922,227.27623,257.2666,228.2026Z"/><path d="M241.1107,225.41492c.63839-2.29347.40961-3.44868-.71181-3.67187.17232.77958.36432,1.57892-.45464,2.11835-.42943.28245-.76828.17511-1.52811-.40954a3.26373,3.26373,0,0,0-.07063,2.20588,2.733,2.733,0,0,1-2.347-1.69465,2.50239,2.50239,0,0,1,.56484-2.7906,6.94761,6.94761,0,0,1,.84729-.73157,2.24325,2.24325,0,0,0,.8163-3.19729,1.88142,1.88142,0,0,1-.07051-.24288,8.2131,8.2131,0,0,1,3.748,1.59023,3.97149,3.97149,0,0,1-.53658,6.75617A.735.735,0,0,0,241.1107,225.41492Z" style="fill:#ee4854"/></g><rect x="112.5" y="75" width="275" height="200" rx="20" style="fill:none;stroke:#fafafa;stroke-miterlimit:10;opacity:0.25"/></svg>