<svg xmlns="http://www.w3.org/2000/svg" viewBox="0 0 100 97.5"><style>.st0{fill:none}</style><path class="st0" d="M4.2 4.2h91.7v89.2H4.2V4.2zM0 97.5h100V0H0v97.5zm65.5-62.8c0-.3.1-.5.5-.5h6.5c.3 0 .5.1.5.5v32.9c0 .3-.1.5-.5.5H66c-.4 0-.5-.2-.5-.5V34.7zm-.5-9.4c0-2.7 1.9-4.2 4.3-4.2 2.5 0 4.2 1.7 4.2 4.2 0 2.7-1.8 4.2-4.3 4.2-2.4 0-4.2-1.5-4.2-4.2zM46.3 48.5c-1.2-4.6-3.9-14.7-5-19.6h-.1c-.9 4.9-3.1 13.1-4.8 19.6h9.9zm-11.6 6.7l-3.3 12.5c-.1.3-.2.4-.6.4h-6.1c-.4 0-.5-.1-.4-.6l11.8-41.4c.2-.8.3-1.4.4-3.5 0-.3.1-.4.3-.4h8.8c.3 0 .4.1.5.4l13.3 45c.1.3 0 .5-.3.5h-6.9c-.3 0-.5-.1-.6-.4L48 55.2H34.7z"/></svg>