<svg xmlns="http://www.w3.org/2000/svg" viewBox="0 0 84.6 100"><style>.st0{fill:none}</style><path class="st0" d="M6.2 32.3c-3.4 0-6.2 2.8-6.2 6.2v25.8c0 3.4 2.8 6.2 6.2 6.2 3.4 0 6.2-2.8 6.2-6.2V38.5c-.1-3.4-2.8-6.2-6.2-6.2M55.9 9.1l4.3-7.9c.2-.4.1-.9-.3-1.2-.4-.1-.9 0-1.1.4l-4.4 7.9c-3.7-1.6-7.8-2.5-12.1-2.5s-8.4.9-12.1 2.5L25.8.4c-.2-.4-.7-.6-1.2-.3-.4.2-.6.7-.3 1.2l4.3 7.9c-8.5 4.4-14.2 12.7-14.2 22.2H70c.1-9.6-5.6-17.9-14.1-22.3M29.7 21.3c-1.3 0-2.3-1-2.3-2.3 0-1.3 1-2.3 2.3-2.3 1.3 0 2.3 1.1 2.3 2.3 0 1.2-1 2.3-2.3 2.3m25.3 0c-1.3 0-2.3-1-2.3-2.3 0-1.3 1-2.3 2.3-2.3 1.3 0 2.3 1.1 2.3 2.3 0 1.2-1 2.3-2.3 2.3M14.7 33.5v40.1c0 3.6 2.9 6.6 6.6 6.6h4.5v13.7c0 3.4 2.8 6.2 6.2 6.2 3.4 0 6.2-2.8 6.2-6.2V80.2h8.3v13.7c0 3.4 2.8 6.2 6.2 6.2 3.4 0 6.2-2.8 6.2-6.2V80.2h4.5c3.6 0 6.6-2.9 6.6-6.6V33.5H14.7zm69.9 5c0-3.4-2.8-6.2-6.2-6.2-3.4 0-6.2 2.8-6.2 6.2v25.8c0 3.4 2.8 6.2 6.2 6.2 3.4 0 6.2-2.8 6.2-6.2V38.5z"/></svg>