<svg xmlns="http://www.w3.org/2000/svg" viewBox="0 0 600 300"><style>.st0{fill:none}.st1{fill:#464655}.st2{fill:#707384}.st3{fill:#535463}.st4{fill:#7de6c3}.st5{fill:#5fd7b4}.st6{fill:#fff}.st7{fill:#ffcd73}</style><path class="st0" d="M0 0h600v300H0z"/><path class="st1" d="M229.9 83.6c0-2-1.7-3.7-3.7-3.7h-14.8c-2 0-3.7 1.7-3.7 3.7v3.7h22.1v-3.7zm0 0"/><path class="st2" d="M194.7 205c-.2-.3-.3-.6-.5-1 .2.3.4.7.5 1zm0 0M200.2 210.7c-.4-.2-.7-.5-1.1-.7.4.2.8.5 1.1.7zm0 0M196.1 207c-.5-.6-.9-1.2-1.2-1.9.3.7.7 1.4 1.2 1.9zm0 0M207 212.7c-1.7-.1-3.3-.5-4.8-1 1.5.6 3.1.9 4.8 1zm0 0M201.9 211.6c-.3-.1-.7-.3-1-.5.3.1.7.3 1 .5zm0 0M268.9 198h-24.3c0 8.2-6.6 14.8-14.8 14.8h51.8a69.1 69.1 0 0 1-12.7-14.8zm0 0M362.6 212.7h29.7c8.2 0 14.8-6.6 14.8-14.8h-31.7c-3.5 5.6-7.8 10.6-12.8 14.8zm0 0M194 203.3c-.1-.2-.1-.4-.2-.6 0 .2.1.4.2.6zm0 0M196.5 207.6c.5.6 1.1 1.2 1.7 1.7-.6-.5-1.1-1.1-1.7-1.7zm0 0M244.6 109.4h48c8.8-4.7 18.9-7.4 29.5-7.4 10.7 0 20.7 2.7 29.5 7.4H407c0-8.2-6.6-14.8-14.8-14.8h-28.9L358.4 80c-1.5-4.5-5.7-7.6-10.5-7.6h-3.7l-2.3 9.2c-.8 3.3-3.8 5.6-7.2 5.6h-25.4c-3.4 0-6.3-2.3-7.2-5.6l-2.3-9.2h-3.1c-4.8 0-9 3-10.5 7.6l-4.9 14.6h-38.9c1.3 2.2 2 4.7 2 7.4v7.4zm0 0"/><path class="st1" d="M351.7 109.4c19.8 10.6 33.2 31.4 33.2 55.4 0 12.2-3.5 23.6-9.5 33.2H407v-88.6h-55.3zm38.7 20.3c-3.1 0-5.5-2.5-5.5-5.5 0-3.1 2.5-5.5 5.5-5.5 3.1 0 5.5 2.5 5.5 5.5.1 3-2.4 5.5-5.5 5.5zm0 0M244.6 198h24.3c-6-9.6-9.5-21-9.5-33.2 0-24 13.4-44.8 33.2-55.4h-48V198zm0 0"/><path class="st3" d="M375.4 198c6-9.6 9.5-21 9.5-33.2 0-24-13.4-44.8-33.2-55.4-8.8-4.7-18.9-7.4-29.5-7.4-10.7 0-20.7 2.7-29.5 7.4-19.8 10.6-33.2 31.4-33.2 55.4 0 12.2 3.5 23.6 9.5 33.2 3.5 5.6 7.8 10.5 12.8 14.8 10.9 9.2 25 14.8 40.4 14.8 15.4 0 29.5-5.6 40.4-14.8 5-4.3 9.3-9.3 12.8-14.8zm-101.2-33.2c0-26.5 21.5-48 48-48s48 21.5 48 48-21.5 48-48 48c-26.6-.1-48-21.5-48-48zm0 0"/><path class="st1" d="M370.1 164.8c0-26.5-21.5-48-48-48s-48 21.5-48 48 21.5 48 48 48c26.5-.1 48-21.5 48-48zM318 205.1c-.7-.1-1.4-.2-2-.3-2-.3-4-.8-5.9-1.4-4.1-1.3-8-3.2-11.4-5.7-.3-.2-.5-.4-.8-.6-1.6-1.2-3-2.4-4.4-3.8l-.7-.7c-.4-.5-.9-.9-1.3-1.4-.8-1-1.7-2-2.4-3.1-.4-.5-.7-1.1-1.1-1.6-.4-.5-.7-1.1-1-1.7-.3-.6-.6-1.1-.9-1.7-.4-.9-.9-1.8-1.3-2.7-.3-.6-.5-1.2-.7-1.8-1.6-4.4-2.5-9.1-2.5-14s.9-9.6 2.5-14c.2-.6.5-1.2.7-1.8.4-.9.8-1.8 1.3-2.7.3-.6.6-1.2.9-1.7.3-.6.7-1.1 1-1.7.4-.5.7-1.1 1.1-1.6.8-1.1 1.6-2.1 2.4-3.1.4-.5.9-1 1.3-1.4l.7-.7c1.4-1.4 2.9-2.7 4.4-3.8.3-.2.5-.4.8-.6 3.5-2.5 7.3-4.4 11.4-5.7 1.9-.6 3.9-1 5.9-1.4.7-.1 1.3-.2 2-.3 1.4-.1 2.7-.2 4.2-.2 22.4 0 40.6 18.2 40.6 40.6 0 22.4-18.2 40.6-40.6 40.6-1.5.3-2.8.2-4.2 0zm0 0"/><path class="st3" d="M244.6 198v-96c0-2.7-.7-5.2-2-7.4-2.6-4.4-7.3-7.4-12.8-7.4h-22.1c-8.2 0-14.8 6.6-14.8 14.8v3.7h14.8c6.1 0 11.1 5 11.1 11.1v66.4c0 6.1-5 11.1-11.1 11.1H193v3.7c0 1.7.3 3.3.8 4.7.1.2.1.4.2.6.1.2.2.5.3.7.1.3.3.7.5 1 0 .1.1.1.1.2.4.7.8 1.3 1.2 1.9.1.2.3.4.4.5.5.6 1.1 1.2 1.7 1.7.3.2.6.5.9.7.4.3.7.5 1.1.7.2.1.4.3.7.4.3.2.7.3 1 .5.1 0 .2.1.3.1 1.5.6 3.1 1 4.8 1H229.9c8.1 0 14.7-6.6 14.7-14.7zm0 0"/><path class="st1" d="M218.8 183.2v-66.4c0-6.1-5-11.1-11.1-11.1H193v88.6h14.8c6.1 0 11-5 11-11.1zm0 0"/><path class="st4" d="M362.7 164.8c0-22.4-18.2-40.6-40.6-40.6 3.2 0 6.3.4 9.2 1.1-18 4.2-31.4 20.3-31.4 39.5s13.4 35.3 31.4 39.5c-3 .7-6 1.1-9.2 1.1 22.5 0 40.6-18.2 40.6-40.6zm-55.3 0c0-8.2 6.6-14.8 14.8-14.8 0-6.1 5-11.1 11.1-11.1s11.1 5 11.1 11.1c0 5-3.4 9.3-8 10.6.4 1.3.6 2.7.6 4.1 0 8.2-6.6 14.8-14.8 14.8-8.2 0-14.8-6.6-14.8-14.7zm0 0"/><path class="st5" d="M300 164.8c0-19.2 13.4-35.3 31.4-39.5-3-.7-6-1.1-9.2-1.1-1.4 0-2.8.1-4.2.2-.7.1-1.4.2-2 .3-2 .3-4 .8-5.9 1.4-4.1 1.3-8 3.2-11.4 5.7-.3.2-.5.4-.8.6-1.6 1.2-3 2.4-4.4 3.8l-.7.7c-.4.5-.9.9-1.3 1.4-.9 1-1.7 2-2.4 3.1-.4.5-.7 1.1-1.1 1.6-.4.5-.7 1.1-1 1.7-.3.6-.6 1.1-.9 1.7-.4.9-.9 1.8-1.3 2.7-.3.6-.5 1.2-.7 1.8-1.6 4.4-2.5 9.1-2.5 14s.9 9.6 2.5 14c.2.6.5 1.2.7 1.8.4.9.8 1.8 1.3 2.7.3.6.6 1.2.9 1.7.3.6.7 1.1 1 1.7.4.5.7 1.1 1.1 1.6.8 1.1 1.6 2.1 2.4 3.1.4.5.9 1 1.3 1.4l.7.7c1.4 1.4 2.9 2.7 4.4 3.8.3.2.5.4.8.6 3.5 2.5 7.3 4.4 11.4 5.7 1.9.6 3.9 1 5.9 1.4.7.1 1.3.2 2 .3 1.4.1 2.7.2 4.2.2 3.2 0 6.3-.4 9.2-1.1-18-4.4-31.4-20.5-31.4-39.7zm0 0"/><path class="st5" d="M336.9 164.8c0-1.4-.2-2.8-.6-4.1-1 .3-2 .4-3.1.4-6.1 0-11.1-5-11.1-11.1-8.2 0-14.8 6.6-14.8 14.8 0 8.2 6.6 14.8 14.8 14.8 8.2-.1 14.8-6.7 14.8-14.8zm-19.4 5.5c-2.5 0-4.6-2.1-4.6-4.6 0-2.5 2.1-4.6 4.6-4.6s4.6 2.1 4.6 4.6c0 2.5-2 4.6-4.6 4.6zm0 0"/><path class="st6" d="M333.2 161.1c1.1 0 2.1-.2 3.1-.4 4.6-1.3 8-5.6 8-10.6 0-6.1-5-11.1-11.1-11.1s-11.1 5-11.1 11.1c0 6 5 11 11.1 11zm0 0M322.1 165.7c0 2.5-2.1 4.6-4.6 4.6s-4.6-2.1-4.6-4.6 2.1-4.6 4.6-4.6 4.6 2 4.6 4.6zm0 0"/><path class="st7" d="M396 124.2c0 3.1-2.5 5.5-5.5 5.5-3.1 0-5.5-2.5-5.5-5.5 0-3.1 2.5-5.5 5.5-5.5 3-.1 5.5 2.4 5.5 5.5zm0 0"/><path class="st3" d="M309.5 87.3h25.4c3.4 0 6.3-2.3 7.2-5.6l2.3-9.2H300l2.3 9.2c.8 3.3 3.8 5.6 7.2 5.6zm0 0"/></svg>