<svg xmlns="http://www.w3.org/2000/svg" viewBox="0 0 133.4 100"><style>.st0{fill:none}</style><path class="st0" d="M114.8 57.4c-4.7 0-8.7 1.1-12.1 2.8-1.3-2.5-2.5-4.6-2.7-6.3-.2-1.9-.5-3-.2-5.3.3-2.2 1.6-5.4 1.6-5.7 0-.2-.3-1.4-3-1.4s-5 .5-5.3 1.2c-.3.7-.8 2.3-1.1 4-.5 2.4-5.4 11.1-8.2 15.7-.9-1.8-1.7-3.3-1.9-4.6-.2-1.9-.5-3-.2-5.3.3-2.2 1.6-5.4 1.6-5.7 0-.2-.3-1.4-3-1.4s-5 .5-5.3 1.2c-.3.7-.5 2.4-1.1 4-.5 1.6-7.1 16.1-8.8 19.9-.9 1.9-1.6 3.5-2.2 4.5-.5 1 0 .1-.1.2-.5.9-.7 1.4-.7 1.4-.4.7-.8 1.3-.9 1.3-.1 0-.4-1.7.1-4.1 1-5 3.3-12.9 3.3-13.2 0-.1.4-1.5-1.5-2.2-1.9-.7-2.6.5-2.7.5-.2 0-.3.4-.3.4s2.1-8.8-4-8.8c-3.9 0-9.2 4.2-11.8 8-1.7.9-5.2 2.8-9 4.9-1.4.8-2.9 1.6-4.3 2.4l-.3-.3C23.3 57.6 9.5 52 10.1 41.3c.2-3.9 1.6-14.1 26.5-26.5C57 4.6 73.3 7.4 76.1 13.6c4 8.9-8.7 25.3-29.9 27.7-8.1.9-12.3-2.2-13.4-3.4-1.1-1.2-1.3-1.3-1.7-1-.7.4-.3 1.5 0 2.1.6 1.6 3.2 4.6 7.7 6 3.9 1.3 13.4 2 24.8-2.4 12.8-5 22.9-18.8 19.9-30.3C80.5.5 61-3.3 42.6 3.2c-11 3.9-22.9 10-31.4 18C1.1 30.7-.5 38.9.1 42.4c2.4 12.3 19.3 20.3 26.1 26.2-.3.2-.7.4-.9.5C21.9 70.8 9 77.5 5.7 84.7c-3.6 8.1.6 13.9 3.4 14.7 8.7 2.4 17.6-1.9 22.4-9.1 4.8-7.2 4.2-16.5 2-20.7l-.1-.2 2.7-1.6c1.7-1 3.4-2 4.9-2.8-.8 2.3-1.4 5-1.7 8.9-.4 4.6 1.5 10.5 4 12.9 1.1 1 2.4 1 3.2 1 2.9 0 4.2-2.4 5.6-5.2 1.8-3.5 3.3-7.5 3.3-7.5S53.5 86 58.8 86c2 0 3.9-2.5 4.8-3.8 0 0 .1-.1.2-.3.2-.3.3-.5.3-.5v-.1c.8-1.4 2.5-4.5 5.1-9.6 3.4-6.6 6.6-14.9 6.6-14.9s.3 2 1.3 5.4c.6 2 1.8 4.1 2.8 6.3-.8 1.1-1.3 1.7-1.3 1.7-.6.8-1.3 1.7-2.1 2.6-2.7 3.2-5.8 6.8-6.3 7.8-.5 1.2-.4 2.1.6 2.9.7.5 2 .6 3.3.5 2.4-.2 4.1-.8 4.9-1.1 1.3-.5 2.8-1.2 4.2-2.2 2.6-1.9 4.2-4.7 4-8.3-.1-2-.7-4-1.5-5.9.2-.3.5-.7.7-1 4.1-6 7.3-12.6 7.3-12.6s.3 2 1.3 5.4c.5 1.7 1.5 3.5 2.4 5.4-3.9 3.2-6.3 6.8-7.1 9.2-1.5 4.4-.3 6.4 1.9 6.9 1 .2 2.5-.3 3.6-.7 1.4-.4 3-1.2 4.5-2.3 2.6-1.9 5.1-4.6 5-8.2-.1-1.7-.5-3.3-1.1-4.9 3.3-1.4 7.5-2.1 12.9-1.5 11.6 1.4 13.9 8.6 13.4 11.6-.4 3-2.9 4.7-3.7 5.2-.8.5-1.1.7-1 1 .1.5.5.5 1.2.4 1-.2 6.1-2.5 6.3-8.1.4-7.1-6.4-15-18.5-14.9zM25.4 87.6c-3.8 4.2-9.2 5.8-11.5 4.4-2.5-1.4-1.5-7.6 3.2-12.1 2.9-2.7 6.6-5.2 9-6.7.5-.3 1.4-.8 2.4-1.4.2-.1.3-.2.3-.2.2-.1.4-.2.6-.4 1.7 6.4.1 12-4 16.4zm28-19.1c-1.3 3.3-4.1 11.6-5.8 11.2-1.5-.4-2.3-6.7-.3-13 1-3.2 3.3-6.9 4.6-8.4 2.1-2.3 4.4-3.1 5-2.2.6 1.3-2.6 10.4-3.5 12.4zm23.1 11.1c-.6.3-1.1.5-1.3.3-.2-.1.2-.5.2-.5s2.9-3.1 4-4.5c.7-.8 1.4-1.8 2.3-2.9v.3c.1 3.8-3.5 6.3-5.2 7.3zm17.9-4.1c-.4-.3-.4-1.3 1-4.3.5-1.2 1.8-3.2 4-5.1.3.8.4 1.5.4 2.2-.1 4.7-3.4 6.5-5.4 7.2z"/></svg>