<?xml version="1.0" encoding="utf-8"?>
<!-- Generator: Adobe Illustrator 26.0.3, SVG Export Plug-In . SVG Version: 6.00 Build 0)  -->
<svg version="1.1" id="Layer_1" xmlns="http://www.w3.org/2000/svg" xmlns:xlink="http://www.w3.org/1999/xlink" x="0px" y="0px"
	 viewBox="0 0 2135.6 500" enable-background="new 0 0 2135.6 500" xml:space="preserve">
<g>
	<g>
		<path fill="#FAFAFA" d="M623.9,136.8c0-17.6,9.8-26.4,29.4-26.4c19.6,0,29.4,8.8,29.4,26.4c0,8.4-2.5,14.9-7.4,19.6
			c-4.9,4.7-12.3,7-22.1,7C633.7,163.3,623.9,154.5,623.9,136.8z M680.2,386.1h-54.1V188h54.1V386.1z"/>
		<path fill="#FAFAFA" d="M862.8,386.1l-10.5-26.9h-1.4c-9.1,11.5-18.5,19.4-28.1,23.8s-22.2,6.6-37.7,6.6c-19,0-34-5.4-44.9-16.3
			s-16.4-26.3-16.4-46.4c0-21,7.4-36.5,22.1-46.5c14.7-10,36.9-15.5,66.5-16.6l34.4-1.1V254c0-20.1-10.3-30.1-30.8-30.1
			c-15.8,0-34.4,4.8-55.8,14.4l-17.9-36.5c22.8-11.9,48.1-17.9,75.9-17.9c26.6,0,47,5.8,61.1,17.4c14.2,11.6,21.3,29.2,21.3,52.8
			v132L862.8,386.1L862.8,386.1z M846.8,294.3l-20.9,0.7c-15.7,0.5-27.4,3.3-35.1,8.5c-7.7,5.2-11.5,13.1-11.5,23.7
			c0,15.2,8.7,22.9,26.2,22.9c12.5,0,22.5-3.6,30-10.8c7.5-7.2,11.3-16.8,11.3-28.7V294.3z"/>
		<path fill="#FAFAFA" d="M1133.6,386.1h-54.1V270.4c0-14.3-2.4-25-7.2-32.2c-4.8-7.1-12.3-10.7-22.6-10.7
			c-13.8,0-23.9,5.1-30.1,15.2c-6.3,10.2-9.4,26.9-9.4,50.2v93.2h-54.1V188h41.3l7.3,25.3h3c5.3-9.1,13-16.2,23-21.4
			c10-5.1,21.6-7.7,34.6-7.7c29.7,0,49.7,9.7,60.3,29.1h4.8c5.3-9.2,13.1-16.4,23.5-21.4c10.3-5.1,22-7.6,35-7.6
			c22.4,0,39.4,5.8,50.9,17.3s17.3,30,17.3,55.4v129.2h-54.2V270.4c0-14.3-2.4-25-7.2-32.2c-4.8-7.1-12.3-10.7-22.6-10.7
			c-13.2,0-23.1,4.7-29.7,14.2s-9.8,24.5-9.8,45L1133.6,386.1L1133.6,386.1z"/>
		<path fill="#FAFAFA" d="M1393,389.7c-61.7,0-92.5-33.8-92.5-101.5c0-33.7,8.4-59.4,25.2-77.2c16.8-17.8,40.8-26.7,72.1-26.7
			c22.9,0,43.5,4.5,61.7,13.5l-15.9,41.8c-8.5-3.4-16.4-6.2-23.7-8.4c-7.3-2.2-14.7-3.3-22-3.3c-28.1,0-42.2,20-42.2,59.9
			c0,38.8,14.1,58.1,42.2,58.1c10.4,0,20-1.4,28.9-4.2c8.9-2.8,17.7-7.1,26.6-13V375c-8.7,5.6-17.6,9.4-26.5,11.5
			C1417.9,388.6,1406.6,389.7,1393,389.7z"/>
		<path fill="#FAFAFA" d="M1679.2,286.7c0,32.3-8.5,57.5-25.5,75.7s-40.7,27.3-71.1,27.3c-19,0-35.8-4.2-50.3-12.5
			s-25.7-20.3-33.5-35.9s-11.7-33.8-11.7-54.6c0-32.4,8.4-57.5,25.3-75.5s40.6-26.9,71.2-26.9c19,0,35.8,4.1,50.3,12.4
			c14.5,8.3,25.7,20.1,33.5,35.6C1675.3,247.8,1679.2,265.9,1679.2,286.7z M1542.2,286.7c0,19.6,3.2,34.4,9.7,44.5
			c6.4,10,16.9,15.1,31.5,15.1c14.4,0,24.8-5,31.1-15c6.3-10,9.5-24.8,9.5-44.6c0-19.6-3.2-34.3-9.6-44.1s-16.8-14.7-31.4-14.7
			c-14.4,0-24.8,4.9-31.2,14.6C1545.4,252.2,1542.2,267,1542.2,286.7z"/>
		<path fill="#FAFAFA" d="M1777.9,386.1h-54.1V110.3h54.1V386.1z"/>
		<path fill="#FAFAFA" d="M2012,386.1h-54V270.4c0-14.3-2.4-25-7.2-32.2c-4.8-7.1-12.3-10.7-22.6-10.7c-13.8,0-23.9,5.1-30.1,15.2
			c-6.3,10.2-9.4,26.9-9.4,50.2v93.2h-54.1V188h41.3l7.3,25.3h3c5.3-9.1,13-16.2,23-21.4c10-5.1,21.6-7.7,34.6-7.7
			c29.7,0,49.7,9.7,60.2,29.1h4.8c5.3-9.2,13.1-16.4,23.5-21.4c10.3-5.1,22-7.6,35-7.6c22.4,0,39.4,5.8,51,17.3
			c11.5,11.5,17.3,30,17.3,55.4v129.2h-54.2V270.4c0-14.3-2.4-25-7.2-32.2c-4.8-7.1-12.3-10.7-22.6-10.7c-13.2,0-23.1,4.7-29.7,14.2
			s-9.8,24.5-9.8,45v99.4H2012z"/>
	</g>
	<path fill="#FAFAFA" d="M0,0v500h500V0H0z M270,420H80V230h40v150h150V420z M420,420h-40V270H230V120H80V80h190v150h150V420z"/>
</g>
</svg>
