<svg xmlns="http://www.w3.org/2000/svg" viewBox="0 0 600 300"><style type="text/css">  
	.st0{fill:none;}
	.st1{fill:#78AAC3;}
	.st2{fill:#FFFFFF;}
	.st3{fill:#E4EAF6;}
	.st4{fill:#BEC8DC;}
	.st5{fill:#707384;}
	.st6{fill:#5F8CAF;}
	.st7{fill:#464655;}
	.st8{fill:#FFF0BE;}
	.st9{fill:#FFDC9B;}
</style><rect class="st0" width="600" height="300"/><path class="st1" d="M236.6 220.5h-31.7V93.6H293v-7h-88.1c-3.9 0-7 3.2-7 7v126.8c0 3.9 3.2 7 7 7H293v-7H236.6zM236.6 220.5"/><path class="st1" d="M395.1 86.6h-49.3v7h49.3v126.8H307v7h88.1c3.9 0 7-3.2 7-7V93.6C402.2 89.7 399 86.6 395.1 86.6L395.1 86.6zM395.1 86.6"/><path class="st1" d="M317.6 93.6h14.1v-7H307v7H317.6zM317.6 93.6"/><path class="st2" d="M249.6 167.6h5.6l-12.5-12.5c-0.9 1-1.7 2.1-2.3 3.2L249.6 167.6zM249.6 167.6"/><path class="st2" d="M257.7 165.1v-5.6l-9.3-9.3c-1.1 0.7-2.2 1.5-3.2 2.3L257.7 165.1zM257.7 165.1"/><path class="st2" d="M238.7 161.7c-0.8 1.9-1.3 3.9-1.5 5.9h7.5L238.7 161.7zM238.7 161.7"/><path class="st2" d="M293 93.6h-56.4v29.9h22.9c1 0 1.8 0.8 1.8 1.8v18.1c14.6 0.4 26.4 12.4 26.4 27.1 0 14.9-12.1 27.1-27.1 27.1 -10.4 0-19.5-5.9-24-14.6v37.5h59.9V93.6H293zM293 93.6"/><path class="st2" d="M257.7 143.5v-16.4h-21.1V158C240.7 150.1 248.5 144.5 257.7 143.5L257.7 143.5zM257.7 143.5"/><path class="st2" d="M261.2 169.4c0 0.1 0 0.2 0 0.3 0 0.1 0 0.1 0 0.2 0 0.1 0 0.1-0.1 0.2 0 0.1-0.1 0.1-0.1 0.2 0 0 0 0.1-0.1 0.1 -0.1 0.2-0.3 0.4-0.5 0.5 0 0-0.1 0-0.1 0.1 -0.1 0-0.1 0.1-0.2 0.1 -0.1 0-0.1 0-0.2 0.1 -0.1 0-0.1 0-0.2 0 -0.1 0-0.2 0-0.3 0H237c0.4 12.7 10.8 22.9 23.5 22.9 13 0 23.6-10.6 23.6-23.6 0-12.8-10.2-23.2-22.9-23.5V169.4zM261.2 169.4"/><path class="st2" d="M257.7 154.6v-7.5c-2.1 0.3-4.1 0.8-5.9 1.5L257.7 154.6zM257.7 154.6"/><path class="st2" d="M374 121.8c1.9 0 3.5 1.6 3.5 3.5 0 1.9-1.6 3.5-3.5 3.5h-28.2V150h3.5c1.9 0 3.5 1.6 3.5 3.5 0 1.9-1.6 3.5-3.5 3.5h-3.5v7H374c1.9 0 3.5 1.6 3.5 3.5 0 1.9-1.6 3.5-3.5 3.5h-28.2v7l-7 17.6 -7-17.6v-7h-7c-1.9 0-3.5-1.6-3.5-3.5 0-1.9 1.6-3.5 3.5-3.5h7v-7h-7c-1.9 0-3.5-1.6-3.5-3.5 0-1.9 1.6-3.5 3.5-3.5h7v-7h-7c-1.9 0-3.5-1.6-3.5-3.5 0-1.9 1.6-3.5 3.5-3.5h7v-7h-7c-1.9 0-3.5-1.6-3.5-3.5 0-1.9 1.6-3.5 3.5-3.5h7v-7h-7c-1.9 0-3.5-1.6-3.5-3.5 0-1.9 1.6-3.5 3.5-3.5h7V93.6h-14.1v126.8h77.5V93.6h-49.3v28.2H374zM352.8 139.4c0-1.9 1.6-3.5 3.5-3.5H374c1.9 0 3.5 1.6 3.5 3.5 0 1.9-1.6 3.5-3.5 3.5h-17.6C354.4 143 352.8 141.4 352.8 139.4L352.8 139.4zM374 157h-10.6c-1.9 0-3.5-1.6-3.5-3.5 0-1.9 1.6-3.5 3.5-3.5H374c1.9 0 3.5 1.6 3.5 3.5C377.5 155.5 375.9 157 374 157L374 157zM374 185.2h-17.6c-1.9 0-3.5-1.6-3.5-3.5 0-1.9 1.6-3.5 3.5-3.5H374c1.9 0 3.5 1.6 3.5 3.5C377.5 183.7 375.9 185.2 374 185.2L374 185.2zM356.4 107.7H374c1.9 0 3.5 1.6 3.5 3.5 0 1.9-1.6 3.5-3.5 3.5h-17.6c-1.9 0-3.5-1.6-3.5-3.5C352.8 109.3 354.4 107.7 356.4 107.7L356.4 107.7zM356.4 107.7"/><path class="st3" d="M307 93.6h-3.5v126.8h14.1V93.6H307zM307 93.6"/><path class="st3" d="M233.5 171.1h-18.1c-1 0-1.8-0.8-1.8-1.8v-44c0-1 0.8-1.8 1.8-1.8h21.1V93.6h-31.7v126.8h31.7V183C234.7 179.4 233.6 175.4 233.5 171.1L233.5 171.1zM233.5 171.1"/><path class="st3" d="M236.6 158v-30.8h-19.4v40.5h16.4C234 164.2 235 160.9 236.6 158L236.6 158zM236.6 158"/><path class="st4" d="M300 93.6h-3.5v126.8h7V93.6H300zM300 93.6"/><path class="st5" d="M213.7 125.3v44c0 1 0.8 1.8 1.8 1.8h18.1c0.1 4.3 1.2 8.3 3.1 11.9 4.5 8.6 13.6 14.6 24 14.6 14.9 0 27.1-12.1 27.1-27.1 0-14.7-11.8-26.7-26.4-27.1v-18.1c0-1-0.8-1.8-1.8-1.8h-44C214.5 123.6 213.7 124.4 213.7 125.3L213.7 125.3zM257.7 154.6l-5.9-5.9c1.9-0.8 3.9-1.3 5.9-1.5V154.6zM248.5 150.3l9.3 9.3v5.6l-12.5-12.5C246.2 151.8 247.3 151 248.5 150.3L248.5 150.3zM242.7 155.1l12.5 12.5h-5.6l-9.3-9.3C241.1 157.2 241.9 156.1 242.7 155.1L242.7 155.1zM238.7 161.7l5.9 5.9h-7.5C237.5 165.5 238 163.6 238.7 161.7L238.7 161.7zM284.1 170.5c0 13-10.6 23.6-23.6 23.6 -12.8 0-23.2-10.2-23.5-22.9h22.4c0.1 0 0.2 0 0.3 0 0.1 0 0.1 0 0.2 0 0.1 0 0.1 0 0.2-0.1 0.1 0 0.1-0.1 0.2-0.1 0 0 0.1 0 0.1-0.1 0.2-0.1 0.4-0.3 0.5-0.5 0 0 0-0.1 0.1-0.1 0-0.1 0.1-0.1 0.1-0.2 0-0.1 0-0.1 0.1-0.2 0-0.1 0-0.1 0-0.2 0-0.1 0-0.2 0-0.3v-22.4C273.9 147.3 284.1 157.7 284.1 170.5L284.1 170.5zM217.2 127.1h40.5v16.4c-9.2 1-17 6.6-21.1 14.4 -1.5 2.9-2.6 6.2-2.9 9.7h-16.4V127.1zM217.2 127.1"/><path class="st6" d="M296.5 93.6H307v-7H293v7H296.5zM296.5 93.6"/><path class="st6" d="M303.5 220.5H293v7H307v-7H303.5zM303.5 220.5"/><path class="st4" d="M356.4 114.8H374c1.9 0 3.5-1.6 3.5-3.5 0-1.9-1.6-3.5-3.5-3.5h-17.6c-1.9 0-3.5 1.6-3.5 3.5C352.8 113.2 354.4 114.8 356.4 114.8L356.4 114.8zM356.4 114.8"/><path class="st4" d="M321.1 111.3c0 1.9 1.6 3.5 3.5 3.5h7v-7h-7C322.7 107.7 321.1 109.3 321.1 111.3L321.1 111.3zM321.1 111.3"/><path class="st4" d="M321.1 125.3c0 1.9 1.6 3.5 3.5 3.5h7v-7h-7C322.7 121.8 321.1 123.4 321.1 125.3L321.1 125.3zM321.1 125.3"/><path class="st4" d="M377.5 125.3c0-1.9-1.6-3.5-3.5-3.5h-28.2v7H374C375.9 128.9 377.5 127.3 377.5 125.3L377.5 125.3zM377.5 125.3"/><path class="st4" d="M321.1 167.6c0 1.9 1.6 3.5 3.5 3.5h7v-7h-7C322.7 164.1 321.1 165.7 321.1 167.6L321.1 167.6zM321.1 167.6"/><path class="st4" d="M377.5 167.6c0-1.9-1.6-3.5-3.5-3.5h-28.2v7H374C375.9 171.1 377.5 169.6 377.5 167.6L377.5 167.6zM377.5 167.6"/><path class="st4" d="M321.1 139.4c0 1.9 1.6 3.5 3.5 3.5h7v-7h-7C322.7 135.9 321.1 137.5 321.1 139.4L321.1 139.4zM321.1 139.4"/><path class="st4" d="M377.5 139.4c0-1.9-1.6-3.5-3.5-3.5h-17.6c-1.9 0-3.5 1.6-3.5 3.5 0 1.9 1.6 3.5 3.5 3.5H374C375.9 143 377.5 141.4 377.5 139.4L377.5 139.4zM377.5 139.4"/><path class="st4" d="M321.1 153.5c0 1.9 1.6 3.5 3.5 3.5h7v-7h-7C322.7 150 321.1 151.6 321.1 153.5L321.1 153.5zM321.1 153.5"/><path class="st4" d="M352.8 153.5c0-1.9-1.6-3.5-3.5-3.5h-3.5v7h3.5C351.3 157 352.8 155.5 352.8 153.5L352.8 153.5zM352.8 153.5"/><path class="st4" d="M374 150h-10.6c-1.9 0-3.5 1.6-3.5 3.5 0 1.9 1.6 3.5 3.5 3.5H374c1.9 0 3.5-1.6 3.5-3.5C377.5 151.6 375.9 150 374 150L374 150zM374 150"/><path class="st4" d="M374 178.2h-17.6c-1.9 0-3.5 1.6-3.5 3.5 0 1.9 1.6 3.5 3.5 3.5H374c1.9 0 3.5-1.6 3.5-3.5C377.5 179.8 375.9 178.2 374 178.2L374 178.2zM374 178.2"/><rect x="338.7" y="79.5" class="st5" width="7" height="98.6"/><path class="st7" d="M331.7 107.7v70.5h7V79.5h-7V107.7zM331.7 107.7"/><path class="st8" d="M341.6 188.7l-2.8 7 7-17.6h-7v10.6H341.6zM341.6 188.7"/><path class="st9" d="M335.9 188.7h2.8v-10.6h-7l7 17.6L335.9 188.7zM335.9 188.7"/><path class="st7" d="M338.7 188.7h-2.8l2.8 7 2.8-7H338.7zM338.7 188.7"/><path class="st9" d="M345.7 75.1c0 0.2 0.1 0.3 0.1 0.5C345.8 75.5 345.7 75.3 345.7 75.1L345.7 75.1zM345.7 75.1"/><path class="st9" d="M345.6 74.9c-0.3-1-1.1-1.8-2.2-2.2C344.5 73.1 345.3 73.9 345.6 74.9L345.6 74.9zM345.6 74.9"/><path class="st9" d="M338.7 72.5h-3.5c-1.9 0-3.5 1.6-3.5 3.5v3.5h7V72.5zM338.7 72.5"/><path class="st8" d="M345.8 79.5V76c0-0.1 0-0.2 0-0.4 0-0.2-0.1-0.4-0.1-0.5 0-0.1 0-0.2-0.1-0.2 -0.3-1-1.1-1.8-2.2-2.2 -0.4-0.1-0.8-0.2-1.2-0.2h-3.5v7H345.8zM345.8 79.5"/></svg>