<svg xmlns="http://www.w3.org/2000/svg" viewBox="0 0 100 97.5"><style type="text/css">  
	.st0{fill:none;}
</style><path class="st0" d="M4.2 4.2h91.7v89.2H4.2V4.2zM0 97.5h100V0H0V97.5zM65.5 34.7c0-0.3 0.1-0.5 0.5-0.5h6.5c0.3 0 0.5 0.1 0.5 0.5v32.9c0 0.3-0.1 0.5-0.5 0.5h-6.5c-0.4 0-0.5-0.2-0.5-0.5L65.5 34.7 65.5 34.7zM65 25.3c0-2.7 1.9-4.2 4.3-4.2 2.5 0 4.2 1.7 4.2 4.2 0 2.7-1.8 4.2-4.3 4.2C66.8 29.5 65 28 65 25.3zM46.3 48.5c-1.2-4.6-3.9-14.7-5-19.6h-0.1c-0.9 4.9-3.1 13.1-4.8 19.6H46.3zM34.7 55.2l-3.3 12.5c-0.1 0.3-0.2 0.4-0.6 0.4h-6.1c-0.4 0-0.5-0.1-0.4-0.6l11.8-41.4c0.2-0.8 0.3-1.4 0.4-3.5 0-0.3 0.1-0.4 0.3-0.4h8.8c0.3 0 0.4 0.1 0.5 0.4l13.3 45c0.1 0.3 0 0.5-0.3 0.5h-6.9c-0.3 0-0.5-0.1-0.6-0.4L48 55.2H34.7z"/></svg>