<svg xmlns="http://www.w3.org/2000/svg" viewBox="0 0 84.6 100"><style type="text/css">  
	.st0{fill:none;}
</style><path class="st0" d="M6.2 32.3c-3.4 0-6.2 2.8-6.2 6.2l0 25.8c0 3.4 2.8 6.2 6.2 6.2 3.4 0 6.2-2.8 6.2-6.2l0-25.8C12.3 35.1 9.6 32.3 6.2 32.3M55.9 9.1l4.3-7.9c0.2-0.4 0.1-0.9-0.3-1.2C59.5-0.1 59 0 58.8 0.4l-4.4 7.9c-3.7-1.6-7.8-2.5-12.1-2.5 -4.3 0-8.4 0.9-12.1 2.5l-4.4-7.9c-0.2-0.4-0.7-0.6-1.2-0.3 -0.4 0.2-0.6 0.7-0.3 1.2l4.3 7.9c-8.5 4.4-14.2 12.7-14.2 22.2l55.6 0C70.1 21.8 64.4 13.5 55.9 9.1M29.7 21.3c-1.3 0-2.3-1-2.3-2.3 0-1.3 1-2.3 2.3-2.3 1.3 0 2.3 1.1 2.3 2.3C32 20.2 31 21.3 29.7 21.3M55 21.3c-1.3 0-2.3-1-2.3-2.3 0-1.3 1-2.3 2.3-2.3 1.3 0 2.3 1.1 2.3 2.3C57.3 20.2 56.3 21.3 55 21.3M14.7 33.5l0 40.1c0 3.6 2.9 6.6 6.6 6.6l4.5 0 0 13.7c0 3.4 2.8 6.2 6.2 6.2 3.4 0 6.2-2.8 6.2-6.2l0-13.7 8.3 0 0 13.7c0 3.4 2.8 6.2 6.2 6.2 3.4 0 6.2-2.8 6.2-6.2l0-13.7 4.5 0c3.6 0 6.6-2.9 6.6-6.6l0-40.1L14.7 33.5zM84.6 38.5c0-3.4-2.8-6.2-6.2-6.2 -3.4 0-6.2 2.8-6.2 6.2l0 25.8c0 3.4 2.8 6.2 6.2 6.2 3.4 0 6.2-2.8 6.2-6.2L84.6 38.5z"/></svg>