<svg xmlns="http://www.w3.org/2000/svg" viewBox="0 0 71.4 100"><style type="text/css">  
	.st0{fill:none;}
</style><path class="st0" d="M0 19.7l6.7 72.5 29 7.8 29-7.8 6.7-72.5H0zM57 43.2l-21.3 9.1h20.6l-2.4 27.2 -18.2 5.3 -18.3-5.4 -1.2-13.7h9.1l0.6 7.1c0 0 9.7 2.5 9.7 2.5 0 0 10.1-2.9 10.1-2.9L46.4 61l-30.8-0.1 -0.7-8.6 21.9-9.1H14.1L13 34.4h44.9L57 43.2zM19.2 9V4.7h6.3V0h-11v13.3h11V9H19.2zM36.9 4.7h4.4V0h-11v4.7c1.5 1.5 2.2 2.2 4.4 4.3 -1.2 0-4.4 0-4.4 0v4.3h11V9L36.9 4.7zM52.5 4.7h4.4V0h-11v4.7c1.5 1.5 2.2 2.2 4.4 4.3 -1.2 0-4.4 0-4.4 0v4.3h11V9L52.5 4.7z"/></svg>