<svg xmlns="http://www.w3.org/2000/svg" viewBox="0 0 600 300"><style type="text/css">  
	.st0{fill:#464655;}
	.st1{fill:#FFFFFF;}
	.st2{fill:#BEC8DC;}
	.st3{fill:#AFBBD0;}
	.st4{fill:#96A5B9;}
	.st5{fill:#66BEFF;}
	.st6{fill:#04A573;}
	.st7{fill:#FFF5F6;}
	.st8{fill:#DEE3ED;}
	.st9{fill:#FFDC69;}
	.st10{fill:#B4E173;}
	.st11{fill:#FF969B;}
	.st12{fill:#A0DCF0;}
	.st13{fill:none;}
</style><path class="st0" d="M385.9 72H214.1c-3.5 0-6.4 2.9-6.4 6.4v101.9h184.6V78.4C392.3 74.9 389.5 72 385.9 72L385.9 72zM382.8 100.7v70H217.2V81.6h165.5V100.7zM382.8 100.7"/><path class="st1" d="M218.1 170.5h165.5v-70H218.1V170.5zM348.6 116.4v-3.2c0-1.8 1.4-3.2 3.2-3.2h19.1c1.8 0 3.2 1.4 3.2 3.2v44.6c0 1.8-1.4 3.2-3.2 3.2h-19.1c-1.8 0-3.2-1.4-3.2-3.2V116.4zM313.6 116.4v-3.2c0-1.8 1.4-3.2 3.2-3.2h19.1c1.8 0 3.2 1.4 3.2 3.2v44.6c0 1.8-1.4 3.2-3.2 3.2h-19.1c-1.8 0-3.2-1.4-3.2-3.2V116.4zM278.6 116.4v-3.2c0-1.8 1.4-3.2 3.2-3.2h19.1c1.8 0 3.2 1.4 3.2 3.2v44.6c0 1.8-1.4 3.2-3.2 3.2h-19.1c-1.8 0-3.2-1.4-3.2-3.2L278.6 116.4 278.6 116.4zM227.7 116.4v-3.2c0-1.8 1.4-3.2 3.2-3.2h35c1.8 0 3.2 1.4 3.2 3.2v44.6c0 1.8-1.4 3.2-3.2 3.2h-35c-1.8 0-3.2-1.4-3.2-3.2V116.4zM227.7 116.4"/><path class="st2" d="M207.7 193c0 3.5 2.9 6.4 6.4 6.4h171.9c3.5 0 6.4-2.8 6.4-6.4v-12.7H207.7V193zM300 185c2.6 0 4.8 2.1 4.8 4.8 0 2.6-2.1 4.8-4.8 4.8 -2.6 0-4.8-2.1-4.8-4.8C295.2 187.1 297.4 185 300 185L300 185zM300 185"/><path class="st3" d="M271.8 221.6h56.5l-2-15.9h-52.5L271.8 221.6zM271.8 221.6"/><path class="st2" d="M271.4 221.6c-1.8 0-3.2 1.4-3.2 3.2 0 1.8 1.4 3.2 3.2 3.2h57.3c1.8 0 3.2-1.4 3.2-3.2 0-1.8-1.4-3.2-3.2-3.2H271.4zM271.4 221.6"/><path class="st4" d="M273.7 205.7h52.5l-0.8-6.4h-50.9L273.7 205.7zM273.7 205.7"/><path class="st5" d="M217.2 100.7h165.5V81.6H217.2V100.7zM360.5 87.9h12.7c1.8 0 3.2 1.4 3.2 3.2 0 1.8-1.4 3.2-3.2 3.2h-12.7c-1.8 0-3.2-1.4-3.2-3.2C357.3 89.4 358.7 87.9 360.5 87.9L360.5 87.9zM335 87.9h12.7c1.8 0 3.2 1.4 3.2 3.2 0 1.8-1.4 3.2-3.2 3.2H335c-1.8 0-3.2-1.4-3.2-3.2C331.8 89.4 333.3 87.9 335 87.9L335 87.9zM309.5 87.9h12.7c1.8 0 3.2 1.4 3.2 3.2 0 1.8-1.4 3.2-3.2 3.2h-12.7c-1.8 0-3.2-1.4-3.2-3.2C306.4 89.4 307.8 87.9 309.5 87.9L309.5 87.9zM284.1 87.9h12.7c1.8 0 3.2 1.4 3.2 3.2 0 1.8-1.4 3.2-3.2 3.2h-12.7c-1.8 0-3.2-1.4-3.2-3.2C280.9 89.4 282.3 87.9 284.1 87.9L284.1 87.9zM258.6 87.9h12.7c1.8 0 3.2 1.4 3.2 3.2 0 1.8-1.4 3.2-3.2 3.2h-12.7c-1.8 0-3.2-1.4-3.2-3.2C255.4 89.4 256.9 87.9 258.6 87.9L258.6 87.9zM226.8 87.9h19.1c1.8 0 3.2 1.4 3.2 3.2 0 1.8-1.4 3.2-3.2 3.2h-19.1c-1.8 0-3.2-1.4-3.2-3.2C223.6 89.4 225 87.9 226.8 87.9L226.8 87.9zM226.8 87.9"/><path class="st6" d="M226.8 94.3h19.1c1.8 0 3.2-1.4 3.2-3.2 0-1.8-1.4-3.2-3.2-3.2h-19.1c-1.8 0-3.2 1.4-3.2 3.2C223.6 92.9 225 94.3 226.8 94.3L226.8 94.3zM226.8 94.3"/><path class="st7" d="M258.6 94.3h12.7c1.8 0 3.2-1.4 3.2-3.2 0-1.8-1.4-3.2-3.2-3.2h-12.7c-1.8 0-3.2 1.4-3.2 3.2C255.4 92.9 256.9 94.3 258.6 94.3L258.6 94.3zM258.6 94.3"/><path class="st7" d="M284.1 94.3h12.7c1.8 0 3.2-1.4 3.2-3.2 0-1.8-1.4-3.2-3.2-3.2h-12.7c-1.8 0-3.2 1.4-3.2 3.2C280.9 92.9 282.3 94.3 284.1 94.3L284.1 94.3zM284.1 94.3"/><path class="st7" d="M309.5 94.3h12.7c1.8 0 3.2-1.4 3.2-3.2 0-1.8-1.4-3.2-3.2-3.2h-12.7c-1.8 0-3.2 1.4-3.2 3.2C306.4 92.9 307.8 94.3 309.5 94.3L309.5 94.3zM309.5 94.3"/><path class="st7" d="M335 94.3h12.7c1.8 0 3.2-1.4 3.2-3.2 0-1.8-1.4-3.2-3.2-3.2H335c-1.8 0-3.2 1.4-3.2 3.2C331.8 92.9 333.3 94.3 335 94.3L335 94.3zM335 94.3"/><path class="st7" d="M360.5 94.3h12.7c1.8 0 3.2-1.4 3.2-3.2 0-1.8-1.4-3.2-3.2-3.2h-12.7c-1.8 0-3.2 1.4-3.2 3.2C357.3 92.9 358.7 94.3 360.5 94.3L360.5 94.3zM360.5 94.3"/><path class="st8" d="M230 161.1h35c1.8 0 3.2-1.4 3.2-3.2v-41.4c0 1.8-1.4 3.2-3.2 3.2h-35c-1.8 0-3.2-1.4-3.2-3.2V158C226.8 159.7 228.2 161.1 230 161.1L230 161.1zM230 161.1"/><path class="st8" d="M280.9 161.1H300c1.8 0 3.2-1.4 3.2-3.2v-41.4c0 1.8-1.4 3.2-3.2 3.2h-19.1c-1.8 0-3.2-1.4-3.2-3.2V158C277.7 159.7 279.1 161.1 280.9 161.1L280.9 161.1zM280.9 161.1"/><path class="st8" d="M315.9 161.1H335c1.8 0 3.2-1.4 3.2-3.2v-41.4c0 1.8-1.4 3.2-3.2 3.2h-19.1c-1.8 0-3.2-1.4-3.2-3.2V158C312.7 159.7 314.2 161.1 315.9 161.1L315.9 161.1zM315.9 161.1"/><path class="st8" d="M350.9 161.1H370c1.8 0 3.2-1.4 3.2-3.2v-41.4c0 1.8-1.4 3.2-3.2 3.2h-19.1c-1.8 0-3.2-1.4-3.2-3.2V158C347.7 159.7 349.2 161.1 350.9 161.1L350.9 161.1zM350.9 161.1"/><path class="st9" d="M230 119.8h35c1.8 0 3.2-1.4 3.2-3.2v-3.2c0-1.8-1.4-3.2-3.2-3.2h-35c-1.8 0-3.2 1.4-3.2 3.2v3.2C226.8 118.3 228.2 119.8 230 119.8L230 119.8zM230 119.8"/><path class="st10" d="M280.9 119.8H300c1.8 0 3.2-1.4 3.2-3.2v-3.2c0-1.8-1.4-3.2-3.2-3.2h-19.1c-1.8 0-3.2 1.4-3.2 3.2v3.2C277.7 118.3 279.1 119.8 280.9 119.8L280.9 119.8zM280.9 119.8"/><path class="st11" d="M315.9 119.8H335c1.8 0 3.2-1.4 3.2-3.2v-3.2c0-1.8-1.4-3.2-3.2-3.2h-19.1c-1.8 0-3.2 1.4-3.2 3.2v3.2C312.7 118.3 314.2 119.8 315.9 119.8L315.9 119.8zM315.9 119.8"/><path class="st12" d="M350.9 119.8H370c1.8 0 3.2-1.4 3.2-3.2v-3.2c0-1.8-1.4-3.2-3.2-3.2h-19.1c-1.8 0-3.2 1.4-3.2 3.2v3.2C347.7 118.3 349.2 119.8 350.9 119.8L350.9 119.8zM350.9 119.8"/><path class="st4" d="M304.8 189.8c0 2.6-2.1 4.8-4.8 4.8 -2.6 0-4.8-2.1-4.8-4.8 0-2.6 2.1-4.8 4.8-4.8C302.6 185 304.8 187.1 304.8 189.8L304.8 189.8zM304.8 189.8"/><rect class="st13" width="600" height="300"/></svg>