<svg xmlns="http://www.w3.org/2000/svg" viewBox="0 0 45.1 100"><style type="text/css">  
	.st0{fill:none;}
</style><path class="st0" d="M34.8 97l1-16 2.7-4.5c0 0-6 2.5-16.1 2.5 -10.1 0-16.1-2.4-16.1-2.4l3 4.9L10.2 97c0 1.7 5.5 3 12.3 3C29.3 100 34.8 98.6 34.8 97"/><path class="st0" d="M31.8 22.2l2-8L44.9 2.5 42 0 30.2 12.5 27.8 22C26.1 22 24.4 22 22.5 22 10.1 22 0 23.4 0 25.1c0 1.8 10.1 3.2 22.5 3.2 12.5 0 22.5-1.4 22.5-3.2C45.1 23.8 39.6 22.7 31.8 22.2zM30.6 26.7c0 0-0.4 0.1-1.7 0.1 -1.3 0-2.2 0-2.6-0.3 -0.1-0.1-0.2-0.3-0.2-0.4 0-0.2 0.2-0.4 0.4-0.4l0.2 0.3c-0.1 0-0.1 0.1-0.1 0.1 0 0.2 1.3 0.3 2.3 0.3 1 0 2.2-0.1 2.2-0.3 0-0.1-0.1-0.1-0.3-0.1l0.2-0.3c0.3 0.1 0.5 0.2 0.5 0.5C31.5 26.6 31 26.6 30.6 26.7z"/><path class="st0" d="M34.1 57.9c-0.3-2.5 5.6-6.2 4.1-6.4 -3.2 0.2-4.8 3.8-6.4 7.5 -0.6 1.4-2.6 7.3-4 6.5 -1.3-0.7 1.7-5.6 2.6-8.4 -1 0.7-4.6 3.5-5.6 0.9 -1.5 1.3-4.7 2-4.4-1.4 -0.8 1.4-2.6 3.4-4.8 2.6 -2.8-1.1 1.6-10.1 2.8-9.6 1.1 0.5-0.2 2.5-0.6 3.3 -0.8 1.8-1.7 4-1.1 4.4 1 0.8 3.8-2.9 3.8-3 0.5-0.7 2-5.2 3.2-4.6 1.2 0.5-3 6.4-1.4 7.6 0.3 0.2 1.6-0.1 2.4-1 0.5-0.5 0.3-1.8 2-5.8 1.7-4 3.2-9 4.3-8.6 1.2 0.4 0.2 2.9-0.2 3.9 -1.9 4.5-5.3 11.9-3.7 11.3 1.6-0.6 2.4-0.6 4-2.4 1.6-1.8 1.5-4.8 2.5-4.7 1 0.1 0.9 1 0.6 1.8 1-1.2 4.8-3.6 5.7-1.2 1.1 2.9-5.4 7-3.8 6.8 1.6-0.2 4.2-1.8 5.3-3.3l3-27.2c0 0-3 2.5-22.4 2.5C2.8 29.4 0 26.9 0 26.9l2.6 24.8C4 47.8 7.2 40 12.4 40.3c2.3 0.1 5.4 4.6 2.8 4.8 -1.1 0.1-1.2-2.2-2.6-2.6 -1-0.2-2.3 0.5-3.2 1.4 -1.7 1.7-5.4 8.4-5 11.7 0.6 4.2 5.9-1.5 6.7-3.2 0.6-1.2 1-4.7 2.4-4.4 1.4 0.4-0.1 4-1.1 7.3 -1.1 3.6-1.7 7.5-3.1 7 -1.4-0.4 0.9-5.1 0.8-5.9 -1.3 1.2-3.7 4.3-6.8 2.7L5 74.5c0 0 4.3 3.4 17.1 3.4 12.8 0 17.2-3.3 17.2-3.3l2-17.9C39.6 58.2 34.5 61 34.1 57.9"/></svg>