<svg xmlns="http://www.w3.org/2000/svg" viewBox="0 0 53.8 100"><style type="text/css">  
	.st0{fill:none;}
</style><path class="st0" d="M17.8 53c0 0-2.6 1.5 1.9 2 5.4 0.6 8.2 0.5 14.2-0.6 0 0 1.6 1 3.8 1.8C24.2 62.1 7.2 56 17.8 53L17.8 53zM16.1 45.5c-11.6 3.9 6.5 8.2 22.7 3.5 -1.7-0.6-2.8-1.7-2.8-1.7 -7.9 1.5-12.5 1.5-18.3 0.9C13.2 47.7 16.1 45.5 16.1 45.5L16.1 45.5zM30 32.8c3.3 3.8-0.9 7.2-0.9 7.2s8.4-4.3 4.5-9.8c-3.6-5.1-6.4-7.6 8.6-16.3C42.2 14 18.8 19.9 30 32.8L30 32.8zM47.7 58.6c0 0 1.9 1.6-2.1 2.8 -7.7 2.3-32.3 3.1-39.1 0.1 -2.4-1.1 2.1-2.5 3.6-2.9 1.5-0.3 2.4-0.3 2.4-0.3 -2.7-1.9-17.6 3.8-7.6 5.4C32.3 68.2 54.8 61.8 47.7 58.6L47.7 58.6zM19 37.8c0 0-4.8-0.3-10.8 2.6 -7 3.4 17.4 5 30.1 1.6 1.3-0.9 3.1-1.7 3.1-1.7s-5.2 0.9-10.3 1.4c-6.3 0.5-13.1 0.6-16.5 0.2C6.6 40.7 19 37.8 19 37.8L19 37.8zM41.4 50.3c-0.1 0.2-0.3 0.3-0.3 0.3 17.2-4.5 10.9-15.9 2.6-13 -0.7 0.3-1.1 0.8-1.1 0.8s0.5-0.2 1.5-0.4C48.3 37.1 54.3 43.6 41.4 50.3L41.4 50.3zM33.6 0c2.9 11.3-10.1 14.7-14.8 21.8 -3.2 4.8 1.6 10 8.1 15.8 -2.5-5.7-11.1-10.7 0-19.5C40.8 7.1 33.6 0 33.6 0L33.6 0zM20.3 68.4c12.4 0.8 31.3-0.4 31.8-6.3 0 0-0.9 2.2-10.2 4 -10.5 2-23.5 1.8-31.3 0.5C10.6 66.5 12.2 67.9 20.3 68.4L20.3 68.4zM51.5 78.9L51.5 78.9l0 1.1h0.3v-1.1h0.4v-0.2h-1v0.2H51.5L51.5 78.9zM53.5 78.9v1h0.2v-1.3h-0.4l-0.3 0.9 -0.3-0.9h-0.4v1.3h0.2v-1h0l0.4 1h0.2L53.5 78.9 53.5 78.9 53.5 78.9zM18.3 90.7L18.3 90.7l0-3.7h-1.4c-3.7 0-4.6 1.2-4.6 2.8 0 1.5 0.9 2.5 2.4 2.5C15.9 92.3 17.1 91.7 18.3 90.7L18.3 90.7zM21.5 94.3H19l-0.3-1.7c-1.4 1.2-2.9 2-4.9 2 -3.1 0-4.7-1.6-4.7-4.4 0-3.2 2.5-5.4 8-5.4h1.1v-1.4c0-1.9-1-2.8-3.3-2.8 -1.6 0-3.3 0.4-4.6 0.9l-0.5-2c1.6-0.7 3.7-1.3 6-1.3 3.9 0 5.6 1.9 5.6 4.8V94.3L21.5 94.3zM32.2 94.3c2.3-4.9 3.9-10.5 4.9-15.7h-3.4c-0.5 4.1-1.6 8.4-3.1 12.6l-0.7-2.9 -3-9.7h-3.5l4.8 15.7H32.2L32.2 94.3zM47.6 90.7L47.6 90.7V87h-1.4c-3.7 0-4.6 1.2-4.6 2.8 0 1.5 0.9 2.5 2.4 2.5C45.2 92.3 46.4 91.7 47.6 90.7L47.6 90.7zM50.8 94.3h-2.5L48 92.6c-1.4 1.2-2.9 2-4.9 2 -3.1 0-4.7-1.6-4.7-4.4 0-3.2 2.5-5.4 8-5.4h1.1v-1.4c0-1.9-1-2.8-3.2-2.8 -1.6 0-3.3 0.4-4.6 0.9l-0.5-2c1.6-0.7 3.7-1.3 6-1.3 3.9 0 5.6 1.9 5.6 4.8V94.3L50.8 94.3zM5.6 97c0.9-1.4 1.2-2.8 1.2-6.3V73H3.4V91c0 2.6-0.2 3.7-0.6 4.5 -0.5 1-1.5 2-2.8 2.6l1.6 1.9C3.2 99.4 4.7 98.3 5.6 97L5.6 97z"/></svg>