<svg xmlns="http://www.w3.org/2000/svg" viewBox="0 0 100 100"><style type="text/css">  
	.st0{fill:none;}
</style><path class="st0" d="M0 0v100h100V0H0zM54 78.1c0 9.7-5.7 14.3-14 14.3C32.5 92.4 28.2 88 26 84h0 0c0 0 0 0 0 0l7.7-4.8c1.5 2.6 3 4.7 6.2 4.7 3.1 0 5.2-1.3 5.2-6V46h9V78.1zM76.3 92.2c-8.7 0-14.4-4.2-17.1-9.6l7.7-4.4c2 3.3 4.6 5.7 9.3 5.7 3.9 0 6.4-1.9 6.4-4.6 0-3.2-2.6-4.4-6.8-6.2l-2.3-1C66.5 69.1 62 65.5 62 57.9c0-7 5.4-12.4 13.8-12.4 6 0 10.3 2.1 13.4 7.5l-7.3 4.7c-1.6-2.9-3.4-4-6-4 -2.8 0-4.5 1.7-4.5 4 0 2.8 1.7 4 5.8 5.7l2.3 1c8 3.4 12.5 6.9 12.5 14.8C91.9 87.6 85.3 92.2 76.3 92.2z"/></svg>