<svg xmlns="http://www.w3.org/2000/svg" viewBox="0 0 600 300"><style type="text/css">  
	.st0{fill:none;}
	.st1{fill:#464655;}
	.st2{fill:#707384;}
	.st3{fill:#535463;}
	.st4{fill:#7DE6C3;}
	.st5{fill:#5FD7B4;}
	.st6{fill:#FFFFFF;}
	.st7{fill:#FFCD73;}
</style><rect class="st0" width="600" height="300"/><path class="st1" d="M229.9 83.6c0-2-1.7-3.7-3.7-3.7h-14.8c-2 0-3.7 1.7-3.7 3.7v3.7h22.1V83.6zM229.9 83.6"/><path class="st2" d="M194.7 205c-0.2-0.3-0.3-0.6-0.5-1C194.4 204.3 194.6 204.7 194.7 205L194.7 205zM194.7 205"/><path class="st2" d="M200.2 210.7c-0.4-0.2-0.7-0.5-1.1-0.7C199.5 210.2 199.9 210.5 200.2 210.7L200.2 210.7zM200.2 210.7"/><path class="st2" d="M196.1 207c-0.5-0.6-0.9-1.2-1.2-1.9C195.2 205.8 195.6 206.5 196.1 207L196.1 207zM196.1 207"/><path class="st2" d="M207 212.7c-1.7-0.1-3.3-0.5-4.8-1C203.7 212.3 205.3 212.6 207 212.7L207 212.7zM207 212.7"/><path class="st2" d="M201.9 211.6c-0.3-0.1-0.7-0.3-1-0.5C201.2 211.2 201.6 211.4 201.9 211.6L201.9 211.6zM201.9 211.6"/><path class="st2" d="M268.9 198h-24.3c0 8.2-6.6 14.8-14.8 14.8h51.8C276.7 208.5 272.4 203.5 268.9 198L268.9 198zM268.9 198"/><path class="st2" d="M362.6 212.7h29.7c8.2 0 14.8-6.6 14.8-14.8h-31.7C371.9 203.5 367.6 208.5 362.6 212.7L362.6 212.7zM362.6 212.7"/><path class="st2" d="M194 203.3c-0.1-0.2-0.1-0.4-0.2-0.6C193.8 202.9 193.9 203.1 194 203.3L194 203.3zM194 203.3"/><path class="st2" d="M196.5 207.6c0.5 0.6 1.1 1.2 1.7 1.7C197.6 208.8 197.1 208.2 196.5 207.6L196.5 207.6zM196.5 207.6"/><path class="st2" d="M244.6 109.4h48c8.8-4.7 18.9-7.4 29.5-7.4 10.7 0 20.7 2.7 29.5 7.4H407c0-8.2-6.6-14.8-14.8-14.8h-28.9l-4.9-14.6c-1.5-4.5-5.7-7.6-10.5-7.6h-3.7l-2.3 9.2c-0.8 3.3-3.8 5.6-7.2 5.6h-25.4c-3.4 0-6.3-2.3-7.2-5.6l-2.3-9.2h-3.1c-4.8 0-9 3-10.5 7.6l-4.9 14.6h-38.9c1.3 2.2 2 4.7 2 7.4V109.4zM244.6 109.4"/><path class="st1" d="M351.7 109.4c19.8 10.6 33.2 31.4 33.2 55.4 0 12.2-3.5 23.6-9.5 33.2H407v-88.6H351.7zM390.4 129.7c-3.1 0-5.5-2.5-5.5-5.5 0-3.1 2.5-5.5 5.5-5.5 3.1 0 5.5 2.5 5.5 5.5C396 127.2 393.5 129.7 390.4 129.7L390.4 129.7zM390.4 129.7"/><path class="st1" d="M244.6 198h24.3c-6-9.6-9.5-21-9.5-33.2 0-24 13.4-44.8 33.2-55.4h-48V198zM244.6 198"/><path class="st3" d="M375.4 198c6-9.6 9.5-21 9.5-33.2 0-24-13.4-44.8-33.2-55.4 -8.8-4.7-18.9-7.4-29.5-7.4 -10.7 0-20.7 2.7-29.5 7.4 -19.8 10.6-33.2 31.4-33.2 55.4 0 12.2 3.5 23.6 9.5 33.2 3.5 5.6 7.8 10.5 12.8 14.8 10.9 9.2 25 14.8 40.4 14.8 15.4 0 29.5-5.6 40.4-14.8C367.6 208.5 371.9 203.5 375.4 198L375.4 198zM274.2 164.8c0-26.5 21.5-48 48-48 26.5 0 48 21.5 48 48 0 26.5-21.5 48-48 48C295.6 212.7 274.2 191.3 274.2 164.8L274.2 164.8zM274.2 164.8"/><path class="st1" d="M370.1 164.8c0-26.5-21.5-48-48-48 -26.5 0-48 21.5-48 48 0 26.5 21.5 48 48 48C348.6 212.7 370.1 191.3 370.1 164.8L370.1 164.8zM318 205.1c-0.7-0.1-1.4-0.2-2-0.3 -2-0.3-4-0.8-5.9-1.4 -4.1-1.3-8-3.2-11.4-5.7 -0.3-0.2-0.5-0.4-0.8-0.6 -1.6-1.2-3-2.4-4.4-3.8 -0.2-0.2-0.5-0.5-0.7-0.7 -0.4-0.5-0.9-0.9-1.3-1.4 -0.8-1-1.7-2-2.4-3.1 -0.4-0.5-0.7-1.1-1.1-1.6 -0.4-0.5-0.7-1.1-1-1.7 -0.3-0.6-0.6-1.1-0.9-1.7 -0.4-0.9-0.9-1.8-1.3-2.7 -0.3-0.6-0.5-1.2-0.7-1.8 -1.6-4.4-2.5-9.1-2.5-14 0-4.9 0.9-9.6 2.5-14 0.2-0.6 0.5-1.2 0.7-1.8 0.4-0.9 0.8-1.8 1.3-2.7 0.3-0.6 0.6-1.2 0.9-1.7 0.3-0.6 0.7-1.1 1-1.7 0.4-0.5 0.7-1.1 1.1-1.6 0.8-1.1 1.6-2.1 2.4-3.1 0.4-0.5 0.9-1 1.3-1.4 0.2-0.2 0.5-0.5 0.7-0.7 1.4-1.4 2.9-2.7 4.4-3.8 0.3-0.2 0.5-0.4 0.8-0.6 3.5-2.5 7.3-4.4 11.4-5.7 1.9-0.6 3.9-1 5.9-1.4 0.7-0.1 1.3-0.2 2-0.3 1.4-0.1 2.7-0.2 4.2-0.2 22.4 0 40.6 18.2 40.6 40.6 0 22.4-18.2 40.6-40.6 40.6C320.7 205.4 319.4 205.3 318 205.1L318 205.1zM318 205.1"/><path class="st3" d="M244.6 198v-96c0-2.7-0.7-5.2-2-7.4 -2.6-4.4-7.3-7.4-12.8-7.4h-22.1c-8.2 0-14.8 6.6-14.8 14.8v3.7h14.8c6.1 0 11.1 5 11.1 11.1v66.4c0 6.1-5 11.1-11.1 11.1H193v3.7c0 1.7 0.3 3.3 0.8 4.7 0.1 0.2 0.1 0.4 0.2 0.6 0.1 0.2 0.2 0.5 0.3 0.7 0.1 0.3 0.3 0.7 0.5 1 0 0.1 0.1 0.1 0.1 0.2 0.4 0.7 0.8 1.3 1.2 1.9 0.1 0.2 0.3 0.4 0.4 0.5 0.5 0.6 1.1 1.2 1.7 1.7 0.3 0.2 0.6 0.5 0.9 0.7 0.4 0.3 0.7 0.5 1.1 0.7 0.2 0.1 0.4 0.3 0.7 0.4 0.3 0.2 0.7 0.3 1 0.5 0.1 0 0.2 0.1 0.3 0.1 1.5 0.6 3.1 1 4.8 1 0.3 0 0.5 0 0.8 0h22.1C238 212.7 244.6 206.1 244.6 198L244.6 198zM244.6 198"/><path class="st1" d="M218.8 183.2v-66.4c0-6.1-5-11.1-11.1-11.1H193v88.6h14.8C213.9 194.3 218.8 189.3 218.8 183.2L218.8 183.2zM218.8 183.2"/><path class="st4" d="M362.7 164.8c0-22.4-18.2-40.6-40.6-40.6 3.2 0 6.3 0.4 9.2 1.1 -18 4.2-31.4 20.3-31.4 39.5 0 19.2 13.4 35.3 31.4 39.5 -3 0.7-6 1.1-9.2 1.1C344.6 205.4 362.7 187.2 362.7 164.8L362.7 164.8zM307.4 164.8c0-8.2 6.6-14.8 14.8-14.8 0-6.1 5-11.1 11.1-11.1 6.1 0 11.1 5 11.1 11.1 0 5-3.4 9.3-8 10.6 0.4 1.3 0.6 2.7 0.6 4.1 0 8.2-6.6 14.8-14.8 14.8C314 179.5 307.4 172.9 307.4 164.8L307.4 164.8zM307.4 164.8"/><path class="st5" d="M300 164.8c0-19.2 13.4-35.3 31.4-39.5 -3-0.7-6-1.1-9.2-1.1 -1.4 0-2.8 0.1-4.2 0.2 -0.7 0.1-1.4 0.2-2 0.3 -2 0.3-4 0.8-5.9 1.4 -4.1 1.3-8 3.2-11.4 5.7 -0.3 0.2-0.5 0.4-0.8 0.6 -1.6 1.2-3 2.4-4.4 3.8 -0.2 0.2-0.5 0.5-0.7 0.7 -0.4 0.5-0.9 0.9-1.3 1.4 -0.9 1-1.7 2-2.4 3.1 -0.4 0.5-0.7 1.1-1.1 1.6 -0.4 0.5-0.7 1.1-1 1.7 -0.3 0.6-0.6 1.1-0.9 1.7 -0.4 0.9-0.9 1.8-1.3 2.7 -0.3 0.6-0.5 1.2-0.7 1.8 -1.6 4.4-2.5 9.1-2.5 14 0 4.9 0.9 9.6 2.5 14 0.2 0.6 0.5 1.2 0.7 1.8 0.4 0.9 0.8 1.8 1.3 2.7 0.3 0.6 0.6 1.2 0.9 1.7 0.3 0.6 0.7 1.1 1 1.7 0.4 0.5 0.7 1.1 1.1 1.6 0.8 1.1 1.6 2.1 2.4 3.1 0.4 0.5 0.9 1 1.3 1.4 0.2 0.2 0.5 0.5 0.7 0.7 1.4 1.4 2.9 2.7 4.4 3.8 0.3 0.2 0.5 0.4 0.8 0.6 3.5 2.5 7.3 4.4 11.4 5.7 1.9 0.6 3.9 1 5.9 1.4 0.7 0.1 1.3 0.2 2 0.3 1.4 0.1 2.7 0.2 4.2 0.2 3.2 0 6.3-0.4 9.2-1.1C313.4 200.1 300 184 300 164.8L300 164.8zM300 164.8"/><path class="st5" d="M336.9 164.8c0-1.4-0.2-2.8-0.6-4.1 -1 0.3-2 0.4-3.1 0.4 -6.1 0-11.1-5-11.1-11.1 -8.2 0-14.8 6.6-14.8 14.8 0 8.2 6.6 14.8 14.8 14.8C330.3 179.5 336.9 172.9 336.9 164.8L336.9 164.8zM317.5 170.3c-2.5 0-4.6-2.1-4.6-4.6 0-2.5 2.1-4.6 4.6-4.6s4.6 2.1 4.6 4.6C322.1 168.2 320.1 170.3 317.5 170.3L317.5 170.3zM317.5 170.3"/><path class="st6" d="M333.2 161.1c1.1 0 2.1-0.2 3.1-0.4 4.6-1.3 8-5.6 8-10.6 0-6.1-5-11.1-11.1-11.1 -6.1 0-11.1 5-11.1 11.1C322.1 156.1 327.1 161.1 333.2 161.1L333.2 161.1zM333.2 161.1"/><path class="st6" d="M322.1 165.7c0 2.5-2.1 4.6-4.6 4.6s-4.6-2.1-4.6-4.6 2.1-4.6 4.6-4.6S322.1 163.1 322.1 165.7L322.1 165.7zM322.1 165.7"/><path class="st7" d="M396 124.2c0 3.1-2.5 5.5-5.5 5.5 -3.1 0-5.5-2.5-5.5-5.5 0-3.1 2.5-5.5 5.5-5.5C393.5 118.6 396 121.1 396 124.2L396 124.2zM396 124.2"/><path class="st3" d="M309.5 87.3h25.4c3.4 0 6.3-2.3 7.2-5.6l2.3-9.2H300l2.3 9.2C303.1 85 306.1 87.3 309.5 87.3L309.5 87.3zM309.5 87.3"/></svg>