<svg xmlns="http://www.w3.org/2000/svg" viewBox="0 0 600 300"><style type="text/css">  
	.st0{fill:none;}
	.st1{fill:#707384;}
	.st2{fill:#63AFDB;}
	.st3{fill:#468CBE;}
	.st4{fill:#464655;}
	.st5{fill:#0BA06A;}
	.st6{fill:#00DCCD;}
	.st7{fill:#FFDC69;}
	.st8{fill:#FFFFFF;}
	.st9{fill:#FFA055;}
	.st10{fill:#A0D778;}
	.st11{fill:#EA13B2;}
	.st12{fill:#72C6E8;}
</style><rect class="st0" width="600" height="300"/><path class="st1" d="M332.1 72.5h-64.1c-4.4 0-8 3.6-8 8v139c0 4.4 3.6 8 8 8h64.1c4.4 0 8-3.6 8-8v-139C340.1 76.1 336.5 72.5 332.1 72.5L332.1 72.5zM289.3 83.2c0-1.5 1.2-2.7 2.7-2.7h16c1.5 0 2.7 1.2 2.7 2.7 0 1.5-1.2 2.7-2.7 2.7h-16C290.5 85.9 289.3 84.7 289.3 83.2L289.3 83.2zM281.3 80.5c1.5 0 2.7 1.2 2.7 2.7 0 1.5-1.2 2.7-2.7 2.7 -1.5 0-2.7-1.2-2.7-2.7C278.6 81.7 279.8 80.5 281.3 80.5L281.3 80.5zM300 222.2c-3 0-5.3-2.4-5.3-5.3 0-3 2.4-5.3 5.3-5.3 3 0 5.3 2.4 5.3 5.3C305.3 219.8 303 222.2 300 222.2L300 222.2zM334.7 174.1v32.1h-69.5V93.9h69.5V174.1zM334.7 174.1"/><path class="st2" d="M265.3 174.1h21.4c0-1.5 1.2-2.7 2.7-2.7 1.5 0 2.7 1.2 2.7 2.7h5.3c0-1.5 1.2-2.7 2.7-2.7 1.5 0 2.7 1.2 2.7 2.7h5.3c0-1.5 1.2-2.7 2.7-2.7 1.5 0 2.7 1.2 2.7 2.7h21.4V93.9h-69.5V174.1zM313.4 107.2c0-1.5 1.2-2.7 2.7-2.7h10.7c1.5 0 2.7 1.2 2.7 2.7v10.7c0 1.5-1.2 2.7-2.7 2.7H316c-1.5 0-2.7-1.2-2.7-2.7V107.2zM313.4 128.6c0-1.5 1.2-2.7 2.7-2.7h10.7c1.5 0 2.7 1.2 2.7 2.7v10.7c0 1.5-1.2 2.7-2.7 2.7H316c-1.5 0-2.7-1.2-2.7-2.7V128.6zM313.4 150c0-1.5 1.2-2.7 2.7-2.7h10.7c1.5 0 2.7 1.2 2.7 2.7v10.7c0 1.5-1.2 2.7-2.7 2.7H316c-1.5 0-2.7-1.2-2.7-2.7V150zM292 107.2c0-1.5 1.2-2.7 2.7-2.7h10.7c1.5 0 2.7 1.2 2.7 2.7v10.7c0 1.5-1.2 2.7-2.7 2.7h-10.7c-1.5 0-2.7-1.2-2.7-2.7V107.2zM292 128.6c0-1.5 1.2-2.7 2.7-2.7h10.7c1.5 0 2.7 1.2 2.7 2.7v10.7c0 1.5-1.2 2.7-2.7 2.7h-10.7c-1.5 0-2.7-1.2-2.7-2.7V128.6zM292 150c0-1.5 1.2-2.7 2.7-2.7h10.7c1.5 0 2.7 1.2 2.7 2.7v10.7c0 1.5-1.2 2.7-2.7 2.7h-10.7c-1.5 0-2.7-1.2-2.7-2.7V150zM270.6 107.2c0-1.5 1.2-2.7 2.7-2.7H284c1.5 0 2.7 1.2 2.7 2.7v10.7c0 1.5-1.2 2.7-2.7 2.7h-10.7c-1.5 0-2.7-1.2-2.7-2.7V107.2zM270.6 128.6c0-1.5 1.2-2.7 2.7-2.7H284c1.5 0 2.7 1.2 2.7 2.7v10.7c0 1.5-1.2 2.7-2.7 2.7h-10.7c-1.5 0-2.7-1.2-2.7-2.7V128.6zM270.6 150c0-1.5 1.2-2.7 2.7-2.7H284c1.5 0 2.7 1.2 2.7 2.7v10.7c0 1.5-1.2 2.7-2.7 2.7h-10.7c-1.5 0-2.7-1.2-2.7-2.7V150zM270.6 150"/><path class="st3" d="M310.7 176.7c-1.5 0-2.7-1.2-2.7-2.7h-5.3c0 1.5-1.2 2.7-2.7 2.7 -1.5 0-2.7-1.2-2.7-2.7H292c0 1.5-1.2 2.7-2.7 2.7 -1.5 0-2.7-1.2-2.7-2.7h-21.4v32.1h69.5v-32.1h-21.4C313.4 175.5 312.2 176.7 310.7 176.7L310.7 176.7zM286.6 195.4c0 1.5-1.2 2.7-2.7 2.7h-10.7c-1.5 0-2.7-1.2-2.7-2.7v-10.7c0-1.5 1.2-2.7 2.7-2.7H284c1.5 0 2.7 1.2 2.7 2.7V195.4zM308 195.4c0 1.5-1.2 2.7-2.7 2.7h-10.7c-1.5 0-2.7-1.2-2.7-2.7v-10.7c0-1.5 1.2-2.7 2.7-2.7h10.7c1.5 0 2.7 1.2 2.7 2.7V195.4zM316 182.1h10.7c1.5 0 2.7 1.2 2.7 2.7v10.7c0 1.5-1.2 2.7-2.7 2.7H316c-1.5 0-2.7-1.2-2.7-2.7v-10.7C313.4 183.3 314.6 182.1 316 182.1L316 182.1zM316 182.1"/><path class="st4" d="M292 85.9h16c1.5 0 2.7-1.2 2.7-2.7 0-1.5-1.2-2.7-2.7-2.7h-16c-1.5 0-2.7 1.2-2.7 2.7C289.3 84.7 290.5 85.9 292 85.9L292 85.9zM292 85.9"/><path class="st4" d="M284 83.2c0 1.5-1.2 2.7-2.7 2.7 -1.5 0-2.7-1.2-2.7-2.7 0-1.5 1.2-2.7 2.7-2.7C282.8 80.5 284 81.7 284 83.2L284 83.2zM284 83.2"/><path class="st4" d="M305.3 216.8c0 3-2.4 5.3-5.3 5.3 -3 0-5.3-2.4-5.3-5.3 0-3 2.4-5.3 5.3-5.3C303 211.5 305.3 213.9 305.3 216.8L305.3 216.8zM305.3 216.8"/><path class="st2" d="M305.3 182.1h-10.7c-1.5 0-2.7 1.2-2.7 2.7v10.7c0 1.5 1.2 2.7 2.7 2.7h10.7c1.5 0 2.7-1.2 2.7-2.7v-10.7C308 183.3 306.8 182.1 305.3 182.1L305.3 182.1zM300 195.4c-3 0-5.3-2.4-5.3-5.3 0-3 2.4-5.3 5.3-5.3 3 0 5.3 2.4 5.3 5.3C305.3 193 303 195.4 300 195.4L300 195.4zM300 195.4"/><path class="st5" d="M313.4 195.4c0 1.5 1.2 2.7 2.7 2.7h10.7c1.5 0 2.7-1.2 2.7-2.7v-10.7c0-1.5-1.2-2.7-2.7-2.7H316c-1.5 0-2.7 1.2-2.7 2.7V195.4zM313.4 195.4"/><path class="st6" d="M284 182.1h-10.7c-1.5 0-2.7 1.2-2.7 2.7v10.7c0 1.5 1.2 2.7 2.7 2.7H284c1.5 0 2.7-1.2 2.7-2.7v-10.7C286.6 183.3 285.4 182.1 284 182.1L284 182.1zM284 182.1"/><path class="st7" d="M294.7 163.4h10.7c1.5 0 2.7-1.2 2.7-2.7V150c0-1.5-1.2-2.7-2.7-2.7h-10.7c-1.5 0-2.7 1.2-2.7 2.7v10.7C292 162.2 293.2 163.4 294.7 163.4L294.7 163.4zM294.7 163.4"/><path class="st8" d="M316 163.4h10.7c1.5 0 2.7-1.2 2.7-2.7V150c0-1.5-1.2-2.7-2.7-2.7H316c-1.5 0-2.7 1.2-2.7 2.7v10.7C313.4 162.2 314.6 163.4 316 163.4L316 163.4zM316 155.3c0-1.5 1.2-2.7 2.7-2.7h5.3c1.5 0 2.7 1.2 2.7 2.7 0 1.5-1.2 2.7-2.7 2.7h-5.3C317.2 158 316 156.8 316 155.3L316 155.3zM316 155.3"/><path class="st3" d="M273.3 163.4H284c1.5 0 2.7-1.2 2.7-2.7V150c0-1.5-1.2-2.7-2.7-2.7h-10.7c-1.5 0-2.7 1.2-2.7 2.7v10.7C270.6 162.2 271.8 163.4 273.3 163.4L273.3 163.4zM273.3 155.3c0-1.5 1.2-2.7 2.7-2.7h5.3c1.5 0 2.7 1.2 2.7 2.7 0 1.5-1.2 2.7-2.7 2.7h-5.3C274.5 158 273.3 156.8 273.3 155.3L273.3 155.3zM273.3 155.3"/><path class="st4" d="M294.7 142h10.7c1.5 0 2.7-1.2 2.7-2.7v-10.7c0-1.5-1.2-2.7-2.7-2.7h-10.7c-1.5 0-2.7 1.2-2.7 2.7v10.7C292 140.8 293.2 142 294.7 142L294.7 142zM294.7 134c0-1.5 1.2-2.7 2.7-2.7h5.3c1.5 0 2.7 1.2 2.7 2.7 0 1.5-1.2 2.7-2.7 2.7h-5.3C295.9 136.6 294.7 135.4 294.7 134L294.7 134zM294.7 134"/><path class="st9" d="M316 142h10.7c1.5 0 2.7-1.2 2.7-2.7v-10.7c0-1.5-1.2-2.7-2.7-2.7H316c-1.5 0-2.7 1.2-2.7 2.7v10.7C313.4 140.8 314.6 142 316 142L316 142zM316 142"/><path class="st10" d="M273.3 142H284c1.5 0 2.7-1.2 2.7-2.7v-10.7c0-1.5-1.2-2.7-2.7-2.7h-10.7c-1.5 0-2.7 1.2-2.7 2.7v10.7C270.6 140.8 271.8 142 273.3 142L273.3 142zM278.6 128.6c3 0 5.3 2.4 5.3 5.3 0 3-2.4 5.3-5.3 5.3 -3 0-5.3-2.4-5.3-5.3C273.3 131 275.7 128.6 278.6 128.6L278.6 128.6zM278.6 128.6"/><path class="st11" d="M294.7 120.6h10.7c1.5 0 2.7-1.2 2.7-2.7v-10.7c0-1.5-1.2-2.7-2.7-2.7h-10.7c-1.5 0-2.7 1.2-2.7 2.7v10.7C292 119.4 293.2 120.6 294.7 120.6L294.7 120.6zM294.7 120.6"/><path class="st6" d="M316 120.6h10.7c1.5 0 2.7-1.2 2.7-2.7v-10.7c0-1.5-1.2-2.7-2.7-2.7H316c-1.5 0-2.7 1.2-2.7 2.7v10.7C313.4 119.4 314.6 120.6 316 120.6L316 120.6zM321.4 107.2c3 0 5.3 2.4 5.3 5.3 0 3-2.4 5.3-5.3 5.3 -3 0-5.3-2.4-5.3-5.3C316 109.6 318.4 107.2 321.4 107.2L321.4 107.2zM321.4 107.2"/><path class="st7" d="M273.3 120.6H284c1.5 0 2.7-1.2 2.7-2.7v-10.7c0-1.5-1.2-2.7-2.7-2.7h-10.7c-1.5 0-2.7 1.2-2.7 2.7v10.7C270.6 119.4 271.8 120.6 273.3 120.6L273.3 120.6zM273.3 120.6"/><path class="st7" d="M284 134c0 3-2.4 5.3-5.3 5.3 -3 0-5.3-2.4-5.3-5.3 0-3 2.4-5.3 5.3-5.3C281.6 128.6 284 131 284 134L284 134zM284 134"/><path class="st7" d="M305.3 190.1c0 3-2.4 5.3-5.3 5.3 -3 0-5.3-2.4-5.3-5.3 0-3 2.4-5.3 5.3-5.3C303 184.7 305.3 187.1 305.3 190.1L305.3 190.1zM305.3 190.1"/><path class="st8" d="M326.7 112.6c0 3-2.4 5.3-5.3 5.3 -3 0-5.3-2.4-5.3-5.3 0-3 2.4-5.3 5.3-5.3C324.3 107.2 326.7 109.6 326.7 112.6L326.7 112.6zM326.7 112.6"/><path class="st3" d="M297.3 136.6h5.3c1.5 0 2.7-1.2 2.7-2.7 0-1.5-1.2-2.7-2.7-2.7h-5.3c-1.5 0-2.7 1.2-2.7 2.7C294.7 135.4 295.9 136.6 297.3 136.6L297.3 136.6zM297.3 136.6"/><path class="st12" d="M318.7 158h5.3c1.5 0 2.7-1.2 2.7-2.7 0-1.5-1.2-2.7-2.7-2.7h-5.3c-1.5 0-2.7 1.2-2.7 2.7C316 156.8 317.2 158 318.7 158L318.7 158zM318.7 158"/><path class="st8" d="M275.9 158h5.3c1.5 0 2.7-1.2 2.7-2.7 0-1.5-1.2-2.7-2.7-2.7h-5.3c-1.5 0-2.7 1.2-2.7 2.7C273.3 156.8 274.5 158 275.9 158L275.9 158zM275.9 158"/><path class="st4" d="M292 174.1c0 1.5-1.2 2.7-2.7 2.7 -1.5 0-2.7-1.2-2.7-2.7 0-1.5 1.2-2.7 2.7-2.7C290.8 171.4 292 172.6 292 174.1L292 174.1zM292 174.1"/><path class="st8" d="M302.7 174.1c0 1.5-1.2 2.7-2.7 2.7 -1.5 0-2.7-1.2-2.7-2.7 0-1.5 1.2-2.7 2.7-2.7C301.5 171.4 302.7 172.6 302.7 174.1L302.7 174.1zM302.7 174.1"/><path class="st8" d="M313.4 174.1c0 1.5-1.2 2.7-2.7 2.7 -1.5 0-2.7-1.2-2.7-2.7 0-1.5 1.2-2.7 2.7-2.7C312.2 171.4 313.4 172.6 313.4 174.1L313.4 174.1zM313.4 174.1"/></svg>