<svg xmlns="http://www.w3.org/2000/svg" viewBox="0 0 100 98"><style type="text/css">  
	.st0{fill:none;}
</style><path class="st0" d="M4.2 4.2h91.7v89.6H4.2V4.2zM0 98h100V0H0V98zM67.4 40.2c-3.3 0-4.4 1.7-4.4 3.1 0 1.5 0.7 2.6 5.2 4.9 6.5 3.2 8.6 6.2 8.6 10.7 0 6.7-5.1 10.3-12 10.3 -3.6 0-6.8-0.8-8.5-1.8 -0.3-0.1-0.3-0.3-0.3-0.7v-6.2c0-0.4 0.2-0.5 0.5-0.3 2.6 1.7 5.6 2.5 8.4 2.5 3.3 0 4.7-1.4 4.7-3.3 0-1.5-1-2.8-5.2-5 -5.9-2.8-8.4-5.7-8.4-10.6 0-5.4 4.2-9.9 11.5-9.9 3.6 0 6.1 0.5 7.5 1.2 0.3 0.2 0.4 0.5 0.4 0.8v5.7c0 0.3-0.2 0.5-0.6 0.4C72.8 40.9 70.1 40.2 67.4 40.2zM31.6 45.2c1 0.1 1.7 0.1 3.4 0.1 4.9 0 9.5-1.7 9.5-8.4 0-5.3-3.3-8-8.8-8 -1.7 0-3.2 0.1-4 0.1V45.2zM24.2 23c0-0.3 0.6-0.5 0.9-0.5 2.7-0.1 6.6-0.2 10.8-0.2 11.5 0 16 6.4 16 14.5 0 10.6-7.7 15.2-17.1 15.2 -1.6 0-2.1-0.1-3.2-0.1v16.1c0 0.3-0.1 0.5-0.5 0.5h-6.4c-0.3 0-0.5-0.1-0.5-0.5V23z"/></svg>