<svg xmlns="http://www.w3.org/2000/svg" xmlns:xlink="http://www.w3.org/1999/xlink" viewBox="0 0 1600 575"><defs><style>.a{fill:url(#a);}.b{fill:#fafafa;}.c{fill:url(#b);}.d{fill:url(#c);}.e{fill:url(#d);}.f{fill:url(#e);}.g{fill:#94a3b8;}.h{fill:#cbd5e1;}</style><linearGradient id="a" x1="132" y1="220.11111" x2="338" y2="220.11111" gradientUnits="userSpaceOnUse"><stop offset="0" stop-color="#191e38"/><stop offset="1" stop-color="#5661b3"/></linearGradient><linearGradient id="b" x1="407.75" y1="220.11111" x2="613.75" y2="220.11111" gradientUnits="userSpaceOnUse"><stop offset="0" stop-color="#5661b3"/><stop offset="1" stop-color="#6574cd"/></linearGradient><linearGradient id="c" x1="683.5" y1="220.11111" x2="889.5" y2="220.11111" gradientUnits="userSpaceOnUse"><stop offset="0" stop-color="#3490dc"/><stop offset="0.99636" stop-color="#4dc0b4"/></linearGradient><linearGradient id="d" x1="959.25" y1="220.11111" x2="1165.25" y2="220.11111" gradientUnits="userSpaceOnUse"><stop offset="0.00217" stop-color="#4dc0b4"/><stop offset="1" stop-color="#38a89d"/></linearGradient><linearGradient id="e" x1="1235" y1="220.11111" x2="1441" y2="220.11111" gradientUnits="userSpaceOnUse"><stop offset="0" stop-color="#38a89d"/><stop offset="1" stop-color="#20504f"/></linearGradient></defs><circle class="a" cx="235" cy="220.11111" r="103"/><path class="b" d="M211.55664,220.4451a8.43688,8.43688,0,0,1-2.4082,6.48046q-2.40821,2.25-6.95508,2.25H197.3418V212.04275h5.3789a9.05788,9.05788,0,0,1,6.51563,2.21485A8.147,8.147,0,0,1,211.55664,220.4451Zm-3.77344.09375q0-5.51953-4.875-5.51954h-1.93359v11.15625h1.55859Q207.7832,226.17556,207.7832,220.53885Z"/><path class="b" d="M220.75586,229.40994a6.76224,6.76224,0,0,1-4.94531-1.74609,6.61136,6.61136,0,0,1-1.78125-4.94532,7.2715,7.2715,0,0,1,1.64648-5.09179,5.86276,5.86276,0,0,1,4.55274-1.79883,5.77061,5.77061,0,0,1,4.32421,1.582,5.98514,5.98514,0,0,1,1.54688,4.37109v1.73438h-8.44922a3.44034,3.44034,0,0,0,.90234,2.3789,3.17492,3.17492,0,0,0,2.36719.85547,9.82714,9.82714,0,0,0,2.23828-.24609,11.19921,11.19921,0,0,0,2.20313-.78516v2.76563a8.39243,8.39243,0,0,1-2.00391.69726A12.63413,12.63413,0,0,1,220.75586,229.40994Zm-.50391-11.03906a2.26706,2.26706,0,0,0-1.78125.7207,3.33562,3.33562,0,0,0-.73828,2.04492h5.01563a2.97946,2.97946,0,0,0-.69141-2.04492A2.341,2.341,0,0,0,220.252,218.37088Z"/><path class="b" d="M236.24805,218.7576H233.1543v10.418h-3.57422v-10.418h-1.96875v-1.72266l1.96875-.96094v-.96094a4.29243,4.29243,0,0,1,1.10156-3.26953,5.04785,5.04785,0,0,1,3.52734-1.03125,9.18015,9.18015,0,0,1,3.293.55078l-.91406,2.625a6.66219,6.66219,0,0,0-1.99219-.33984,1.29,1.29,0,0,0-1.10156.45117,1.86612,1.86612,0,0,0-.33984,1.1543v.82031h3.09375Zm1.89843-6.07032q0-1.74609,1.94532-1.74609t1.94531,1.74609a1.70232,1.70232,0,0,1-.48633,1.29492,2.04415,2.04415,0,0,1-1.459.4629Q238.14648,214.4451,238.14648,212.68728Zm3.72657,16.48828h-3.57422V216.074h3.57422Z"/><path class="b" d="M257.70508,229.17556h-3.57422v-7.65234a3.67558,3.67558,0,0,0-.50391-2.127,1.83332,1.83332,0,0,0-1.60547-.709,2.41367,2.41367,0,0,0-2.168,1.002,6.21393,6.21393,0,0,0-.668,3.32226v6.16406h-3.57422V216.074h2.73047l.48047,1.67578h.19921a3.77712,3.77712,0,0,1,1.64649-1.43554,5.60657,5.60657,0,0,1,2.38476-.48633,4.58177,4.58177,0,0,1,3.46875,1.23633,4.96126,4.96126,0,0,1,1.1836,3.56836Z"/><path class="b" d="M267.31445,229.40994a6.76226,6.76226,0,0,1-4.94531-1.74609,6.61136,6.61136,0,0,1-1.78125-4.94532,7.27151,7.27151,0,0,1,1.64649-5.09179,5.86272,5.86272,0,0,1,4.55273-1.79883,5.77063,5.77063,0,0,1,4.32422,1.582,5.98513,5.98513,0,0,1,1.54687,4.37109v1.73438H264.209a3.44039,3.44039,0,0,0,.90235,2.3789,3.1749,3.1749,0,0,0,2.36719.85547,9.8272,9.8272,0,0,0,2.23828-.24609,11.19913,11.19913,0,0,0,2.20312-.78516v2.76563a8.39251,8.39251,0,0,1-2.0039.69726A12.63423,12.63423,0,0,1,267.31445,229.40994Zm-.5039-11.03906a2.267,2.267,0,0,0-1.78125.7207,3.33556,3.33556,0,0,0-.73828,2.04492h5.01562a2.97937,2.97937,0,0,0-.69141-2.04492A2.341,2.341,0,0,0,266.81055,218.37088Z"/><circle class="c" cx="510.75" cy="220.11111" r="103"/><path class="b" d="M461.543,222.53689v6.57422h-3.63281V211.9783h4.99218a8.54417,8.54417,0,0,1,5.168,1.27148,5.0694,5.0694,0,0,1,.84375,6.55078,5.50523,5.50523,0,0,1-2.35547,1.84571q3.8672,5.77734,5.03907,7.46484h-4.03125l-4.08985-6.57422Zm0-2.95312h1.17187a4.48325,4.48325,0,0,0,2.543-.57422,2.04964,2.04964,0,0,0,.82031-1.80469,1.87474,1.87474,0,0,0-.83789-1.73437,5.08444,5.08444,0,0,0-2.5957-.51563H461.543Z"/><path class="b" d="M479.40234,229.34549a6.76226,6.76226,0,0,1-4.94531-1.7461,6.61133,6.61133,0,0,1-1.78125-4.94531,7.27155,7.27155,0,0,1,1.64649-5.0918,5.86272,5.86272,0,0,1,4.55273-1.79883,5.77064,5.77064,0,0,1,4.32422,1.582,5.9851,5.9851,0,0,1,1.54687,4.37109V223.451h-8.44921a3.44035,3.44035,0,0,0,.90234,2.37891,3.17494,3.17494,0,0,0,2.36719.85547,9.8272,9.8272,0,0,0,2.23828-.24609,11.20042,11.20042,0,0,0,2.20312-.78516v2.76562a8.39253,8.39253,0,0,1-2.0039.69727A12.63493,12.63493,0,0,1,479.40234,229.34549Zm-.5039-11.03907a2.267,2.267,0,0,0-1.78125.72071,3.33556,3.33556,0,0,0-.73828,2.04492h5.01562a2.97937,2.97937,0,0,0-.69141-2.04492A2.341,2.341,0,0,0,478.89844,218.30642Z"/><path class="b" d="M496.793,225.22049a3.60711,3.60711,0,0,1-1.40039,3.07031,6.91944,6.91944,0,0,1-4.18946,1.05469,13.15916,13.15916,0,0,1-2.4375-.19336,9.21987,9.21987,0,0,1-1.88671-.56836v-2.95313a12.45989,12.45989,0,0,0,2.24414.78516,9.08674,9.08674,0,0,0,2.19726.3164q1.94532,0,1.94531-1.125a.93891.93891,0,0,0-.25781-.68554,3.738,3.738,0,0,0-.89062-.59766q-.63282-.334-1.6875-.7793a10.601,10.601,0,0,1-2.22071-1.17187,3.29881,3.29881,0,0,1-1.03125-1.23633,4.08107,4.08107,0,0,1-.32226-1.7168,3.11226,3.11226,0,0,1,1.35351-2.70117,6.59316,6.59316,0,0,1,3.8379-.95508,10.89363,10.89363,0,0,1,4.60546,1.03125l-1.07812,2.57813q-.98437-.42187-1.83984-.69141a5.77779,5.77779,0,0,0-1.7461-.26953q-1.582,0-1.582.85547a1.00572,1.00572,0,0,0,.50977.832,13.86243,13.86243,0,0,0,2.23242,1.043,10.37065,10.37065,0,0,1,2.25,1.16016,3.43122,3.43122,0,0,1,1.05468,1.24218A3.81709,3.81709,0,0,1,496.793,225.22049Z"/><path class="b" d="M505.51172,229.34549a6.76225,6.76225,0,0,1-4.94531-1.7461,6.61133,6.61133,0,0,1-1.78125-4.94531,7.27155,7.27155,0,0,1,1.64648-5.0918,5.86276,5.86276,0,0,1,4.55274-1.79883,5.77061,5.77061,0,0,1,4.32421,1.582,5.98511,5.98511,0,0,1,1.54688,4.37109V223.451h-8.44922a3.44035,3.44035,0,0,0,.90234,2.37891,3.175,3.175,0,0,0,2.36719.85547,9.82714,9.82714,0,0,0,2.23828-.24609,11.2005,11.2005,0,0,0,2.20313-.78516v2.76562a8.39245,8.39245,0,0,1-2.00391.69727A12.63483,12.63483,0,0,1,505.51172,229.34549Zm-.50391-11.03907a2.26706,2.26706,0,0,0-1.78125.72071,3.33562,3.33562,0,0,0-.73828,2.04492h5.01563a2.97946,2.97946,0,0,0-.69141-2.04492A2.341,2.341,0,0,0,505.00781,218.30642Z"/><path class="b" d="M522.082,229.11111l-.69141-1.78125h-.09374a5.279,5.279,0,0,1-1.85743,1.57617,6.00256,6.00256,0,0,1-2.49023.43946,4.02676,4.02676,0,0,1-2.9707-1.07813,4.14034,4.14034,0,0,1-1.084-3.07031,3.45722,3.45722,0,0,1,1.459-3.07617,8.454,8.454,0,0,1,4.40039-1.09571l2.27343-.07031v-.57422a1.78187,1.78187,0,0,0-2.03906-1.99219,9.292,9.292,0,0,0-3.6914.94922l-1.1836-2.41406a10.65107,10.65107,0,0,1,5.01563-1.18359,6.24775,6.24775,0,0,1,4.043,1.14843,4.24428,4.24428,0,0,1,1.40624,3.49219v8.73047Zm-1.05469-6.07031-1.38281.04687a4.42833,4.42833,0,0,0-2.32031.5625,1.76673,1.76673,0,0,0-.76172,1.57032q0,1.51171,1.73438,1.51171a2.74681,2.74681,0,0,0,1.98632-.71484,2.51082,2.51082,0,0,0,.74414-1.89844Z"/><path class="b" d="M535.57031,215.76345a5.76419,5.76419,0,0,1,1.207.10547l-.26953,3.35157a4.09427,4.09427,0,0,0-1.05469-.11719,3.79028,3.79028,0,0,0-2.666.8789,3.17713,3.17713,0,0,0-.95508,2.46094v6.668h-3.57422V216.00955h2.707l.52735,2.20312h.17578a4.92511,4.92511,0,0,1,1.64648-1.77539A4.05986,4.05986,0,0,1,535.57031,215.76345Z"/><path class="b" d="M544.47656,229.34549q-6.11718,0-6.11718-6.71485a7.16252,7.16252,0,0,1,1.66406-5.10351,6.24243,6.24243,0,0,1,4.76953-1.76368,9.09264,9.09264,0,0,1,4.07812.89063l-1.05468,2.76562q-.84375-.33984-1.57032-.55664a5.05964,5.05964,0,0,0-1.45312-.21679q-2.78907,0-2.78906,3.96093,0,3.84375,2.78906,3.84375a6.35884,6.35884,0,0,0,1.91015-.27539,6.89688,6.89688,0,0,0,1.75782-.86132v3.05859a5.76065,5.76065,0,0,1-1.752.76172A9.85241,9.85241,0,0,1,544.47656,229.34549Z"/><path class="b" d="M563.58984,229.11111h-3.57422v-7.65234q0-2.83594-2.10937-2.83594a2.39877,2.39877,0,0,0-2.168,1.01953,6.22674,6.22674,0,0,0-.668,3.30469v6.16406h-3.57422V210.87674h3.57422v3.71484q0,.43359-.082,2.03906l-.082,1.05469h.1875a4.14038,4.14038,0,0,1,3.79687-1.92188,4.642,4.642,0,0,1,3.50391,1.24219,4.93493,4.93493,0,0,1,1.19531,3.5625Z"/><circle class="d" cx="786.5" cy="220.11111" r="103"/><path class="b" d="M762.42969,217.615a8.43691,8.43691,0,0,1-2.40821,6.48047q-2.40819,2.25-6.95507,2.25h-4.85157V209.21267h5.37891a9.0579,9.0579,0,0,1,6.51563,2.21485A8.147,8.147,0,0,1,762.42969,217.615Zm-3.77344.09375q0-5.51953-4.875-5.51953h-1.93359v11.15625h1.55859Q758.65625,223.34549,758.65625,217.70877Z"/><path class="b" d="M771.62891,226.57986a6.76227,6.76227,0,0,1-4.94532-1.74609,6.61136,6.61136,0,0,1-1.78125-4.94532,7.27152,7.27152,0,0,1,1.64649-5.09179,5.86272,5.86272,0,0,1,4.55273-1.79883,5.77063,5.77063,0,0,1,4.32422,1.582,5.98514,5.98514,0,0,1,1.54688,4.37109v1.73438h-8.44922a3.44038,3.44038,0,0,0,.90234,2.37891,3.17494,3.17494,0,0,0,2.36719.85546,9.8272,9.8272,0,0,0,2.23828-.24609,11.19921,11.19921,0,0,0,2.20313-.78516v2.76563a8.39289,8.39289,0,0,1-2.00391.69727A12.635,12.635,0,0,1,771.62891,226.57986ZM771.125,215.5408a2.26706,2.26706,0,0,0-1.78125.7207,3.33556,3.33556,0,0,0-.73828,2.04492h5.01562a2.97941,2.97941,0,0,0-.6914-2.04492A2.341,2.341,0,0,0,771.125,215.5408Z"/><path class="b" d="M789.01953,222.45486a3.6071,3.6071,0,0,1-1.40039,3.07031,6.91934,6.91934,0,0,1-4.18945,1.05469,13.15814,13.15814,0,0,1-2.4375-.19336,9.21935,9.21935,0,0,1-1.88672-.56836V222.865a12.45912,12.45912,0,0,0,2.24414.78515,9.08681,9.08681,0,0,0,2.19727.31641q1.94531,0,1.94531-1.125a.939.939,0,0,0-.25781-.68555,3.73807,3.73807,0,0,0-.89063-.59765q-.6328-.334-1.6875-.7793a10.60052,10.60052,0,0,1-2.2207-1.17188,3.2986,3.2986,0,0,1-1.03125-1.23632,4.08094,4.08094,0,0,1-.32227-1.7168,3.11224,3.11224,0,0,1,1.35352-2.70117,6.59312,6.59312,0,0,1,3.83789-.95508,10.8937,10.8937,0,0,1,4.60547,1.03125l-1.07813,2.57812q-.98437-.42187-1.83984-.6914a5.77748,5.77748,0,0,0-1.7461-.26953q-1.582,0-1.582.85547a1.00574,1.00574,0,0,0,.50977.832,13.86333,13.86333,0,0,0,2.23242,1.043,10.37115,10.37115,0,0,1,2.25,1.16015,3.43145,3.43145,0,0,1,1.05469,1.24219A3.81719,3.81719,0,0,1,789.01953,222.45486Z"/><path class="b" d="M791.65625,209.8572q0-1.74609,1.94531-1.74609t1.94532,1.74609a1.70235,1.70235,0,0,1-.48633,1.29493,2.04421,2.04421,0,0,1-1.459.46289Q791.65626,211.615,791.65625,209.8572Zm3.72656,16.48829h-3.57422V213.24392h3.57422Z"/><path class="b" d="M810.53516,213.24392v1.81641l-2.05078.52734a3.575,3.575,0,0,1,.5625,1.96875,3.97467,3.97467,0,0,1-1.47071,3.28711,6.36987,6.36987,0,0,1-4.084,1.17774l-.64453-.03516-.52735-.05859a1.18854,1.18854,0,0,0-.55078.9375q0,.77343,1.96875.77343h2.22656a5.07923,5.07923,0,0,1,3.28711.92579,3.3091,3.3091,0,0,1,1.13086,2.71875,4.03192,4.03192,0,0,1-1.916,3.5625,9.97854,9.97854,0,0,1-5.502,1.26562,7.617,7.617,0,0,1-4.18945-.95508,3.03257,3.03257,0,0,1-1.44727-2.67773,2.80321,2.80321,0,0,1,.73829-1.98047,4.19212,4.19212,0,0,1,2.168-1.13672,2.39215,2.39215,0,0,1-.96094-.76758,1.88632,1.88632,0,0,1,.02344-2.3789,5.013,5.013,0,0,1,1.2539-.97852,3.51654,3.51654,0,0,1-1.63476-1.42969,4.35083,4.35083,0,0,1-.60352-2.32031,4.0919,4.0919,0,0,1,1.39453-3.31641,6.03,6.03,0,0,1,3.98438-1.17187,10.19719,10.19719,0,0,1,1.30664.09961q.75585.09961.96679.14648Zm-10.11328,14.95313a1.29532,1.29532,0,0,0,.709,1.16015,3.901,3.901,0,0,0,1.98633.42188,7.036,7.036,0,0,0,3.01172-.52734,1.60724,1.60724,0,0,0,1.08984-1.44141,1.02035,1.02035,0,0,0-.64453-1.01953,5.27825,5.27825,0,0,0-1.99219-.28125h-1.85156a2.80393,2.80393,0,0,0-1.64649.46289A1.42758,1.42758,0,0,0,800.42188,228.19705Zm1.30078-10.66406a2.66765,2.66765,0,0,0,.48632,1.6875,1.76643,1.76643,0,0,0,1.48243.62109,1.73006,1.73006,0,0,0,1.47656-.62109,2.739,2.739,0,0,0,.46875-1.6875q0-2.3672-1.94531-2.36719Q801.72266,215.1658,801.72266,217.533Z"/><path class="b" d="M824.78516,226.34549h-3.57422v-7.65235a3.6756,3.6756,0,0,0-.50391-2.12695,1.83334,1.83334,0,0,0-1.60547-.709,2.4137,2.4137,0,0,0-2.168,1.002,6.21405,6.21405,0,0,0-.668,3.32226v6.16407h-3.57421V213.24392h2.73047l.48046,1.67578h.19922a3.77719,3.77719,0,0,1,1.64649-1.43554,5.60657,5.60657,0,0,1,2.38476-.48633,4.58177,4.58177,0,0,1,3.46875,1.23633,4.96132,4.96132,0,0,1,1.1836,3.56836Z"/><circle class="e" cx="1062.25" cy="220.11111" r="103"/><path class="b" d="M1009.81445,217.32205a5.23654,5.23654,0,0,1-1.72851,4.23047,7.39265,7.39265,0,0,1-4.916,1.46484h-1.55859v6.09375h-3.63281V211.9783h5.47265a7.27915,7.27915,0,0,1,4.74024,1.3418A4.89248,4.89248,0,0,1,1009.81445,217.32205Zm-8.20312,2.71875h1.19531a3.98071,3.98071,0,0,0,2.50781-.66211,2.31726,2.31726,0,0,0,.832-1.92774,2.376,2.376,0,0,0-.69726-1.88671,3.26713,3.26713,0,0,0-2.18555-.60938h-1.65234Z"/><path class="b" d="M1020.08008,215.76345a5.76426,5.76426,0,0,1,1.207.10547l-.26953,3.35157a4.09432,4.09432,0,0,0-1.05469-.11719,3.79027,3.79027,0,0,0-2.666.8789,3.17713,3.17713,0,0,0-.95508,2.46094v6.668h-3.57422V216.00955h2.707l.52734,2.20312h.17578a4.92505,4.92505,0,0,1,1.64649-1.77539A4.05983,4.05983,0,0,1,1020.08008,215.76345Z"/><path class="b" d="M1035.57227,222.53689a7.04036,7.04036,0,0,1-1.6875,5.00391,6.11872,6.11872,0,0,1-4.69922,1.80469,6.57355,6.57355,0,0,1-3.32813-.82618,5.49739,5.49739,0,0,1-2.21484-2.373,7.974,7.974,0,0,1-.77344-3.60938,7.00167,7.00167,0,0,1,1.67578-4.99219,6.154,6.154,0,0,1,4.71094-1.78125,6.61074,6.61074,0,0,1,3.32812.82032,5.47523,5.47523,0,0,1,2.21485,2.35547A7.90024,7.90024,0,0,1,1035.57227,222.53689Zm-9.0586,0a5.499,5.499,0,0,0,.63867,2.94141,2.2841,2.2841,0,0,0,2.08008.99609,2.24776,2.24776,0,0,0,2.05664-.99023,5.5779,5.5779,0,0,0,.627-2.94727,5.41161,5.41161,0,0,0-.63282-2.918,2.69071,2.69071,0,0,0-4.13672-.00586A5.407,5.407,0,0,0,1026.51367,222.53689Z"/><path class="b" d="M1042.67383,229.34549a4.25542,4.25542,0,0,1-3.62695-1.793,10.04487,10.04487,0,0,1,.02343-9.99024,4.35806,4.35806,0,0,1,3.69727-1.79883,4.27406,4.27406,0,0,1,3.77344,1.92188h.11718a14.61273,14.61273,0,0,1-.26953-2.61328v-4.19531h3.58594v18.23437h-2.74219l-.6914-1.69922h-.15235A4.09009,4.09009,0,0,1,1042.67383,229.34549Zm1.2539-2.84766a2.422,2.422,0,0,0,2.00977-.79688,4.63557,4.63557,0,0,0,.69727-2.707v-.38672a5.35706,5.35706,0,0,0-.65039-3.02343,2.4157,2.4157,0,0,0-2.11524-.91407,2.098,2.098,0,0,0-1.85742,1.01368,5.40811,5.40811,0,0,0-.66211,2.94726,5.12529,5.12529,0,0,0,.668,2.90039A2.18235,2.18235,0,0,0,1043.92773,226.49783Z"/><path class="b" d="M1062.99414,229.11111l-.48047-1.67578h-.1875a3.771,3.771,0,0,1-1.6289,1.41211,5.56136,5.56136,0,0,1-2.40235.49805,4.57471,4.57471,0,0,1-3.48047-1.23633,4.97455,4.97455,0,0,1-1.17187-3.55664v-8.543h3.57422v7.65234a3.67572,3.67572,0,0,0,.5039,2.127,1.83337,1.83337,0,0,0,1.60547.709,2.41368,2.41368,0,0,0,2.168-1.00195,6.21407,6.21407,0,0,0,.668-3.32227v-6.16406h3.57422v13.10156Z"/><path class="b" d="M1074.80664,229.34549q-6.11718,0-6.11719-6.71485a7.16252,7.16252,0,0,1,1.66407-5.10351,6.24242,6.24242,0,0,1,4.76953-1.76368,9.09264,9.09264,0,0,1,4.07812.89063l-1.05469,2.76562q-.84375-.33984-1.57031-.55664a5.05964,5.05964,0,0,0-1.45312-.21679q-2.78907,0-2.78907,3.96093,0,3.84375,2.78907,3.84375a6.35884,6.35884,0,0,0,1.91015-.27539,6.89688,6.89688,0,0,0,1.75782-.86132v3.05859a5.76065,5.76065,0,0,1-1.752.76172A9.85241,9.85241,0,0,1,1074.80664,229.34549Z"/><path class="b" d="M1087.3457,226.49783a7.74788,7.74788,0,0,0,2.25-.41016v2.66016a8.02226,8.02226,0,0,1-3.28125.59766,4.01591,4.01591,0,0,1-3.123-1.084,4.71818,4.71818,0,0,1-.97852-3.252v-6.31641H1080.502v-1.51172l1.96875-1.19531,1.03125-2.76562h2.28516v2.78906h3.668v2.68359h-3.668v6.31641a1.39536,1.39536,0,0,0,.42773,1.125A1.68765,1.68765,0,0,0,1087.3457,226.49783Z"/><path class="b" d="M1092.0918,212.62283q0-1.74609,1.94531-1.74609t1.94531,1.74609a1.70232,1.70232,0,0,1-.48633,1.29492,2.04412,2.04412,0,0,1-1.459.46289Q1092.09179,214.38064,1092.0918,212.62283Zm3.72656,16.48828h-3.57422V216.00955h3.57422Z"/><path class="b" d="M1111.47461,222.53689a7.04036,7.04036,0,0,1-1.6875,5.00391,6.11872,6.11872,0,0,1-4.69922,1.80469,6.57351,6.57351,0,0,1-3.32812-.82618,5.49747,5.49747,0,0,1-2.21485-2.373,7.97415,7.97415,0,0,1-.77344-3.60938,7.00167,7.00167,0,0,1,1.67579-4.99219,6.154,6.154,0,0,1,4.71093-1.78125,6.61078,6.61078,0,0,1,3.32813.82032,5.47515,5.47515,0,0,1,2.21484,2.35547A7.90011,7.90011,0,0,1,1111.47461,222.53689Zm-9.05859,0a5.499,5.499,0,0,0,.63867,2.94141,2.2841,2.2841,0,0,0,2.08008.99609,2.24777,2.24777,0,0,0,2.05664-.99023,5.57791,5.57791,0,0,0,.627-2.94727,5.41171,5.41171,0,0,0-.63281-2.918,2.69071,2.69071,0,0,0-4.13672-.00586A5.40686,5.40686,0,0,0,1102.416,222.53689Z"/><path class="b" d="M1126.52148,229.11111h-3.57421v-7.65234a3.67562,3.67562,0,0,0-.50391-2.127,1.83335,1.83335,0,0,0-1.60547-.709,2.41368,2.41368,0,0,0-2.168,1.00195,6.21407,6.21407,0,0,0-.668,3.32227v6.16406h-3.57422V216.00955h2.73047l.48047,1.67578h.19922a3.77721,3.77721,0,0,1,1.64649-1.43555,5.60653,5.60653,0,0,1,2.38476-.48633,4.58177,4.58177,0,0,1,3.46875,1.23633,4.96132,4.96132,0,0,1,1.18359,3.56836Z"/><circle class="f" cx="1338" cy="220.11111" r="103"/><path class="b" d="M1304.20312,226.34549l-1.24218-4.07813h-6.2461l-1.24218,4.07813h-3.91407l6.04688-17.20313h4.44141l6.07031,17.20313Zm-2.10937-7.125q-1.72266-5.543-1.93945-6.26954t-.31055-1.14843q-.38672,1.5-2.21484,7.418Z"/><path class="b" d="M1322.08594,226.34549h-3.57422v-7.65235a3.6756,3.6756,0,0,0-.50391-2.12695,1.83332,1.83332,0,0,0-1.60547-.709,2.41367,2.41367,0,0,0-2.168,1.002,6.214,6.214,0,0,0-.668,3.32226v6.16407h-3.57422V213.24392h2.73047l.48046,1.67578h.19922a3.77719,3.77719,0,0,1,1.64649-1.43554,5.60657,5.60657,0,0,1,2.38476-.48633,4.58177,4.58177,0,0,1,3.46875,1.23633,4.96128,4.96128,0,0,1,1.1836,3.56836Z"/><path class="b" d="M1334.08594,226.34549l-.69141-1.78125h-.09375a5.27891,5.27891,0,0,1-1.85742,1.57617,6.00262,6.00262,0,0,1-2.49024.43945,4.02677,4.02677,0,0,1-2.9707-1.07812,4.14038,4.14038,0,0,1-1.084-3.07032,3.45726,3.45726,0,0,1,1.459-3.07617,8.45408,8.45408,0,0,1,4.40039-1.0957l2.27344-.07031V217.615a1.78187,1.78187,0,0,0-2.03906-1.99219,9.292,9.292,0,0,0-3.69141.94922l-1.18359-2.41406a10.65094,10.65094,0,0,1,5.01562-1.1836,6.24769,6.24769,0,0,1,4.043,1.14844,4.24427,4.24427,0,0,1,1.40625,3.49219v8.73047Zm-1.05469-6.07032-1.38281.04688a4.4284,4.4284,0,0,0-2.32032.5625,1.76672,1.76672,0,0,0-.76171,1.57031q0,1.51172,1.73437,1.51172a2.74681,2.74681,0,0,0,1.98633-.71484,2.51089,2.51089,0,0,0,.74414-1.89844Z"/><path class="b" d="M1343.83594,226.34549h-3.57422V208.11111h3.57422Z"/><path class="b" d="M1345.71094,213.24392h3.91406l2.47266,7.3711a10.228,10.228,0,0,1,.43359,2.27343h.07031a10.0465,10.0465,0,0,1,.50391-2.27343l2.42578-7.3711h3.832l-5.543,14.77735a6.39818,6.39818,0,0,1-2.17383,3.07031,5.48659,5.48659,0,0,1-3.29882,1.01953,8.29576,8.29576,0,0,1-1.81641-.19922V229.076a6.10944,6.10944,0,0,0,1.40625.15235,2.53965,2.53965,0,0,0,1.6582-.58008,3.76054,3.76054,0,0,0,1.10742-1.752l.21094-.64453Z"/><path class="b" d="M1370.37891,222.45486a3.6071,3.6071,0,0,1-1.40039,3.07031,6.91937,6.91937,0,0,1-4.18946,1.05469,13.15829,13.15829,0,0,1-2.4375-.19336,9.21953,9.21953,0,0,1-1.88672-.56836V222.865a12.4594,12.4594,0,0,0,2.24414.78515,9.087,9.087,0,0,0,2.19727.31641q1.9453,0,1.94531-1.125a.939.939,0,0,0-.25781-.68555,3.73765,3.73765,0,0,0-.89063-.59765q-.6328-.334-1.6875-.7793a10.60078,10.60078,0,0,1-2.2207-1.17188,3.29878,3.29878,0,0,1-1.03125-1.23632,4.0811,4.0811,0,0,1-.32226-1.7168,3.11226,3.11226,0,0,1,1.35351-2.70117,6.59315,6.59315,0,0,1,3.83789-.95508,10.89367,10.89367,0,0,1,4.60547,1.03125l-1.07812,2.57812q-.98437-.42187-1.83985-.6914a5.77737,5.77737,0,0,0-1.74609-.26953q-1.582,0-1.582.85547a1.00575,1.00575,0,0,0,.50976.832,13.864,13.864,0,0,0,2.23243,1.043,10.37164,10.37164,0,0,1,2.25,1.16015,3.43132,3.43132,0,0,1,1.05468,1.24219A3.81719,3.81719,0,0,1,1370.37891,222.45486Z"/><path class="b" d="M1379.09766,226.57986a6.76227,6.76227,0,0,1-4.94532-1.74609,6.61136,6.61136,0,0,1-1.78125-4.94532,7.27152,7.27152,0,0,1,1.64649-5.09179,5.86272,5.86272,0,0,1,4.55273-1.79883,5.77062,5.77062,0,0,1,4.32422,1.582,5.98514,5.98514,0,0,1,1.54688,4.37109v1.73438h-8.44922a3.44038,3.44038,0,0,0,.90234,2.37891,3.17494,3.17494,0,0,0,2.36719.85546,9.82714,9.82714,0,0,0,2.23828-.24609,11.19913,11.19913,0,0,0,2.20312-.78516v2.76563a8.39282,8.39282,0,0,1-2.0039.69727A12.635,12.635,0,0,1,1379.09766,226.57986Zm-.50391-11.03906a2.26706,2.26706,0,0,0-1.78125.7207,3.33556,3.33556,0,0,0-.73828,2.04492h5.01562a2.97941,2.97941,0,0,0-.6914-2.04492A2.341,2.341,0,0,0,1378.59375,215.5408Z"/><path class="g" d="M157.56738,68.97461a8.4369,8.4369,0,0,1-2.4082,6.48047q-2.40821,2.25-6.95508,2.25h-4.85156V60.57227h5.37891a9.0579,9.0579,0,0,1,6.51562,2.21484A8.147,8.147,0,0,1,157.56738,68.97461Zm-3.77343.09375q0-5.51953-4.875-5.51953h-1.9336V74.70508h1.5586Q153.794,74.70508,153.794,69.06836Z"/><path class="g" d="M166.7666,77.93945a6.76226,6.76226,0,0,1-4.94531-1.74609A6.61133,6.61133,0,0,1,160.04,71.24805a7.27158,7.27158,0,0,1,1.64648-5.0918,5.86276,5.86276,0,0,1,4.55274-1.79883,5.77067,5.77067,0,0,1,4.32422,1.582,5.98514,5.98514,0,0,1,1.54687,4.3711v1.73437h-8.44922a3.4404,3.4404,0,0,0,.90235,2.37891,3.17493,3.17493,0,0,0,2.36718.85547,9.82666,9.82666,0,0,0,2.23829-.2461,11.19971,11.19971,0,0,0,2.20312-.78515v2.76562a8.39289,8.39289,0,0,1-2.00391.69727A12.63483,12.63483,0,0,1,166.7666,77.93945Zm-.5039-11.03906a2.267,2.267,0,0,0-1.78125.7207,3.33557,3.33557,0,0,0-.73829,2.04493h5.01563a2.97942,2.97942,0,0,0-.69141-2.04493A2.341,2.341,0,0,0,166.2627,66.90039Z"/><path class="g" d="M184.15723,73.81445a3.60713,3.60713,0,0,1-1.40039,3.07032,6.91944,6.91944,0,0,1-4.18946,1.05468,13.15829,13.15829,0,0,1-2.4375-.19336,9.21953,9.21953,0,0,1-1.88672-.56836V74.22461a12.46016,12.46016,0,0,0,2.24414.78516,9.08738,9.08738,0,0,0,2.19727.3164q1.94532,0,1.94531-1.125a.939.939,0,0,0-.25781-.68555,3.73776,3.73776,0,0,0-.89062-.59765q-.63282-.334-1.6875-.7793a10.6007,10.6007,0,0,1-2.22071-1.17187,3.29889,3.29889,0,0,1-1.03125-1.23633,4.0811,4.0811,0,0,1-.32226-1.7168,3.11226,3.11226,0,0,1,1.35351-2.70117,6.59315,6.59315,0,0,1,3.83789-.95508,10.89367,10.89367,0,0,1,4.60547,1.03125l-1.07812,2.57813q-.98437-.42187-1.83985-.69141a5.77737,5.77737,0,0,0-1.74609-.26953q-1.582,0-1.582.85547a1.00575,1.00575,0,0,0,.50976.832,13.864,13.864,0,0,0,2.23243,1.043,10.37164,10.37164,0,0,1,2.25,1.16015,3.43132,3.43132,0,0,1,1.05468,1.24219A3.81708,3.81708,0,0,1,184.15723,73.81445Z"/><path class="g" d="M186.794,61.2168q0-1.74611,1.94531-1.7461t1.94531,1.7461a1.70235,1.70235,0,0,1-.48633,1.29492,2.04418,2.04418,0,0,1-1.459.46289Q186.79394,62.97461,186.794,61.2168Zm3.72656,16.48828h-3.57422V64.60352h3.57422Z"/><path class="g" d="M205.67285,64.60352v1.8164l-2.05078.52735a3.575,3.575,0,0,1,.5625,1.96875,3.97464,3.97464,0,0,1-1.4707,3.2871,6.3699,6.3699,0,0,1-4.084,1.17774l-.64453-.03516-.52734-.05859a1.18854,1.18854,0,0,0-.55078.9375q0,.77343,1.96875.77344h2.22656a5.07925,5.07925,0,0,1,3.28711.92578,3.30916,3.30916,0,0,1,1.13086,2.71875,4.0319,4.0319,0,0,1-1.916,3.5625,9.97851,9.97851,0,0,1-5.50195,1.26562,7.617,7.617,0,0,1-4.18945-.95508,3.03254,3.03254,0,0,1-1.44727-2.67773,2.8032,2.8032,0,0,1,.73828-1.98047,4.19227,4.19227,0,0,1,2.168-1.13672,2.39215,2.39215,0,0,1-.96094-.76758,1.88636,1.88636,0,0,1,.02344-2.3789,5.01309,5.01309,0,0,1,1.25391-.97852,3.51654,3.51654,0,0,1-1.63477-1.42968,4.351,4.351,0,0,1-.60351-2.32032,4.09189,4.09189,0,0,1,1.39453-3.3164,6.03,6.03,0,0,1,3.98437-1.17188,10.19694,10.19694,0,0,1,1.30664.09961q.75586.09961.9668.14649ZM195.55957,79.55664a1.29536,1.29536,0,0,0,.709,1.16016,3.90105,3.90105,0,0,0,1.98633.42187,7.036,7.036,0,0,0,3.01172-.52734,1.60724,1.60724,0,0,0,1.08985-1.44141,1.02035,1.02035,0,0,0-.64454-1.01953,5.27819,5.27819,0,0,0-1.99218-.28125h-1.85157a2.8039,2.8039,0,0,0-1.64648.46289A1.42757,1.42757,0,0,0,195.55957,79.55664Zm1.30078-10.66406a2.66755,2.66755,0,0,0,.48633,1.6875,1.76642,1.76642,0,0,0,1.48242.62109,1.73005,1.73005,0,0,0,1.47656-.62109,2.739,2.739,0,0,0,.46875-1.6875q0-2.36719-1.94531-2.36719Q196.86035,66.52539,196.86035,68.89258Z"/><path class="g" d="M219.92285,77.70508h-3.57422V70.05273a3.67569,3.67569,0,0,0-.5039-2.12695,1.83334,1.83334,0,0,0-1.60547-.709,2.41368,2.41368,0,0,0-2.168,1.00195,6.21407,6.21407,0,0,0-.668,3.32227v6.16406H207.8291V64.60352h2.73047L211.04,66.2793h.19922a3.77712,3.77712,0,0,1,1.64648-1.43555,5.60658,5.60658,0,0,1,2.38477-.48633,4.58177,4.58177,0,0,1,3.46875,1.23633,4.96132,4.96132,0,0,1,1.18359,3.56836Z"/><path class="g" d="M240.23145,72.94727a4.42883,4.42883,0,0,1-1.66993,3.65625,7.25413,7.25413,0,0,1-4.64648,1.33593,10.91231,10.91231,0,0,1-4.85156-1.03125v-3.375a19.99289,19.99289,0,0,0,2.93554,1.08985,8.68683,8.68683,0,0,0,2.19727.3164,3.1241,3.1241,0,0,0,1.834-.457,1.56321,1.56321,0,0,0,.63868-1.35937,1.50066,1.50066,0,0,0-.28125-.89649,3.14725,3.14725,0,0,0-.82618-.75586,21.24964,21.24964,0,0,0-2.2207-1.16015,10.52617,10.52617,0,0,1-2.35547-1.418,5.32313,5.32313,0,0,1-1.2539-1.582,4.51464,4.51464,0,0,1-.46875-2.10938,4.42788,4.42788,0,0,1,1.541-3.57422,6.4034,6.4034,0,0,1,4.25977-1.30078,10.059,10.059,0,0,1,2.54882.31641,17.52023,17.52023,0,0,1,2.53711.89062l-1.17187,2.82422a17.144,17.144,0,0,0-2.26758-.78515,7.29877,7.29877,0,0,0-1.76367-.22266,2.33544,2.33544,0,0,0-1.582.48047,1.58486,1.58486,0,0,0-.55078,1.2539,1.55192,1.55192,0,0,0,.22265.8379,2.44823,2.44823,0,0,0,.709.6914,21.91941,21.91941,0,0,0,2.30273,1.20117,9.16264,9.16264,0,0,1,3.293,2.30274A4.49418,4.49418,0,0,1,240.23145,72.94727Z"/><path class="g" d="M248.5752,75.0918a7.74788,7.74788,0,0,0,2.25-.41016V77.3418a8.0225,8.0225,0,0,1-3.28125.59765,4.016,4.016,0,0,1-3.12305-1.084,4.7182,4.7182,0,0,1-.97852-3.25195V67.28711h-1.71093V65.77539l1.96875-1.19531,1.03125-2.76563h2.28515v2.78907h3.668v2.68359h-3.668v6.31641a1.39533,1.39533,0,0,0,.42774,1.125A1.68768,1.68768,0,0,0,248.5752,75.0918Z"/><path class="g" d="M260.78613,64.35742a5.76419,5.76419,0,0,1,1.207.10547l-.26953,3.35156a4.09472,4.09472,0,0,0-1.05468-.11718,3.79025,3.79025,0,0,0-2.666.8789,3.17713,3.17713,0,0,0-.95508,2.46094v6.668h-3.57422V64.60352h2.707l.52735,2.20312h.17578a4.92511,4.92511,0,0,1,1.64648-1.77539A4.05986,4.05986,0,0,1,260.78613,64.35742Z"/><path class="g" d="M272.69238,77.70508l-.6914-1.78125h-.09375A5.279,5.279,0,0,1,270.0498,77.5a6.00254,6.00254,0,0,1-2.49023.43945,4.02675,4.02675,0,0,1-2.9707-1.07812,4.14034,4.14034,0,0,1-1.084-3.07031,3.45725,3.45725,0,0,1,1.459-3.07618,8.454,8.454,0,0,1,4.40039-1.0957l2.27344-.07031v-.57422a1.78187,1.78187,0,0,0-2.03907-1.99219,9.292,9.292,0,0,0-3.6914.94922l-1.1836-2.41406a10.6511,10.6511,0,0,1,5.01563-1.1836,6.24775,6.24775,0,0,1,4.043,1.14844,4.24428,4.24428,0,0,1,1.40625,3.49219v8.73047Zm-1.05468-6.07031-1.38282.04687a4.42833,4.42833,0,0,0-2.32031.5625,1.76672,1.76672,0,0,0-.76172,1.57031q0,1.51173,1.73438,1.51172a2.74681,2.74681,0,0,0,1.98632-.71484,2.51084,2.51084,0,0,0,.74415-1.89844Z"/><path class="g" d="M284.3877,75.0918a7.74788,7.74788,0,0,0,2.25-.41016V77.3418a8.0225,8.0225,0,0,1-3.28125.59765,4.016,4.016,0,0,1-3.123-1.084,4.7182,4.7182,0,0,1-.97852-3.25195V67.28711H277.544V65.77539l1.96875-1.19531,1.03125-2.76563h2.28515v2.78907h3.668v2.68359h-3.668v6.31641a1.39533,1.39533,0,0,0,.42774,1.125A1.68768,1.68768,0,0,0,284.3877,75.0918Z"/><path class="g" d="M295.21582,77.93945a6.76226,6.76226,0,0,1-4.94531-1.74609,6.61133,6.61133,0,0,1-1.78125-4.94531,7.27158,7.27158,0,0,1,1.64648-5.0918,5.86276,5.86276,0,0,1,4.55274-1.79883,5.77067,5.77067,0,0,1,4.32422,1.582,5.98514,5.98514,0,0,1,1.54687,4.3711v1.73437h-8.44922a3.44035,3.44035,0,0,0,.90235,2.37891,3.17493,3.17493,0,0,0,2.36718.85547,9.8265,9.8265,0,0,0,2.23828-.2461,11.19978,11.19978,0,0,0,2.20313-.78515v2.76562a8.39289,8.39289,0,0,1-2.00391.69727A12.63483,12.63483,0,0,1,295.21582,77.93945Zm-.50391-11.03906a2.26706,2.26706,0,0,0-1.78125.7207,3.33562,3.33562,0,0,0-.73828,2.04493H297.208a2.97947,2.97947,0,0,0-.69141-2.04493A2.341,2.341,0,0,0,294.71191,66.90039Z"/><path class="g" d="M314.86816,64.60352v1.8164l-2.05078.52735a3.575,3.575,0,0,1,.5625,1.96875,3.97464,3.97464,0,0,1-1.4707,3.2871,6.36989,6.36989,0,0,1-4.084,1.17774l-.64454-.03516-.52734-.05859a1.18854,1.18854,0,0,0-.55078.9375q0,.77343,1.96875.77344h2.22656a5.07925,5.07925,0,0,1,3.28711.92578,3.30913,3.30913,0,0,1,1.13086,2.71875,4.0319,4.0319,0,0,1-1.916,3.5625,9.97848,9.97848,0,0,1-5.502,1.26562,7.617,7.617,0,0,1-4.18945-.95508,3.03254,3.03254,0,0,1-1.44727-2.67773,2.80325,2.80325,0,0,1,.73828-1.98047,4.19227,4.19227,0,0,1,2.168-1.13672,2.39212,2.39212,0,0,1-.96093-.76758,1.88634,1.88634,0,0,1,.02343-2.3789,5.01328,5.01328,0,0,1,1.25391-.97852A3.51659,3.51659,0,0,1,303.249,71.166a4.351,4.351,0,0,1-.60351-2.32032A4.09189,4.09189,0,0,1,304.04,65.5293a6.03,6.03,0,0,1,3.98437-1.17188,10.19694,10.19694,0,0,1,1.30664.09961q.75587.09961.9668.14649ZM304.75488,79.55664a1.29535,1.29535,0,0,0,.709,1.16016,3.901,3.901,0,0,0,1.98633.42187,7.0359,7.0359,0,0,0,3.01171-.52734,1.60722,1.60722,0,0,0,1.08985-1.44141,1.02036,1.02036,0,0,0-.64453-1.01953,5.27825,5.27825,0,0,0-1.99219-.28125h-1.85156a2.80393,2.80393,0,0,0-1.64649.46289A1.42759,1.42759,0,0,0,304.75488,79.55664Zm1.30078-10.66406a2.66755,2.66755,0,0,0,.48633,1.6875,1.76642,1.76642,0,0,0,1.48242.62109,1.73007,1.73007,0,0,0,1.47657-.62109,2.739,2.739,0,0,0,.46875-1.6875q0-2.36719-1.94532-2.36719Q306.05566,66.52539,306.05566,68.89258Z"/><path class="g" d="M315.14941,64.60352h3.91407l2.47265,7.37109a10.2275,10.2275,0,0,1,.4336,2.27344H322.04a10.04658,10.04658,0,0,1,.50391-2.27344l2.42578-7.37109h3.832l-5.543,14.77734a6.39813,6.39813,0,0,1-2.17383,3.07031,5.48662,5.48662,0,0,1-3.29883,1.01953,8.29513,8.29513,0,0,1-1.8164-.19922V80.43555a6.10988,6.10988,0,0,0,1.40625.15234,2.53967,2.53967,0,0,0,1.6582-.58008,3.76054,3.76054,0,0,0,1.10742-1.752l.21094-.64453Z"/><path class="g" d="M525.86523,60.57227V71.6582a6.39106,6.39106,0,0,1-.84961,3.32813,5.52934,5.52934,0,0,1-2.45507,2.1914,8.77992,8.77992,0,0,1-3.79688.76172,7.27013,7.27013,0,0,1-5.13281-1.69336,6.00707,6.00707,0,0,1-1.82813-4.63476V60.57227h3.6211V71.06055a4.3931,4.3931,0,0,0,.79687,2.90625,3.31281,3.31281,0,0,0,2.63672.92578,3.23891,3.23891,0,0,0,2.584-.93164,4.41626,4.41626,0,0,0,.80273-2.92383V60.57227Z"/><path class="g" d="M543.91211,77.70508h-4.14844l-3.98437-6.48047-3.98438,6.48047H527.9043l5.68359-8.83594-5.32031-8.29687h4.00781l3.69141,6.16406,3.62109-6.16406H543.502l-5.3789,8.49609Z"/><path class="g" d="M559.94336,60.57227l-6.38672,17.13281h-3.24609l6.38672-17.13281Z"/><path class="g" d="M568.45117,77.70508V60.57227H572.084V77.70508Z"/><path class="g" d="M588.209,77.70508h-3.57421V70.05273a3.6756,3.6756,0,0,0-.50391-2.12695,1.83333,1.83333,0,0,0-1.60547-.709,2.41368,2.41368,0,0,0-2.168,1.00195,6.21407,6.21407,0,0,0-.668,3.32227v6.16406h-3.57422V64.60352h2.73047l.48047,1.67578h.19922a3.77715,3.77715,0,0,1,1.64649-1.43555,5.60653,5.60653,0,0,1,2.38476-.48633,4.58177,4.58177,0,0,1,3.46875,1.23633,4.96132,4.96132,0,0,1,1.18359,3.56836Z"/><path class="g" d="M597.4082,75.0918a7.74788,7.74788,0,0,0,2.25-.41016V77.3418a8.02243,8.02243,0,0,1-3.28125.59765,4.01594,4.01594,0,0,1-3.123-1.084,4.7182,4.7182,0,0,1-.97852-3.25195V67.28711h-1.71094V65.77539l1.96875-1.19531,1.03125-2.76563h2.28516v2.78907h3.668v2.68359h-3.668v6.31641a1.39536,1.39536,0,0,0,.42773,1.125A1.6877,1.6877,0,0,0,597.4082,75.0918Z"/><path class="g" d="M608.23633,77.93945a6.76224,6.76224,0,0,1-4.94531-1.74609,6.61133,6.61133,0,0,1-1.78125-4.94531,7.27153,7.27153,0,0,1,1.64648-5.0918,5.86274,5.86274,0,0,1,4.55273-1.79883,5.77066,5.77066,0,0,1,4.32422,1.582,5.98515,5.98515,0,0,1,1.54688,4.3711v1.73437h-8.44922a3.44035,3.44035,0,0,0,.90234,2.37891,3.175,3.175,0,0,0,2.36719.85547,9.82657,9.82657,0,0,0,2.23828-.2461,11.19978,11.19978,0,0,0,2.20313-.78515v2.76562a8.39289,8.39289,0,0,1-2.00391.69727A12.6349,12.6349,0,0,1,608.23633,77.93945Zm-.50391-11.03906a2.26706,2.26706,0,0,0-1.78125.7207,3.33556,3.33556,0,0,0-.73828,2.04493h5.01563a2.97947,2.97947,0,0,0-.69141-2.04493A2.341,2.341,0,0,0,607.73242,66.90039Z"/><path class="g" d="M623.79883,64.35742a5.76426,5.76426,0,0,1,1.207.10547l-.26953,3.35156a4.0948,4.0948,0,0,0-1.05469-.11718,3.79026,3.79026,0,0,0-2.666.8789,3.17716,3.17716,0,0,0-.95507,2.46094v6.668h-3.57422V64.60352h2.707l.52734,2.20312h.17578a4.92505,4.92505,0,0,1,1.64649-1.77539A4.05986,4.05986,0,0,1,623.79883,64.35742Z"/><path class="g" d="M635.70508,77.70508l-.69141-1.78125h-.09375A5.27891,5.27891,0,0,1,633.0625,77.5a6.00261,6.00261,0,0,1-2.49023.43945,4.02678,4.02678,0,0,1-2.97071-1.07812,4.14037,4.14037,0,0,1-1.084-3.07031,3.45727,3.45727,0,0,1,1.459-3.07618,8.45408,8.45408,0,0,1,4.40039-1.0957l2.27344-.07031v-.57422a1.78187,1.78187,0,0,0-2.03906-1.99219,9.292,9.292,0,0,0-3.69141.94922l-1.18359-2.41406A10.65106,10.65106,0,0,1,632.752,64.334a6.24773,6.24773,0,0,1,4.043,1.14844,4.24428,4.24428,0,0,1,1.40625,3.49219v8.73047Zm-1.05469-6.07031-1.38281.04687a4.42833,4.42833,0,0,0-2.32031.5625,1.7667,1.7667,0,0,0-.76172,1.57031q0,1.51173,1.73437,1.51172a2.74681,2.74681,0,0,0,1.98633-.71484,2.51087,2.51087,0,0,0,.74414-1.89844Z"/><path class="g" d="M647.20117,77.93945q-6.11718,0-6.11719-6.71484a7.16256,7.16256,0,0,1,1.66407-5.10352,6.24243,6.24243,0,0,1,4.76953-1.76367,9.09264,9.09264,0,0,1,4.07812.89063L650.541,68.01367q-.84375-.33984-1.57032-.55664a5.05966,5.05966,0,0,0-1.45312-.2168q-2.78907,0-2.78906,3.96094,0,3.84375,2.78906,3.84375a6.35916,6.35916,0,0,0,1.91015-.27539,6.89659,6.89659,0,0,0,1.75782-.86133v3.0586a5.76089,5.76089,0,0,1-1.752.76172A9.85248,9.85248,0,0,1,647.20117,77.93945Z"/><path class="g" d="M659.74023,75.0918a7.74788,7.74788,0,0,0,2.25-.41016V77.3418a8.02243,8.02243,0,0,1-3.28125.59765,4.01594,4.01594,0,0,1-3.123-1.084,4.7182,4.7182,0,0,1-.97852-3.25195V67.28711h-1.71094V65.77539l1.96875-1.19531,1.03125-2.76563h2.28516v2.78907h3.668v2.68359h-3.668v6.31641a1.39533,1.39533,0,0,0,.42774,1.125A1.68765,1.68765,0,0,0,659.74023,75.0918Z"/><path class="g" d="M664.48633,61.2168q0-1.74611,1.94531-1.7461t1.94531,1.7461a1.70235,1.70235,0,0,1-.48633,1.29492,2.04416,2.04416,0,0,1-1.459.46289Q664.48634,62.97461,664.48633,61.2168Zm3.72656,16.48828h-3.57422V64.60352h3.57422Z"/><path class="g" d="M683.86914,71.13086a7.04036,7.04036,0,0,1-1.6875,5.00391,6.11871,6.11871,0,0,1-4.69922,1.80468,6.57361,6.57361,0,0,1-3.32812-.82617,5.49749,5.49749,0,0,1-2.21485-2.37305,7.9741,7.9741,0,0,1-.77343-3.60937,7.00165,7.00165,0,0,1,1.67578-4.99219,6.154,6.154,0,0,1,4.71093-1.78125,6.61087,6.61087,0,0,1,3.32813.82031,5.47526,5.47526,0,0,1,2.21484,2.35547A7.90018,7.90018,0,0,1,683.86914,71.13086Zm-9.05859,0a5.499,5.499,0,0,0,.63867,2.94141,2.2841,2.2841,0,0,0,2.08008.99609,2.24776,2.24776,0,0,0,2.05664-.99024,5.57785,5.57785,0,0,0,.62695-2.94726,5.41169,5.41169,0,0,0-.63281-2.918,2.6907,2.6907,0,0,0-4.13672-.00586A5.40684,5.40684,0,0,0,674.81055,71.13086Z"/><path class="g" d="M698.916,77.70508H695.3418V70.05273a3.6756,3.6756,0,0,0-.50391-2.12695,1.83333,1.83333,0,0,0-1.60547-.709,2.41369,2.41369,0,0,0-2.168,1.00195,6.21407,6.21407,0,0,0-.668,3.32227v6.16406h-3.57421V64.60352h2.73046l.48047,1.67578h.19922a3.77715,3.77715,0,0,1,1.64649-1.43555,5.60653,5.60653,0,0,1,2.38476-.48633,4.58177,4.58177,0,0,1,3.46875,1.23633,4.96132,4.96132,0,0,1,1.1836,3.56836Z"/><path class="g" d="M723.32617,68.97461a8.4369,8.4369,0,0,1-2.4082,6.48047q-2.4082,2.25-6.95508,2.25h-4.85156V60.57227h5.3789a9.05792,9.05792,0,0,1,6.51563,2.21484A8.147,8.147,0,0,1,723.32617,68.97461Zm-3.77344.09375q0-5.51953-4.875-5.51953h-1.93359V74.70508h1.55859Q719.55273,74.70508,719.55273,69.06836Z"/><path class="g" d="M732.52539,77.93945a6.76226,6.76226,0,0,1-4.94531-1.74609,6.61133,6.61133,0,0,1-1.78125-4.94531,7.27158,7.27158,0,0,1,1.64648-5.0918,5.86276,5.86276,0,0,1,4.55274-1.79883,5.77067,5.77067,0,0,1,4.32422,1.582,5.98514,5.98514,0,0,1,1.54687,4.3711v1.73437h-8.44922a3.44035,3.44035,0,0,0,.90235,2.37891,3.17493,3.17493,0,0,0,2.36718.85547,9.8265,9.8265,0,0,0,2.23828-.2461,11.19978,11.19978,0,0,0,2.20313-.78515v2.76562a8.39289,8.39289,0,0,1-2.00391.69727A12.63483,12.63483,0,0,1,732.52539,77.93945Zm-.50391-11.03906a2.26706,2.26706,0,0,0-1.78125.7207A3.33562,3.33562,0,0,0,729.502,69.666h5.01563a2.97947,2.97947,0,0,0-.69141-2.04493A2.341,2.341,0,0,0,732.02148,66.90039Z"/><path class="g" d="M749.916,73.81445a3.60711,3.60711,0,0,1-1.4004,3.07032,6.91939,6.91939,0,0,1-4.18945,1.05468,13.15829,13.15829,0,0,1-2.4375-.19336,9.21953,9.21953,0,0,1-1.88672-.56836V74.22461a12.46016,12.46016,0,0,0,2.24414.78516,9.08731,9.08731,0,0,0,2.19727.3164q1.9453,0,1.94531-1.125a.939.939,0,0,0-.25781-.68555,3.73786,3.73786,0,0,0-.89063-.59765q-.63281-.334-1.6875-.7793a10.60083,10.60083,0,0,1-2.2207-1.17187,3.29879,3.29879,0,0,1-1.03125-1.23633,4.0811,4.0811,0,0,1-.32226-1.7168A3.11226,3.11226,0,0,1,741.332,65.3125a6.59315,6.59315,0,0,1,3.83789-.95508,10.89367,10.89367,0,0,1,4.60547,1.03125l-1.07812,2.57813q-.98437-.42187-1.83985-.69141a5.77737,5.77737,0,0,0-1.74609-.26953q-1.582,0-1.582.85547a1.00575,1.00575,0,0,0,.50976.832,13.86422,13.86422,0,0,0,2.23242,1.043,10.37115,10.37115,0,0,1,2.25,1.16015,3.43126,3.43126,0,0,1,1.05469,1.24219A3.81722,3.81722,0,0,1,749.916,73.81445Z"/><path class="g" d="M752.55273,61.2168q0-1.74611,1.94532-1.7461t1.94531,1.7461a1.70235,1.70235,0,0,1-.48633,1.29492,2.0442,2.0442,0,0,1-1.459.46289Q752.55273,62.97461,752.55273,61.2168Zm3.72657,16.48828h-3.57422V64.60352h3.57422Z"/><path class="g" d="M771.43164,64.60352v1.8164l-2.05078.52735a3.575,3.575,0,0,1,.5625,1.96875,3.97467,3.97467,0,0,1-1.4707,3.2871,6.3699,6.3699,0,0,1-4.084,1.17774l-.64453-.03516-.52734-.05859a1.18854,1.18854,0,0,0-.55078.9375q0,.77343,1.96875.77344h2.22656a5.07925,5.07925,0,0,1,3.28711.92578,3.30916,3.30916,0,0,1,1.13086,2.71875,4.03192,4.03192,0,0,1-1.916,3.5625,9.97851,9.97851,0,0,1-5.502,1.26562,7.617,7.617,0,0,1-4.18945-.95508,3.03254,3.03254,0,0,1-1.44727-2.67773,2.8032,2.8032,0,0,1,.73828-1.98047,4.19223,4.19223,0,0,1,2.168-1.13672,2.39215,2.39215,0,0,1-.96094-.76758,1.88636,1.88636,0,0,1,.02344-2.3789,5.01309,5.01309,0,0,1,1.25391-.97852A3.51654,3.51654,0,0,1,759.8125,71.166a4.351,4.351,0,0,1-.60352-2.32032,4.0919,4.0919,0,0,1,1.39454-3.3164,6.03,6.03,0,0,1,3.98437-1.17188,10.19707,10.19707,0,0,1,1.30664.09961q.75587.09961.9668.14649ZM761.31836,79.55664a1.29536,1.29536,0,0,0,.709,1.16016,3.90105,3.90105,0,0,0,1.98633.42187,7.036,7.036,0,0,0,3.01172-.52734,1.60722,1.60722,0,0,0,1.08984-1.44141,1.02035,1.02035,0,0,0-.64453-1.01953,5.27819,5.27819,0,0,0-1.99218-.28125H763.627a2.8039,2.8039,0,0,0-1.64648.46289A1.42757,1.42757,0,0,0,761.31836,79.55664Zm1.30078-10.66406a2.66755,2.66755,0,0,0,.48633,1.6875,1.76642,1.76642,0,0,0,1.48242.62109,1.73005,1.73005,0,0,0,1.47656-.62109,2.739,2.739,0,0,0,.46875-1.6875q0-2.36719-1.94531-2.36719Q762.61914,66.52539,762.61914,68.89258Z"/><path class="g" d="M785.68164,77.70508h-3.57422V70.05273a3.67569,3.67569,0,0,0-.5039-2.12695,1.83334,1.83334,0,0,0-1.60547-.709,2.41368,2.41368,0,0,0-2.168,1.00195,6.21407,6.21407,0,0,0-.668,3.32227v6.16406h-3.57422V64.60352h2.73047l.48047,1.67578h.19922a3.77706,3.77706,0,0,1,1.64648-1.43555,5.60658,5.60658,0,0,1,2.38477-.48633,4.5818,4.5818,0,0,1,3.46875,1.23633,4.96132,4.96132,0,0,1,1.18359,3.56836Z"/><path class="g" d="M772.51367,528.13086v6.57422h-3.63281V517.57227h4.99219a8.54412,8.54412,0,0,1,5.168,1.27148,5.0694,5.0694,0,0,1,.84375,6.55078,5.50525,5.50525,0,0,1-2.35547,1.8457q3.86718,5.77736,5.03906,7.46485h-4.03125l-4.08984-6.57422Zm0-2.95313h1.17188a4.48331,4.48331,0,0,0,2.543-.57421,2.04968,2.04968,0,0,0,.82031-1.80469,1.87477,1.87477,0,0,0-.83789-1.73438,5.08452,5.08452,0,0,0-2.59571-.51562h-1.10156Z"/><path class="g" d="M790.37305,534.93945a6.76227,6.76227,0,0,1-4.94532-1.74609,6.61133,6.61133,0,0,1-1.78125-4.94531,7.27153,7.27153,0,0,1,1.64649-5.0918,5.86272,5.86272,0,0,1,4.55273-1.79883,5.77066,5.77066,0,0,1,4.32422,1.582,5.98515,5.98515,0,0,1,1.54688,4.3711v1.73437h-8.44922a3.44035,3.44035,0,0,0,.90234,2.37891,3.17494,3.17494,0,0,0,2.36719.85547,9.82657,9.82657,0,0,0,2.23828-.2461,11.19978,11.19978,0,0,0,2.20313-.78515v2.76562a8.39289,8.39289,0,0,1-2.00391.69727A12.635,12.635,0,0,1,790.37305,534.93945Zm-.50391-11.03906a2.26706,2.26706,0,0,0-1.78125.7207,3.33556,3.33556,0,0,0-.73828,2.04493h5.01562a2.97942,2.97942,0,0,0-.6914-2.04493A2.341,2.341,0,0,0,789.86914,523.90039Z"/><path class="g" d="M807.76367,530.81445a3.60711,3.60711,0,0,1-1.40039,3.07032,6.91941,6.91941,0,0,1-4.18945,1.05468,13.15814,13.15814,0,0,1-2.4375-.19336,9.21935,9.21935,0,0,1-1.88672-.56836v-2.95312a12.45989,12.45989,0,0,0,2.24414.78516,9.08725,9.08725,0,0,0,2.19727.3164q1.94531,0,1.94531-1.125a.939.939,0,0,0-.25781-.68555,3.73786,3.73786,0,0,0-.89063-.59765q-.6328-.334-1.6875-.7793a10.60057,10.60057,0,0,1-2.2207-1.17187,3.2987,3.2987,0,0,1-1.03125-1.23633,4.08094,4.08094,0,0,1-.32227-1.7168,3.11224,3.11224,0,0,1,1.35352-2.70117,6.59312,6.59312,0,0,1,3.83789-.95508,10.8937,10.8937,0,0,1,4.60547,1.03125l-1.07813,2.57813q-.98437-.42187-1.83984-.69141a5.77743,5.77743,0,0,0-1.7461-.26953q-1.582,0-1.582.85547a1.00576,1.00576,0,0,0,.50977.832,13.86333,13.86333,0,0,0,2.23242,1.043,10.37115,10.37115,0,0,1,2.25,1.16015,3.43136,3.43136,0,0,1,1.05469,1.24219A3.81722,3.81722,0,0,1,807.76367,530.81445Z"/><path class="g" d="M816.48242,534.93945a6.76226,6.76226,0,0,1-4.94531-1.74609,6.61133,6.61133,0,0,1-1.78125-4.94531,7.27158,7.27158,0,0,1,1.64648-5.0918,5.86276,5.86276,0,0,1,4.55274-1.79883,5.77067,5.77067,0,0,1,4.32422,1.582,5.98514,5.98514,0,0,1,1.54687,4.3711v1.73437H813.377a3.4404,3.4404,0,0,0,.90235,2.37891,3.17493,3.17493,0,0,0,2.36718.85547,9.82666,9.82666,0,0,0,2.23829-.2461,11.19971,11.19971,0,0,0,2.20312-.78515v2.76562a8.39289,8.39289,0,0,1-2.00391.69727A12.63483,12.63483,0,0,1,816.48242,534.93945Zm-.5039-11.03906a2.267,2.267,0,0,0-1.78125.7207,3.33557,3.33557,0,0,0-.73829,2.04493h5.01563a2.97942,2.97942,0,0,0-.69141-2.04493A2.341,2.341,0,0,0,815.97852,523.90039Z"/><path class="g" d="M830.252,532.0918a7.74788,7.74788,0,0,0,2.25-.41016v2.66016a8.02243,8.02243,0,0,1-3.28125.59765,4.01594,4.01594,0,0,1-3.123-1.084,4.7182,4.7182,0,0,1-.97852-3.25195v-6.31641H823.4082v-1.51172l1.96875-1.19531,1.03125-2.76563h2.28516v2.78907h3.668v2.68359h-3.668v6.31641a1.39536,1.39536,0,0,0,.42773,1.125A1.6877,1.6877,0,0,0,830.252,532.0918Z"/><path class="g" d="M801.61523,431.57227V442.6582a6.39106,6.39106,0,0,1-.84961,3.32813,5.52934,5.52934,0,0,1-2.45507,2.1914,8.77992,8.77992,0,0,1-3.79688.76172,7.27013,7.27013,0,0,1-5.13281-1.69336,6.00707,6.00707,0,0,1-1.82813-4.63476V431.57227h3.6211v10.48828a4.3931,4.3931,0,0,0,.79687,2.90625,3.31281,3.31281,0,0,0,2.63672.92578,3.23891,3.23891,0,0,0,2.584-.93164,4.41626,4.41626,0,0,0,.80273-2.92383V431.57227Z"/><path class="g" d="M819.66211,448.70508h-4.14844l-3.98437-6.48047-3.98438,6.48047H803.6543l5.68359-8.83594-5.32031-8.29687h4.00781l3.69141,6.16406,3.62109-6.16406H819.252l-5.3789,8.49609Z"/><path class="g" d="M835.69336,431.57227l-6.38672,17.13281h-3.24609l6.38672-17.13281Z"/><path class="g" d="M844.20117,448.70508V431.57227H847.834v17.13281Z"/><path class="g" d="M863.959,448.70508h-3.57421v-7.65235a3.6756,3.6756,0,0,0-.50391-2.127,1.83333,1.83333,0,0,0-1.60547-.709,2.41368,2.41368,0,0,0-2.168,1.002,6.21407,6.21407,0,0,0-.668,3.32227v6.16406h-3.57422V435.60352h2.73047l.48047,1.67578h.19922a3.77715,3.77715,0,0,1,1.64649-1.43555,5.60653,5.60653,0,0,1,2.38476-.48633,4.58177,4.58177,0,0,1,3.46875,1.23633,4.96132,4.96132,0,0,1,1.18359,3.56836Z"/><path class="g" d="M873.1582,446.0918a7.74788,7.74788,0,0,0,2.25-.41016v2.66016a8.02243,8.02243,0,0,1-3.28125.59765,4.01594,4.01594,0,0,1-3.123-1.084,4.7182,4.7182,0,0,1-.97852-3.252v-6.31641h-1.71094v-1.51172l1.96875-1.19531,1.03125-2.76563h2.28516v2.78907h3.668v2.68359h-3.668v6.31641a1.39536,1.39536,0,0,0,.42773,1.125A1.6877,1.6877,0,0,0,873.1582,446.0918Z"/><path class="g" d="M883.98633,448.93945a6.76224,6.76224,0,0,1-4.94531-1.74609,6.61133,6.61133,0,0,1-1.78125-4.94531,7.27153,7.27153,0,0,1,1.64648-5.0918,5.86274,5.86274,0,0,1,4.55273-1.79883,5.77066,5.77066,0,0,1,4.32422,1.582,5.98515,5.98515,0,0,1,1.54688,4.3711v1.73437h-8.44922a3.44035,3.44035,0,0,0,.90234,2.37891,3.175,3.175,0,0,0,2.36719.85547,9.82657,9.82657,0,0,0,2.23828-.2461,11.19978,11.19978,0,0,0,2.20313-.78515v2.76562a8.39289,8.39289,0,0,1-2.00391.69727A12.6349,12.6349,0,0,1,883.98633,448.93945Zm-.50391-11.03906a2.26706,2.26706,0,0,0-1.78125.7207,3.33556,3.33556,0,0,0-.73828,2.04493h5.01563a2.97947,2.97947,0,0,0-.69141-2.04493A2.341,2.341,0,0,0,883.48242,437.90039Z"/><path class="g" d="M899.54883,435.35742a5.76426,5.76426,0,0,1,1.207.10547l-.26953,3.35156a4.0948,4.0948,0,0,0-1.05469-.11718,3.79026,3.79026,0,0,0-2.666.8789,3.17716,3.17716,0,0,0-.95507,2.46094v6.668h-3.57422V435.60352h2.707l.52734,2.20312h.17578a4.92505,4.92505,0,0,1,1.64649-1.77539A4.05986,4.05986,0,0,1,899.54883,435.35742Z"/><path class="g" d="M911.45508,448.70508l-.69141-1.78125h-.09375A5.27891,5.27891,0,0,1,908.8125,448.5a6.00261,6.00261,0,0,1-2.49023.43945,4.02678,4.02678,0,0,1-2.97071-1.07812,4.14037,4.14037,0,0,1-1.084-3.07031,3.45727,3.45727,0,0,1,1.459-3.07618,8.45408,8.45408,0,0,1,4.40039-1.0957l2.27344-.07031v-.57422a1.78187,1.78187,0,0,0-2.03906-1.99219,9.292,9.292,0,0,0-3.69141.94922l-1.18359-2.41406a10.65106,10.65106,0,0,1,5.01562-1.1836,6.24773,6.24773,0,0,1,4.043,1.14844,4.24428,4.24428,0,0,1,1.40625,3.49219v8.73047Zm-1.05469-6.07031-1.38281.04687a4.42833,4.42833,0,0,0-2.32031.5625,1.7667,1.7667,0,0,0-.76172,1.57031q0,1.51173,1.73437,1.51172a2.74681,2.74681,0,0,0,1.98633-.71484,2.51087,2.51087,0,0,0,.74414-1.89844Z"/><path class="g" d="M922.95117,448.93945q-6.11718,0-6.11719-6.71484a7.16256,7.16256,0,0,1,1.66407-5.10352,6.24243,6.24243,0,0,1,4.76953-1.76367,9.09264,9.09264,0,0,1,4.07812.89063l-1.05468,2.76562q-.84375-.33984-1.57032-.55664a5.05966,5.05966,0,0,0-1.45312-.2168q-2.78907,0-2.78906,3.96094,0,3.84375,2.78906,3.84375a6.35916,6.35916,0,0,0,1.91015-.27539,6.89659,6.89659,0,0,0,1.75782-.86133v3.0586a5.76089,5.76089,0,0,1-1.752.76172A9.85248,9.85248,0,0,1,922.95117,448.93945Z"/><path class="g" d="M935.49023,446.0918a7.74788,7.74788,0,0,0,2.25-.41016v2.66016a8.02243,8.02243,0,0,1-3.28125.59765,4.01594,4.01594,0,0,1-3.123-1.084,4.7182,4.7182,0,0,1-.97852-3.252v-6.31641h-1.71094v-1.51172l1.96875-1.19531,1.03125-2.76563h2.28516v2.78907h3.668v2.68359h-3.668v6.31641a1.39533,1.39533,0,0,0,.42774,1.125A1.68765,1.68765,0,0,0,935.49023,446.0918Z"/><path class="g" d="M940.23633,432.2168q0-1.7461,1.94531-1.7461t1.94531,1.7461a1.70235,1.70235,0,0,1-.48633,1.29492,2.04416,2.04416,0,0,1-1.459.46289Q940.23634,433.97461,940.23633,432.2168Zm3.72656,16.48828h-3.57422V435.60352h3.57422Z"/><path class="g" d="M959.61914,442.13086a7.04036,7.04036,0,0,1-1.6875,5.00391,6.11871,6.11871,0,0,1-4.69922,1.80468,6.57361,6.57361,0,0,1-3.32812-.82617,5.49749,5.49749,0,0,1-2.21485-2.373,7.9741,7.9741,0,0,1-.77343-3.60937,7.00165,7.00165,0,0,1,1.67578-4.99219,6.154,6.154,0,0,1,4.71093-1.78125,6.61087,6.61087,0,0,1,3.32813.82031,5.47526,5.47526,0,0,1,2.21484,2.35547A7.90018,7.90018,0,0,1,959.61914,442.13086Zm-9.05859,0a5.499,5.499,0,0,0,.63867,2.94141,2.2841,2.2841,0,0,0,2.08008.99609,2.24776,2.24776,0,0,0,2.05664-.99024,5.57785,5.57785,0,0,0,.62695-2.94726,5.41169,5.41169,0,0,0-.63281-2.918,2.6907,2.6907,0,0,0-4.13672-.00586A5.40684,5.40684,0,0,0,950.56055,442.13086Z"/><path class="g" d="M974.666,448.70508H971.0918v-7.65235a3.6756,3.6756,0,0,0-.50391-2.127,1.83333,1.83333,0,0,0-1.60547-.709,2.41369,2.41369,0,0,0-2.168,1.002,6.21407,6.21407,0,0,0-.668,3.32227v6.16406h-3.57421V435.60352h2.73046l.48047,1.67578h.19922a3.77715,3.77715,0,0,1,1.64649-1.43555,5.60653,5.60653,0,0,1,2.38476-.48633,4.58177,4.58177,0,0,1,3.46875,1.23633,4.96132,4.96132,0,0,1,1.1836,3.56836Z"/><path class="g" d="M999.07617,439.97461a8.4369,8.4369,0,0,1-2.4082,6.48047q-2.4082,2.25-6.95508,2.25h-4.85156V431.57227h5.3789a9.05792,9.05792,0,0,1,6.51563,2.21484A8.147,8.147,0,0,1,999.07617,439.97461Zm-3.77344.09375q0-5.51954-4.875-5.51953h-1.93359v11.15625h1.55859Q995.30273,445.70508,995.30273,440.06836Z"/><path class="g" d="M1008.27539,448.93945a6.76226,6.76226,0,0,1-4.94531-1.74609,6.61133,6.61133,0,0,1-1.78125-4.94531,7.27158,7.27158,0,0,1,1.64648-5.0918,5.86276,5.86276,0,0,1,4.55274-1.79883,5.77067,5.77067,0,0,1,4.32422,1.582,5.98514,5.98514,0,0,1,1.54687,4.3711v1.73437h-8.44922a3.44035,3.44035,0,0,0,.90235,2.37891,3.17493,3.17493,0,0,0,2.36718.85547,9.8265,9.8265,0,0,0,2.23828-.2461,11.19978,11.19978,0,0,0,2.20313-.78515v2.76562a8.39289,8.39289,0,0,1-2.00391.69727A12.63483,12.63483,0,0,1,1008.27539,448.93945Zm-.50391-11.03906a2.26706,2.26706,0,0,0-1.78125.7207,3.33562,3.33562,0,0,0-.73828,2.04493h5.01563a2.97947,2.97947,0,0,0-.69141-2.04493A2.341,2.341,0,0,0,1007.77148,437.90039Z"/><path class="g" d="M1025.666,444.81445a3.60711,3.60711,0,0,1-1.4004,3.07032,6.91939,6.91939,0,0,1-4.18945,1.05468,13.15829,13.15829,0,0,1-2.4375-.19336,9.21953,9.21953,0,0,1-1.88672-.56836v-2.95312a12.46016,12.46016,0,0,0,2.24414.78516,9.08731,9.08731,0,0,0,2.19727.3164q1.9453,0,1.94531-1.125a.939.939,0,0,0-.25781-.68555,3.73786,3.73786,0,0,0-.89063-.59765q-.63281-.334-1.6875-.7793a10.60083,10.60083,0,0,1-2.2207-1.17187,3.29879,3.29879,0,0,1-1.03125-1.23633,4.0811,4.0811,0,0,1-.32226-1.7168,3.11226,3.11226,0,0,1,1.35351-2.70117,6.59315,6.59315,0,0,1,3.83789-.95508,10.89367,10.89367,0,0,1,4.60547,1.03125l-1.07812,2.57813q-.98437-.42187-1.83985-.69141a5.77737,5.77737,0,0,0-1.74609-.26953q-1.582,0-1.582.85547a1.00575,1.00575,0,0,0,.50976.832,13.86422,13.86422,0,0,0,2.23242,1.043,10.37115,10.37115,0,0,1,2.25,1.16015,3.43126,3.43126,0,0,1,1.05469,1.24219A3.81722,3.81722,0,0,1,1025.666,444.81445Z"/><path class="g" d="M1028.30273,432.2168q0-1.7461,1.94532-1.7461t1.94531,1.7461a1.70235,1.70235,0,0,1-.48633,1.29492,2.0442,2.0442,0,0,1-1.459.46289Q1028.30273,433.97461,1028.30273,432.2168Zm3.72657,16.48828h-3.57422V435.60352h3.57422Z"/><path class="g" d="M1047.18164,435.60352v1.8164l-2.05078.52735a3.575,3.575,0,0,1,.5625,1.96875,3.97467,3.97467,0,0,1-1.4707,3.2871,6.3699,6.3699,0,0,1-4.084,1.17774l-.64453-.03516-.52734-.05859a1.18854,1.18854,0,0,0-.55078.9375q0,.77343,1.96875.77344h2.22656a5.07925,5.07925,0,0,1,3.28711.92578,3.30916,3.30916,0,0,1,1.13086,2.71875,4.03192,4.03192,0,0,1-1.916,3.5625,9.97851,9.97851,0,0,1-5.502,1.26562,7.617,7.617,0,0,1-4.18945-.95508,3.03254,3.03254,0,0,1-1.44727-2.67773,2.8032,2.8032,0,0,1,.73828-1.98047,4.19223,4.19223,0,0,1,2.168-1.13672,2.39215,2.39215,0,0,1-.96094-.76758,1.88636,1.88636,0,0,1,.02344-2.3789,5.01309,5.01309,0,0,1,1.25391-.97852,3.51654,3.51654,0,0,1-1.63477-1.42968,4.351,4.351,0,0,1-.60352-2.32032,4.0919,4.0919,0,0,1,1.39454-3.3164,6.03,6.03,0,0,1,3.98437-1.17188,10.19707,10.19707,0,0,1,1.30664.09961q.75586.09962.9668.14649Zm-10.11328,14.95312a1.29536,1.29536,0,0,0,.709,1.16016,3.90105,3.90105,0,0,0,1.98633.42187,7.036,7.036,0,0,0,3.01172-.52734,1.60722,1.60722,0,0,0,1.08984-1.44141,1.02035,1.02035,0,0,0-.64453-1.01953,5.27819,5.27819,0,0,0-1.99218-.28125H1039.377a2.8039,2.8039,0,0,0-1.64648.46289A1.42757,1.42757,0,0,0,1037.06836,450.55664Zm1.30078-10.66406a2.66755,2.66755,0,0,0,.48633,1.6875,1.76642,1.76642,0,0,0,1.48242.62109,1.73005,1.73005,0,0,0,1.47656-.62109,2.739,2.739,0,0,0,.46875-1.6875q0-2.36719-1.94531-2.36719Q1038.36914,437.52539,1038.36914,439.89258Z"/><path class="g" d="M1061.43164,448.70508h-3.57422v-7.65235a3.67569,3.67569,0,0,0-.5039-2.127,1.83334,1.83334,0,0,0-1.60547-.709,2.41368,2.41368,0,0,0-2.168,1.002,6.21407,6.21407,0,0,0-.668,3.32227v6.16406h-3.57422V435.60352h2.73047l.48047,1.67578h.19922a3.77706,3.77706,0,0,1,1.64648-1.43555,5.60658,5.60658,0,0,1,2.38477-.48633,4.5818,4.5818,0,0,1,3.46875,1.23633,4.96132,4.96132,0,0,1,1.18359,3.56836Z"/><path class="g" d="M994.57422,60.57227h3.668L992.418,77.70508H988.457l-5.8125-17.13281h3.668l3.22266,10.19531q.26952.90234.55664,2.10351t.35742,1.66993a30.01665,30.01665,0,0,1,.8789-3.77344Z"/><path class="g" d="M999.96484,61.2168q0-1.74611,1.94532-1.7461t1.94531,1.7461a1.70235,1.70235,0,0,1-.48633,1.29492,2.0442,2.0442,0,0,1-1.459.46289Q999.96484,62.97461,999.96484,61.2168Zm3.72657,16.48828h-3.57422V64.60352h3.57422Z"/><path class="g" d="M1016.582,73.81445a3.60713,3.60713,0,0,1-1.40039,3.07032,6.91941,6.91941,0,0,1-4.18945,1.05468,13.15814,13.15814,0,0,1-2.4375-.19336,9.21935,9.21935,0,0,1-1.88672-.56836V74.22461a12.45989,12.45989,0,0,0,2.24414.78516,9.08725,9.08725,0,0,0,2.19727.3164q1.94531,0,1.94531-1.125a.939.939,0,0,0-.25781-.68555,3.73807,3.73807,0,0,0-.89063-.59765q-.6328-.334-1.6875-.7793a10.60057,10.60057,0,0,1-2.2207-1.17187,3.2987,3.2987,0,0,1-1.03125-1.23633,4.08094,4.08094,0,0,1-.32227-1.7168,3.11224,3.11224,0,0,1,1.35352-2.70117,6.59312,6.59312,0,0,1,3.83789-.95508,10.8937,10.8937,0,0,1,4.60547,1.03125l-1.07813,2.57813q-.98437-.42187-1.83984-.69141a5.77748,5.77748,0,0,0-1.7461-.26953q-1.582,0-1.582.85547a1.00574,1.00574,0,0,0,.50977.832,13.86333,13.86333,0,0,0,2.23242,1.043,10.37115,10.37115,0,0,1,2.25,1.16015,3.43145,3.43145,0,0,1,1.05469,1.24219A3.81722,3.81722,0,0,1,1016.582,73.81445Z"/><path class="g" d="M1028.65234,77.70508l-.48046-1.67578h-.1875a3.77107,3.77107,0,0,1-1.62891,1.41211,5.56136,5.56136,0,0,1-2.40235.498,4.57468,4.57468,0,0,1-3.48046-1.23633,4.97452,4.97452,0,0,1-1.17188-3.55664v-8.543h3.57422v7.65234a3.67558,3.67558,0,0,0,.50391,2.127,1.83332,1.83332,0,0,0,1.60547.709,2.41367,2.41367,0,0,0,2.168-1.002,6.21393,6.21393,0,0,0,.668-3.32226V64.60352h3.57422V77.70508Z"/><path class="g" d="M1043.46484,77.70508l-.6914-1.78125h-.09375A5.27909,5.27909,0,0,1,1040.82227,77.5a6.00262,6.00262,0,0,1-2.49024.43945,4.02675,4.02675,0,0,1-2.9707-1.07812,4.14034,4.14034,0,0,1-1.084-3.07031,3.45725,3.45725,0,0,1,1.459-3.07618,8.454,8.454,0,0,1,4.40039-1.0957l2.27344-.07031v-.57422a1.78187,1.78187,0,0,0-2.03907-1.99219,9.292,9.292,0,0,0-3.6914.94922l-1.1836-2.41406a10.6511,10.6511,0,0,1,5.01563-1.1836,6.24775,6.24775,0,0,1,4.043,1.14844,4.24428,4.24428,0,0,1,1.40625,3.49219v8.73047Zm-1.05468-6.07031-1.38282.04687a4.42833,4.42833,0,0,0-2.32031.5625,1.76672,1.76672,0,0,0-.76172,1.57031q0,1.51173,1.73438,1.51172a2.74685,2.74685,0,0,0,1.98633-.71484,2.51087,2.51087,0,0,0,.74414-1.89844Z"/><path class="g" d="M1053.21484,77.70508h-3.57422V59.4707h3.57422Z"/><path class="g" d="M1077.69531,68.97461a8.4369,8.4369,0,0,1-2.4082,6.48047q-2.4082,2.25-6.95508,2.25h-4.85156V60.57227h5.37891a9.05791,9.05791,0,0,1,6.51562,2.21484A8.147,8.147,0,0,1,1077.69531,68.97461Zm-3.77343.09375q0-5.51953-4.875-5.51953h-1.9336V74.70508h1.5586Q1073.92188,74.70508,1073.92188,69.06836Z"/><path class="g" d="M1086.89453,77.93945a6.76226,6.76226,0,0,1-4.94531-1.74609,6.61133,6.61133,0,0,1-1.78125-4.94531,7.27158,7.27158,0,0,1,1.64648-5.0918,5.86276,5.86276,0,0,1,4.55274-1.79883,5.77067,5.77067,0,0,1,4.32422,1.582,5.98514,5.98514,0,0,1,1.54687,4.3711v1.73437h-8.44922a3.44035,3.44035,0,0,0,.90235,2.37891,3.17493,3.17493,0,0,0,2.36718.85547,9.82666,9.82666,0,0,0,2.23829-.2461,11.19971,11.19971,0,0,0,2.20312-.78515v2.76562a8.39289,8.39289,0,0,1-2.00391.69727A12.63483,12.63483,0,0,1,1086.89453,77.93945Zm-.50391-11.03906a2.267,2.267,0,0,0-1.78124.7207,3.33557,3.33557,0,0,0-.73829,2.04493h5.01563a2.97947,2.97947,0,0,0-.69141-2.04493A2.341,2.341,0,0,0,1086.39062,66.90039Z"/><path class="g" d="M1104.28516,73.81445a3.60713,3.60713,0,0,1-1.40039,3.07032,6.91944,6.91944,0,0,1-4.18946,1.05468,13.15829,13.15829,0,0,1-2.4375-.19336,9.21953,9.21953,0,0,1-1.88672-.56836V74.22461a12.46016,12.46016,0,0,0,2.24414.78516,9.08738,9.08738,0,0,0,2.19727.3164q1.94532,0,1.94531-1.125a.939.939,0,0,0-.25781-.68555,3.738,3.738,0,0,0-.89062-.59765q-.63282-.334-1.6875-.7793a10.6007,10.6007,0,0,1-2.22071-1.17187,3.29889,3.29889,0,0,1-1.03125-1.23633,4.0811,4.0811,0,0,1-.32226-1.7168,3.11226,3.11226,0,0,1,1.35351-2.70117,6.59315,6.59315,0,0,1,3.83789-.95508,10.89367,10.89367,0,0,1,4.60547,1.03125l-1.07812,2.57813q-.98437-.42187-1.83985-.69141a5.77737,5.77737,0,0,0-1.74609-.26953q-1.582,0-1.582.85547a1.00575,1.00575,0,0,0,.50976.832,13.86422,13.86422,0,0,0,2.23242,1.043,10.37115,10.37115,0,0,1,2.25,1.16015,3.43126,3.43126,0,0,1,1.05469,1.24219A3.81708,3.81708,0,0,1,1104.28516,73.81445Z"/><path class="g" d="M1106.92188,61.2168q0-1.74611,1.94531-1.7461t1.94531,1.7461a1.70235,1.70235,0,0,1-.48633,1.29492,2.0442,2.0442,0,0,1-1.459.46289Q1106.92187,62.97461,1106.92188,61.2168Zm3.72656,16.48828h-3.57422V64.60352h3.57422Z"/><path class="g" d="M1125.80078,64.60352v1.8164l-2.05078.52735a3.575,3.575,0,0,1,.5625,1.96875,3.97464,3.97464,0,0,1-1.4707,3.2871,6.3699,6.3699,0,0,1-4.084,1.17774l-.64453-.03516-.52734-.05859a1.18854,1.18854,0,0,0-.55078.9375q0,.77343,1.96875.77344h2.22656a5.07925,5.07925,0,0,1,3.28711.92578,3.30916,3.30916,0,0,1,1.13086,2.71875,4.0319,4.0319,0,0,1-1.916,3.5625,9.97851,9.97851,0,0,1-5.502,1.26562,7.617,7.617,0,0,1-4.18945-.95508,3.03254,3.03254,0,0,1-1.44727-2.67773,2.8032,2.8032,0,0,1,.73828-1.98047,4.19227,4.19227,0,0,1,2.168-1.13672,2.39215,2.39215,0,0,1-.96094-.76758,1.88636,1.88636,0,0,1,.02344-2.3789,5.01309,5.01309,0,0,1,1.25391-.97852,3.51654,3.51654,0,0,1-1.63477-1.42968,4.351,4.351,0,0,1-.60352-2.32032,4.0919,4.0919,0,0,1,1.39454-3.3164,6.03,6.03,0,0,1,3.98437-1.17188,10.19694,10.19694,0,0,1,1.30664.09961q.75586.09961.9668.14649ZM1115.6875,79.55664a1.29536,1.29536,0,0,0,.709,1.16016,3.90105,3.90105,0,0,0,1.98633.42187,7.036,7.036,0,0,0,3.01172-.52734,1.60724,1.60724,0,0,0,1.08985-1.44141,1.02035,1.02035,0,0,0-.64454-1.01953,5.27819,5.27819,0,0,0-1.99218-.28125h-1.85157a2.8039,2.8039,0,0,0-1.64648.46289A1.42757,1.42757,0,0,0,1115.6875,79.55664Zm1.30078-10.66406a2.66755,2.66755,0,0,0,.48633,1.6875,1.76642,1.76642,0,0,0,1.48242.62109,1.73005,1.73005,0,0,0,1.47656-.62109,2.739,2.739,0,0,0,.46875-1.6875q0-2.36719-1.94531-2.36719Q1116.98828,66.52539,1116.98828,68.89258Z"/><path class="g" d="M1140.05078,77.70508h-3.57422V70.05273a3.67569,3.67569,0,0,0-.5039-2.12695,1.83334,1.83334,0,0,0-1.60547-.709,2.41368,2.41368,0,0,0-2.168,1.00195,6.21407,6.21407,0,0,0-.668,3.32227v6.16406H1127.957V64.60352h2.73047l.48047,1.67578h.19922a3.77706,3.77706,0,0,1,1.64648-1.43555,5.60658,5.60658,0,0,1,2.38477-.48633,4.58178,4.58178,0,0,1,3.46875,1.23633,4.96132,4.96132,0,0,1,1.18359,3.56836Z"/><path class="h" d="M401.447,219.16589l-18.46191-7.62555a1.00006,1.00006,0,0,0-1.29688,1.32752l2.53064,5.74322H343.68469v3h40.2168l-2.32727,5.77277a1,1,0,0,0,1.3092,1.29816l18.5636-7.66754A1,1,0,0,0,401.447,219.16589Z"/><path class="h" d="M657.43831,212.86786l2.82635,6.41445a1,1,0,0,1,.01236.77713l-2.95282,7.32443a1,1,0,0,0,1.30922,1.29817l18.56362-7.66758a1,1,0,0,0,0-1.84852l-18.46186-7.62555A1,1,0,0,0,657.43831,212.86786Z"/><rect class="h" x="639.43472" y="198.61111" width="3" height="43" transform="translate(861.04583 -420.82361) rotate(90)"/><path class="h" d="M1339.5,392v94.62a2.996,2.996,0,0,1-3,3H236.5a2.996,2.996,0,0,1-3-3V347.47L227.76,350a1.00386,1.00386,0,0,1-1.33008-1.3l7.62012-18.46a.99844.99844,0,0,1,1.85,0l7.67,18.56006a1.00138,1.00138,0,0,1-1.3,1.30994l-5.77-2.33V485.62a1.003,1.003,0,0,0,1,1h1098a1.003,1.003,0,0,0,1-1V393a1.00288,1.00288,0,0,0-1-1H512.25a2.9961,2.9961,0,0,1-3-3V347.47L503.51,350a1.00386,1.00386,0,0,1-1.33008-1.3l7.62012-18.46a.99844.99844,0,0,1,1.85,0l7.67005,18.56006a1.00138,1.00138,0,0,1-1.3,1.30994l-5.77-2.33V388a1.00288,1.00288,0,0,0,1,1H1336.5A2.996,2.996,0,0,1,1339.5,392Z"/><path class="h" d="M1345.24324,367.62293l-6.41445,2.82635a1,1,0,0,1-.77712.01236l-7.32444-2.95282a1,1,0,0,0-1.29817,1.30922l7.66758,18.56361a1,1,0,0,0,1.84853,0l7.62555-18.46186A1,1,0,0,0,1345.24324,367.62293Z"/><rect class="h" x="1336.49999" y="329.61934" width="3" height="43" transform="matrix(-1, 0, 0, -1, 2676.00001, 702.23858)"/><path class="h" d="M1069.49324,367.623l-6.41445,2.82635a1,1,0,0,1-.77712.01236l-7.32444-2.95283a1,1,0,0,0-1.29817,1.30923l7.66758,18.56361a1,1,0,0,0,1.84853,0l7.62555-18.46186A1,1,0,0,0,1069.49324,367.623Z"/><rect class="h" x="1060.74999" y="329.61945" width="3" height="43" transform="matrix(-1, 0, 0, -1, 2124.50001, 702.23881)"/><path class="h" d="M793.74324,367.62314l-6.41445,2.82635a.99994.99994,0,0,1-.77712.01236l-7.32444-2.95282a1,1,0,0,0-1.29817,1.30923l7.66758,18.56361a1,1,0,0,0,1.84853,0L795.07072,368.92A1,1,0,0,0,793.74324,367.62314Z"/><rect class="h" x="784.99999" y="329.61955" width="3" height="43" transform="matrix(-1, 0, 0, -1, 1573.00001, 702.23904)"/><path class="h" d="M933.18831,212.86786l2.82635,6.41445a1,1,0,0,1,.01236.77713l-2.95282,7.32443a1,1,0,0,0,1.30922,1.29817l18.56362-7.66758a1,1,0,0,0,0-1.84852l-18.46186-7.62555A1,1,0,0,0,933.18831,212.86786Z"/><rect class="h" x="915.18472" y="198.61111" width="3" height="43" transform="translate(1136.79583 -696.57361) rotate(90)"/><path class="h" d="M1208.93831,212.86786l2.82635,6.41445a1,1,0,0,1,.01236.77713l-2.95282,7.32443a1,1,0,0,0,1.30922,1.29817l18.56362-7.66758a1,1,0,0,0,0-1.84852l-18.46186-7.62555A1,1,0,0,0,1208.93831,212.86786Z"/><rect class="h" x="1190.93472" y="198.61111" width="3" height="43" transform="translate(1412.54583 -972.32361) rotate(90)"/></svg>