<?xml version="1.0" encoding="utf-8"?>
<!-- Generator: Adobe Illustrator 26.0.3, SVG Export Plug-In . SVG Version: 6.00 Build 0)  -->
<svg version="1.1" xmlns="http://www.w3.org/2000/svg" xmlns:xlink="http://www.w3.org/1999/xlink" x="0px" y="0px"
	 viewBox="0 0 800 450" enable-background="new 0 0 800 450" xml:space="preserve">
<g id="Layer_5">
</g>
<g id="Layer_4">
</g>
<g id="Layer_1">
</g>
<g id="Layer_3">
</g>
<g id="Layer_6">
	<g id="Notes">
		<g>
			<polygon fill="#FDDEFB" points="49.368,206.421 52.239,204.394 49.79,203.972 			"/>
			<polygon fill="#FDDEFB" points="37.392,182.176 33.519,204.676 48.521,207.259 49.225,203.172 53.311,203.876 56.481,185.462 			
				"/>
		</g>
		<path d="M36.822,181.368l-4.111,23.879l15.692,2.701L54,203.995l3.289-19.103L36.822,181.368z M49.368,206.421l0.422-2.449
			l2.449,0.422L49.368,206.421z M53.311,203.876l-4.087-0.704l-0.704,4.087l-15.003-2.583l3.874-22.5l19.089,3.286L53.311,203.876z"
			/>
		<g>
			<rect x="39.369" y="187.218" transform="matrix(0.9855 0.1697 -0.1697 0.9855 32.4929 -5.1347)" width="13.846" height="0.692"/>
			<rect x="38.841" y="190.289" transform="matrix(0.9855 0.1697 -0.1697 0.9855 33.0061 -5.0005)" width="13.846" height="0.692"/>
			<rect x="38.312" y="193.359" transform="matrix(0.9855 0.1697 -0.1697 0.9855 33.5193 -4.8663)" width="13.846" height="0.692"/>
			<rect x="37.784" y="196.429" transform="matrix(0.9855 0.1697 -0.1697 0.9855 34.0325 -4.7321)" width="13.846" height="0.692"/>
			<rect x="37.29" y="199.088" transform="matrix(0.9855 0.1697 -0.1697 0.9855 34.4414 -4.1988)" width="9" height="0.692"/>
		</g>
		<g>
			<polygon fill="#FDDEFB" points="203.368,221.421 206.239,219.394 203.79,218.972 			"/>
			<polygon fill="#FDDEFB" points="191.392,197.176 187.519,219.676 202.521,222.259 203.225,218.172 207.311,218.876 
				210.481,200.462 			"/>
		</g>
		<path d="M190.822,196.368l-4.111,23.879l15.692,2.701l5.598-3.954l3.289-19.103L190.822,196.368z M203.368,221.421l0.422-2.449
			l2.449,0.422L203.368,221.421z M207.311,218.876l-4.087-0.704l-0.704,4.087l-15.003-2.583l3.874-22.5l19.089,3.286
			L207.311,218.876z"/>
		<g>
			
				<rect x="193.369" y="202.218" transform="matrix(0.9855 0.1697 -0.1697 0.9855 37.2703 -31.0445)" width="13.846" height="0.692"/>
			
				<rect x="192.841" y="205.289" transform="matrix(0.9855 0.1697 -0.1697 0.9855 37.7835 -30.9104)" width="13.846" height="0.692"/>
			
				<rect x="192.312" y="208.359" transform="matrix(0.9855 0.1697 -0.1697 0.9855 38.2967 -30.7762)" width="13.846" height="0.692"/>
			
				<rect x="191.784" y="211.429" transform="matrix(0.9855 0.1697 -0.1697 0.9855 38.8099 -30.642)" width="13.846" height="0.692"/>
			<rect x="191.29" y="214.088" transform="matrix(0.9855 0.1697 -0.1697 0.9855 39.2188 -30.1087)" width="9" height="0.692"/>
		</g>
		<g>
			<g>
				<polygon fill="#FDDEFB" points="112.292,332.263 114.223,329.326 111.789,329.83 				"/>
				<polygon fill="#FDDEFB" points="92.28,314.076 96.902,336.435 111.81,333.353 110.971,329.292 115.032,328.452 111.249,310.155 
									"/>
			</g>
			<path d="M91.454,313.533l4.905,23.728l15.593-3.224l3.765-5.727l-3.924-18.982L91.454,313.533z M112.292,332.263l-0.503-2.434
				l2.434-0.503L112.292,332.263z M115.032,328.452l-4.061,0.84l0.84,4.061l-14.908,3.082l-4.622-22.359l18.969-3.922
				L115.032,328.452z"/>
			<g>
				
					<rect x="95.611" y="315.491" transform="matrix(0.9793 -0.2025 0.2025 0.9793 -61.8193 27.2989)" width="13.846" height="0.692"/>
				
					<rect x="96.242" y="318.542" transform="matrix(0.9793 -0.2025 0.2025 0.9793 -62.4239 27.4898)" width="13.846" height="0.692"/>
				
					<rect x="96.873" y="321.593" transform="matrix(0.9793 -0.2025 0.2025 0.9793 -63.0285 27.6806)" width="13.846" height="0.692"/>
				
					<rect x="97.503" y="324.643" transform="matrix(0.9793 -0.2025 0.2025 0.9793 -63.6331 27.8715)" width="13.846" height="0.692"/>
				<rect x="98.184" y="328.185" transform="matrix(0.9793 -0.2025 0.2025 0.9793 -64.3861 27.5921)" width="9" height="0.692"/>
			</g>
		</g>
		<g>
			<polygon fill="#FEEBD9" points="136.351,271.869 138.501,269.089 136.036,269.404 			"/>
			<polygon fill="#FEEBD9" points="117.791,252.203 120.687,274.85 135.787,272.919 135.261,268.805 139.374,268.279 
				137.004,249.746 			"/>
		</g>
		<path d="M117.009,251.598l3.073,24.034l15.794-2.02l4.192-5.421l-2.459-19.227L117.009,251.598z M136.351,271.869l-0.315-2.465
			l2.465-0.315L136.351,271.869z M139.374,268.279l-4.113,0.526l0.526,4.113l-15.1,1.931l-2.896-22.647l19.214-2.457
			L139.374,268.279z"/>
		<g>
			
				<rect x="120.957" y="254.398" transform="matrix(0.9919 -0.1268 0.1268 0.9919 -31.2793 18.2781)" width="13.846" height="0.692"/>
			
				<rect x="121.352" y="257.488" transform="matrix(0.9919 -0.1268 0.1268 0.9919 -31.6681 18.3532)" width="13.846" height="0.692"/>
			
				<rect x="121.747" y="260.578" transform="matrix(0.9919 -0.1268 0.1268 0.9919 -32.0568 18.4282)" width="13.846" height="0.692"/>
			
				<rect x="122.142" y="263.668" transform="matrix(0.9919 -0.1268 0.1268 0.9919 -32.4456 18.5033)" width="13.846" height="0.692"/>
			<rect x="122.557" y="267.066" transform="matrix(0.9919 -0.1268 0.1268 0.9919 -32.8927 18.276)" width="9" height="0.692"/>
		</g>
		<g>
			<polygon fill="#F8FEA9" points="78.701,138.051 80.747,135.193 78.295,135.599 			"/>
			<polygon fill="#F8FEA9" points="59.425,119.086 63.159,141.61 78.177,139.12 77.499,135.029 81.59,134.351 78.534,115.918 			"/>
		</g>
		<path d="M58.621,118.51l3.962,23.904l15.708-2.604l3.988-5.573l-3.17-19.123L58.621,118.51z M78.701,138.051l-0.406-2.452
			l2.452-0.406L78.701,138.051z M81.59,134.351l-4.091,0.678l0.678,4.091l-15.018,2.489l-3.734-22.524l19.109-3.168L81.59,134.351z"
			/>
		<g>
			
				<rect x="62.678" y="120.905" transform="matrix(0.9865 -0.1635 0.1635 0.9865 -18.8915 13.0142)" width="13.846" height="0.692"/>
			
				<rect x="63.188" y="123.979" transform="matrix(0.9865 -0.1635 0.1635 0.9865 -19.3872 13.1389)" width="13.846" height="0.692"/>
			
				<rect x="63.697" y="127.052" transform="matrix(0.9865 -0.1635 0.1635 0.9865 -19.8829 13.2636)" width="13.846" height="0.692"/>
			
				<rect x="64.207" y="130.125" transform="matrix(0.9865 -0.1635 0.1635 0.9865 -20.3786 13.3883)" width="13.846" height="0.692"/>
			<rect x="64.749" y="133.595" transform="matrix(0.9865 -0.1635 0.1635 0.9865 -20.9713 13.1274)" width="9" height="0.692"/>
		</g>
		<g>
			<polygon fill="#D1FECD" points="146.571,165.465 149.656,163.78 147.271,163.08 			"/>
			<polygon fill="#D1FECD" points="137.459,140.005 131.027,161.911 145.634,166.2 146.802,162.221 150.781,163.389 
				156.044,145.461 			"/>
		</g>
		<path d="M136.985,139.137l-6.825,23.249l15.278,4.485l6.015-3.285l5.46-18.599L136.985,139.137z M146.571,165.465l0.7-2.385
			l2.385,0.7L146.571,165.465z M150.781,163.389l-3.979-1.168l-1.168,3.979l-14.607-4.288l6.431-21.907l18.586,5.456
			L150.781,163.389z"/>
		<g>
			
				<rect x="138.758" y="146.033" transform="matrix(0.9595 0.2817 -0.2817 0.9595 47.1319 -35.1087)" width="13.846" height="0.692"/>
			
				<rect x="137.88" y="149.022" transform="matrix(0.9595 0.2817 -0.2817 0.9595 47.9384 -34.7405)" width="13.846" height="0.692"/>
			
				<rect x="137.003" y="152.012" transform="matrix(0.9595 0.2817 -0.2817 0.9595 48.7448 -34.3723)" width="13.846" height="0.692"/>
			
				<rect x="136.125" y="155.001" transform="matrix(0.9595 0.2817 -0.2817 0.9595 49.5513 -34.004)" width="13.846" height="0.692"/>
			<rect x="135.346" y="157.307" transform="matrix(0.9595 0.2817 -0.2817 0.9595 50.0713 -33.0086)" width="9" height="0.692"/>
		</g>
		<g>
			<polygon fill="#D1FECD" points="188.587,286.066 191.078,283.587 188.593,283.581 			"/>
			<polygon fill="#D1FECD" points="172.725,264.165 172.669,286.997 187.892,287.034 187.902,282.887 192.049,282.897 
				192.094,264.213 			"/>
		</g>
		<path d="M172.027,263.464l-0.059,24.23l15.922,0.039l4.858-4.834l0.047-19.384L172.027,263.464z M188.587,286.066l0.006-2.485
			l2.485,0.006L188.587,286.066z M192.049,282.897l-4.147-0.01l-0.01,4.147l-15.223-0.037l0.056-22.831l19.37,0.047L192.049,282.897
			z"/>
		<g>
			<rect x="175.477" y="267.643" transform="matrix(1 0.0024 -0.0024 1 0.6541 -0.444)" width="13.846" height="0.692"/>
			<rect x="175.47" y="270.759" transform="matrix(1 0.0024 -0.0024 1 0.6617 -0.444)" width="13.846" height="0.692"/>
			<rect x="175.462" y="273.874" transform="matrix(1 0.0024 -0.0024 1 0.6693 -0.444)" width="13.846" height="0.692"/>
			<rect x="175.455" y="276.989" transform="matrix(1 0.0024 -0.0024 1 0.6769 -0.444)" width="13.846" height="0.692"/>
			<rect x="175.447" y="280.098" transform="matrix(1 0.0024 -0.0024 1 0.6845 -0.438)" width="9" height="0.692"/>
		</g>
		<g>
			<polygon fill="#B8FFF3" points="125.645,213.554 127.906,210.863 125.43,211.078 			"/>
			<polygon fill="#B8FFF3" points="107.901,193.147 109.872,215.893 125.039,214.579 124.681,210.448 128.812,210.09 
				127.199,191.475 			"/>
		</g>
		<path d="M107.837,192.511l2.091,24.139l15.863-1.374l4.41-5.246l-1.673-19.311L107.837,192.511z M126.337,213.554l-0.215-2.476
			l2.476-0.215L126.337,213.554z M129.504,210.09l-4.131,0.358l0.358,4.131l-15.166,1.314l-1.971-22.746l19.298-1.672
			L129.504,210.09z"/>
		<g>
			
				<rect x="111.648" y="195.751" transform="matrix(0.9963 -0.0863 0.0863 0.9963 -16.484 10.9665)" width="13.846" height="0.692"/>
			
				<rect x="111.917" y="198.855" transform="matrix(0.9963 -0.0863 0.0863 0.9963 -16.7508 11.0013)" width="13.846" height="0.692"/>
			
				<rect x="112.186" y="201.958" transform="matrix(0.9963 -0.0863 0.0863 0.9963 -17.0177 11.0361)" width="13.846" height="0.692"/>
			
				<rect x="112.455" y="205.062" transform="matrix(0.9963 -0.0863 0.0863 0.9963 -17.2846 11.0709)" width="13.846" height="0.692"/>
			<rect x="112.733" y="208.375" transform="matrix(0.9963 -0.0863 0.0863 0.9963 -17.5786 10.8981)" width="9" height="0.692"/>
		</g>
		<g>
			<polygon fill="#B8FFF3" points="51.649,303.396 53.91,300.706 51.434,300.92 			"/>
			<polygon fill="#B8FFF3" points="33.905,282.99 35.876,305.736 51.043,304.422 50.685,300.29 54.816,299.932 53.203,281.318 			
				"/>
		</g>
		<path d="M33.841,282.353l2.091,24.139l15.863-1.374l4.41-5.246l-1.673-19.311L33.841,282.353z M52.341,303.396l-0.215-2.476
			l2.476-0.215L52.341,303.396z M55.508,299.932l-4.131,0.358l0.358,4.131l-15.166,1.314l-1.971-22.746l19.298-1.672L55.508,299.932
			z"/>
		<g>
			<rect x="37.652" y="285.594" transform="matrix(0.9963 -0.0863 0.0863 0.9963 -24.5151 4.9147)" width="13.846" height="0.692"/>
			<rect x="37.921" y="288.697" transform="matrix(0.9963 -0.0863 0.0863 0.9963 -24.782 4.9495)" width="13.846" height="0.692"/>
			<rect x="38.19" y="291.801" transform="matrix(0.9963 -0.0863 0.0863 0.9963 -25.0488 4.9843)" width="13.846" height="0.692"/>
			<rect x="38.459" y="294.905" transform="matrix(0.9963 -0.0863 0.0863 0.9963 -25.3157 5.0191)" width="13.846" height="0.692"/>
			<rect x="38.737" y="298.218" transform="matrix(0.9963 -0.0863 0.0863 0.9963 -25.6097 4.8463)" width="9" height="0.692"/>
		</g>
		<g>
			<g>
				<polygon fill="#FDDEFB" points="579.368,199.421 582.239,197.394 579.789,196.972 				"/>
				<polygon fill="#FDDEFB" points="567.392,175.176 563.519,197.676 578.521,200.259 579.225,196.172 583.311,196.876 
					586.481,178.462 				"/>
			</g>
			<path d="M566.822,174.368l-4.111,23.879l15.692,2.701l5.598-3.954l3.289-19.103L566.822,174.368z M579.368,199.421l0.422-2.449
				l2.449,0.422L579.368,199.421z M583.311,196.876l-4.087-0.704l-0.704,4.087l-15.003-2.583l3.873-22.5l19.089,3.286
				L583.311,196.876z"/>
			<g>
				
					<rect x="569.369" y="180.218" transform="matrix(0.9855 0.1697 -0.1697 0.9855 38.9887 -95.1549)" width="13.846" height="0.692"/>
				
					<rect x="568.841" y="183.289" transform="matrix(0.9855 0.1697 -0.1697 0.9855 39.5019 -95.0207)" width="13.846" height="0.692"/>
				
					<rect x="568.312" y="186.359" transform="matrix(0.9855 0.1697 -0.1697 0.9855 40.0151 -94.8865)" width="13.846" height="0.692"/>
				
					<rect x="567.784" y="189.429" transform="matrix(0.9855 0.1697 -0.1697 0.9855 40.5283 -94.7523)" width="13.846" height="0.692"/>
				<rect x="567.29" y="192.088" transform="matrix(0.9855 0.1697 -0.1697 0.9855 40.9372 -94.219)" width="9" height="0.692"/>
			</g>
		</g>
		<g>
			<g>
				<polygon fill="#FDDEFB" points="759.368,221.421 762.239,219.394 759.789,218.972 				"/>
				<polygon fill="#FDDEFB" points="747.392,197.176 743.519,219.676 758.521,222.259 759.225,218.172 763.311,218.876 
					766.481,200.462 				"/>
			</g>
			<path d="M746.822,196.368l-4.111,23.879l15.692,2.701l5.598-3.954l3.289-19.103L746.822,196.368z M759.368,221.421l0.422-2.449
				l2.449,0.422L759.368,221.421z M763.311,218.876l-4.087-0.704l-0.704,4.087l-15.003-2.583l3.873-22.5l19.089,3.286
				L763.311,218.876z"/>
			<g>
				
					<rect x="749.369" y="202.218" transform="matrix(0.9855 0.1697 -0.1697 0.9855 45.3306 -125.3744)" width="13.846" height="0.692"/>
				
					<rect x="748.841" y="205.289" transform="matrix(0.9855 0.1697 -0.1697 0.9855 45.8438 -125.2402)" width="13.846" height="0.692"/>
				
					<rect x="748.312" y="208.359" transform="matrix(0.9855 0.1697 -0.1697 0.9855 46.357 -125.106)" width="13.846" height="0.692"/>
				
					<rect x="747.784" y="211.429" transform="matrix(0.9855 0.1697 -0.1697 0.9855 46.8703 -124.9718)" width="13.846" height="0.692"/>
				<rect x="747.29" y="214.088" transform="matrix(0.9855 0.1697 -0.1697 0.9855 47.2791 -124.4385)" width="9" height="0.692"/>
			</g>
		</g>
		<g>
			<g>
				<polygon fill="#FDDEFB" points="705.292,342.263 707.223,339.326 704.789,339.83 				"/>
				<polygon fill="#FDDEFB" points="685.28,324.076 689.902,346.435 704.81,343.353 703.971,339.292 708.032,338.452 
					704.249,320.155 				"/>
			</g>
			<path d="M684.454,323.533l4.905,23.728l15.593-3.224l3.765-5.727l-3.924-18.982L684.454,323.533z M705.292,342.263l-0.503-2.434
				l2.434-0.503L705.292,342.263z M708.032,338.452l-4.061,0.84l0.84,4.061l-14.908,3.082l-4.622-22.359l18.969-3.922
				L708.032,338.452z"/>
			<g>
				
					<rect x="688.611" y="325.491" transform="matrix(0.9793 -0.2025 0.2025 0.9793 -51.5638 147.5614)" width="13.846" height="0.692"/>
				
					<rect x="689.242" y="328.542" transform="matrix(0.9793 -0.2025 0.2025 0.9793 -52.1684 147.7523)" width="13.846" height="0.692"/>
				
					<rect x="689.873" y="331.593" transform="matrix(0.9793 -0.2025 0.2025 0.9793 -52.773 147.9431)" width="13.846" height="0.692"/>
				
					<rect x="690.503" y="334.643" transform="matrix(0.9793 -0.2025 0.2025 0.9793 -53.3776 148.134)" width="13.846" height="0.692"/>
				<rect x="691.184" y="338.185" transform="matrix(0.9793 -0.2025 0.2025 0.9793 -54.1306 147.8546)" width="9" height="0.692"/>
			</g>
		</g>
		<g>
			<g>
				<polygon fill="#FEEBD9" points="618.351,289.869 620.501,287.089 618.036,287.404 				"/>
				<polygon fill="#FEEBD9" points="599.791,270.203 602.687,292.85 617.787,290.919 617.261,286.805 621.374,286.279 
					619.004,267.746 				"/>
			</g>
			<path d="M599.009,269.598l3.073,24.034l15.794-2.02l4.192-5.421l-2.459-19.227L599.009,269.598z M618.351,289.869l-0.315-2.465
				l2.465-0.315L618.351,289.869z M621.374,286.279l-4.113,0.526l0.526,4.113l-15.1,1.931l-2.896-22.647l19.214-2.457
				L621.374,286.279z"/>
			<g>
				
					<rect x="602.957" y="272.398" transform="matrix(0.9919 -0.1268 0.1268 0.9919 -29.6693 79.5612)" width="13.846" height="0.692"/>
				
					<rect x="603.352" y="275.488" transform="matrix(0.9919 -0.1268 0.1268 0.9919 -30.0581 79.6363)" width="13.846" height="0.692"/>
				
					<rect x="603.747" y="278.578" transform="matrix(0.9919 -0.1268 0.1268 0.9919 -30.4468 79.7114)" width="13.846" height="0.692"/>
				
					<rect x="604.142" y="281.668" transform="matrix(0.9919 -0.1268 0.1268 0.9919 -30.8356 79.7865)" width="13.846" height="0.692"/>
				<rect x="604.557" y="285.066" transform="matrix(0.9919 -0.1268 0.1268 0.9919 -31.2828 79.5592)" width="9" height="0.692"/>
			</g>
		</g>
		<g>
			<g>
				<polygon fill="#F8FEA9" points="640.701,147.051 642.747,144.193 640.295,144.599 				"/>
				<polygon fill="#F8FEA9" points="621.425,128.086 625.159,150.61 640.177,148.12 639.499,144.029 643.59,143.351 
					640.534,124.918 				"/>
			</g>
			<path d="M620.621,127.51l3.962,23.904l15.708-2.604l3.988-5.573l-3.17-19.123L620.621,127.51z M640.701,147.051l-0.406-2.452
				l2.452-0.406L640.701,147.051z M643.59,143.351l-4.091,0.678l0.678,4.091l-15.018,2.489l-3.734-22.524l19.109-3.168
				L643.59,143.351z"/>
			<g>
				
					<rect x="624.678" y="129.905" transform="matrix(0.9865 -0.1635 0.1635 0.9865 -12.7977 105.0399)" width="13.846" height="0.692"/>
				
					<rect x="625.188" y="132.979" transform="matrix(0.9865 -0.1635 0.1635 0.9865 -13.2934 105.1646)" width="13.846" height="0.692"/>
				
					<rect x="625.697" y="136.052" transform="matrix(0.9865 -0.1635 0.1635 0.9865 -13.7891 105.2893)" width="13.846" height="0.692"/>
				
					<rect x="626.207" y="139.125" transform="matrix(0.9865 -0.1635 0.1635 0.9865 -14.2849 105.414)" width="13.846" height="0.692"/>
				<rect x="626.749" y="142.595" transform="matrix(0.9865 -0.1635 0.1635 0.9865 -14.8776 105.1531)" width="9" height="0.692"/>
			</g>
		</g>
		<g>
			<g>
				<polygon fill="#D1FECD" points="703.571,170.465 706.656,168.78 704.271,168.08 				"/>
				<polygon fill="#D1FECD" points="694.458,145.005 688.027,166.911 702.634,171.2 703.802,167.221 707.781,168.389 
					713.044,150.461 				"/>
			</g>
			<path d="M693.985,144.137l-6.825,23.249l15.278,4.485l6.015-3.285l5.46-18.599L693.985,144.137z M703.571,170.465l0.7-2.385
				l2.385,0.7L703.571,170.465z M707.781,168.389l-3.979-1.168l-1.168,3.979l-14.607-4.288l6.431-21.907l18.586,5.456
				L707.781,168.389z"/>
			<g>
				
					<rect x="695.758" y="151.033" transform="matrix(0.9595 0.2817 -0.2817 0.9595 71.095 -191.8047)" width="13.846" height="0.692"/>
				
					<rect x="694.88" y="154.022" transform="matrix(0.9595 0.2817 -0.2817 0.9595 71.9014 -191.4365)" width="13.846" height="0.692"/>
				
					<rect x="694.003" y="157.012" transform="matrix(0.9595 0.2817 -0.2817 0.9595 72.7079 -191.0683)" width="13.846" height="0.692"/>
				
					<rect x="693.125" y="160.001" transform="matrix(0.9595 0.2817 -0.2817 0.9595 73.5143 -190.7)" width="13.846" height="0.692"/>
				<rect x="692.346" y="162.307" transform="matrix(0.9595 0.2817 -0.2817 0.9595 74.0344 -189.7046)" width="9" height="0.692"/>
			</g>
		</g>
		<g>
			<g>
				<polygon fill="#D1FECD" points="722.598,269.573 724.529,266.636 722.095,267.14 				"/>
				<polygon fill="#D1FECD" points="702.586,251.386 707.208,273.745 722.116,270.663 721.277,266.602 725.338,265.762 
					721.555,247.465 				"/>
			</g>
			<path d="M701.76,250.843l4.905,23.728l15.593-3.224l3.765-5.727l-3.924-18.982L701.76,250.843z M722.598,269.573l-0.503-2.434
				l2.434-0.503L722.598,269.573z M725.338,265.762l-4.061,0.84l0.84,4.061l-14.908,3.082l-4.622-22.359l18.969-3.922
				L725.338,265.762z"/>
			<g>
				
					<rect x="705.917" y="252.801" transform="matrix(0.9793 -0.2025 0.2025 0.9793 -36.4891 149.5599)" width="13.846" height="0.692"/>
				
					<rect x="706.548" y="255.852" transform="matrix(0.9793 -0.2025 0.2025 0.9793 -37.0936 149.7508)" width="13.846" height="0.692"/>
				
					<rect x="707.179" y="258.903" transform="matrix(0.9793 -0.2025 0.2025 0.9793 -37.6982 149.9416)" width="13.846" height="0.692"/>
				
					<rect x="707.809" y="261.953" transform="matrix(0.9793 -0.2025 0.2025 0.9793 -38.3028 150.1325)" width="13.846" height="0.692"/>
				<rect x="708.49" y="265.495" transform="matrix(0.9793 -0.2025 0.2025 0.9793 -39.0558 149.8531)" width="9" height="0.692"/>
			</g>
		</g>
		<g>
			<g>
				<polygon fill="#D1FECD" points="741.237,108.892 743.282,106.033 740.83,106.44 				"/>
				<polygon fill="#D1FECD" points="721.96,89.926 725.694,112.45 740.712,109.961 740.034,105.87 744.125,105.192 741.069,86.759 
									"/>
			</g>
			<path d="M721.156,89.351l3.962,23.904l15.708-2.604l3.988-5.573l-3.17-19.123L721.156,89.351z M741.237,108.892l-0.406-2.452
				l2.452-0.406L741.237,108.892z M744.125,105.192l-4.091,0.678l0.678,4.091l-15.018,2.489l-3.734-22.524l19.109-3.168
				L744.125,105.192z"/>
			<g>
				
					<rect x="725.214" y="91.746" transform="matrix(0.9865 -0.1635 0.1635 0.9865 -5.204 120.9671)" width="13.846" height="0.692"/>
				
					<rect x="725.723" y="94.819" transform="matrix(0.9865 -0.1635 0.1635 0.9865 -5.6997 121.0917)" width="13.846" height="0.692"/>
				
					<rect x="726.232" y="97.893" transform="matrix(0.9865 -0.1635 0.1635 0.9865 -6.1955 121.2164)" width="13.846" height="0.692"/>
				
					<rect x="726.742" y="100.966" transform="matrix(0.9865 -0.1635 0.1635 0.9865 -6.6912 121.3411)" width="13.846" height="0.692"/>
				<rect x="727.284" y="104.435" transform="matrix(0.9865 -0.1635 0.1635 0.9865 -7.2839 121.0802)" width="9" height="0.692"/>
			</g>
		</g>
		<g>
			<g>
				<polygon fill="#B8FFF3" points="668.645,231.554 670.906,228.863 668.43,229.078 				"/>
				<polygon fill="#B8FFF3" points="650.901,211.147 652.872,233.893 668.039,232.579 667.681,228.448 671.812,228.09 
					670.199,209.475 				"/>
			</g>
			<path d="M650.837,210.511l2.091,24.139l15.863-1.374l4.41-5.246l-1.673-19.311L650.837,210.511z M669.337,231.554l-0.215-2.476
				l2.476-0.215L669.337,231.554z M672.504,228.09l-4.131,0.358l0.358,4.131l-15.166,1.314l-1.971-22.746l19.298-1.672
				L672.504,228.09z"/>
			<g>
				
					<rect x="654.648" y="213.751" transform="matrix(0.9963 -0.0863 0.0863 0.9963 -16.011 57.9037)" width="13.846" height="0.692"/>
				
					<rect x="654.917" y="216.855" transform="matrix(0.9963 -0.0863 0.0863 0.9963 -16.2779 57.9385)" width="13.846" height="0.692"/>
				
					<rect x="655.186" y="219.958" transform="matrix(0.9963 -0.0863 0.0863 0.9963 -16.5448 57.9733)" width="13.846" height="0.692"/>
				
					<rect x="655.455" y="223.062" transform="matrix(0.9963 -0.0863 0.0863 0.9963 -16.8117 58.0081)" width="13.846" height="0.692"/>
				<rect x="655.732" y="226.375" transform="matrix(0.9963 -0.0863 0.0863 0.9963 -17.1057 57.8353)" width="9" height="0.692"/>
			</g>
		</g>
		<g>
			<g>
				<polygon fill="#FDDEFB" points="266.368,384.421 269.239,382.394 266.79,381.972 				"/>
				<polygon fill="#FDDEFB" points="254.392,360.176 250.519,382.676 265.521,385.259 266.225,381.172 270.311,381.876 
					273.481,363.462 				"/>
			</g>
			<path d="M253.822,359.368l-4.111,23.879l15.692,2.701l5.598-3.954l3.289-19.103L253.822,359.368z M266.368,384.421l0.422-2.449
				l2.449,0.422L266.368,384.421z M270.311,381.876l-4.087-0.704l-0.704,4.087l-15.003-2.583l3.874-22.5l19.089,3.286
				L270.311,381.876z"/>
			<g>
				
					<rect x="256.369" y="365.218" transform="matrix(0.9855 0.1697 -0.1697 0.9855 65.8379 -39.37)" width="13.846" height="0.692"/>
				
					<rect x="255.841" y="368.289" transform="matrix(0.9855 0.1697 -0.1697 0.9855 66.3511 -39.2358)" width="13.846" height="0.692"/>
				
					<rect x="255.312" y="371.359" transform="matrix(0.9855 0.1697 -0.1697 0.9855 66.8643 -39.1016)" width="13.846" height="0.692"/>
				
					<rect x="254.784" y="374.429" transform="matrix(0.9855 0.1697 -0.1697 0.9855 67.3775 -38.9675)" width="13.846" height="0.692"/>
				<rect x="254.29" y="377.088" transform="matrix(0.9855 0.1697 -0.1697 0.9855 67.7863 -38.4341)" width="9" height="0.692"/>
			</g>
		</g>
		<g>
			<g>
				<polygon fill="#FDDEFB" points="507.368,379.421 510.239,377.394 507.79,376.972 				"/>
				<polygon fill="#FDDEFB" points="495.392,355.176 491.519,377.676 506.521,380.259 507.225,376.172 511.311,376.876 
					514.481,358.462 				"/>
			</g>
			<path d="M494.822,354.368l-4.111,23.879l15.692,2.701l5.598-3.954l3.289-19.103L494.822,354.368z M507.368,379.421l0.422-2.449
				l2.449,0.422L507.368,379.421z M511.311,376.876l-4.087-0.704l-0.704,4.087l-15.003-2.583l3.874-22.5l19.089,3.286
				L511.311,376.876z"/>
			<g>
				
					<rect x="497.369" y="360.218" transform="matrix(0.9855 0.1697 -0.1697 0.9855 68.4834 -80.33)" width="13.846" height="0.692"/>
				
					<rect x="496.841" y="363.289" transform="matrix(0.9855 0.1697 -0.1697 0.9855 68.9966 -80.1959)" width="13.846" height="0.692"/>
				
					<rect x="496.312" y="366.359" transform="matrix(0.9855 0.1697 -0.1697 0.9855 69.5098 -80.0617)" width="13.846" height="0.692"/>
				
					<rect x="495.784" y="369.429" transform="matrix(0.9855 0.1697 -0.1697 0.9855 70.023 -79.9275)" width="13.846" height="0.692"/>
				<rect x="495.29" y="372.088" transform="matrix(0.9855 0.1697 -0.1697 0.9855 70.4318 -79.3942)" width="9" height="0.692"/>
			</g>
		</g>
		<g>
			<g>
				<polygon fill="#FEEBD9" points="342.351,427.869 344.501,425.089 342.036,425.404 				"/>
				<polygon fill="#FEEBD9" points="323.791,408.203 326.687,430.85 341.787,428.919 341.261,424.805 345.374,424.279 
					343.004,405.746 				"/>
			</g>
			<path d="M323.009,407.598l3.073,24.034l15.794-2.02l4.192-5.421l-2.459-19.227L323.009,407.598z M342.351,427.869l-0.315-2.465
				l2.465-0.315L342.351,427.869z M345.374,424.279l-4.113,0.526l0.526,4.113l-15.1,1.931l-2.896-22.647l19.214-2.457
				L345.374,424.279z"/>
			<g>
				
					<rect x="326.957" y="410.398" transform="matrix(0.9919 -0.1268 0.1268 0.9919 -49.4028 45.6675)" width="13.846" height="0.692"/>
				
					<rect x="327.352" y="413.488" transform="matrix(0.9919 -0.1268 0.1268 0.9919 -49.7915 45.7426)" width="13.846" height="0.692"/>
				
					<rect x="327.747" y="416.578" transform="matrix(0.9919 -0.1268 0.1268 0.9919 -50.1803 45.8177)" width="13.846" height="0.692"/>
				
					<rect x="328.142" y="419.668" transform="matrix(0.9919 -0.1268 0.1268 0.9919 -50.569 45.8927)" width="13.846" height="0.692"/>
				<rect x="328.557" y="423.066" transform="matrix(0.9919 -0.1268 0.1268 0.9919 -51.0162 45.6655)" width="9" height="0.692"/>
			</g>
		</g>
		<g>
			<g>
				<polygon fill="#F8FEA9" points="335.701,339.051 337.747,336.193 335.295,336.599 				"/>
				<polygon fill="#F8FEA9" points="316.425,320.086 320.159,342.61 335.177,340.12 334.499,336.029 338.59,335.351 
					335.534,316.918 				"/>
			</g>
			<path d="M315.621,319.51l3.962,23.904l15.708-2.604l3.988-5.573l-3.17-19.123L315.621,319.51z M335.701,339.051l-0.406-2.452
				l2.452-0.406L335.701,339.051z M338.59,335.351l-4.091,0.678l0.678,4.091l-15.018,2.489l-3.734-22.524l19.109-3.168
				L338.59,335.351z"/>
			<g>
				
					<rect x="319.678" y="321.905" transform="matrix(0.9865 -0.1635 0.1635 0.9865 -48.3015 57.7476)" width="13.846" height="0.692"/>
				
					<rect x="320.188" y="324.979" transform="matrix(0.9865 -0.1635 0.1635 0.9865 -48.7973 57.8723)" width="13.846" height="0.692"/>
				
					<rect x="320.697" y="328.052" transform="matrix(0.9865 -0.1635 0.1635 0.9865 -49.293 57.9969)" width="13.846" height="0.692"/>
				
					<rect x="321.207" y="331.125" transform="matrix(0.9865 -0.1635 0.1635 0.9865 -49.7887 58.1216)" width="13.846" height="0.692"/>
				<rect x="321.749" y="334.595" transform="matrix(0.9865 -0.1635 0.1635 0.9865 -50.3814 57.8607)" width="9" height="0.692"/>
			</g>
		</g>
		<g>
			<g>
				<polygon fill="#D1FECD" points="443.571,359.465 446.656,357.78 444.271,357.08 				"/>
				<polygon fill="#D1FECD" points="434.459,334.005 428.027,355.911 442.634,360.2 443.802,356.221 447.781,357.389 
					453.044,339.461 				"/>
			</g>
			<path d="M433.985,333.137l-6.825,23.249l15.278,4.485l6.015-3.285l5.46-18.599L433.985,333.137z M443.571,359.465l0.7-2.385
				l2.385,0.7L443.571,359.465z M447.781,357.389l-3.979-1.168l-1.168,3.979l-14.607-4.288l6.431-21.907l18.586,5.456
				L447.781,357.389z"/>
			<g>
				
					<rect x="435.758" y="340.033" transform="matrix(0.9595 0.2817 -0.2817 0.9595 113.8052 -110.9135)" width="13.846" height="0.692"/>
				
					<rect x="434.88" y="343.022" transform="matrix(0.9595 0.2817 -0.2817 0.9595 114.6117 -110.5452)" width="13.846" height="0.692"/>
				
					<rect x="434.003" y="346.012" transform="matrix(0.9595 0.2817 -0.2817 0.9595 115.4181 -110.177)" width="13.846" height="0.692"/>
				
					<rect x="433.125" y="349.001" transform="matrix(0.9595 0.2817 -0.2817 0.9595 116.2246 -109.8088)" width="13.846" height="0.692"/>
				<rect x="432.346" y="351.307" transform="matrix(0.9595 0.2817 -0.2817 0.9595 116.7446 -108.8133)" width="9" height="0.692"/>
			</g>
		</g>
		<g>
			<g>
				<polygon fill="#D1FECD" points="465.587,423.066 468.078,420.587 465.593,420.581 				"/>
				<polygon fill="#D1FECD" points="449.725,401.165 449.669,423.997 464.892,424.034 464.902,419.887 469.049,419.897 
					469.094,401.213 				"/>
			</g>
			<path d="M449.027,400.464l-0.059,24.23l15.922,0.039l4.858-4.834l0.047-19.384L449.027,400.464z M465.587,423.066l0.006-2.485
				l2.485,0.006L465.587,423.066z M469.049,419.897l-4.147-0.01l-0.01,4.147l-15.223-0.037l0.056-22.831l19.37,0.047
				L469.049,419.897z"/>
			<g>
				<rect x="452.477" y="404.643" transform="matrix(1 0.0024 -0.0024 1 0.9891 -1.1192)" width="13.846" height="0.692"/>
				<rect x="452.47" y="407.759" transform="matrix(1 0.0024 -0.0024 1 0.9967 -1.1192)" width="13.846" height="0.692"/>
				<rect x="452.462" y="410.874" transform="matrix(1 0.0024 -0.0024 1 1.0043 -1.1191)" width="13.846" height="0.692"/>
				<rect x="452.455" y="413.989" transform="matrix(1 0.0024 -0.0024 1 1.0119 -1.1191)" width="13.846" height="0.692"/>
				<rect x="452.447" y="417.098" transform="matrix(1 0.0024 -0.0024 1 1.0194 -1.1132)" width="9" height="0.692"/>
			</g>
		</g>
		<g>
			<g>
				<polygon fill="#B8FFF3" points="385.645,384.554 387.906,381.863 385.43,382.078 				"/>
				<polygon fill="#B8FFF3" points="367.901,364.147 369.872,386.893 385.039,385.579 384.681,381.448 388.812,381.09 
					387.199,362.475 				"/>
			</g>
			<path d="M367.837,363.511l2.091,24.139l15.863-1.374l4.41-5.246l-1.673-19.311L367.837,363.511z M386.337,384.554l-0.215-2.476
				l2.476-0.215L386.337,384.554z M389.504,381.09l-4.131,0.358l0.358,4.131l-15.166,1.314l-1.971-22.746l19.298-1.672
				L389.504,381.09z"/>
			<g>
				
					<rect x="371.648" y="366.751" transform="matrix(0.9963 -0.0863 0.0863 0.9963 -30.2737 34.0471)" width="13.846" height="0.692"/>
				
					<rect x="371.917" y="369.855" transform="matrix(0.9963 -0.0863 0.0863 0.9963 -30.5406 34.0819)" width="13.846" height="0.692"/>
				
					<rect x="372.186" y="372.958" transform="matrix(0.9963 -0.0863 0.0863 0.9963 -30.8075 34.1167)" width="13.846" height="0.692"/>
				
					<rect x="372.455" y="376.062" transform="matrix(0.9963 -0.0863 0.0863 0.9963 -31.0744 34.1515)" width="13.846" height="0.692"/>
				<rect x="372.733" y="379.375" transform="matrix(0.9963 -0.0863 0.0863 0.9963 -31.3684 33.9787)" width="9" height="0.692"/>
			</g>
		</g>
		<g>
			<g>
				<polygon fill="#B8FFF3" points="193.649,409.396 195.91,406.706 193.434,406.92 				"/>
				<polygon fill="#B8FFF3" points="175.905,388.99 177.876,411.736 193.043,410.422 192.685,406.29 196.816,405.932 
					195.203,387.318 				"/>
			</g>
			<path d="M175.841,388.353l2.091,24.139l15.863-1.374l4.41-5.246l-1.673-19.311L175.841,388.353z M194.341,409.396l-0.215-2.476
				l2.476-0.215L194.341,409.396z M197.508,405.932l-4.131,0.358l0.358,4.131l-15.166,1.314l-1.971-22.746l19.298-1.672
				L197.508,405.932z"/>
			<g>
				
					<rect x="179.652" y="391.594" transform="matrix(0.9963 -0.0863 0.0863 0.9963 -33.1347 17.5673)" width="13.846" height="0.692"/>
				
					<rect x="179.921" y="394.697" transform="matrix(0.9963 -0.0863 0.0863 0.9963 -33.4016 17.6021)" width="13.846" height="0.692"/>
				
					<rect x="180.19" y="397.801" transform="matrix(0.9963 -0.0863 0.0863 0.9963 -33.6684 17.6369)" width="13.846" height="0.692"/>
				
					<rect x="180.459" y="400.905" transform="matrix(0.9963 -0.0863 0.0863 0.9963 -33.9353 17.6717)" width="13.846" height="0.692"/>
				<rect x="180.736" y="404.218" transform="matrix(0.9963 -0.0863 0.0863 0.9963 -34.2293 17.4989)" width="9" height="0.692"/>
			</g>
		</g>
		<g>
			<g>
				<polygon fill="#B8FFF3" points="570.649,421.396 572.91,418.706 570.434,418.92 				"/>
				<polygon fill="#B8FFF3" points="552.905,400.99 554.876,423.736 570.043,422.422 569.685,418.29 573.816,417.932 
					572.203,399.318 				"/>
			</g>
			<path d="M552.841,400.353l2.091,24.139l15.863-1.374l4.41-5.246l-1.673-19.311L552.841,400.353z M571.341,421.396l-0.215-2.476
				l2.476-0.215L571.341,421.396z M574.508,417.932l-4.131,0.358l0.358,4.131l-15.166,1.314l-1.971-22.746l19.298-1.672
				L574.508,417.932z"/>
			<g>
				
					<rect x="556.652" y="403.594" transform="matrix(0.9963 -0.0863 0.0863 0.9963 -32.7634 50.1536)" width="13.846" height="0.692"/>
				
					<rect x="556.921" y="406.697" transform="matrix(0.9963 -0.0863 0.0863 0.9963 -33.0303 50.1884)" width="13.846" height="0.692"/>
				
					<rect x="557.19" y="409.801" transform="matrix(0.9963 -0.0863 0.0863 0.9963 -33.2972 50.2232)" width="13.846" height="0.692"/>
				
					<rect x="557.459" y="412.905" transform="matrix(0.9963 -0.0863 0.0863 0.9963 -33.5641 50.258)" width="13.846" height="0.692"/>
				<rect x="557.737" y="416.218" transform="matrix(0.9963 -0.0863 0.0863 0.9963 -33.858 50.0852)" width="9" height="0.692"/>
			</g>
		</g>
		<g>
			<g>
				<polygon fill="#FDDEFB" points="354.368,43.421 357.239,41.394 354.79,40.972 				"/>
				<polygon fill="#FDDEFB" points="342.392,19.176 338.519,41.676 353.521,44.259 354.225,40.172 358.311,40.876 361.481,22.462 
									"/>
			</g>
			<path d="M341.822,18.368l-4.111,23.879l15.692,2.701L359,40.995l3.289-19.103L341.822,18.368z M354.368,43.421l0.422-2.449
				l2.449,0.422L354.368,43.421z M358.311,40.876l-4.087-0.704l-0.704,4.087l-15.003-2.583l3.874-22.5l19.089,3.286L358.311,40.876z
				"/>
			<g>
				
					<rect x="344.369" y="24.218" transform="matrix(0.9855 0.1697 -0.1697 0.9855 9.2602 -59.2434)" width="13.846" height="0.692"/>
				
					<rect x="343.841" y="27.289" transform="matrix(0.9855 0.1697 -0.1697 0.9855 9.7735 -59.1092)" width="13.846" height="0.692"/>
				
					<rect x="343.312" y="30.359" transform="matrix(0.9855 0.1697 -0.1697 0.9855 10.2867 -58.975)" width="13.846" height="0.692"/>
				
					<rect x="342.784" y="33.429" transform="matrix(0.9855 0.1697 -0.1697 0.9855 10.7999 -58.8408)" width="13.846" height="0.692"/>
				<rect x="342.29" y="36.088" transform="matrix(0.9855 0.1697 -0.1697 0.9855 11.2087 -58.3075)" width="9" height="0.692"/>
			</g>
		</g>
		<g>
			<g>
				<polygon fill="#FDDEFB" points="574.368,60.421 577.239,58.394 574.789,57.972 				"/>
				<polygon fill="#FDDEFB" points="562.392,36.176 558.519,58.676 573.521,61.259 574.225,57.172 578.311,57.876 581.481,39.462 
									"/>
			</g>
			<path d="M561.822,35.368l-4.111,23.879l15.692,2.701L579,57.995l3.289-19.103L561.822,35.368z M574.368,60.421l0.422-2.449
				l2.449,0.422L574.368,60.421z M578.311,57.876l-4.087-0.704l-0.704,4.087l-15.003-2.583l3.873-22.5l19.089,3.286L578.311,57.876z
				"/>
			<g>
				
					<rect x="564.369" y="41.218" transform="matrix(0.9855 0.1697 -0.1697 0.9855 15.3338 -96.3216)" width="13.846" height="0.692"/>
				
					<rect x="563.841" y="44.289" transform="matrix(0.9855 0.1697 -0.1697 0.9855 15.847 -96.1875)" width="13.846" height="0.692"/>
				
					<rect x="563.312" y="47.359" transform="matrix(0.9855 0.1697 -0.1697 0.9855 16.3602 -96.0533)" width="13.846" height="0.692"/>
				
					<rect x="562.784" y="50.429" transform="matrix(0.9855 0.1697 -0.1697 0.9855 16.8734 -95.9191)" width="13.846" height="0.692"/>
				<rect x="562.29" y="53.088" transform="matrix(0.9855 0.1697 -0.1697 0.9855 17.2822 -95.3858)" width="9" height="0.692"/>
			</g>
		</g>
		<g>
			<g>
				<polygon fill="#FEEBD9" points="379.351,100.869 381.501,98.089 379.036,98.404 				"/>
				<polygon fill="#FEEBD9" points="360.791,81.203 363.687,103.85 378.787,101.919 378.261,97.805 382.374,97.279 380.004,78.746 
									"/>
			</g>
			<path d="M360.009,80.598l3.073,24.034l15.794-2.02l4.192-5.421l-2.459-19.227L360.009,80.598z M379.351,100.869l-0.315-2.465
				l2.465-0.315L379.351,100.869z M382.374,97.279l-4.113,0.526l0.526,4.113l-15.1,1.931l-2.896-22.647l19.214-2.457L382.374,97.279
				z"/>
			<g>
				
					<rect x="363.957" y="83.398" transform="matrix(0.9919 -0.1268 0.1268 0.9919 -7.6266 47.7195)" width="13.846" height="0.692"/>
				
					<rect x="364.352" y="86.488" transform="matrix(0.9919 -0.1268 0.1268 0.9919 -8.0154 47.7945)" width="13.846" height="0.692"/>
				
					<rect x="364.747" y="89.578" transform="matrix(0.9919 -0.1268 0.1268 0.9919 -8.4042 47.8696)" width="13.846" height="0.692"/>
				
					<rect x="365.142" y="92.668" transform="matrix(0.9919 -0.1268 0.1268 0.9919 -8.7929 47.9447)" width="13.846" height="0.692"/>
				<rect x="365.557" y="96.066" transform="matrix(0.9919 -0.1268 0.1268 0.9919 -9.2401 47.7174)" width="9" height="0.692"/>
			</g>
		</g>
		<g>
			<g>
				<polygon fill="#F8FEA9" points="193.701,52.051 195.747,49.193 193.295,49.599 				"/>
				<polygon fill="#F8FEA9" points="174.425,33.086 178.159,55.61 193.177,53.12 192.499,49.029 196.59,48.351 193.534,29.918 				
					"/>
			</g>
			<path d="M173.621,32.51l3.962,23.904l15.708-2.604l3.988-5.573l-3.17-19.123L173.621,32.51z M193.701,52.051l-0.406-2.452
				l2.452-0.406L193.701,52.051z M196.59,48.351l-4.091,0.678l0.678,4.091l-15.018,2.489l-3.734-22.524l19.109-3.168L196.59,48.351z
				"/>
			<g>
				
					<rect x="177.678" y="34.905" transform="matrix(0.9865 -0.1635 0.1635 0.9865 -3.2797 30.6626)" width="13.846" height="0.692"/>
				
					<rect x="178.188" y="37.979" transform="matrix(0.9865 -0.1635 0.1635 0.9865 -3.7754 30.7873)" width="13.846" height="0.692"/>
				<rect x="178.697" y="41.052" transform="matrix(0.9865 -0.1635 0.1635 0.9865 -4.2711 30.912)" width="13.846" height="0.692"/>
				
					<rect x="179.207" y="44.125" transform="matrix(0.9865 -0.1635 0.1635 0.9865 -4.7668 31.0366)" width="13.846" height="0.692"/>
				<rect x="179.749" y="47.595" transform="matrix(0.9865 -0.1635 0.1635 0.9865 -5.3595 30.7758)" width="9" height="0.692"/>
			</g>
		</g>
		<g>
			<g>
				<polygon fill="#D1FECD" points="483.571,46.465 486.656,44.78 484.271,44.08 				"/>
				<polygon fill="#D1FECD" points="474.459,21.005 468.027,42.911 482.634,47.2 483.802,43.221 487.781,44.389 493.044,26.461 				
					"/>
			</g>
			<path d="M473.985,20.137l-6.825,23.249l15.278,4.485l6.015-3.285l5.46-18.599L473.985,20.137z M483.571,46.465l0.7-2.385
				l2.385,0.7L483.571,46.465z M487.781,44.389l-3.979-1.168l-1.168,3.979l-14.607-4.288l6.431-21.907l18.586,5.456L487.781,44.389z
				"/>
			<g>
				
					<rect x="475.758" y="27.033" transform="matrix(0.9595 0.2817 -0.2817 0.9595 27.2576 -134.8552)" width="13.846" height="0.692"/>
				<rect x="474.88" y="30.022" transform="matrix(0.9595 0.2817 -0.2817 0.9595 28.064 -134.487)" width="13.846" height="0.692"/>
				
					<rect x="474.003" y="33.012" transform="matrix(0.9595 0.2817 -0.2817 0.9595 28.8705 -134.1187)" width="13.846" height="0.692"/>
				
					<rect x="473.125" y="36.001" transform="matrix(0.9595 0.2817 -0.2817 0.9595 29.6769 -133.7505)" width="13.846" height="0.692"/>
				<rect x="472.346" y="38.307" transform="matrix(0.9595 0.2817 -0.2817 0.9595 30.197 -132.7551)" width="9" height="0.692"/>
			</g>
		</g>
		<g>
			<g>
				<polygon fill="#D1FECD" points="506.587,122.066 509.078,119.587 506.593,119.581 				"/>
				<polygon fill="#D1FECD" points="490.725,100.165 490.669,122.997 505.892,123.034 505.902,118.887 510.049,118.897 
					510.094,100.213 				"/>
			</g>
			<path d="M490.027,99.464l-0.059,24.23l15.922,0.039l4.858-4.834l0.047-19.384L490.027,99.464z M506.587,122.066l0.006-2.485
				l2.485,0.006L506.587,122.066z M510.049,118.897l-4.147-0.01l-0.01,4.147l-15.223-0.037l0.056-22.831l19.37,0.047
				L510.049,118.897z"/>
			<g>
				<rect x="493.477" y="103.643" transform="matrix(1 0.0024 -0.0024 1 0.2551 -1.2201)" width="13.846" height="0.692"/>
				<rect x="493.47" y="106.759" transform="matrix(1 0.0024 -0.0024 1 0.2627 -1.22)" width="13.846" height="0.692"/>
				<rect x="493.462" y="109.874" transform="matrix(1 0.0024 -0.0024 1 0.2703 -1.22)" width="13.846" height="0.692"/>
				<rect x="493.455" y="112.989" transform="matrix(1 0.0024 -0.0024 1 0.2779 -1.22)" width="13.846" height="0.692"/>
				<rect x="493.447" y="116.098" transform="matrix(1 0.0024 -0.0024 1 0.2855 -1.2141)" width="9" height="0.692"/>
			</g>
		</g>
		<g>
			<g>
				<polygon fill="#D1FECD" points="260.587,62.066 263.078,59.587 260.593,59.581 				"/>
				<polygon fill="#D1FECD" points="244.725,40.165 244.669,62.997 259.892,63.034 259.902,58.887 264.049,58.897 264.094,40.213 
									"/>
			</g>
			<path d="M244.027,39.464l-0.059,24.23l15.922,0.039l4.858-4.834l0.047-19.384L244.027,39.464z M260.587,62.066l0.006-2.485
				l2.485,0.006L260.587,62.066z M264.049,58.897l-4.147-0.01l-0.01,4.147l-15.223-0.037l0.056-22.831l19.37,0.047L264.049,58.897z"
				/>
			<g>
				<rect x="247.477" y="43.643" transform="matrix(1 0.0024 -0.0024 1 0.108 -0.6203)" width="13.846" height="0.692"/>
				<rect x="247.47" y="46.759" transform="matrix(1 0.0024 -0.0024 1 0.1156 -0.6203)" width="13.846" height="0.692"/>
				<rect x="247.462" y="49.874" transform="matrix(1 0.0024 -0.0024 1 0.1232 -0.6202)" width="13.846" height="0.692"/>
				<rect x="247.455" y="52.989" transform="matrix(1 0.0024 -0.0024 1 0.1308 -0.6202)" width="13.846" height="0.692"/>
				<rect x="247.447" y="56.098" transform="matrix(1 0.0024 -0.0024 1 0.1384 -0.6143)" width="9" height="0.692"/>
			</g>
		</g>
		<g>
			<g>
				<polygon fill="#B8FFF3" points="444.319,91.043 447.295,89.173 444.872,88.62 				"/>
				<polygon fill="#B8FFF3" points="433.666,66.188 428.587,88.447 443.429,91.834 444.351,87.791 448.394,88.714 452.551,70.497 
									"/>
			</g>
			<path d="M433.799,65.563l-5.39,23.623l15.523,3.542l5.803-3.646l4.312-18.898L433.799,65.563z M444.978,91.255l0.553-2.423
				l2.423,0.553L444.978,91.255z M449.053,88.925l-4.043-0.923l-0.923,4.043l-14.842-3.387l5.079-22.259l18.885,4.309
				L449.053,88.925z"/>
			<g>
				
					<rect x="435.999" y="71.914" transform="matrix(0.9749 0.2225 -0.2225 0.9749 27.1743 -96.7231)" width="13.846" height="0.692"/>
				
					<rect x="435.306" y="74.951" transform="matrix(0.9749 0.2225 -0.2225 0.9749 27.8326 -96.4928)" width="13.846" height="0.692"/>
				
					<rect x="434.613" y="77.988" transform="matrix(0.9749 0.2225 -0.2225 0.9749 28.4909 -96.2625)" width="13.846" height="0.692"/>
				
					<rect x="433.92" y="81.025" transform="matrix(0.9749 0.2225 -0.2225 0.9749 29.1492 -96.0322)" width="13.846" height="0.692"/>
				<rect x="433.288" y="83.523" transform="matrix(0.9749 0.2225 -0.2225 0.9749 29.6283 -95.2899)" width="9" height="0.692"/>
			</g>
		</g>
		<g>
			<g>
				<polygon fill="#B8FFF3" points="296.649,114.396 298.91,111.706 296.434,111.92 				"/>
				<polygon fill="#B8FFF3" points="278.905,93.99 280.876,116.736 296.043,115.422 295.685,111.29 299.816,110.932 298.203,92.318 
									"/>
			</g>
			<path d="M278.841,93.353l2.091,24.139l15.863-1.374l4.41-5.246l-1.673-19.311L278.841,93.353z M297.341,114.396l-0.215-2.476
				l2.476-0.215L297.341,114.396z M300.508,110.932l-4.131,0.358l0.358,4.131l-15.166,1.314l-1.971-22.746l19.298-1.672
				L300.508,110.932z"/>
			<g>
				<rect x="282.652" y="96.594" transform="matrix(0.9963 -0.0863 0.0863 0.9963 -7.2868 25.357)" width="13.846" height="0.692"/>
				
					<rect x="282.921" y="99.697" transform="matrix(0.9963 -0.0863 0.0863 0.9963 -7.5537 25.3918)" width="13.846" height="0.692"/>
				
					<rect x="283.19" y="102.801" transform="matrix(0.9963 -0.0863 0.0863 0.9963 -7.8206 25.4266)" width="13.846" height="0.692"/>
				
					<rect x="283.459" y="105.905" transform="matrix(0.9963 -0.0863 0.0863 0.9963 -8.0875 25.4613)" width="13.846" height="0.692"/>
				<rect x="283.737" y="109.218" transform="matrix(0.9963 -0.0863 0.0863 0.9963 -8.3814 25.2886)" width="9" height="0.692"/>
			</g>
		</g>
	</g>
	<g id="lines">
		<line fill="#64748B" stroke="#64748B" stroke-miterlimit="10" x1="697.295" y1="47.678" x2="85.295" y2="396.678"/>
		<line fill="#64748B" stroke="#64748B" stroke-miterlimit="10" x1="697.295" y1="396.678" x2="85.295" y2="47.678"/>
	</g>
	<text transform="matrix(1 0 0 1 363.1069 165.1876)" fill="#64748B" font-family="'OpenSans-Bold'" font-size="20px">Think</text>
	<text transform="matrix(1 0 0 1 363.1069 292.1876)" fill="#64748B" font-family="'OpenSans-Bold'" font-size="20px">Think</text>
	<text transform="matrix(1 0 0 1 297.2017 227.2534)" fill="#64748B" font-family="'OpenSans-Bold'" font-size="20px">Do</text>
	<text transform="matrix(1 0 0 1 451.439 227.2534)" fill="#64748B" font-family="'OpenSans-Bold'" font-size="20px">Feel</text>
	<path fill="#64748B" d="M391.296,143.741c-0.467,0-0.878-0.112-1.233-0.337c-0.355-0.225-0.584-0.536-0.688-0.934h-0.363
		c-0.415,0-0.779-0.156-1.09-0.467s-0.467-0.675-0.467-1.09V137.2c-1.142-0.744-2.042-1.696-2.7-2.855
		c-0.658-1.159-0.986-2.44-0.986-3.842c0-2.094,0.731-3.872,2.193-5.334s3.24-2.193,5.334-2.193s3.872,0.731,5.334,2.193
		s2.193,3.24,2.193,5.334c0,1.402-0.329,2.682-0.986,3.842c-0.658,1.159-1.557,2.111-2.7,2.855v3.712
		c0,0.415-0.156,0.779-0.467,1.09s-0.675,0.467-1.09,0.467h-0.363c-0.104,0.398-0.333,0.71-0.688,0.934
		C392.174,143.628,391.763,143.741,391.296,143.741z M389.012,140.911h4.569v-1.142h-4.569V140.911z M389.012,138.731h4.569v-1.038
		h-4.569V138.731z M388.778,136.135h1.921v-3.556l-2.388-2.388l0.805-0.805l2.18,2.18l2.18-2.18l0.805,0.805l-2.388,2.388v3.556
		h1.921c1.038-0.485,1.873-1.237,2.505-2.258c0.632-1.021,0.947-2.146,0.947-3.375c0-1.679-0.575-3.093-1.726-4.244
		c-1.151-1.151-2.566-1.726-4.244-1.726s-3.093,0.575-4.244,1.726c-1.151,1.151-1.726,2.566-1.726,4.244
		c0,1.229,0.316,2.354,0.947,3.375C386.905,134.898,387.74,135.651,388.778,136.135z M391.296,130.321L391.296,130.321
		L391.296,130.321L391.296,130.321L391.296,130.321L391.296,130.321L391.296,130.321L391.296,130.321L391.296,130.321z"/>
	<path fill="#64748B" d="M274.274,209.506c-0.638,0-1.186-0.229-1.644-0.686c-0.458-0.458-0.686-1.006-0.686-1.644
		c0-0.638,0.229-1.186,0.686-1.644c0.458-0.458,1.006-0.686,1.644-0.686c0.638,0,1.186,0.229,1.644,0.686
		c0.458,0.458,0.686,1.006,0.686,1.644c0,0.638-0.229,1.186-0.686,1.644C275.461,209.277,274.913,209.506,274.274,209.506z
		 M270.827,230.383v-17.174c-2.022-0.426-3.644-1.335-4.868-2.729c-1.224-1.394-1.835-3.017-1.835-4.868h1.915
		c0,1.66,0.644,3.054,1.931,4.182s2.857,1.692,4.708,1.692h3.192c0.809,0,1.405,0.069,1.788,0.207
		c0.383,0.138,0.873,0.463,1.468,0.974l5.874,5.491l-1.373,1.373l-5.906-5.554v16.408h-1.915v-8.14h-3.064v8.14H270.827z"/>
	<path fill="#64748B" d="M513.535,231.85l-1.175-1.06c-3.115-2.847-5.608-5.331-7.481-7.452c-1.873-2.121-2.809-4.271-2.809-6.449
		c0-1.72,0.578-3.158,1.734-4.314s2.584-1.734,4.285-1.734c0.974,0,1.939,0.234,2.895,0.702c0.955,0.468,1.806,1.237,2.551,2.307
		c0.841-1.07,1.71-1.839,2.608-2.307s1.844-0.702,2.837-0.702c1.701,0,3.129,0.578,4.285,1.734c1.156,1.156,1.734,2.594,1.734,4.314
		c0,2.178-0.936,4.328-2.809,6.449s-4.366,4.605-7.481,7.452L513.535,231.85z M513.535,221.073L513.535,221.073L513.535,221.073
		L513.535,221.073L513.535,221.073L513.535,221.073L513.535,221.073L513.535,221.073L513.535,221.073L513.535,221.073
		L513.535,221.073L513.535,221.073L513.535,221.073z M513.535,229.586c2.904-2.675,5.255-4.997,7.051-6.965
		c1.796-1.968,2.694-3.879,2.694-5.732c0-1.261-0.406-2.298-1.218-3.11c-0.812-0.812-1.839-1.218-3.081-1.218
		c-0.955,0-1.853,0.296-2.694,0.889c-0.841,0.592-1.529,1.443-2.064,2.551h-1.404c-0.516-1.108-1.199-1.959-2.049-2.551
		c-0.85-0.592-1.744-0.889-2.68-0.889c-1.261,0-2.293,0.406-3.095,1.218c-0.803,0.812-1.204,1.849-1.204,3.11
		c0,1.853,0.898,3.764,2.694,5.732C508.281,224.589,510.631,226.911,513.535,229.586z"/>
	<path fill="#64748B" d="M390.199,259.363h1.368v-5.721h-1.368V259.363z M390.883,262.599c0.213,0,0.391-0.072,0.536-0.217
		s0.217-0.323,0.217-0.536s-0.072-0.391-0.217-0.536s-0.323-0.217-0.536-0.217s-0.391,0.072-0.536,0.217s-0.217,0.323-0.217,0.536
		s0.072,0.391,0.217,0.536S390.67,262.599,390.883,262.599z M381.765,269.141v-16.867c0-0.349,0.137-0.665,0.41-0.946
		s0.593-0.422,0.957-0.422h15.499c0.349,0,0.665,0.141,0.946,0.422c0.281,0.281,0.422,0.596,0.422,0.946v11.852
		c0,0.349-0.141,0.665-0.422,0.946c-0.281,0.281-0.596,0.422-0.946,0.422h-13.22L381.765,269.141z M383.133,265.836l1.71-1.709
		h13.79l0,0l0,0v-11.852l0,0l0,0h-15.499l0,0l0,0V265.836z M383.133,252.274L383.133,252.274L383.133,252.274L383.133,252.274
		L383.133,252.274v11.852l0,0l0,0v1.709V252.274z"/>
</g>
</svg>
