<svg width="1193" height="794" viewBox="0 0 1193 794" fill="none" xmlns="http://www.w3.org/2000/svg">
<path fill-rule="evenodd" clip-rule="evenodd" d="M316.456 366.492C306.549 360.04 300 348.868 300 336.168C300 316.193 316.199 300 336.183 300H398.175C418.158 300 434.357 316.193 434.357 336.168C434.357 348.868 427.809 360.04 417.902 366.492C427.809 372.945 434.357 384.116 434.357 396.817C434.357 416.791 418.158 432.984 398.175 432.984H397.515C388.069 432.984 379.468 429.366 373.025 423.44V457.135C373.025 477.333 356.471 493.633 336.347 493.633C316.405 493.633 300 477.481 300 457.465C300 444.765 306.549 433.593 316.455 427.141C306.549 420.688 300 409.517 300 396.817C300 384.116 306.549 372.945 316.456 366.492ZM373.025 396.817C373.025 410.337 383.99 421.297 397.515 421.297H398.175C411.701 421.297 422.666 410.337 422.666 396.817C422.666 383.296 411.701 372.336 398.175 372.336H397.515C383.99 372.336 373.025 383.296 373.025 396.817ZM361.333 372.336H336.183C322.657 372.336 311.692 383.296 311.692 396.817C311.692 410.31 322.612 421.253 336.1 421.297H336.139H361.333V372.336ZM336.183 432.984C336.155 432.984 336.128 432.984 336.1 432.984C322.612 433.029 311.692 443.972 311.692 457.465C311.692 470.944 322.78 481.946 336.347 481.946C350.096 481.946 361.333 470.797 361.333 457.135V432.984H336.183ZM361.333 360.648H336.183C322.657 360.648 311.692 349.688 311.692 336.168C311.692 322.647 322.657 311.687 336.183 311.687H361.333V360.648ZM398.175 360.648H373.025V311.687H398.175C411.701 311.687 422.666 322.647 422.666 336.168C422.666 349.688 411.701 360.648 398.175 360.648Z" fill="white"/>
<g clip-path="url(#clip0_1_10)">
<path fill-rule="evenodd" clip-rule="evenodd" d="M525.816 428.725L563.897 407.369L564.543 405.514L563.897 404.481H562.05L555.676 404.094L533.908 403.505L515.037 402.722L496.755 401.738L492.148 400.762L487.824 395.074L488.267 392.234L492.14 389.644L497.675 390.128L509.938 390.959L528.317 392.234L541.645 393.016L561.404 395.074H564.543L564.986 393.807L563.905 393.016L563.074 392.234L544.05 379.357L523.46 365.738L512.681 357.896L506.84 353.935L503.903 350.207L502.629 342.075L507.921 336.25L515.029 336.734L516.844 337.226L524.049 342.761L539.443 354.669L559.54 369.458L562.485 371.91L563.655 371.079L563.808 370.49L562.485 368.28L551.553 348.545L539.887 328.456L534.691 320.13L533.319 315.136C532.797 313.218 532.515 311.242 532.48 309.254L538.515 301.081L541.847 300L549.883 301.081L553.272 304.018L558.274 315.426L566.358 333.41L578.904 357.856L582.583 365.101L584.543 371.814L585.277 373.871H586.552V372.693L587.585 358.929L589.497 342.026L591.353 320.283L591.998 314.151L595.032 306.809L601.058 302.84L605.77 305.099L609.643 310.626L609.102 314.208L606.795 329.142L602.285 352.563L599.348 368.231H601.058L603.019 366.279L610.966 355.742L624.294 339.09L630.184 332.474L637.042 325.18L641.455 321.703H649.789L655.921 330.812L653.178 340.219L644.594 351.087L637.486 360.3L627.288 374.016L620.914 384.989L621.503 385.876L623.02 385.715L646.062 380.826L658.511 378.566L673.364 376.025L680.085 379.155L680.819 382.342L678.173 388.853L662.287 392.774L643.658 396.502L615.912 403.061L615.573 403.303L615.968 403.795L628.466 404.973L633.807 405.264H646.893L671.258 407.079L677.632 411.29L681.456 416.438L680.819 420.351L671.016 425.353L657.785 422.215L626.892 414.873L616.307 412.218H614.839V413.106L623.657 421.722L639.841 436.325L660.084 455.124L661.109 459.787L658.511 463.458L655.768 463.063L637.978 449.694L631.112 443.667L615.573 430.597H614.54V431.969L618.122 437.205L637.042 465.612L638.026 474.326L636.655 477.174L631.749 478.892L626.36 477.908L615.274 462.377L603.858 444.894L594.636 429.218L593.507 429.863L588.069 488.388L585.519 491.374L579.638 493.633L574.741 489.913L572.143 483.887L574.741 471.978L577.879 456.455L580.42 444.111L582.728 428.782L584.099 423.683L584.003 423.344L582.873 423.489L571.304 439.359L553.715 463.119L539.79 478.005L536.45 479.328L530.665 476.343L531.205 471.002L534.441 466.25L553.707 441.755L565.325 426.571L572.828 417.809L572.78 416.535H572.336L521.161 449.743L512.044 450.921L508.115 447.242L508.607 441.223L510.471 439.262L525.864 428.677L525.816 428.725Z" fill="white"/>
</g>
<path d="M738.724 379.595L757.975 391.557C758.665 391.987 759.435 392.196 760.209 392.196C760.979 392.196 761.752 391.976 762.443 391.557L781.694 379.595C781.694 379.595 781.748 379.548 781.773 379.529C782.064 379.339 782.341 379.111 782.589 378.851C782.625 378.812 782.661 378.766 782.697 378.727C782.91 378.479 783.104 378.212 783.266 377.926C783.291 377.879 783.327 377.84 783.345 377.79C783.514 377.476 783.636 377.143 783.734 376.787C783.752 376.71 783.769 376.636 783.787 376.559C783.867 376.194 783.928 375.823 783.928 375.432V363.469C783.928 358.853 786.241 354.55 789.954 352.238C793.667 349.926 798.286 349.93 802.006 352.238L811.629 358.222C811.939 358.411 812.266 358.547 812.604 358.651C812.676 358.671 812.748 358.698 812.817 358.717C813.144 358.802 813.482 358.853 813.817 358.86C813.835 358.86 813.853 358.86 813.86 358.86C813.896 358.86 813.932 358.841 813.964 358.841C814.274 358.841 814.587 358.795 814.885 358.706C814.939 358.694 814.993 358.686 815.043 358.667C815.371 358.57 815.691 358.427 815.993 358.249C816.018 358.229 816.054 358.229 816.083 358.21L835.334 346.247C836.715 345.388 837.568 343.804 837.568 342.088V318.163C837.568 316.447 836.719 314.863 835.334 314.004L816.065 302.049C814.684 301.189 812.989 301.189 811.608 302.049L792.357 314.011C792.357 314.011 792.303 314.058 792.278 314.077C791.986 314.267 791.709 314.495 791.461 314.755C791.425 314.794 791.389 314.84 791.353 314.879C791.141 315.127 790.947 315.394 790.785 315.68C790.76 315.727 790.724 315.766 790.706 315.812C790.537 316.126 790.414 316.463 790.317 316.815C790.299 316.893 790.281 316.966 790.263 317.044C790.184 317.408 790.123 317.779 790.123 318.171V330.133C790.123 334.749 787.81 339.052 784.097 341.372C780.384 343.68 775.765 343.68 772.045 341.372L762.425 335.392C762.112 335.202 761.785 335.067 761.45 334.962C761.378 334.943 761.31 334.916 761.238 334.897C760.907 334.811 760.572 334.765 760.234 334.753C760.18 334.753 760.137 334.753 760.083 334.753C759.763 334.753 759.453 334.8 759.151 334.885C759.097 334.893 759.054 334.904 759 334.924C758.676 335.02 758.356 335.164 758.054 335.346C758.029 335.365 757.993 335.365 757.964 335.384L738.724 347.359C737.342 348.218 736.49 349.802 736.49 351.518V375.443C736.49 377.163 737.339 378.743 738.724 379.602V379.595Z" fill="white"/>
<path d="M843.576 385.574C847.289 383.266 851.908 383.266 855.628 385.574L865.252 391.557C865.561 391.747 865.888 391.883 866.227 391.987C866.299 392.007 866.367 392.034 866.439 392.053C866.766 392.138 867.104 392.185 867.439 392.196C867.457 392.196 867.475 392.196 867.482 392.196C867.518 392.196 867.554 392.185 867.587 392.177C867.896 392.177 868.209 392.13 868.508 392.045C868.561 392.034 868.615 392.026 868.666 392.007C868.993 391.91 869.303 391.766 869.616 391.588C869.641 391.569 869.677 391.569 869.713 391.55L888.964 379.587C890.345 378.727 891.198 377.143 891.198 375.428V351.499C891.198 349.783 890.345 348.199 888.964 347.339L869.724 335.373C868.342 334.513 866.648 334.513 865.266 335.373L846.015 347.335C846.015 347.335 845.961 347.382 845.936 347.401C845.645 347.591 845.368 347.82 845.119 348.079C845.084 348.118 845.048 348.164 845.015 348.203C844.803 348.451 844.609 348.718 844.447 349.005C844.422 349.051 844.386 349.09 844.368 349.14C844.199 349.454 844.076 349.791 843.979 350.143C843.961 350.221 843.943 350.294 843.925 350.372C843.846 350.736 843.785 351.107 843.785 351.499V363.461C843.785 368.077 841.472 372.38 837.759 374.7C834.046 377.008 829.427 377.008 825.707 374.7L816.083 368.716C815.774 368.527 815.446 368.391 815.108 368.287C815.036 368.267 814.968 368.24 814.896 368.221C814.569 368.135 814.23 368.085 813.896 368.077C813.842 368.077 813.799 368.077 813.745 368.077C813.425 368.077 813.115 368.124 812.813 368.213C812.759 368.225 812.716 368.232 812.662 368.252C812.335 368.349 812.014 368.492 811.712 368.67C811.687 368.689 811.651 368.689 811.622 368.709L792.371 380.671C790.99 381.531 790.137 383.115 790.137 384.831V408.76C790.137 410.475 790.986 412.059 792.371 412.919L811.622 424.881C811.622 424.881 811.683 424.901 811.712 424.92C812.014 425.102 812.335 425.246 812.662 425.338C812.716 425.358 812.77 425.358 812.82 425.377C813.122 425.455 813.432 425.501 813.741 425.513C813.777 425.513 813.813 425.532 813.849 425.532C813.867 425.532 813.885 425.532 813.892 425.532C814.23 425.532 814.558 425.474 814.892 425.389C814.964 425.369 815.033 425.35 815.105 425.323C815.443 425.218 815.77 425.083 816.08 424.893L825.703 418.91C829.416 416.602 834.035 416.602 837.755 418.91C841.468 421.218 843.781 425.52 843.781 430.141V442.103C843.781 442.494 843.835 442.866 843.921 443.23C843.939 443.308 843.957 443.381 843.975 443.459C844.073 443.811 844.195 444.144 844.364 444.462C844.389 444.508 844.418 444.547 844.443 444.593C844.601 444.88 844.799 445.147 845.012 445.395C845.048 445.434 845.084 445.48 845.116 445.519C845.357 445.774 845.63 445.995 845.933 446.197C845.958 446.216 845.976 446.243 846.012 446.262L865.262 458.225C865.953 458.655 866.727 458.864 867.497 458.864C868.266 458.864 869.04 458.643 869.731 458.225L888.982 446.262C890.363 445.403 891.216 443.819 891.216 442.103V418.174C891.216 416.458 890.367 414.875 888.982 414.015L869.731 402.052C869.731 402.052 869.67 402.033 869.641 402.013C869.339 401.831 869.018 401.688 868.691 401.595C868.637 401.576 868.594 401.576 868.54 401.556C868.231 401.479 867.921 401.433 867.601 401.421C867.558 401.421 867.504 401.421 867.461 401.421C867.122 401.421 866.788 401.479 866.46 401.564C866.389 401.584 866.327 401.603 866.255 401.63C865.917 401.735 865.59 401.87 865.28 402.06L855.657 408.043C851.944 410.351 847.325 410.351 843.612 408.043C839.899 405.735 837.586 401.433 837.586 396.805C837.586 392.177 839.899 387.886 843.612 385.574H843.576Z" fill="white"/>
<path d="M835.32 447.37L816.069 435.407C816.069 435.407 816.008 435.388 815.979 435.369C815.677 435.187 815.36 435.043 815.029 434.95C814.975 434.931 814.921 434.931 814.871 434.912C814.561 434.834 814.252 434.788 813.939 434.776C813.885 434.776 813.842 434.776 813.788 434.776C813.45 434.776 813.115 434.834 812.788 434.919C812.716 434.939 812.655 434.958 812.583 434.985C812.245 435.09 811.917 435.225 811.608 435.415L801.984 441.398C798.271 443.706 793.652 443.706 789.939 441.398C786.227 439.09 783.913 434.788 783.913 430.16V418.193C783.913 417.802 783.859 417.43 783.773 417.066C783.755 416.989 783.737 416.915 783.719 416.838C783.622 416.486 783.496 416.152 783.331 415.835C783.305 415.788 783.277 415.75 783.251 415.699C783.093 415.413 782.895 415.146 782.683 414.898C782.647 414.859 782.611 414.813 782.575 414.774C782.338 414.518 782.061 414.297 781.758 414.096C781.733 414.077 781.715 414.05 781.679 414.03L762.428 402.068C761.047 401.208 759.353 401.208 757.971 402.068L738.72 414.03C737.339 414.89 736.486 416.474 736.486 418.189V442.119C736.486 443.834 737.335 445.418 738.72 446.278L757.971 458.24C757.971 458.24 758.032 458.268 758.061 458.279C758.363 458.461 758.673 458.605 759 458.697C759.054 458.717 759.108 458.725 759.158 458.736C759.46 458.814 759.77 458.86 760.079 458.872C760.115 458.872 760.151 458.891 760.194 458.891C760.212 458.891 760.23 458.891 760.248 458.891C760.587 458.891 760.914 458.833 761.241 458.748C761.313 458.728 761.382 458.709 761.454 458.682C761.792 458.577 762.119 458.442 762.428 458.252L772.052 452.269C775.765 449.961 780.384 449.961 784.104 452.269C787.817 454.577 790.13 458.879 790.13 463.5V475.462C790.13 475.853 790.184 476.225 790.27 476.589C790.288 476.667 790.306 476.74 790.324 476.818C790.421 477.17 790.547 477.503 790.713 477.821C790.738 477.867 790.767 477.906 790.792 477.956C790.95 478.243 791.148 478.51 791.36 478.758C791.396 478.797 791.432 478.843 791.468 478.882C791.709 479.141 791.983 479.358 792.285 479.559C792.31 479.579 792.328 479.606 792.364 479.625L811.615 491.588C812.306 492.018 813.076 492.227 813.849 492.227C814.623 492.227 815.392 492.006 816.083 491.588L835.334 479.625C836.715 478.766 837.568 477.182 837.568 475.466V451.537C837.568 449.821 836.719 448.237 835.334 447.378L835.32 447.37Z" fill="white"/>
<defs>
<clipPath id="clip0_1_10">
<rect width="193.633" height="193.633" fill="white" transform="translate(487.824 300)"/>
</clipPath>
</defs>
</svg>
