<svg xmlns="http://www.w3.org/2000/svg" viewBox="0 0 600 300"><style>.st0{fill:none}.st1{fill:#78aac3}.st2{fill:#fff}.st3{fill:#e4eaf6}.st4{fill:#bec8dc}.st5{fill:#707384}.st6{fill:#5f8caf}.st7{fill:#464655}.st8{fill:#fff0be}.st9{fill:#ffdc9b}</style><path class="st0" d="M0 0h600v300H0z"/><path class="st1" d="M236.6 220.5h-31.7V93.6H293v-7h-88.1c-3.9 0-7 3.2-7 7v126.8c0 3.9 3.2 7 7 7H293v-7h-56.4zm0 0M395.1 86.6h-49.3v7h49.3v126.8H307v7h88.1c3.9 0 7-3.2 7-7V93.6c.1-3.9-3.1-7-7-7zm0 0M317.6 93.6h14.1v-7H307v7h10.6zm0 0"/><path class="st2" d="M249.6 167.6h5.6l-12.5-12.5c-.9 1-1.7 2.1-2.3 3.2l9.2 9.3zm0 0M257.7 165.1v-5.6l-9.3-9.3c-1.1.7-2.2 1.5-3.2 2.3l12.5 12.6zm0 0M238.7 161.7c-.8 1.9-1.3 3.9-1.5 5.9h7.5l-6-5.9zm0 0"/><path class="st2" d="M293 93.6h-56.4v29.9h22.9c1 0 1.8.8 1.8 1.8v18.1c14.6.4 26.4 12.4 26.4 27.1 0 14.9-12.1 27.1-27.1 27.1-10.4 0-19.5-5.9-24-14.6v37.5h59.9V93.6H293zm0 0"/><path class="st2" d="M257.7 143.5v-16.4h-21.1V158c4.1-7.9 11.9-13.5 21.1-14.5zm0 0M261.2 169.4v.5c0 .1 0 .1-.1.2 0 .1-.1.1-.1.2 0 0 0 .1-.1.1-.1.2-.3.4-.5.5 0 0-.1 0-.1.1-.1 0-.1.1-.2.1s-.1 0-.2.1H237c.4 12.7 10.8 22.9 23.5 22.9 13 0 23.6-10.6 23.6-23.6 0-12.8-10.2-23.2-22.9-23.5v22.4zm0 0"/><path class="st2" d="M257.7 154.6v-7.5c-2.1.3-4.1.8-5.9 1.5l5.9 6zm0 0M374 121.8c1.9 0 3.5 1.6 3.5 3.5s-1.6 3.5-3.5 3.5h-28.2V150h3.5c1.9 0 3.5 1.6 3.5 3.5s-1.6 3.5-3.5 3.5h-3.5v7H374c1.9 0 3.5 1.6 3.5 3.5s-1.6 3.5-3.5 3.5h-28.2v7l-7 17.6-7-17.6v-7h-7c-1.9 0-3.5-1.6-3.5-3.5s1.6-3.5 3.5-3.5h7v-7h-7c-1.9 0-3.5-1.6-3.5-3.5s1.6-3.5 3.5-3.5h7v-7h-7c-1.9 0-3.5-1.6-3.5-3.5s1.6-3.5 3.5-3.5h7v-7h-7c-1.9 0-3.5-1.6-3.5-3.5s1.6-3.5 3.5-3.5h7v-7h-7c-1.9 0-3.5-1.6-3.5-3.5s1.6-3.5 3.5-3.5h7V93.6h-14.1v126.8h77.5V93.6h-49.3v28.2H374zm-21.2 17.6c0-1.9 1.6-3.5 3.5-3.5H374c1.9 0 3.5 1.6 3.5 3.5s-1.6 3.5-3.5 3.5h-17.6c-2 .1-3.6-1.5-3.6-3.5zM374 157h-10.6c-1.9 0-3.5-1.6-3.5-3.5s1.6-3.5 3.5-3.5H374c1.9 0 3.5 1.6 3.5 3.5 0 2-1.6 3.5-3.5 3.5zm0 28.2h-17.6c-1.9 0-3.5-1.6-3.5-3.5s1.6-3.5 3.5-3.5H374c1.9 0 3.5 1.6 3.5 3.5 0 2-1.6 3.5-3.5 3.5zm-17.6-77.5H374c1.9 0 3.5 1.6 3.5 3.5s-1.6 3.5-3.5 3.5h-17.6c-1.9 0-3.5-1.6-3.5-3.5-.1-1.9 1.5-3.5 3.5-3.5zm0 0"/><path class="st3" d="M307 93.6h-3.5v126.8h14.1V93.6H307zm0 0M233.5 171.1h-18.1c-1 0-1.8-.8-1.8-1.8v-44c0-1 .8-1.8 1.8-1.8h21.1V93.6h-31.7v126.8h31.7V183c-1.8-3.6-2.9-7.6-3-11.9zm0 0"/><path class="st3" d="M236.6 158v-30.8h-19.4v40.5h16.4c.4-3.5 1.4-6.8 3-9.7zm0 0"/><path class="st4" d="M300 93.6h-3.5v126.8h7V93.6H300zm0 0"/><path class="st5" d="M213.7 125.3v44c0 1 .8 1.8 1.8 1.8h18.1c.1 4.3 1.2 8.3 3.1 11.9 4.5 8.6 13.6 14.6 24 14.6 14.9 0 27.1-12.1 27.1-27.1 0-14.7-11.8-26.7-26.4-27.1v-18.1c0-1-.8-1.8-1.8-1.8h-44c-1.1.1-1.9.9-1.9 1.8zm44 29.3l-5.9-5.9c1.9-.8 3.9-1.3 5.9-1.5v7.4zm-9.2-4.3l9.3 9.3v5.6l-12.5-12.5c.9-.9 2-1.7 3.2-2.4zm-5.8 4.8l12.5 12.5h-5.6l-9.3-9.3c.8-1.1 1.6-2.2 2.4-3.2zm-4 6.6l5.9 5.9h-7.5c.4-2.1.9-4 1.6-5.9zm45.4 8.8c0 13-10.6 23.6-23.6 23.6-12.8 0-23.2-10.2-23.5-22.9h22.9c.1 0 .1 0 .2-.1.1 0 .1-.1.2-.1 0 0 .1 0 .1-.1.2-.1.4-.3.5-.5 0 0 0-.1.1-.1 0-.1.1-.1.1-.2s0-.1.1-.2v-.2V147c12.7.3 22.9 10.7 22.9 23.5zm-66.9-43.4h40.5v16.4c-9.2 1-17 6.6-21.1 14.4-1.5 2.9-2.6 6.2-2.9 9.7h-16.4v-40.5zm0 0"/><path class="st6" d="M296.5 93.6H307v-7h-14v7h3.5zm0 0M303.5 220.5H293v7h14v-7h-3.5zm0 0"/><path class="st4" d="M356.4 114.8H374c1.9 0 3.5-1.6 3.5-3.5s-1.6-3.5-3.5-3.5h-17.6c-1.9 0-3.5 1.6-3.5 3.5-.1 1.9 1.5 3.5 3.5 3.5zm0 0M321.1 111.3c0 1.9 1.6 3.5 3.5 3.5h7v-7h-7c-1.9-.1-3.5 1.5-3.5 3.5zm0 0M321.1 125.3c0 1.9 1.6 3.5 3.5 3.5h7v-7h-7c-1.9 0-3.5 1.6-3.5 3.5zm0 0M377.5 125.3c0-1.9-1.6-3.5-3.5-3.5h-28.2v7H374c1.9.1 3.5-1.5 3.5-3.5zm0 0M321.1 167.6c0 1.9 1.6 3.5 3.5 3.5h7v-7h-7c-1.9 0-3.5 1.6-3.5 3.5zm0 0M377.5 167.6c0-1.9-1.6-3.5-3.5-3.5h-28.2v7H374c1.9 0 3.5-1.5 3.5-3.5zm0 0M321.1 139.4c0 1.9 1.6 3.5 3.5 3.5h7v-7h-7c-1.9 0-3.5 1.6-3.5 3.5zm0 0M377.5 139.4c0-1.9-1.6-3.5-3.5-3.5h-17.6c-1.9 0-3.5 1.6-3.5 3.5s1.6 3.5 3.5 3.5H374c1.9.1 3.5-1.5 3.5-3.5zm0 0M321.1 153.5c0 1.9 1.6 3.5 3.5 3.5h7v-7h-7c-1.9 0-3.5 1.6-3.5 3.5zm0 0M352.8 153.5c0-1.9-1.6-3.5-3.5-3.5h-3.5v7h3.5c2 0 3.5-1.5 3.5-3.5zm0 0M374 150h-10.6c-1.9 0-3.5 1.6-3.5 3.5s1.6 3.5 3.5 3.5H374c1.9 0 3.5-1.6 3.5-3.5s-1.6-3.5-3.5-3.5zm0 0M374 178.2h-17.6c-1.9 0-3.5 1.6-3.5 3.5s1.6 3.5 3.5 3.5H374c1.9 0 3.5-1.6 3.5-3.5s-1.6-3.5-3.5-3.5zm0 0"/><path class="st5" d="M338.7 79.5h7v98.6h-7z"/><path class="st7" d="M331.7 107.7v70.5h7V79.5h-7v28.2zm0 0"/><path class="st8" d="M341.6 188.7l-2.8 7 7-17.6h-7v10.6h2.8zm0 0"/><path class="st9" d="M335.9 188.7h2.8v-10.6h-7l7 17.6-2.8-7zm0 0"/><path class="st7" d="M338.7 188.7h-2.8l2.8 7 2.8-7h-2.8zm0 0"/><path class="st9" d="M345.7 75.1c0 .2.1.3.1.5 0-.1-.1-.3-.1-.5zm0 0M345.6 74.9c-.3-1-1.1-1.8-2.2-2.2 1.1.4 1.9 1.2 2.2 2.2zm0 0M338.7 72.5h-3.5c-1.9 0-3.5 1.6-3.5 3.5v3.5h7v-7zm0 0"/><path class="st8" d="M345.8 79.5V76v-.4c0-.2-.1-.4-.1-.5 0-.1 0-.2-.1-.2-.3-1-1.1-1.8-2.2-2.2-.4-.1-.8-.2-1.2-.2h-3.5v7h7.1zm0 0"/></svg>