<?xml version="1.0" encoding="utf-8"?>
<!-- Generator: Adobe Illustrator 22.1.0, SVG Export Plug-In . SVG Version: 6.00 Build 0)  -->
<svg version="1.1" id="Layer_1" xmlns="http://www.w3.org/2000/svg" xmlns:xlink="http://www.w3.org/1999/xlink" x="0px" y="0px"
	 viewBox="0 0 300 200" style="enable-background:new 0 0 300 200;" xml:space="preserve">
<g id="Design">
	<g>
		<path style="fill:#014D41;" d="M277.2,200c-0.9-0.4-1.8-0.8-2.7-1.2c-2.4-1-4.9-2-7.3-3c-2.8-1.2-5.7-2.4-8.5-3.5
			c-2.4-1-4.9-2-7.4-3c-3.6-1.5-7.2-3-10.9-4.5c-3.2-1.3-6.5-2.6-9.7-3.9c-5.1-2-10.2-4.1-15.3-6.1c-2.9-1.2-5.8-2.5-8.7-3.6
			c-4-1.6-8-3.2-12.1-4.8c-3.7-1.4-7.3-2.9-10.9-4.4c-4.5-1.8-9-3.5-13.5-5.3c-5-2-9.9-4.2-14.9-6.1c-2.8-1.1-5.7-2.1-8.5-3.1
			c-2.5-0.9-4.2-2.7-5.2-5c-1.3-2.8-2.3-5.7-3.3-8.5c-2-5.2-3.9-10.4-6-15.6c-2.2-5.7-4.4-11.4-6.6-17.1c-1-2.7-1.3-2.7-4.1-2.3
			c-1.1,0.2-2.2,0.3-3.2,0.2c-2.3-0.1-4-1.1-4.9-3.2c-0.4-0.9-0.4-2-0.5-3c-0.5-3.2-1-6.4-1.5-9.6c-0.4-2.4-0.7-4.8-1.2-7.1
			c-0.7-3.4-1.4-6.8-2.2-10.1c-0.8-3.6-1.7-7.2-2.6-10.8c-0.3-1.2-0.7-2.3-0.9-3.5c-0.1-0.4,0-0.9,0.1-1.2c0.9-2.7,1.8-5.4,2.7-8.2
			c2.4-7.8,4.9-15.7,7.3-23.5c1.4-4.4,2.7-8.9,4-13.4c0.5-1.6,0.8-3.3,1.3-5c0.1-0.2,0.4-0.4,0.7-0.4c1.3,0,2.7,0,4,0
			c-0.4,0.2-1,0.3-1.2,0.6c-0.3,0.3-0.3,0.9-0.3,1.3c-0.3,3.2-0.6,6.3-0.9,9.5c0,0.4-0.1,0.8-0.1,1.2c0.1,0,0.1,0,0.2,0.1
			c0.4-1,0.9-1.9,1.3-2.9c1.4-3.1,2.7-6.2,4.1-9.3c0.1-0.2,0.4-0.4,0.6-0.4c0.7-0.1,1.5,0,2.3,0c-1,2.3-2,4.5-3,6.7
			c-1.9,4.3-3.8,8.7-5.7,13c-0.8,1.9-0.7,3.9-0.9,5.9c-0.3,2.7-0.5,5.4-0.7,8.2c0,0.3,0,0.7,0,1c0.1,0,0.2,0.1,0.2,0.1
			c0.3-0.2,0.6-0.4,0.8-0.7c2.6-2.6,5.3-5.2,7.9-7.8c3-2.9,6-5.8,8.9-8.9c3.1-3.2,6-6.6,9-9.9c2.1-2.3,4.3-4.6,6.5-6.9
			c0.5-0.5,1-0.8,1.7-0.7c0.6,0,1.1,0,2,0c-0.8,0.9-1.4,1.6-2,2.3c-2.5,2.7-5.1,5.3-7.5,8c-1.8,1.9-3.4,4-5.1,5.9
			c-1.4,1.5-2.8,3-4.3,4.5c-2.4,2.4-4.9,4.9-7.3,7.3c-2.5,2.5-5,5.1-7.5,7.6c-0.1,0.1-0.2,0.3-0.4,0.5c0,0,0.1,0.1,0.1,0.1
			c0.5-0.4,1-0.8,1.5-1.2c3.7-3.4,7.5-6.8,11.2-10.3c2.3-2.2,4.4-4.6,6.6-6.9c2.7-2.8,5.5-5.6,8.2-8.5c2.8-2.9,5.5-5.8,8.2-8.8
			c0.5-0.5,1-0.5,1.6-0.5c5.1,0,10.2,0,15.2,0c2.6,0,5.2,0,7.8,0c0.3,0,0.7,0.1,1,0.3c2.1,1.3,4.1,2.7,6.2,4
			c1.8,1.1,3.6,2.3,5.5,3.4c0.8,0.5,1.8,0.4,2.6,0c2.2-1,4.4-2.1,6.6-3.2c0.6-0.3,0.8-0.7,0.4-1.3c-0.4-0.7,0-0.9,0.5-1
			c0.7-0.1,1.3-0.1,2,0c1.8,0.2,3.4-0.6,4.9-1.5c1.2-0.7,2.3-0.8,3.6-0.5c-0.7,0.3-1.3,0.7-2,0.9c-0.9,0.4-1.7,0.7-1.7,2
			c0,0.6-0.5,1-1.2,1c-0.7,0-1.5-0.2-2.1,0c-1.1,0.3-2.2,0.7-3.2,1.1c-1.2,0.5-2.3,1.1-3.4,1.6c-1,0.5-2,1-3,1.5
			c-0.8,0.5-0.8,1.1-0.2,1.8c0.3,0.3,0.6,0.6,0.9,0.8c2.4,1.5,4.7,3,7.1,4.6c2.5,1.6,4.9,3.2,7.3,4.8c3.3,2.1,6.6,4.3,9.9,6.5
			c4.2,2.8,8.4,5.5,12.5,8.3c4.1,2.7,8.2,5.6,12.4,8.1c3.2,1.9,6.2,4,9.1,6.2c3.2,2.5,6.8,4.6,10.2,6.8c1.5,1,3.1,2.1,4.6,3.1
			c0.2,0.1,0.4,0.2,0.6,0.2c1.9-0.5,3.7-0.1,5.6,0.4c0.5,0.1,1,0.3,1.4,0.6c1.5,1.2,3,0.7,4.6,0.3c0.1,0,0.2-0.5,0.1-0.6
			c-0.5-0.7-1-1.3-1.5-1.9c-1.1-1.2-2.2-2.3-3.3-3.5c-1.3-1.6-2.4-3.2-3.7-4.8c-1.3-1.6-2.6-3.2-3.9-4.8c-2.6-3.1-5.2-6.1-7.8-9.1
			c-1.7-1.9-3.5-3.7-5.2-5.5c-0.6-0.6-1.1-0.5-1.4,0.3c-0.6,1.8-1.2,3.7-1.9,5.5c-0.4,1.1-0.9,2.1-1.3,3.1c-0.1,0.2-0.1,0.4-0.2,0.6
			c-0.1,0.2-0.3,0.4-0.4,0.6c-0.1-0.2-0.4-0.5-0.4-0.7c0-1.4-0.1-2.8,0.1-4.1c0.2-2,0.5-3.9,0.8-5.8c0.2-1.1,0.5-2.1,0.5-3.2
			c0-0.8-0.5-1.6-0.9-2.3c-2.4-3.1-4.9-6.2-7.3-9.3c-1-1.3-2.3-1.9-3.8-2.2c-1.9-0.3-3.7-1-5.5-1.5c0-0.1,0-0.1,0-0.2
			c0.1,0,0.2-0.1,0.3,0c1.9,0.4,3.9,0.8,5.8,1.3c1.2,0.3,2.2-0.1,3.1-0.9c0.6-0.6,1.1-1.3,1.5-2c0.5-0.9,0.2-1.7-0.4-2.4
			c-1.8-2.3-3.6-4.5-5.4-6.8c-0.1-0.1-0.2-0.3-0.3-0.4c1.4-0.5,2.6-0.2,3.4,0.8c1.1,1.4,2.2,2.8,3.3,4.3c0.7,0.9,1.3,0.9,1.9-0.1
			c0.8-1.5,1.7-3,2.6-4.5c0.2-0.4,0.6-0.7,1.1-0.6c0.6,0,1.2,0,2,0c-0.5,0.8-0.8,1.4-1.2,2c-1.1,1.7-2.1,3.5-3.2,5.2
			c-0.4,0.6-0.4,1.2,0,1.7c1.5,1.9,3,3.7,4.5,5.5c0.4,0.4,0.8,0.2,1-0.5c0.1-0.6,0.2-1.2,0.3-1.9c0.6-3.5,1.1-7.1,1.7-10.6
			c0.2-1.2,0.5-1.5,1.7-1.5c1.6,0,3.1,0,4.7,0c0.6,0,0.8,0.2,0.7,0.8c-0.6,2-1.2,4.1-1.8,6.1c-0.3,1.1-0.5,2.3-0.8,3.5
			c-0.3,1.3-0.7,2.6-1,3.8c-0.5,1.8-1,3.6-1.3,5.4c-0.1,0.5,0.1,1.3,0.5,1.8c1.9,2.8,3.8,5.5,5.8,8.2c3.2,4.2,6.4,8.4,9.6,12.6
			c1.6,2.1,3.3,4.1,4.9,6.1c0.3,0.3,0.6,0.5,0.8,0.7c0.4-0.4,0.7-0.8,1-0.9c1.9-0.4,3.2-1.7,4.5-3c1.2-1.2,2.3-2.5,4-3.1
			c0.2-0.1,0.4-0.7,0.4-1c-0.3-1.4-0.6-2.8-1-4.2c-1.3-3.9-2.7-7.8-4.1-11.6c-1.2-3.4-2.5-6.8-3.7-10.2c-1.3-3.5-2.6-7.1-3.9-10.6
			c-0.5-1.2-1-2.4-1.5-3.7c-0.1-0.2-0.1-0.3-0.2-0.7c1.2,0,2.2-0.1,3.3,0c0.3,0,0.6,0.6,0.8,1c0.4,0.8,0.6,1.6,0.9,2.5
			c1.7,5,3.5,9.9,5.2,14.9c1.9,5.5,3.8,11,5.7,16.5c0.4,1.3,1,2.5,1.5,3.8c0.1,0.2,0.4,0.4,0.7,0.4c0.2,0,0.5-0.1,0.9-0.1
			c0,4.5,0,9,0,13.5c-0.6-1.4-1.2-2.8-1.8-4.2c-0.1-0.3-0.2-0.5-0.3-0.8c-0.4-0.9-0.7-0.9-1.5-0.3c-0.7,0.5-1.5,0.8-2.3,1.2
			c-1.1,0.5-2.3,1-3.2,1.6c-0.9,0.7-1.7,1.6-2.5,2.4c-0.1,0.1-0.1,0.5,0.1,0.6c1.1,1.6,2.3,3.1,3.5,4.7c0.1,0.2,0.4,0.3,0.6,0.3
			c1-0.1,2.1-0.2,3-0.5c1.3-0.4,2.6-0.9,3.9-1.4c0.2-0.1,0.4,0,0.7-0.1c0,1.4,0,2.7,0,4c0,0.1-0.3,0.3-0.5,0.4
			c-1.3,0.4-2.6,0.8-3.8,1.3c-0.6,0.2-0.3,0.6-0.1,0.9c1.1,1.6,2.2,3.3,3.4,4.8c0.9,1.1,1.3,2.1,1.2,3.5c-0.1,1.3,0,2.5-0.2,3.9
			c-0.9-1.1-1.7-2.2-2.7-3.2c-2.4-2.7-4.9-5.4-7.3-8c-0.3-0.4-0.7-0.6-1.2-0.4c-0.3,0.1-0.7,0-1.1-0.1c-0.2,0-0.4-0.1-0.5,0
			c-0.6,0.7-1.5,0.4-2.2,0.6c-0.5,0.2-1,0.1-1.4-0.4c-0.3-0.4-0.7-0.3-1,0c-0.3,0.3-0.4,0.7,0,1c1,0.9,2,1.8,3.1,2.6
			c4.6,3.3,9.3,6.6,13.9,9.9c0.5,0.4,0.8,0.8,0.7,1.4c-0.1,1,0,2.1,0,3.3c-0.6-0.4-1.1-0.8-1.6-1.1c-5.4-3.7-10.8-7.5-16.2-11.2
			c-1.5-1-3.2-1.9-4.8-2.9c-0.5-0.3-1-0.4-1.5,0c-0.5,0.3-1,0.4-1.5,0.6c-1.7,0.7-3.4,1.3-5.1,2c-0.3,0.1-0.5,0.5-0.7,0.7
			c0.3,0.2,0.5,0.5,0.8,0.7c2.9,1.2,5.9,2.4,8.8,3.6c7,2.8,13.9,5.7,20.9,8.5c0.7,0.3,0.9,0.7,0.9,1.4c0,2.6,0,5.2,0,7.8
			c-1.1,0-2.2,0.1-3.4,0.1c-5.2,0.1-10.4,0.1-15.5,0.3c-9.3,0.3-18.7,0.7-28,1c-4.5,0.2-8.9,0.4-13.4,0.6c-4.9,0.2-9.8,0.4-14.6,0.7
			c-6.3,0.3-12.6,0.6-18.9,1c-3.9,0.2-7.8,0.4-11.7,0.6c-0.2,0-0.4,0-0.6,0.1c-0.5,0.1-0.7,0.4-0.3,0.8c0.8,0.7,1.6,1.5,2.5,2.1
			c3.9,2.9,7.7,5.8,11.6,8.7c3.4,2.6,6.8,5.1,10.2,7.7c1.4,1.1,2.9,2.1,4.3,3.3c0.7,0.6,1.5,0.7,2.3,0.5c2.6-0.8,5.3-1.7,7.9-2.5
			c12.3-4,24.5-8,36.8-12.1c10-3.3,19.9-6.7,29.9-10c0.2-0.1,0.5-0.1,0.9-0.3c0,0.7,0.1,1.2,0,1.8c0,0.2-0.4,0.5-0.7,0.6
			c-5.1,1.7-10.3,3.4-15.4,5.1c-8.9,2.9-17.8,5.9-26.7,8.8c-8.2,2.7-16.4,5.3-24.6,8c-1.7,0.5-3.4,1.1-5.1,1.7
			c-0.5,0.2-0.8,0.6-1.3,0.9c0.3,0.4,0.6,0.8,0.9,1.1c2.4,1.8,5.1,2.7,8,2.9c4.3,0.3,8.7,0.5,13,0.8c2.3,0.1,4.5,0.2,6.8,0.4
			c3.6,0.2,7.3,0.4,10.9,0.6c2.2,0.1,4.5,0.2,6.7,0.3c1,0.1,1.8-0.2,2.6-0.9c2.3-2.1,4.5-4.1,6.8-6.2c4.8-4.5,9.6-9,14.3-13.5
			c1-1,2-1.9,3.1-2.9c0.2-0.2,0.3-0.3,0.7-0.5c0,1.1,0,1.9,0,2.8c0,0.3-0.3,0.6-0.5,0.8c-3,2.8-6,5.7-9,8.5
			c-3.5,3.3-7.1,6.6-10.6,9.9c-0.4,0.4-0.7,0.9-1,1.4c-0.3,0.5-0.1,0.9,0.6,0.9c2.3,0.1,4.5,0.2,6.8,0.3c2,0.1,4.1,0.4,6.1,0.5
			c1.1,0.1,2.2,0.1,3.3,0.1c1.2,0.1,2.4,0.2,3.6,0.3c0.9,0.1,0.5,0.9,0.5,1.3c0.1,0.5-0.3,0.6-0.7,0.5c-4.8-0.3-9.5-0.6-14.3-0.9
			c-2.4-0.2-4.9-0.4-7.3-0.6c-1.3-0.1-2.3,0.3-3.2,1.1c-2.3,2.1-4.6,4.2-7,6.3c-2,1.8-4,3.5-6,5.3c-0.5,0.4-1,0.9-1.5,1.4
			c-0.6,0.6-0.7,1.1-0.2,1.8c0.8,1.2,1.7,2.3,2.5,3.5c1.9,2.8,3.9,5.7,5.8,8.6c2.4,3.5,4.7,6.9,7.1,10.4c1.4,2.1,2.8,4.2,4.2,6.4
			c1.9,2.8,3.7,5.6,5.6,8.4c2.3,3.5,4.6,7.1,7,10.6c1.2,1.7,2.3,3.5,3.5,5.2c0.3,0.5,0.6,1.1,0.9,1.7c-1.5,0-3.1,0-4.6,0
			c-0.2-0.3-0.4-0.7-0.6-0.9c-3-3.5-6-7-8.9-10.5c-3.1-3.6-6.2-7.3-9.4-10.9c-3.5-4.1-7.1-8.1-10.6-12.2c-2.6-3-5.2-6-7.8-9
			c-2-2.2-3.9-4.5-5.9-6.7c-0.9-1.1-1.9-2.2-2.8-3.3c-1.4-1.7-3.4-1.7-5.3-1.6c-3.1,0.1-6.2,0.2-9.3,0.3c-4.2,0.1-8.3,0.2-12.5,0.3
			c-5.8,0.2-11.6,0.3-17.4,0.5c-4,0.1-8.1,0.2-12.1,0.3c-5.8,0.2-11.7,0.4-17.5,0.5c-5.2,0.1-10.4,0.1-15.5,0.2
			c-0.5,0-1.1,0-1.6,0.1c-0.2,0-0.6,0.2-0.7,0.4c-0.1,0.2,0.1,0.6,0.3,0.7c0.4,0.3,0.8,0.6,1.3,0.8c1.9,0.8,3.8,1.5,5.6,2.2
			c5.3,2.1,10.6,4.2,15.9,6.3c5.8,2.3,11.6,4.7,17.4,7c4.7,1.9,9.4,3.8,14.1,5.6c4,1.6,7.9,3.1,11.9,4.7c3.1,1.3,6.2,2.6,9.3,3.8
			c2.3,0.9,4.6,1.8,6.9,2.8c2.9,1.2,5.8,2.4,8.7,3.6c2.2,0.9,4.4,1.7,6.6,2.6c1.5,0.6,3,1.3,4.5,1.9c3.1,1.3,6.2,2.5,9.3,3.7
			c1,0.4,1.9,0.8,2.9,1.2c1.6,0.6,3.2,1.2,4.8,1.8c1.9,0.8,3.8,1.6,5.6,2.4c0.9,0.4,1.8,0.9,2.7,1.4C279.9,200,278.6,200,277.2,200z
			 M268.8,61.1c-0.2-0.2-0.3-0.4-0.5-0.6c-1.6-1.2-3.1-2.4-4.7-3.5c-2.3-1.5-4.7-2.8-6.9-4.4c-2.8-1.9-5.5-3.9-8.2-5.8
			c-4.2-2.9-8.5-5.8-12.8-8.6c-3.9-2.6-7.9-5.2-11.8-7.8c-3.8-2.5-7.6-5-11.4-7.4c-4.1-2.7-8.2-5.3-12.4-8c-1.4-0.9-2.7-1.8-4.2-2.6
			c-0.6-0.3-1.5-0.7-1.9-0.5c-0.9,0.4-1.7,1.2-2.4,2c-0.4,0.4-0.2,1.1,0.2,1.5c0.6,0.6,1.2,1.2,1.8,1.8c1.6,1.6,3.2,3.3,4.7,4.9
			c1.4,1.5,2.9,3,4.3,4.5c0.6,0.6,1.2,1.3,1.8,1.9c1.2,1.4,2.3,2.8,3.5,4.2c0.2,0.3,0.2,0.7,0.3,1c-0.3-0.1-0.7-0.1-1-0.3
			c-0.1,0-0.1-0.2-0.2-0.2c-0.8-0.7-1.7-1.4-2.5-2.1c-1.2-1-2.5-1.9-3.7-2.9c-1.5-1.3-2.9-2.6-4.3-3.9c-1-0.9-2.1-1.8-3.2-2.8
			c-1.6-1.5-3.1-3.1-4.6-4.6c-0.3-0.3-0.8-0.5-1.2-0.5c-1.8-0.1-3.5,0-5.1,1c-1.1,0.7-1.4,1.5-0.8,2.7c0.9,1.6,1.7,3.3,2.6,4.9
			c1.3,2.4,2.5,4.9,3.7,7.3c1.1,2.2,2.3,4.5,3.4,6.8c0.5,1.1,1.3,1.9,2.4,2.3c5.6,2.1,11.2,4.3,16.8,6.4c4,1.5,8,3,12,4.6
			c1.9,0.7,3.8,1.1,5.7,1.7c3.2,1,6.3,2.5,9.5,3.8c2.7,1.1,5.3,2.3,8,3.4c2.3,0.9,4.8,1.6,7.1,2.5c1.6,0.6,3.2,1.3,4.8,2
			c0.3,0.1,0.6,0.1,0.9,0c0.8-0.3,1.5-0.7,2.3-1.1C263.3,63.4,266,62.3,268.8,61.1z M147.4,143.6c0.5-0.1,0.8-0.1,1-0.2
			c2-0.7,4.1-1.3,6.1-2c4.6-1.4,9.2-2.9,13.8-4.3c6.2-2,12.4-3.9,18.5-5.9c5.8-1.8,11.6-3.7,17.5-5.5c4.3-1.4,8.6-2.7,12.9-4.1
			c0.7-0.2,1.4-0.5,2-0.8c1.1-0.5,1.1-0.9,0.1-1.7c-1.5-1.1-3.1-2.3-4.6-3.4c-4.5-3.4-9.1-6.8-13.6-10.3c-2.9-2.2-5.8-4.3-8.7-6.5
			c-1.8-1.4-3.6-2.7-6.1-2.6c-0.7,0-1.3,0.1-1.8,0.6c-0.3,0.3-0.6,0.7-0.9,1c-3,3.7-6,7.4-9.1,11.1c-6.1,7.3-12.3,14.7-18.4,22
			c-3,3.6-6.2,7.1-9.2,10.7c-0.3,0.3-0.6,0.9-0.5,1.2C146.5,143.3,147.1,143.4,147.4,143.6z M241.7,74c0-0.9-0.1-1.5,0-2.2
			c0.1-0.7,0.1-1.5,0.4-2.1c0.9-1.5,1.9-2.9,2.9-4.3c0.5-0.8,0.5-1-0.4-1.3c-1.3-0.5-2.7-0.9-4-1.4c-3.3-1.2-6.6-2.5-9.8-3.8
			c-3-1.2-6-2.7-9.1-3.9c-9.1-3.6-18.1-7.1-27.2-10.7c-2-0.8-4-1-6.2-0.8c-3.7,0.5-7.4,0.9-11.2,1.3c-3,0.4-5.9,0.7-8.9,1.1
			c-1.5,0.2-1.9,0.4-2.1,2c-0.6,3.6-1.1,7.1-1.7,10.7c-0.3,2-0.3,2.1,1.8,2.4c7.1,1.2,14.3,2.4,21.4,3.6c10.6,1.8,21.1,3.7,31.7,5.5
			c6.4,1.1,12.7,2.2,19.1,3.3C239.5,73.6,240.6,73.8,241.7,74z M286.4,86.5c0,0,0-0.1,0-0.1c-0.1,0-0.2-0.1-0.3-0.1
			c-8.2-1.5-16.3-3.1-24.5-4.5c-4.6-0.8-9.3-1.6-13.9-2.4c-0.5-0.1-1.1-0.1-1.6,0.1c-1.9,0.7-3.7,1.5-5.6,2.3c-0.6,0.2-1,0-1-0.7
			c0-0.7-0.1-1.5,0-2.2c0.2-0.8-0.2-1-0.9-1.1c-1.5-0.3-3.1-0.5-4.6-0.8c-2.5-0.5-5-1.1-7.5-1.6c-17.7-3.2-35.4-6.3-53.1-9.5
			c-2.7-0.5-5.4-1-8.1-1.4c-1.4-0.2-1.6-0.1-1.7,1.2c-0.3,1.8-0.5,3.5-0.8,5.3c-0.2,1.5-0.3,1.5,1.1,2c3.5,1.4,6.9,2.7,10.4,4.1
			c1.5,0.6,3,1.3,4.5,2.1c0.6,0.3,1.2,0.6,1.9,0.7c3.2,0.2,6.5,0.5,9.7,0.7c4.7,0.3,9.5,0.7,14.2,1c3.3,0.2,6.6,0.3,9.9,0.6
			c6.1,0.4,12.1,0.8,18.2,1.2c5.1,0.3,10.2,0.6,15.3,0.9c6.7,0.4,13.4,0.8,20.1,1.2c4,0.2,8,0.5,11.9,0.8
			C282,86.2,284.2,86.3,286.4,86.5z M202.3,144.5C202.3,144.5,202.3,144.5,202.3,144.5c1.3,0,2.5-0.1,3.8-0.2
			c5.1-0.2,10.1-0.3,15.2-0.5c5.4-0.2,10.9-0.3,16.3-0.5c0.9,0,1.8-0.1,2.7-0.4c0.8-0.2,1-0.9,0.5-1.5c-1.4-1.7-2.8-3.4-4.2-5.1
			c-1.9-2.2-3.9-4.3-5.8-6.5c-1.9-2.2-4.2-3.2-7.1-2.4c-2.5,0.7-5.1,1.2-7.7,1.8c-3.4,0.8-6.8,1.5-10.2,2.3
			c-3.6,0.8-7.2,1.7-10.8,2.6c-5.7,1.3-11.3,2.7-17,4c-3.4,0.8-6.8,1.7-10.2,2.5c-3.4,0.8-6.8,1.5-10.3,2.3c-1.7,0.4-3.4,0.8-5,1.3
			c-0.3,0.1-0.5,0.4-0.7,0.6c0.3,0.1,0.5,0.4,0.8,0.4c1.7,0.1,3.3,0.3,5,0.3c5.4-0.1,10.8-0.3,16.2-0.4c3.2-0.1,6.3-0.1,9.5-0.2
			C189.6,144.8,195.9,144.7,202.3,144.5z M181.8,96.6c-0.4,0-0.6-0.1-0.8,0c-5.4,0.2-10.8,0.5-16.2,0.7c-2.1,0.1-4.2,0.1-6.3,0.2
			c-2,0.1-2.6,0.5-3.1,2.4c-0.7,2.5-1.3,4.9-1.9,7.4c-1.3,5.1-2.5,10.3-3.8,15.4c-1.2,4.9-2.4,9.7-3.5,14.6
			c-0.1,0.5-0.5,1.2,0.2,1.6c0.7,0.3,1.1-0.3,1.5-0.8c1.4-1.6,2.7-3.2,4-4.8c4.2-5,8.3-9.9,12.4-14.9c5.4-6.6,10.8-13.2,16.3-19.9
			C181,97.9,181.3,97.3,181.8,96.6z M121.9,85.1c0,0,0.1,0,0.1,0.1c0,0.2,0,0.5,0.1,0.7c0.8,2.2,1.7,4.4,2.6,6.6
			c0.4,1,0.8,1,1.9,0.8c2.8-0.7,5.6-1.5,8.5-2.2c3.9-1,7.8-1.9,11.7-2.9c2.7-0.7,5.5-1.4,8.2-2.1c1.2-0.3,2.1-1,2.3-2.4
			c0.2-0.9,0.4-1.8,0.7-2.7c0.2-0.8,0-1.2-0.7-1.5c-0.2-0.1-0.4-0.2-0.6-0.3c-7.6-3.8-15.1-7.6-22.7-11.4c-0.6-0.3-1.3-0.6-2-0.7
			c-0.3-0.1-0.8,0.2-0.9,0.4c-1,1.8-2,3.6-2.9,5.5c-1.7,3.3-3.5,6.7-5.2,10C122.6,83.7,122.2,84.4,121.9,85.1z M134.3,98.2
			C134.3,98.2,134.2,98.2,134.3,98.2c-1.6,0.1-3.1,0-4.7,0.1c-2.4,0.1-2.4,0.2-1.6,2.5c1.4,3.7,2.9,7.4,4.3,11.1
			c3.2,8.5,6.3,17,9.5,25.5c0.2,0.5,0.4,1.3,1.1,1.2c0.7,0,0.8-0.8,0.9-1.3c0.9-3.6,1.7-7.1,2.5-10.7c0.9-3.7,1.7-7.5,2.7-11.2
			c1.2-4.9,2.6-9.8,3.8-14.7c0.1-0.5,0.2-0.9,0.3-1.4c0-1.1-0.3-1.4-1.4-1.4c-0.9,0-1.8,0.1-2.7,0.1C144.1,98,139.2,98.1,134.3,98.2
			z M250.7,143.1C250.7,143.1,250.7,143.1,250.7,143.1c1.4,0,2.7,0,4.1,0c1,0,1.9-0.2,2.6-0.9c1.4-1.3,2.9-2.5,4.4-3.8
			c2.4-2.1,4.8-4.3,7.1-6.5c0.6-0.6,1.2-1.3,1.7-2.1c0.4-0.6,0.1-1-0.6-1c-2-0.1-4.1-0.2-6.1-0.3c-1.9-0.1-3.7-0.2-5.6-0.4
			c-3.8-0.2-7.6-0.5-11.4-0.7c-2.9-0.2-5.8-0.4-8.7-0.6c-1.7-0.1-3.5-0.2-5.3-0.2c-0.5,0-1.2,0.3-1.5,0.7c-0.2,0.2,0.3,0.9,0.5,1.4
			c0.1,0.2,0.3,0.4,0.5,0.6c3.7,4.1,7.4,8.3,11.1,12.4c0.8,0.9,1.8,1.4,3,1.4C247.9,143.1,249.3,143.1,250.7,143.1z M161.1,1.9
			c-0.1-0.1-0.2-0.1-0.2-0.2c-0.3,0.2-0.7,0.4-1,0.7c-1.9,1.9-3.7,3.8-5.6,5.8c-1.4,1.4-2.8,2.9-4.2,4.3c-2.9,3-5.6,6.1-8.5,9
			c-3.7,3.7-7.5,7.2-11.3,10.8c-2.7,2.5-5.4,5-8.1,7.4c-1.6,1.4-2.7,3-2.8,5.2c0,0.8,0.3,1.1,1.1,0.8c0.4-0.1,0.8-0.3,1.2-0.5
			c1.5-0.7,2.9-1.4,4.4-2.1c4.8-2.3,9.7-4.6,14.4-7c3.3-1.7,6-4.1,7.5-7.7c0.8-2,1.9-3.9,2.9-5.9c2-4,4-8,6.1-12.1
			c1.2-2.5,2.5-4.9,3.7-7.4C160.8,2.7,160.9,2.3,161.1,1.9z M168.7,43.2c1.4-0.2,3.1-0.4,4.8-0.6c4.8-0.6,9.6-1.3,14.5-1.9
			c1.4-0.2,1.6-0.7,1-2c-0.5-1-1-2-1.6-3.1c-1.9-3.6-3.8-7.3-5.7-10.9c-0.7-1.3-1.3-2.6-2-3.8c-0.6-1.1-1.6-1.6-2.7-0.9
			c-1.7,0.9-3.4,1.7-5.1,2.5c-1.8,0.8-2.9,2.1-2.9,4.2c-0.1,1.7-0.3,3.4-0.5,5.2c-0.4,3.3-0.9,6.7-1.3,10
			C167,42.8,167.3,43.2,168.7,43.2z M143.8,46.3c0.2,0,0.5,0,0.8,0c3.1-0.4,6.2-0.8,9.3-1.2c3.2-0.4,6.3-0.8,9.5-1.2
			c1.3-0.2,1.6-0.6,1.8-1.9c0.4-3.4,0.8-6.8,1.2-10.2c0.2-1.7,0.5-3.4,0.7-5.1c0.1-0.9-0.3-1.3-1.2-1.2c-0.3,0-0.6,0.1-0.8,0.2
			c-2.5,1.2-4.9,2.4-7.4,3.6c-2.8,1.3-5.6,2.7-8,4.7c-0.8,0.6-1.7,1.2-2.2,2c-1.7,2.9-3.1,5.9-4.7,8.8
			C141.9,46.2,142,46.3,143.8,46.3z M234.1,85.9c0-0.1,0-0.2-0.1-0.3c-1.8-0.1-3.5-0.2-5.3-0.3c-7.5-0.5-14.9-1-22.4-1.5
			c-7.3-0.5-14.7-1-22-1.5c-1.6-0.1-3.3,0.2-4.9-0.1c-1.5-0.2-2.7,0.4-4,0.7c-0.2,0-0.4,0.2-0.4,0.4c0,0.1,0.2,0.4,0.3,0.5
			c0.8,0.4,1.5,1,2.3,1.3c1.6,0.6,2.9,1.6,4,2.9c0.7,0.8,1.6,1.7,2.6,2.2c1.1,0.5,2.3,0.9,3.5,0.9c1.7,0,3.4-0.4,5-0.5
			c4.5-0.4,8.9-0.9,13.4-1.3c3.2-0.3,6.5-0.6,9.7-0.9c3.5-0.3,7-0.7,10.5-1c1.9-0.2,3.7-0.4,5.6-0.6
			C232.7,86.5,233.4,86.1,234.1,85.9z M161.1,60.1c0.9,0.1,1.2-0.3,1.3-1.1c0.3-1.9,0.6-3.9,1-5.8c0.3-1.6,0.6-3.3,0.9-4.9
			c0.2-1.3-0.2-1.8-1.5-1.7c-0.6,0.1-1.1,0.1-1.7,0.2c-5.1,0.6-10.3,1.2-15.4,1.8c-1.6,0.2-3.3,0.7-4.9,1.1
			c-0.3,0.1-0.7,0.4-0.8,0.7c-0.7,1.2-1.4,2.4-2,3.6c-1.1,2.2-1.4,2.1,1.4,2.6c4,0.7,8.1,1.3,12.2,2
			C154.7,59.1,157.9,59.6,161.1,60.1z M251.5,144.4c-1.2,0.1-2.1,0.2-2.9,0.4c-1.2,0.3-1.4,0.9-0.6,1.8c1.7,2,3.4,3.9,5,5.8
			c2.6,3,5.3,6.1,7.9,9.1c2.7,3.1,5.3,6.2,8,9.2c2.8,3.2,5.7,6.4,8.6,9.5c0.4,0.4,0.9,0.8,1.4,1.1c0.2,0.1,0.5,0.1,0.6,0
			c0.1-0.1,0.2-0.4,0.2-0.6c-0.1-0.5-0.3-0.9-0.5-1.3c-1.4-2.5-2.8-5-4.4-7.4c-1.4-2.2-3-4.4-4.4-6.6c-2-3-4-6.1-6-9.1
			c-2-2.9-3.9-5.9-6-8.7c-0.7-1-1.3-2.1-2.5-2.5C254.5,144.9,252.8,144.7,251.5,144.4z M150.2,30.7c0,0.1,0.1,0.2,0.1,0.3
			c0.7-0.2,1.4-0.4,2-0.6c2.5-1.1,5-2.2,7.4-3.5c2.6-1.4,5.4-2.2,7.6-4.3c0.9-0.8,1.3-1.7,1.2-2.9c-0.1-2.1-0.2-4.2-0.3-6.4
			c-0.2-3-0.3-6.1-0.5-9.1c-0.1-1-0.2-1.9-0.4-2.8c0-0.3-0.3-0.5-0.5-0.8c-0.2,0.2-0.5,0.3-0.6,0.5c-0.3,0.5-0.5,1-0.8,1.4
			c-1.1,1.9-2.3,3.7-3.3,5.6c-1.9,3.4-3.7,6.9-5.5,10.3c-1.8,3.4-3.6,6.7-5.4,10.1C150.9,29.3,150.6,30,150.2,30.7z M120.5,82.2
			c0.3-0.5,0.5-0.7,0.7-1c0.7-1.4,1.3-2.9,2.1-4.3c1.6-3.1,3.2-6.1,4.9-9.2c1-1.9,0.9-2.3-1-3.3c-2.4-1.2-4.7-2.4-7.1-3.6
			c-1.7-0.9-1.9-0.7-2,1.2c-0.2,2.7-0.4,5.4-0.6,8.1c-0.1,1.8-0.6,3.5,0.2,5.2c0.6,1.3,1.1,2.8,1.6,4.1
			C119.5,80.4,120,81.2,120.5,82.2z M160.5,71.5c0.3-2.2,0.6-4.2,0.8-6.2c0.2-1.5,0.1-1.6-1.4-1.9c-0.2,0-0.3-0.1-0.5-0.1
			c-5.7-1-11.4-2-17-2.9c-1.9-0.3-3.9-0.6-5.8-0.9c-1.1-0.2-2,0.1-2.3,1.6C143,64.6,151.6,68,160.5,71.5z M222.2,122
			c-0.4,0.1-1,0.2-1.5,0.4c-2.7,0.8-5.4,1.7-8.1,2.5c-6.9,2.2-13.7,4.4-20.6,6.6c-2.8,0.9-5.5,1.9-8.3,2.9c-0.2,0.1-0.4,0.3-0.5,0.5
			c0.3,0.1,0.5,0.2,0.8,0.2c2.4-0.5,4.8-0.9,7.2-1.5c3.3-0.8,6.6-1.6,9.9-2.4c3.4-0.8,6.7-1.4,10.1-2.2c3.7-0.8,7.4-1.7,11.1-2.6
			c0.8-0.2,1.6-0.4,2.4-0.7c0.7-0.3,1-1.1,0.7-1.7C224.9,123,223.4,122,222.2,122z M120.3,49.1c0.2,0,0.4,0,0.6,0
			c3.6-0.4,7.3-0.8,10.9-1.3c1.9-0.3,3.9-0.7,5.8-1.1c1-0.2,1.7-0.8,2.1-1.9c0.5-1.4,1.3-2.8,2-4.2c0.5-1,1.1-1.9,1.6-2.9
			c0.1-0.2,0.1-0.5,0.2-0.8c-0.3,0-0.6-0.1-0.9,0c-1.2,0.5-2.4,1-3.5,1.5c-5.6,2.7-11.3,5.5-16.9,8.2c-1,0.5-1.9,0.9-2.6,1.8
			c-0.3,0.4-0.3,0.7,0.2,0.8C119.9,49.1,120.1,49.1,120.3,49.1z M180.7,91.5c-0.7-0.4-1.4-0.8-2-1.1c-2.7-1.4-5.4-2.7-8.1-4.1
			c-0.7-0.3-1.4-0.7-2.1-1c-0.3-0.1-0.7-0.1-1.1,0c-1.6,0.5-3.2,1-4.8,1.4c-1,0.3-2,0.6-3,0.9c-0.3,0.1-0.7,0.5-0.8,0.8
			c0,0.2,0.5,0.5,0.6,0.6c-0.1,0.3-0.2,0.7-0.3,1c-0.1,0.3-0.1,0.6-0.2,0.8c-0.4,0.7-0.3,0.9,0.5,1c0.5,0,1.1-0.1,1.6-0.1
			c1.4,0.1,2.7,0.4,4.1,0c0.4-0.1,0.9,0,1.3,0c0.7,0.1,1.5,0.2,2.2,0.2c1.7,0,3.3-0.1,5-0.2C176,91.7,178.3,91.6,180.7,91.5z
			 M133.6,64.1c-0.4,0.2-0.8,0.3-1.1,0.5c0.2,0.3,0.4,0.7,0.6,0.9c0.5,0.4,1,0.7,1.6,1c7.5,3.7,14.9,7.4,22.4,11.1
			c1.6,0.8,1.6,0.8,2-1c0.4-1.8-0.1-2.8-1.8-3.5c-1.7-0.7-3.4-1.3-5-2c-5-1.9-9.9-3.9-14.9-5.8C136.1,64.8,134.8,64.5,133.6,64.1z
			 M170,8.6c0.1,0,0.2,0,0.3,0c0,2.3,0,4.6,0,6.8c0,1.4,0.1,2.7,0.2,4.1c0.1,1.3,0.9,1.8,2.1,1.3c1.4-0.6,2.8-1.4,4.2-2
			c0.8-0.4,1-1,0.7-1.7c-0.4-1-0.8-1.9-1.3-2.8c-1.1-2.2-2.3-4.4-3.5-6.5c-0.5-0.9-1.1-1.7-1.8-2.5c-0.1-0.2-0.5-0.2-0.8-0.2
			c-0.1,0-0.1,0.4-0.2,0.6C170,6.6,170,7.6,170,8.6z M283.3,52.3c-0.1-0.2-0.1-0.5-0.2-0.7c-0.8-1.2-1.7-2.5-2.6-3.6
			c-5.8-7.5-11.5-14.9-17.3-22.4c-0.2-0.3-0.7-0.7-1-0.6c-0.3,0.1-0.7,0.6-0.8,1c-0.1,0.3,0,0.8,0.2,1.1c0.3,0.6,0.7,1.2,1,1.8
			c1.3,2.3,3,4.2,4.7,6.2C272.5,40.9,277.3,47,283.3,52.3z M251.2,90.2c-0.1,0-0.2-0.1-0.3-0.1c-2.5-0.1-5-0.2-7.5-0.3
			c-1.5-0.1-3-0.2-4.5-0.2c-1.6,0-3.2-0.2-4.7,0c-1.5,0.2-3,0.2-4.5,0.1c-1.3-0.1-2.5-0.2-3.8-0.1c-3.8,0.3-7.6,0.7-11.4,1.1
			c-3.3,0.3-6.7,0.7-10,1c-2.3,0.2-4.5,0.4-6.8,0.5C215.5,91.8,233.4,92,251.2,90.2z M135.1,49.9c-0.2,0-0.6,0-0.9,0.1
			c-4.5,0.5-8.9,1-13.4,1.6c-0.5,0.1-1.1,0.3-1.6,0.5c-0.6,0.3-0.6,0.7,0,1c0.4,0.2,0.9,0.4,1.3,0.5c1.2,0.2,2.4,0.4,3.5,0.6
			c2.8,0.4,5.5,0.9,8.3,1.2c1,0.1,2,0,2.5-1.1c0.5-1,1-2,1.6-3c0.6-1.2,0.5-1.4-0.9-1.4C135.4,49.9,135.3,49.9,135.1,49.9z
			 M172.9,2.3c-0.1,0.1-0.2,0.1-0.3,0.2c0.2,0.4,0.3,0.9,0.5,1.3c1,2,2.1,4.1,3.1,6.1c1,1.9,2,3.8,3,5.6c0.6,1,1.3,1.3,2.3,0.9
			c0.6-0.2,1.2-0.5,1.8-0.9c1.6-1,1.6-2.1,0.3-3.4c-2.7-2.4-5.3-4.9-7.9-7.4C174.8,3.8,173.8,3.1,172.9,2.3z M114.8,69.3
			c0.1-0.3,0.2-0.4,0.2-0.5c0.2-2.9,0.3-5.8,0.5-8.7c0-0.7-0.2-1.3-0.8-1.6c-1.7-1-3.5-1.8-5.2-2.7c-0.2-0.1-0.6,0-0.8,0.1
			c-0.1,0.2-0.1,0.6,0,0.8c1.8,3.9,3.7,7.9,5.6,11.8C114.4,68.6,114.6,68.9,114.8,69.3z M250,14.1c0.1,0.2,0.2,0.6,0.4,0.9
			c1.7,2,3.3,3.9,5.1,5.8c0.4,0.4,0.9,0.7,1.4,1c0.2,0.1,0.6,0,0.8-0.1c0.4-0.4,0.4-2.4,0.1-2.8c-1.1-1.6-2.1-3.2-3.3-4.8
			c-0.7-0.9-1.4-1.8-2.2-2.6c-0.2-0.2-0.9-0.4-0.9-0.2C250.8,12,250,12.8,250,14.1z M118.2,27.7c0,0-0.1,0-0.1,0
			c-0.1,0.1-0.1,0.2-0.2,0.3c-2.4,5.2-4.8,10.4-7.2,15.5c-0.2,0.4-0.3,0.9-0.4,1.4c0.1,0,0.1,0.1,0.2,0.1c0.2-0.2,0.4-0.3,0.6-0.5
			c1.3-1.3,2.6-2.6,4-3.9c1.6-1.6,2.7-3.5,2.6-5.9c0-0.3,0-0.5,0.1-0.8C117.8,31.8,118,29.7,118.2,27.7z M177.8,0.9
			c0,0-0.1,0.1-0.1,0.1c0,0.1,0.1,0.2,0.1,0.3c1.4,1.4,2.7,2.7,4.1,4.1c0.9,0.9,1.9,1.9,2.8,2.8c0.8,0.8,1.6,1.7,2.5,2.6
			c0.3,0.2,0.6,0.5,1,0.5c1.1,0,2.2,0,3.3-0.1c0.8-0.1,1-0.6,0.4-1.2c-0.3-0.3-0.6-0.6-0.9-0.9c-4.1-2.6-8.2-5.1-12.3-7.7
			C178.4,1.2,178.1,1.1,177.8,0.9z M284,79.8c0-0.1,0-0.1,0.1-0.2c-0.2-0.1-0.5-0.2-0.7-0.3c-2.7-1.1-5.4-2.2-8.1-3.2
			c-3.2-1.2-6.5-2.4-9.7-3.6c-0.2-0.1-0.8,0-0.8,0.1c-0.1,0.5-0.2,1,0,1.4c0.7,2,2.4,2.5,4.2,2.8c3.3,0.6,6.6,1.2,9.9,1.8
			C280.6,78.9,282.3,79.3,284,79.8z M278.7,88.3c0,0,0-0.1,0-0.1c-13.1-0.8-26.2-1.5-39.4-2.3c0,0.1,0,0.2,0,0.3
			c1.2,0.3,2.3,0.8,3.5,1c2.5,0.3,5,0.4,7.5,0.5c4.4,0.2,8.8,0.2,13.3,0.4c2.6,0.1,5.2,0.2,7.9,0.3
			C273.9,88.4,276.3,88.3,278.7,88.3z M167.6,82.7c0.5-0.1,0.9-0.2,1.3-0.4c0.6-0.2,0.6-0.5,0.1-0.9c-0.5-0.4-0.9-0.7-1.4-1.1
			c-1.6-1.2-3.1-2.4-4.7-3.6c-0.9-0.7-1.6-0.4-1.8,0.7c-0.1,0.4-0.2,0.8-0.3,1.2c-0.2,0.6,0,0.9,0.5,1.2c1.5,0.7,2.9,1.5,4.4,2.2
			C166.4,82.2,167,82.4,167.6,82.7z M119.2,13.4c-2.8,6.9-4.6,14.2-7,21.3c1.9-3.9,3.6-7.9,5.4-11.9
			C118.9,19.8,119.1,16.6,119.2,13.4z M119.4,95c0.7-0.2,1.4-0.3,2.1-0.5c0.7-0.1,1-0.6,0.7-1.2c-0.6-1.4-1.2-2.8-1.8-4.2
			c-0.2-0.6-0.6-0.5-0.8,0c-0.6,1.2-1.3,2.4-1.9,3.7C117.4,93.6,118.4,95.1,119.4,95z M164.5,75.6c0,0.1-0.1,0.1-0.1,0.2
			c0.3,0.3,0.6,0.6,0.9,0.8c1.7,1.3,3.4,2.5,5.1,3.8c1.4,1.1,4,1,5.5-0.2C172.1,78.6,168.3,77.1,164.5,75.6z M110.2,64.8
			c0.6,2.7,1,5.4,1.7,8.1c0.4,1.9,1,3.8,1.6,5.7c0.1,0.3,0.3,0.5,0.5,0.8c0.1,0,0.2,0,0.3-0.1c0-1.3,0.3-2.7,0-4
			C113.6,71.7,111.8,68.3,110.2,64.8z M116.6,79.9c-0.1,0-0.2,0.1-0.3,0.1c-0.1,2.1-0.3,4.1-0.2,6.2c0,0.5,0.7,1,1.1,1.5
			c0.1,0.1,0.6-0.1,0.7-0.2c0.7-1,1.1-2.1,0.5-3.4c-0.3-0.6-0.5-1.3-0.8-2C117.3,81.3,117,80.6,116.6,79.9z M164.7,83.5
			c0-0.1,0-0.1,0-0.2c-1.3-0.6-2.6-1.3-3.9-1.8c-0.2-0.1-0.6,0.2-0.7,0.4c-0.2,0.5-0.4,1.1-0.5,1.7c-0.2,0.9,0.1,1.3,0.9,1.1
			C162,84.2,163.4,83.9,164.7,83.5z M111.2,49.7c0.1,0.1,0.2,0.2,0.3,0.4c1.4-0.8,2.8-1.5,4.2-2.4c1-0.7,1.3-1.8,0.8-3
			C114.6,46.4,112.6,47.8,111.2,49.7z M121.4,59.6c0.1,0.1,0.1,0.2,0.2,0.3c2.5,1.2,5.1,2.5,7.7,3.7c0.2,0.1,0.6,0,0.9,0
			C129.8,62.5,122.9,59.4,121.4,59.6z M149.7,90.8c0,0.1,0.1,0.2,0.1,0.3c0.3,0,0.7,0,1,0c0.6-0.1,1.2-0.3,1.7-0.2
			c1,0.3,1.5-0.2,2-0.9c0.2-0.2,0.2-0.5,0.3-0.7c-0.3,0-0.6-0.2-0.9-0.1c-1.1,0.3-2.2,0.7-3.2,1.1C150.3,90.5,150,90.7,149.7,90.8z
			 M126.3,57.6c0,0.1,0,0.1-0.1,0.2c0.2,0.1,0.3,0.3,0.5,0.4c1.4,0.5,2.8,1.1,4.2,1.6c0.2,0.1,0.4,0.1,0.5,0.1
			c0.2-0.1,0.4-0.3,0.6-0.4c-0.1-0.2-0.2-0.5-0.4-0.6c-0.4-0.2-0.8-0.4-1.3-0.5C129.1,58.1,127.7,57.8,126.3,57.6z M259.1,77.1
			c0,0.1,0,0.2,0,0.2c1.9,0.7,5.9,1.2,6.4,0.9c-0.3-0.2-0.5-0.5-0.8-0.6c-0.3-0.2-0.7-0.4-1.1-0.4c-1.2-0.1-2.3,0-3.5-0.1
			C259.8,77.1,259.4,77.1,259.1,77.1z M284.4,53.7c0,1.2,3.4,5,4.9,5.9C287.7,57.5,286.3,55.4,284.4,53.7z M173.9,85.8
			c-1.1-1.7-1.5-2.1-3.2-1.4C171.9,84.9,172.9,85.3,173.9,85.8z"/>
		<path style="opacity:0.3;fill:#014D41;" d="M21.8,0.1c0.9,0.4,1.8,0.8,2.7,1.2c2.4,1,4.9,2,7.3,3c2.8,1.2,5.7,2.4,8.5,3.5
			c2.4,1,4.9,2,7.4,3c3.6,1.5,7.2,3,10.9,4.5c3.2,1.3,6.5,2.6,9.7,3.9c5.1,2,10.2,4.1,15.3,6.1c2.9,1.2,5.8,2.5,8.7,3.6
			c4,1.6,8,3.2,12.1,4.8c3.7,1.4,7.3,2.9,10.9,4.4c4.5,1.8,9,3.5,13.5,5.3c5,2,9.9,4.2,14.9,6.1c2.8,1.1,5.7,2.1,8.5,3.1
			c2.5,0.9,4.2,2.7,5.2,5c1.3,2.8,2.3,5.7,3.3,8.5c2,5.2,3.9,10.4,6,15.6c2.2,5.7,4.4,11.4,6.6,17.1c1,2.7,1.3,2.7,4.1,2.3
			c1.1-0.2,2.2-0.3,3.2-0.2c2.3,0.1,4,1.1,4.9,3.2c0.4,0.9,0.4,2,0.5,3c0.5,3.2,1,6.4,1.5,9.6c0.4,2.4,0.7,4.8,1.2,7.1
			c0.7,3.4,1.4,6.8,2.2,10.1c0.8,3.6,1.7,7.2,2.6,10.8c0.3,1.2,0.7,2.3,0.9,3.5c0.1,0.4,0,0.9-0.1,1.2c-0.9,2.7-1.8,5.4-2.7,8.2
			c-2.4,7.8-4.9,15.7-7.3,23.5c-1.4,4.4-2.7,8.9-4,13.4c-0.5,1.6-0.8,3.3-1.3,5c-0.1,0.2-0.4,0.4-0.7,0.4c-1.3,0-2.7,0-4,0
			c0.4-0.2,1-0.3,1.2-0.6c0.3-0.3,0.3-0.9,0.3-1.3c0.3-3.2,0.6-6.3,0.9-9.5c0-0.4,0.1-0.8,0.1-1.2c-0.1,0-0.1,0-0.2-0.1
			c-0.4,1-0.9,1.9-1.3,2.9c-1.4,3.1-2.7,6.2-4.1,9.3c-0.1,0.2-0.4,0.4-0.6,0.4c-0.7,0.1-1.5,0-2.3,0c1-2.3,2-4.5,3-6.7
			c1.9-4.3,3.8-8.7,5.7-13c0.8-1.9,0.7-3.9,0.9-5.9c0.3-2.7,0.5-5.4,0.7-8.2c0-0.3,0-0.7,0-1c-0.1,0-0.2-0.1-0.2-0.1
			c-0.3,0.2-0.6,0.4-0.8,0.7c-2.6,2.6-5.3,5.2-7.9,7.8c-3,2.9-6,5.8-8.9,8.9c-3.1,3.2-6,6.6-9,9.9c-2.1,2.3-4.3,4.6-6.5,6.9
			c-0.5,0.5-1,0.8-1.7,0.7c-0.6,0-1.1,0-2,0c0.8-0.9,1.4-1.6,2-2.3c2.5-2.7,5.1-5.3,7.5-8c1.8-1.9,3.4-4,5.1-5.9
			c1.4-1.5,2.8-3,4.3-4.5c2.4-2.4,4.9-4.9,7.3-7.3c2.5-2.5,5-5.1,7.5-7.6c0.1-0.1,0.2-0.3,0.4-0.5c0,0-0.1-0.1-0.1-0.1
			c-0.5,0.4-1,0.8-1.5,1.2c-3.7,3.4-7.5,6.8-11.2,10.3c-2.3,2.2-4.4,4.6-6.6,6.9c-2.7,2.8-5.5,5.6-8.2,8.5c-2.8,2.9-5.5,5.8-8.2,8.8
			c-0.5,0.5-1,0.5-1.6,0.5c-5.1,0-10.2,0-15.2,0c-2.6,0-5.2,0-7.8,0c-0.3,0-0.7-0.1-1-0.3c-2.1-1.3-4.1-2.7-6.2-4
			c-1.8-1.1-3.6-2.3-5.5-3.4c-0.8-0.5-1.8-0.4-2.6,0c-2.2,1-4.4,2.1-6.6,3.2c-0.6,0.3-0.8,0.7-0.4,1.3c0.4,0.7,0,0.9-0.5,1
			c-0.7,0.1-1.3,0.1-2,0c-1.8-0.2-3.4,0.6-4.9,1.5c-1.2,0.7-2.3,0.8-3.6,0.5c0.7-0.3,1.3-0.7,2-0.9c0.9-0.4,1.7-0.7,1.7-2
			c0-0.6,0.5-1,1.2-1c0.7,0,1.5,0.2,2.1,0c1.1-0.3,2.2-0.7,3.2-1.1c1.2-0.5,2.3-1.1,3.4-1.6c1-0.5,2-1,3-1.5
			c0.8-0.5,0.8-1.1,0.2-1.8c-0.3-0.3-0.6-0.6-0.9-0.8c-2.4-1.5-4.7-3-7.1-4.6c-2.5-1.6-4.9-3.2-7.3-4.8c-3.3-2.1-6.6-4.3-9.9-6.5
			c-4.2-2.8-8.4-5.5-12.5-8.3c-4.1-2.7-8.2-5.6-12.4-8.1c-3.2-1.9-6.2-4-9.1-6.2c-3.2-2.5-6.8-4.6-10.2-6.8c-1.5-1-3.1-2.1-4.6-3.1
			c-0.2-0.1-0.4-0.2-0.6-0.2c-1.9,0.5-3.7,0.1-5.6-0.4c-0.5-0.1-1-0.3-1.4-0.6c-1.5-1.2-3-0.7-4.6-0.3c-0.1,0-0.2,0.5-0.1,0.6
			c0.5,0.7,1,1.3,1.5,1.9c1.1,1.2,2.2,2.3,3.3,3.5c1.3,1.6,2.4,3.2,3.7,4.8c1.3,1.6,2.6,3.2,3.9,4.8c2.6,3.1,5.2,6.1,7.8,9.1
			c1.7,1.9,3.5,3.7,5.2,5.5c0.6,0.6,1.1,0.5,1.4-0.3c0.6-1.8,1.2-3.7,1.9-5.5c0.4-1.1,0.9-2.1,1.3-3.1c0.1-0.2,0.1-0.4,0.2-0.6
			c0.1-0.2,0.3-0.4,0.4-0.6c0.1,0.2,0.4,0.5,0.4,0.7c0,1.4,0.1,2.8-0.1,4.1c-0.2,2-0.5,3.9-0.8,5.8c-0.2,1.1-0.5,2.1-0.5,3.2
			c0,0.8,0.5,1.6,0.9,2.3c2.4,3.1,4.9,6.2,7.3,9.3c1,1.3,2.3,1.9,3.8,2.2c1.9,0.3,3.7,1,5.5,1.5c0,0.1,0,0.1,0,0.2
			c-0.1,0-0.2,0.1-0.3,0c-1.9-0.4-3.9-0.8-5.8-1.3c-1.2-0.3-2.2,0.1-3.1,0.9c-0.6,0.6-1.1,1.3-1.5,2c-0.5,0.9-0.2,1.7,0.4,2.4
			c1.8,2.3,3.6,4.5,5.4,6.8c0.1,0.1,0.2,0.3,0.3,0.4c-1.4,0.5-2.6,0.2-3.4-0.8c-1.1-1.4-2.2-2.8-3.3-4.3c-0.7-0.9-1.3-0.9-1.9,0.1
			c-0.8,1.5-1.7,3-2.6,4.5c-0.2,0.4-0.6,0.7-1.1,0.6c-0.6,0-1.2,0-2,0c0.5-0.8,0.8-1.4,1.2-2c1.1-1.7,2.1-3.5,3.2-5.2
			c0.4-0.6,0.4-1.2,0-1.7c-1.5-1.9-3-3.7-4.5-5.5c-0.4-0.4-0.8-0.2-1,0.5c-0.1,0.6-0.2,1.2-0.3,1.9c-0.6,3.5-1.1,7.1-1.7,10.6
			c-0.2,1.2-0.5,1.5-1.7,1.5c-1.6,0-3.1,0-4.7,0c-0.6,0-0.8-0.2-0.7-0.8c0.6-2,1.2-4.1,1.8-6.1c0.3-1.1,0.5-2.3,0.8-3.5
			c0.3-1.3,0.7-2.6,1-3.8c0.5-1.8,1-3.6,1.3-5.4c0.1-0.5-0.1-1.3-0.5-1.8c-1.9-2.8-3.8-5.5-5.8-8.2c-3.2-4.2-6.4-8.4-9.6-12.6
			c-1.6-2.1-3.3-4.1-4.9-6.1c-0.3-0.3-0.6-0.5-0.8-0.7c-0.4,0.4-0.7,0.8-1,0.9c-1.9,0.4-3.2,1.7-4.5,3c-1.2,1.2-2.3,2.5-4,3.1
			c-0.2,0.1-0.4,0.7-0.4,1c0.3,1.4,0.6,2.8,1,4.2c1.3,3.9,2.7,7.8,4.1,11.6c1.2,3.4,2.5,6.8,3.7,10.2c1.3,3.5,2.6,7.1,3.9,10.6
			c0.5,1.2,1,2.4,1.5,3.7c0.1,0.2,0.1,0.3,0.2,0.7c-1.2,0-2.2,0.1-3.3,0c-0.3,0-0.6-0.6-0.8-1c-0.4-0.8-0.6-1.6-0.9-2.5
			c-1.7-5-3.5-9.9-5.2-14.9c-1.9-5.5-3.8-11-5.7-16.5c-0.4-1.3-1-2.5-1.5-3.8c-0.1-0.2-0.4-0.4-0.7-0.4c-0.2,0-0.5,0.1-0.9,0.1
			c0-4.5,0-9,0-13.5c0.6,1.4,1.2,2.8,1.8,4.2c0.1,0.3,0.2,0.5,0.3,0.8c0.4,0.9,0.7,0.9,1.5,0.3c0.7-0.5,1.5-0.8,2.3-1.2
			c1.1-0.5,2.3-1,3.2-1.6c0.9-0.7,1.7-1.6,2.5-2.4c0.1-0.1,0.1-0.5-0.1-0.6c-1.1-1.6-2.3-3.1-3.5-4.7c-0.1-0.2-0.4-0.3-0.6-0.3
			c-1,0.1-2.1,0.2-3,0.5c-1.3,0.4-2.6,0.9-3.9,1.4c-0.2,0.1-0.4,0-0.7,0.1c0-1.4,0-2.7,0-4c0-0.1,0.3-0.3,0.5-0.4
			c1.3-0.4,2.6-0.8,3.8-1.3c0.6-0.2,0.3-0.6,0.1-0.9c-1.1-1.6-2.2-3.3-3.4-4.8c-0.9-1.1-1.3-2.1-1.2-3.5c0.1-1.3,0-2.5,0.2-3.9
			c0.9,1.1,1.7,2.2,2.7,3.2c2.4,2.7,4.9,5.4,7.3,8c0.3,0.4,0.7,0.6,1.2,0.4c0.3-0.1,0.7,0,1.1,0.1c0.2,0,0.4,0.1,0.5,0
			c0.6-0.7,1.5-0.4,2.2-0.6c0.5-0.2,1-0.1,1.4,0.4c0.3,0.4,0.7,0.3,1,0c0.3-0.3,0.4-0.7,0-1c-1-0.9-2-1.8-3.1-2.6
			c-4.6-3.3-9.3-6.6-13.9-9.9c-0.5-0.4-0.8-0.8-0.7-1.4c0.1-1,0-2.1,0-3.3c0.6,0.4,1.1,0.8,1.6,1.1c5.4,3.7,10.8,7.5,16.2,11.2
			c1.5,1,3.2,1.9,4.8,2.9c0.5,0.3,1,0.4,1.6,0c0.5-0.3,1-0.4,1.5-0.6c1.7-0.7,3.4-1.3,5.1-2c0.3-0.1,0.5-0.5,0.7-0.7
			c-0.3-0.2-0.5-0.5-0.8-0.7c-2.9-1.2-5.9-2.4-8.8-3.6c-7-2.8-13.9-5.7-20.9-8.5c-0.7-0.3-0.9-0.7-0.9-1.4c0-2.6,0-5.2,0-7.8
			c1.1,0,2.2-0.1,3.4-0.1c5.2-0.1,10.4-0.1,15.5-0.3c9.3-0.3,18.7-0.7,28-1c4.5-0.2,8.9-0.4,13.4-0.6c4.9-0.2,9.8-0.4,14.6-0.7
			c6.3-0.3,12.6-0.6,18.9-1c3.9-0.2,7.8-0.4,11.7-0.6c0.2,0,0.4,0,0.6-0.1c0.5-0.1,0.7-0.4,0.3-0.8c-0.8-0.7-1.6-1.5-2.5-2.1
			c-3.9-2.9-7.7-5.8-11.6-8.7c-3.4-2.6-6.8-5.1-10.2-7.7c-1.4-1.1-2.9-2.1-4.3-3.3c-0.7-0.6-1.5-0.7-2.3-0.5
			c-2.6,0.8-5.3,1.7-7.9,2.5c-12.3,4-24.5,8-36.8,12.1c-10,3.3-19.9,6.7-29.9,10c-0.2,0.1-0.5,0.1-0.9,0.3c0-0.7-0.1-1.2,0-1.8
			c0-0.2,0.4-0.5,0.7-0.6c5.1-1.7,10.3-3.4,15.4-5.1c8.9-2.9,17.8-5.9,26.7-8.8c8.2-2.7,16.4-5.3,24.6-8c1.7-0.5,3.4-1.1,5.1-1.7
			c0.5-0.2,0.8-0.6,1.3-0.9c-0.3-0.4-0.6-0.8-0.9-1.1c-2.4-1.8-5.1-2.7-8-2.9c-4.3-0.3-8.7-0.5-13-0.8c-2.3-0.1-4.5-0.2-6.8-0.4
			c-3.6-0.2-7.3-0.4-10.9-0.6c-2.2-0.1-4.5-0.2-6.7-0.3c-1-0.1-1.8,0.2-2.6,0.9c-2.3,2.1-4.5,4.1-6.8,6.2c-4.8,4.5-9.6,9-14.3,13.5
			c-1,1-2,1.9-3.1,2.9c-0.2,0.2-0.3,0.3-0.7,0.5c0-1.1,0-1.9,0-2.8c0-0.3,0.3-0.6,0.5-0.8c3-2.8,6-5.7,9-8.5
			c3.5-3.3,7.1-6.6,10.6-9.9c0.4-0.4,0.7-0.9,1-1.4c0.3-0.5,0.1-0.9-0.6-0.9c-2.3-0.1-4.5-0.2-6.8-0.3c-2-0.1-4.1-0.4-6.1-0.5
			c-1.1-0.1-2.2-0.1-3.3-0.1c-1.2-0.1-2.4-0.2-3.6-0.3c-0.9-0.1-0.5-0.9-0.5-1.3c-0.1-0.5,0.3-0.6,0.7-0.5c4.8,0.3,9.5,0.6,14.3,0.9
			c2.4,0.2,4.9,0.4,7.3,0.6c1.3,0.1,2.3-0.3,3.2-1.1c2.3-2.1,4.6-4.2,7-6.3c2-1.8,4-3.5,6-5.3c0.5-0.4,1-0.9,1.5-1.4
			c0.6-0.6,0.7-1.1,0.2-1.8c-0.8-1.2-1.7-2.3-2.5-3.5c-1.9-2.8-3.9-5.7-5.8-8.6c-2.4-3.5-4.7-6.9-7.1-10.4c-1.4-2.1-2.8-4.2-4.2-6.4
			c-1.9-2.8-3.7-5.6-5.6-8.4c-2.3-3.5-4.6-7.1-7-10.6C6.4,5.2,5.2,3.5,4,1.8C3.7,1.2,3.4,0.7,3.1,0.1c1.5,0,3.1,0,4.6,0
			C7.9,0.4,8.1,0.8,8.3,1c3,3.5,6,7,8.9,10.5c3.1,3.6,6.2,7.3,9.4,10.9c3.5,4.1,7.1,8.1,10.6,12.2c2.6,3,5.2,6,7.8,9
			c2,2.2,3.9,4.5,5.9,6.7c0.9,1.1,1.9,2.2,2.8,3.3c1.4,1.7,3.4,1.7,5.3,1.6c3.1-0.1,6.2-0.2,9.3-0.3c4.2-0.1,8.3-0.2,12.5-0.3
			c5.8-0.2,11.6-0.3,17.4-0.5c4-0.1,8.1-0.2,12.1-0.3c5.8-0.2,11.7-0.4,17.5-0.5c5.2-0.1,10.4-0.1,15.5-0.2c0.5,0,1.1,0,1.6-0.1
			c0.2,0,0.6-0.2,0.7-0.4c0.1-0.2-0.1-0.6-0.3-0.7c-0.4-0.3-0.8-0.6-1.3-0.8c-1.9-0.8-3.8-1.5-5.6-2.2c-5.3-2.1-10.6-4.2-15.9-6.3
			c-5.8-2.3-11.6-4.7-17.4-7c-4.7-1.9-9.4-3.8-14.1-5.6c-4-1.6-7.9-3.1-11.9-4.7c-3.1-1.3-6.2-2.6-9.3-3.8c-2.3-0.9-4.6-1.8-6.9-2.8
			c-2.9-1.2-5.8-2.4-8.7-3.6c-2.2-0.9-4.4-1.7-6.6-2.6c-1.5-0.6-3-1.3-4.5-1.9c-3.1-1.3-6.2-2.5-9.3-3.7c-1-0.4-1.9-0.8-2.9-1.2
			c-1.6-0.6-3.2-1.2-4.8-1.8c-1.9-0.8-3.8-1.6-5.6-2.4c-0.9-0.4-1.8-0.9-2.7-1.4C19.1,0.1,20.4,0.1,21.8,0.1z M30.2,139
			c0.2,0.2,0.3,0.4,0.5,0.6c1.6,1.2,3.1,2.4,4.7,3.5c2.3,1.5,4.7,2.8,6.9,4.4c2.8,1.9,5.5,3.9,8.2,5.8c4.2,2.9,8.5,5.8,12.8,8.6
			c3.9,2.6,7.9,5.2,11.8,7.8c3.8,2.5,7.6,5,11.4,7.4c4.1,2.7,8.2,5.3,12.4,8c1.4,0.9,2.7,1.8,4.2,2.6c0.6,0.3,1.5,0.7,1.9,0.5
			c0.9-0.4,1.7-1.2,2.4-2c0.4-0.4,0.2-1.1-0.2-1.5c-0.6-0.6-1.2-1.2-1.8-1.8c-1.6-1.6-3.2-3.3-4.7-4.9c-1.4-1.5-2.9-3-4.3-4.5
			c-0.6-0.6-1.2-1.3-1.8-1.9c-1.2-1.4-2.3-2.8-3.5-4.2c-0.2-0.3-0.2-0.7-0.3-1c0.3,0.1,0.7,0.1,1,0.3c0.1,0,0.1,0.2,0.2,0.2
			c0.8,0.7,1.7,1.4,2.5,2.1c1.2,1,2.5,1.9,3.7,2.9c1.5,1.3,2.9,2.6,4.3,3.9c1,0.9,2.1,1.8,3.2,2.8c1.6,1.5,3.1,3.1,4.6,4.6
			c0.3,0.3,0.8,0.5,1.2,0.5c1.8,0.1,3.5,0,5.1-1c1.1-0.7,1.4-1.5,0.8-2.7c-0.9-1.6-1.7-3.3-2.6-4.9c-1.3-2.4-2.5-4.9-3.7-7.3
			c-1.1-2.2-2.3-4.5-3.4-6.8c-0.5-1.1-1.3-1.9-2.4-2.3c-5.6-2.1-11.2-4.3-16.8-6.4c-4-1.5-8-3-12-4.6c-1.9-0.7-3.8-1.1-5.7-1.7
			c-3.2-1-6.3-2.5-9.5-3.8c-2.7-1.1-5.3-2.3-8-3.4c-2.3-0.9-4.8-1.6-7.1-2.5c-1.6-0.6-3.2-1.3-4.8-2c-0.3-0.1-0.6-0.1-0.9,0
			c-0.8,0.3-1.5,0.7-2.3,1.1C35.7,136.7,33,137.8,30.2,139z M151.6,56.5c-0.5,0.1-0.8,0.1-1,0.2c-2,0.7-4.1,1.3-6.1,2
			c-4.6,1.4-9.2,2.9-13.8,4.3c-6.2,2-12.4,3.9-18.5,5.9c-5.8,1.8-11.6,3.7-17.5,5.5c-4.3,1.4-8.6,2.7-12.9,4.1
			c-0.7,0.2-1.4,0.5-2,0.8c-1.1,0.5-1.1,0.9-0.1,1.7c1.5,1.1,3.1,2.3,4.6,3.4c4.5,3.4,9.1,6.8,13.6,10.3c2.9,2.2,5.8,4.3,8.7,6.5
			c1.8,1.4,3.6,2.7,6.1,2.6c0.7,0,1.3-0.1,1.8-0.6c0.3-0.3,0.6-0.7,0.9-1c3-3.7,6-7.4,9.1-11.1c6.1-7.3,12.3-14.7,18.4-22
			c3-3.6,6.2-7.1,9.2-10.7c0.3-0.3,0.6-0.9,0.5-1.2C152.5,56.8,151.9,56.7,151.6,56.5z M57.3,126.1c0,0.9,0.1,1.5,0,2.2
			c-0.1,0.7-0.1,1.5-0.4,2.1c-0.9,1.5-1.9,2.9-2.9,4.3c-0.5,0.8-0.5,1,0.4,1.3c1.3,0.5,2.7,0.9,4,1.4c3.3,1.2,6.6,2.5,9.8,3.8
			c3,1.2,6,2.7,9.1,3.9c9.1,3.6,18.1,7.1,27.2,10.7c2,0.8,4,1,6.2,0.8c3.7-0.5,7.4-0.9,11.2-1.3c3-0.4,5.9-0.7,8.9-1.1
			c1.5-0.2,1.9-0.4,2.1-2c0.6-3.6,1.1-7.1,1.7-10.7c0.3-2,0.3-2.1-1.8-2.4c-7.1-1.2-14.3-2.4-21.4-3.6c-10.6-1.8-21.1-3.7-31.7-5.5
			c-6.4-1.1-12.7-2.2-19.1-3.3C59.5,126.5,58.4,126.3,57.3,126.1z M12.6,113.6c0,0,0,0.1,0,0.1c0.1,0,0.2,0.1,0.3,0.1
			c8.2,1.5,16.3,3.1,24.5,4.5c4.6,0.8,9.3,1.6,13.9,2.4c0.5,0.1,1.1,0.1,1.6-0.1c1.9-0.7,3.7-1.5,5.6-2.3c0.6-0.2,1,0,1,0.7
			c0,0.7,0.1,1.5,0,2.2c-0.2,0.8,0.2,1,0.9,1.1c1.5,0.3,3.1,0.5,4.6,0.8c2.5,0.5,5,1.1,7.5,1.6c17.7,3.2,35.4,6.3,53.1,9.5
			c2.7,0.5,5.4,1,8.1,1.4c1.4,0.2,1.6,0.1,1.7-1.2c0.3-1.8,0.5-3.5,0.8-5.3c0.2-1.5,0.3-1.5-1.1-2c-3.5-1.4-6.9-2.7-10.4-4.1
			c-1.5-0.6-3-1.3-4.5-2.1c-0.6-0.3-1.2-0.6-1.9-0.7c-3.2-0.2-6.5-0.5-9.7-0.7c-4.7-0.3-9.5-0.7-14.2-1c-3.3-0.2-6.6-0.3-9.9-0.6
			c-6.1-0.4-12.1-0.8-18.2-1.2c-5.1-0.3-10.2-0.6-15.3-0.9c-6.7-0.4-13.4-0.8-20.1-1.2c-4-0.2-8-0.5-11.9-0.8
			C17,113.9,14.8,113.8,12.6,113.6z M96.7,55.6C96.7,55.6,96.7,55.6,96.7,55.6c-1.3,0-2.5,0.1-3.8,0.2c-5.1,0.2-10.1,0.3-15.2,0.5
			c-5.4,0.2-10.9,0.3-16.3,0.5c-0.9,0-1.8,0.1-2.7,0.4c-0.8,0.2-1,0.9-0.5,1.5c1.4,1.7,2.8,3.4,4.2,5.1c1.9,2.2,3.9,4.3,5.8,6.5
			c1.9,2.2,4.2,3.2,7.1,2.4c2.5-0.7,5.1-1.2,7.7-1.8c3.4-0.8,6.8-1.5,10.2-2.3c3.6-0.8,7.2-1.7,10.8-2.6c5.7-1.3,11.3-2.7,17-4
			c3.4-0.8,6.8-1.7,10.2-2.5c3.4-0.8,6.8-1.5,10.3-2.3c1.7-0.4,3.4-0.8,5-1.3c0.3-0.1,0.5-0.4,0.7-0.6c-0.3-0.1-0.5-0.4-0.8-0.4
			c-1.7-0.1-3.3-0.3-5-0.3c-5.4,0.1-10.8,0.3-16.2,0.4c-3.2,0.1-6.3,0.1-9.5,0.2C109.4,55.2,103.1,55.4,96.7,55.6z M117.2,103.5
			c0.4,0,0.6,0.1,0.8,0c5.4-0.2,10.8-0.5,16.2-0.7c2.1-0.1,4.2-0.1,6.3-0.2c2-0.1,2.6-0.5,3.1-2.4c0.7-2.5,1.3-4.9,1.9-7.4
			c1.3-5.1,2.5-10.3,3.8-15.4c1.2-4.9,2.4-9.7,3.5-14.6c0.1-0.5,0.5-1.2-0.2-1.6c-0.7-0.3-1.1,0.3-1.5,0.8c-1.4,1.6-2.7,3.2-4,4.8
			c-4.2,5-8.3,9.9-12.4,14.9c-5.4,6.6-10.8,13.2-16.3,19.9C118,102.2,117.7,102.8,117.2,103.5z M177.1,115c0,0-0.1,0-0.1-0.1
			c0-0.2,0-0.5-0.1-0.7c-0.8-2.2-1.7-4.4-2.6-6.6c-0.4-1-0.8-1-1.9-0.8c-2.8,0.7-5.6,1.5-8.5,2.2c-3.9,1-7.8,1.9-11.7,2.9
			c-2.7,0.7-5.5,1.4-8.2,2.1c-1.2,0.3-2.1,1-2.3,2.4c-0.2,0.9-0.4,1.8-0.7,2.7c-0.2,0.8,0,1.2,0.7,1.5c0.2,0.1,0.4,0.2,0.6,0.3
			c7.6,3.8,15.1,7.6,22.7,11.4c0.6,0.3,1.3,0.6,2,0.7c0.3,0.1,0.8-0.2,0.9-0.4c1-1.8,2-3.6,2.9-5.5c1.7-3.3,3.5-6.7,5.2-10
			C176.5,116.4,176.8,115.7,177.1,115z M164.8,101.9C164.8,101.9,164.8,101.9,164.8,101.9c1.6-0.1,3.1,0,4.7-0.1
			c2.4-0.1,2.4-0.2,1.6-2.5c-1.4-3.7-2.9-7.4-4.3-11.1c-3.2-8.5-6.3-17-9.5-25.5c-0.2-0.5-0.4-1.3-1.1-1.2c-0.7,0-0.8,0.8-0.9,1.3
			c-0.9,3.6-1.7,7.1-2.5,10.7c-0.9,3.7-1.7,7.5-2.7,11.2c-1.2,4.9-2.6,9.8-3.8,14.7c-0.1,0.5-0.2,0.9-0.3,1.4c0,1.1,0.3,1.4,1.4,1.4
			c0.9,0,1.8-0.1,2.7-0.1C154.9,102.1,159.9,102,164.8,101.9z M48.3,57C48.3,57,48.3,57,48.3,57c-1.4,0-2.7,0-4.1,0
			c-1,0-1.9,0.2-2.6,0.9c-1.4,1.3-2.9,2.5-4.4,3.8c-2.4,2.1-4.8,4.3-7.1,6.5c-0.6,0.6-1.2,1.3-1.7,2.1c-0.4,0.6-0.1,1,0.6,1
			c2,0.1,4.1,0.2,6.1,0.3c1.9,0.1,3.7,0.2,5.6,0.4c3.8,0.2,7.6,0.5,11.4,0.7c2.9,0.2,5.8,0.4,8.7,0.6c1.7,0.1,3.5,0.2,5.3,0.2
			c0.5,0,1.2-0.3,1.5-0.7c0.2-0.2-0.3-0.9-0.5-1.4c-0.1-0.2-0.3-0.4-0.5-0.6c-3.7-4.1-7.4-8.3-11.1-12.4c-0.8-0.9-1.8-1.4-3-1.4
			C51.1,57,49.7,57,48.3,57z M137.9,198.1c0.1,0.1,0.2,0.1,0.2,0.2c0.3-0.2,0.7-0.4,1-0.7c1.9-1.9,3.7-3.8,5.6-5.8
			c1.4-1.4,2.8-2.9,4.2-4.3c2.9-3,5.6-6.1,8.5-9c3.7-3.7,7.5-7.2,11.3-10.8c2.7-2.5,5.4-5,8.1-7.4c1.6-1.4,2.7-3,2.8-5.2
			c0-0.8-0.3-1.1-1.1-0.8c-0.4,0.1-0.8,0.3-1.2,0.5c-1.5,0.7-2.9,1.4-4.4,2.1c-4.8,2.3-9.7,4.6-14.4,7c-3.3,1.7-6,4.1-7.5,7.7
			c-0.8,2-1.9,3.9-2.9,5.9c-2,4-4,8-6.1,12.1c-1.2,2.5-2.5,4.9-3.7,7.4C138.2,197.4,138.1,197.8,137.9,198.1z M130.3,156.9
			c-1.4,0.2-3.1,0.4-4.8,0.6c-4.8,0.6-9.6,1.3-14.5,1.9c-1.4,0.2-1.6,0.7-1,2c0.5,1,1,2,1.6,3.1c1.9,3.6,3.8,7.3,5.7,10.9
			c0.7,1.3,1.3,2.6,2,3.8c0.6,1.1,1.6,1.6,2.7,0.9c1.7-0.9,3.4-1.7,5.1-2.5c1.8-0.8,2.9-2.1,2.9-4.2c0.1-1.7,0.3-3.4,0.5-5.2
			c0.4-3.3,0.9-6.7,1.3-10C132,157.2,131.7,156.9,130.3,156.9z M155.2,153.8c-0.2,0-0.5,0-0.8,0c-3.1,0.4-6.2,0.8-9.3,1.2
			c-3.2,0.4-6.3,0.8-9.5,1.2c-1.3,0.2-1.6,0.6-1.8,1.9c-0.4,3.4-0.8,6.8-1.2,10.2c-0.2,1.7-0.5,3.4-0.7,5.1
			c-0.1,0.9,0.3,1.3,1.2,1.2c0.3,0,0.6-0.1,0.8-0.2c2.5-1.2,4.9-2.4,7.4-3.6c2.8-1.3,5.6-2.7,8-4.7c0.8-0.6,1.7-1.2,2.2-2
			c1.7-2.9,3.1-5.9,4.7-8.8C157.1,153.9,157,153.8,155.2,153.8z M64.9,114.2c0,0.1,0,0.2,0.1,0.3c1.8,0.1,3.5,0.2,5.3,0.3
			c7.5,0.5,14.9,1,22.4,1.5c7.3,0.5,14.7,1,22,1.5c1.6,0.1,3.3-0.2,4.9,0.1c1.5,0.2,2.7-0.4,4-0.7c0.2,0,0.4-0.2,0.4-0.4
			c0-0.1-0.2-0.4-0.3-0.5c-0.8-0.4-1.5-1-2.3-1.3c-1.6-0.6-2.9-1.6-4-2.9c-0.7-0.8-1.6-1.7-2.6-2.2c-1.1-0.5-2.3-0.9-3.5-0.9
			c-1.7,0-3.4,0.4-5,0.5c-4.5,0.4-8.9,0.9-13.4,1.3c-3.2,0.3-6.5,0.6-9.7,0.9c-3.5,0.3-7,0.7-10.5,1c-1.9,0.2-3.7,0.4-5.6,0.6
			C66.3,113.6,65.6,113.9,64.9,114.2z M137.9,140c-0.9-0.1-1.2,0.3-1.3,1.1c-0.3,1.9-0.6,3.9-1,5.8c-0.3,1.6-0.6,3.3-0.9,4.9
			c-0.2,1.3,0.2,1.8,1.5,1.7c0.6-0.1,1.1-0.1,1.7-0.2c5.1-0.6,10.3-1.2,15.4-1.8c1.6-0.2,3.3-0.7,4.9-1.1c0.3-0.1,0.7-0.4,0.8-0.7
			c0.7-1.2,1.4-2.4,2-3.6c1.1-2.2,1.4-2.1-1.4-2.6c-4-0.7-8.1-1.3-12.2-2C144.3,141,141.1,140.5,137.9,140z M47.5,55.7
			c1.2-0.1,2.1-0.2,2.9-0.4c1.2-0.3,1.4-0.9,0.6-1.8c-1.7-2-3.4-3.9-5-5.8c-2.6-3-5.3-6.1-7.9-9.1c-2.7-3.1-5.3-6.2-8-9.2
			c-2.8-3.2-5.7-6.4-8.6-9.5c-0.4-0.4-0.9-0.8-1.4-1.1c-0.2-0.1-0.5-0.1-0.6,0c-0.1,0.1-0.2,0.4-0.2,0.6c0.1,0.5,0.3,0.9,0.5,1.3
			c1.4,2.5,2.8,5,4.4,7.4c1.4,2.2,3,4.4,4.4,6.6c2,3,4,6.1,6,9.1c2,2.9,3.9,5.9,6,8.7c0.7,1,1.3,2.1,2.5,2.5
			C44.5,55.2,46.2,55.4,47.5,55.7z M148.8,169.4c0-0.1-0.1-0.2-0.1-0.3c-0.7,0.2-1.4,0.4-2,0.6c-2.5,1.1-5,2.2-7.4,3.5
			c-2.6,1.4-5.4,2.2-7.6,4.3c-0.9,0.8-1.3,1.7-1.2,2.9c0.1,2.1,0.2,4.2,0.3,6.4c0.2,3,0.3,6.1,0.5,9.1c0.1,1,0.2,1.9,0.4,2.8
			c0,0.3,0.3,0.5,0.5,0.8c0.2-0.2,0.5-0.3,0.6-0.5c0.3-0.5,0.5-1,0.8-1.4c1.1-1.9,2.3-3.7,3.3-5.6c1.9-3.4,3.7-6.9,5.5-10.3
			c1.8-3.4,3.6-6.7,5.4-10.1C148.1,170.8,148.4,170.1,148.8,169.4z M178.5,117.9c-0.3,0.5-0.5,0.7-0.7,1c-0.7,1.4-1.3,2.9-2.1,4.3
			c-1.6,3.1-3.2,6.1-4.9,9.2c-1,1.9-0.9,2.3,1,3.3c2.4,1.2,4.7,2.4,7.1,3.6c1.7,0.9,1.9,0.7,2-1.2c0.2-2.7,0.4-5.4,0.6-8.1
			c0.1-1.8,0.6-3.5-0.2-5.2c-0.6-1.3-1.1-2.8-1.6-4.1C179.5,119.7,179,118.9,178.5,117.9z M138.5,128.6c-0.3,2.2-0.6,4.2-0.8,6.2
			c-0.2,1.5-0.1,1.6,1.4,1.9c0.2,0,0.3,0.1,0.5,0.1c5.7,1,11.4,2,17,2.9c1.9,0.3,3.9,0.6,5.8,0.9c1.1,0.2,2-0.1,2.3-1.6
			C156.1,135.5,147.4,132.1,138.5,128.6z M76.8,78c0.4-0.1,1-0.2,1.5-0.4c2.7-0.8,5.4-1.7,8.1-2.5c6.9-2.2,13.7-4.4,20.6-6.6
			c2.8-0.9,5.5-1.9,8.3-2.9c0.2-0.1,0.4-0.3,0.5-0.5c-0.3-0.1-0.5-0.2-0.8-0.2c-2.4,0.5-4.8,0.9-7.2,1.5c-3.3,0.8-6.6,1.6-9.9,2.4
			c-3.4,0.8-6.7,1.4-10.1,2.2c-3.7,0.8-7.4,1.7-11.1,2.6c-0.8,0.2-1.6,0.4-2.4,0.7c-0.7,0.3-1,1.1-0.7,1.7
			C74.1,77.1,75.6,78.1,76.8,78z M178.8,151c-0.2,0-0.4,0-0.6,0c-3.6,0.4-7.3,0.8-10.9,1.3c-1.9,0.3-3.9,0.7-5.8,1.1
			c-1,0.2-1.7,0.8-2.1,1.9c-0.5,1.4-1.3,2.8-2,4.2c-0.5,1-1.1,1.9-1.6,2.9c-0.1,0.2-0.1,0.5-0.2,0.8c0.3,0,0.6,0.1,0.9,0
			c1.2-0.5,2.4-1,3.5-1.5c5.6-2.7,11.3-5.5,16.9-8.2c1-0.5,1.9-0.9,2.6-1.8c0.3-0.4,0.3-0.7-0.2-0.8C179.1,151,178.9,151,178.8,151z
			 M118.3,108.6c0.7,0.4,1.4,0.8,2,1.1c2.7,1.4,5.4,2.7,8.1,4.1c0.7,0.3,1.4,0.7,2.1,1c0.3,0.1,0.7,0.1,1.1,0c1.6-0.5,3.2-1,4.8-1.4
			c1-0.3,2-0.6,3-0.9c0.3-0.1,0.7-0.5,0.8-0.8c0-0.2-0.5-0.5-0.6-0.6c0.1-0.3,0.2-0.7,0.3-1c0.1-0.3,0.1-0.6,0.2-0.8
			c0.4-0.7,0.3-0.9-0.5-1c-0.5,0-1.1,0.1-1.6,0.1c-1.4-0.1-2.7-0.4-4.1,0c-0.4,0.1-0.9,0-1.3,0c-0.7-0.1-1.5-0.2-2.2-0.2
			c-1.7,0-3.3,0.1-5,0.2C123,108.4,120.7,108.5,118.3,108.6z M165.4,136c0.4-0.2,0.8-0.3,1.1-0.5c-0.2-0.3-0.4-0.7-0.6-0.9
			c-0.5-0.4-1-0.7-1.6-1c-7.5-3.7-14.9-7.4-22.4-11.1c-1.6-0.8-1.6-0.8-2,1c-0.4,1.8,0.1,2.8,1.8,3.5c1.7,0.7,3.4,1.3,5,2
			c5,1.9,9.9,3.9,14.9,5.8C162.9,135.2,164.2,135.6,165.4,136z M129,191.5c-0.1,0-0.2,0-0.3,0c0-2.3,0-4.6,0-6.8
			c0-1.4-0.1-2.7-0.2-4.1c-0.1-1.3-0.9-1.8-2.1-1.3c-1.4,0.6-2.8,1.4-4.2,2c-0.8,0.4-1,1-0.7,1.7c0.4,1,0.8,1.9,1.3,2.8
			c1.1,2.2,2.3,4.4,3.5,6.5c0.5,0.9,1.1,1.7,1.8,2.5c0.1,0.2,0.5,0.2,0.8,0.2c0.1,0,0.1-0.4,0.2-0.6C129,193.5,129,192.5,129,191.5z
			 M15.7,147.8c0.1,0.2,0.1,0.5,0.2,0.7c0.8,1.2,1.7,2.5,2.6,3.6c5.8,7.5,11.5,14.9,17.3,22.4c0.2,0.3,0.7,0.7,1,0.6
			c0.3-0.1,0.7-0.6,0.8-1c0.1-0.3,0-0.8-0.2-1.1c-0.3-0.6-0.7-1.2-1-1.8c-1.3-2.3-3-4.2-4.7-6.2C26.5,159.2,21.7,153,15.7,147.8z
			 M47.8,109.9c0.1,0,0.2,0.1,0.3,0.1c2.5,0.1,5,0.2,7.5,0.3c1.5,0.1,3,0.2,4.5,0.2c1.6,0,3.2,0.2,4.7,0c1.5-0.2,3-0.2,4.5-0.1
			c1.3,0.1,2.5,0.2,3.8,0.1c3.8-0.3,7.6-0.7,11.4-1.1c3.3-0.3,6.7-0.7,10-1c2.3-0.2,4.5-0.4,6.8-0.5
			C83.5,108.3,65.6,108.1,47.8,109.9z M164,150.2c0.2,0,0.6,0,0.9-0.1c4.5-0.5,8.9-1,13.4-1.6c0.5-0.1,1.1-0.3,1.6-0.5
			c0.6-0.3,0.6-0.7,0-1c-0.4-0.2-0.9-0.4-1.3-0.5c-1.2-0.2-2.4-0.4-3.5-0.6c-2.8-0.4-5.5-0.9-8.3-1.2c-1-0.1-2,0-2.5,1.1
			c-0.5,1-1,2-1.6,3c-0.6,1.2-0.5,1.4,0.9,1.4C163.6,150.2,163.7,150.2,164,150.2z M126.2,197.8c0.1-0.1,0.2-0.1,0.3-0.2
			c-0.2-0.4-0.3-0.9-0.5-1.3c-1-2-2.1-4.1-3.1-6.1c-1-1.9-2-3.8-3-5.6c-0.6-1-1.3-1.3-2.3-0.9c-0.6,0.2-1.2,0.5-1.8,0.9
			c-1.6,1-1.6,2.1-0.3,3.4c2.7,2.4,5.3,4.9,7.9,7.4C124.2,196.3,125.2,197,126.2,197.8z M184.2,130.8c-0.1,0.3-0.2,0.4-0.2,0.5
			c-0.2,2.9-0.3,5.8-0.5,8.7c0,0.7,0.2,1.3,0.8,1.6c1.7,1,3.5,1.8,5.2,2.7c0.2,0.1,0.6,0,0.8-0.1c0.1-0.2,0.1-0.6,0-0.8
			c-1.8-3.9-3.7-7.9-5.6-11.8C184.6,131.5,184.4,131.2,184.2,130.8z M49,186c-0.1-0.2-0.2-0.6-0.4-0.9c-1.7-2-3.3-3.9-5.1-5.8
			c-0.4-0.4-0.9-0.7-1.4-1c-0.2-0.1-0.6,0-0.8,0.1c-0.4,0.4-0.4,2.4-0.1,2.8c1.1,1.6,2.1,3.2,3.3,4.8c0.7,0.9,1.4,1.8,2.2,2.6
			c0.2,0.2,0.9,0.4,0.9,0.2C48.2,188.1,49,187.3,49,186z M180.8,172.4c0,0,0.1,0,0.1,0c0.1-0.1,0.1-0.2,0.2-0.3
			c2.4-5.2,4.8-10.4,7.2-15.5c0.2-0.4,0.3-0.9,0.4-1.4c-0.1,0-0.1-0.1-0.2-0.1c-0.2,0.2-0.4,0.3-0.6,0.5c-1.3,1.3-2.6,2.6-4,3.9
			c-1.6,1.6-2.7,3.5-2.6,5.9c0,0.3,0,0.5-0.1,0.8C181.2,168.3,181,170.4,180.8,172.4z M121.2,199.2c0,0,0.1-0.1,0.1-0.1
			c0-0.1-0.1-0.2-0.1-0.3c-1.4-1.4-2.7-2.7-4.1-4.1c-0.9-0.9-1.9-1.9-2.8-2.8c-0.8-0.8-1.6-1.7-2.5-2.6c-0.3-0.2-0.6-0.5-1-0.5
			c-1.1,0-2.2,0-3.3,0.1c-0.8,0.1-1,0.6-0.4,1.2c0.3,0.3,0.6,0.6,0.9,0.9c4.1,2.6,8.2,5.1,12.3,7.7
			C120.6,198.9,120.9,199,121.2,199.2z M15,120.3c0,0.1,0,0.1-0.1,0.2c0.2,0.1,0.5,0.2,0.7,0.3c2.7,1.1,5.4,2.2,8.1,3.2
			c3.2,1.2,6.5,2.4,9.7,3.6c0.2,0.1,0.8,0,0.8-0.1c0.1-0.5,0.2-1,0-1.4c-0.7-2-2.4-2.5-4.2-2.8c-3.3-0.6-6.6-1.2-9.9-1.8
			C18.4,121.2,16.7,120.7,15,120.3z M20.3,111.8c0,0,0,0.1,0,0.1c13.1,0.8,26.2,1.5,39.4,2.3c0-0.1,0-0.2,0-0.3
			c-1.2-0.3-2.3-0.8-3.5-1c-2.5-0.3-5-0.4-7.5-0.5c-4.4-0.2-8.8-0.2-13.3-0.4c-2.6-0.1-5.2-0.2-7.9-0.3
			C25.1,111.7,22.7,111.8,20.3,111.8z M131.4,117.4c-0.5,0.1-0.9,0.2-1.3,0.4c-0.6,0.2-0.6,0.5-0.1,0.9c0.5,0.4,0.9,0.7,1.4,1.1
			c1.6,1.2,3.1,2.4,4.7,3.6c0.9,0.7,1.6,0.4,1.8-0.7c0.1-0.4,0.2-0.8,0.3-1.2c0.2-0.6,0-0.9-0.5-1.2c-1.5-0.7-2.9-1.5-4.4-2.2
			C132.6,117.9,132,117.7,131.4,117.4z M179.8,186.7c2.8-6.9,4.6-14.2,7-21.3c-1.9,3.9-3.6,7.9-5.4,11.9
			C180.1,180.3,179.9,183.5,179.8,186.7z M179.6,105c-0.7,0.2-1.4,0.3-2.1,0.5c-0.7,0.1-1,0.6-0.7,1.2c0.6,1.4,1.2,2.8,1.8,4.2
			c0.2,0.6,0.6,0.5,0.8,0c0.6-1.2,1.3-2.4,1.9-3.7C181.6,106.5,180.6,105,179.6,105z M134.5,124.5c0-0.1,0.1-0.1,0.1-0.2
			c-0.3-0.3-0.6-0.6-0.9-0.8c-1.7-1.3-3.4-2.5-5.1-3.8c-1.4-1.1-4-1-5.5,0.2C126.9,121.5,130.7,123,134.5,124.5z M188.8,135.3
			c-0.6-2.7-1-5.4-1.7-8.1c-0.4-1.9-1-3.8-1.6-5.7c-0.1-0.3-0.3-0.5-0.5-0.8c-0.1,0-0.2,0-0.3,0.1c0,1.3-0.3,2.7,0,4
			C185.4,128.4,187.2,131.8,188.8,135.3z M182.4,120.2c0.1,0,0.2-0.1,0.3-0.1c0.1-2.1,0.3-4.1,0.2-6.2c0-0.5-0.7-1-1.1-1.5
			c-0.1-0.1-0.6,0.1-0.7,0.2c-0.7,1-1.1,2.1-0.5,3.4c0.3,0.6,0.5,1.3,0.8,2C181.7,118.8,182,119.5,182.4,120.2z M134.3,116.6
			c0,0.1,0,0.1,0,0.2c1.3,0.6,2.6,1.3,3.9,1.8c0.2,0.1,0.6-0.2,0.7-0.4c0.2-0.5,0.4-1.1,0.5-1.7c0.2-0.9-0.1-1.3-0.9-1.1
			C137,115.8,135.6,116.2,134.3,116.6z M187.8,150.3c-0.1-0.1-0.2-0.2-0.3-0.4c-1.4,0.8-2.8,1.5-4.2,2.4c-1,0.7-1.3,1.8-0.8,3
			C184.4,153.7,186.4,152.3,187.8,150.3z M177.7,140.5c-0.1-0.1-0.1-0.2-0.2-0.3c-2.5-1.2-5.1-2.5-7.7-3.7c-0.2-0.1-0.6,0-0.9,0
			C169.2,137.6,176.1,140.7,177.7,140.5z M149.3,109.3c0-0.1-0.1-0.2-0.1-0.3c-0.3,0-0.7,0-1,0c-0.6,0.1-1.2,0.3-1.7,0.2
			c-1-0.3-1.5,0.2-2,0.9c-0.2,0.2-0.2,0.5-0.3,0.7c0.3,0,0.6,0.2,0.9,0.1c1.1-0.3,2.2-0.7,3.2-1.1
			C148.7,109.6,149,109.4,149.3,109.3z M172.7,142.5c0-0.1,0-0.1,0.1-0.2c-0.2-0.1-0.3-0.3-0.5-0.4c-1.4-0.5-2.8-1.1-4.2-1.6
			c-0.2-0.1-0.4-0.1-0.5-0.1c-0.2,0.1-0.4,0.3-0.6,0.4c0.1,0.2,0.2,0.5,0.4,0.6c0.4,0.2,0.8,0.4,1.3,0.5
			C169.9,142,171.3,142.3,172.7,142.5z M39.9,123c0-0.1,0-0.2,0-0.2c-1.9-0.7-5.9-1.2-6.4-0.9c0.3,0.2,0.5,0.5,0.8,0.6
			c0.3,0.2,0.7,0.4,1.1,0.4c1.2,0.1,2.3,0,3.5,0.1C39.3,123,39.6,123,39.9,123z M14.6,146.4c0-1.2-3.4-5-4.9-5.9
			C11.3,142.6,12.7,144.7,14.6,146.4z M125.1,114.3c1.1,1.7,1.5,2.1,3.2,1.4C127.1,115.2,126.1,114.7,125.1,114.3z"/>
	</g>
</g>
</svg>
