<?xml version="1.0" encoding="utf-8"?>
<!-- Generator: Adobe Illustrator 22.1.0, SVG Export Plug-In . SVG Version: 6.00 Build 0)  -->
<svg version="1.1" id="Layer_1" xmlns="http://www.w3.org/2000/svg" xmlns:xlink="http://www.w3.org/1999/xlink" x="0px" y="0px"
	 viewBox="0 0 300 200" style="enable-background:new 0 0 300 200;" xml:space="preserve">
<g id="Design" style="display:none;">
	<g style="display:inline;">
		<path style="fill:#014D41;" d="M738.9,32.3c-0.9-0.4-1.8-0.8-2.7-1.2c-2.4-1-4.9-2-7.3-3c-2.8-1.2-5.7-2.4-8.5-3.5
			c-2.5-1-4.9-2-7.4-3c-3.6-1.5-7.2-3-10.9-4.5c-3.2-1.3-6.5-2.6-9.7-3.9c-5.1-2-10.2-4.1-15.3-6.1c-2.9-1.2-5.8-2.5-8.7-3.6
			c-4-1.6-8-3.2-12.1-4.8c-3.7-1.4-7.3-2.9-10.9-4.4c-4.5-1.8-9-3.5-13.5-5.3c-5-2-9.9-4.2-14.9-6.1c-2.8-1.1-5.7-2.1-8.5-3.1
			c-2.5-0.9-4.2-2.7-5.2-5c-1.3-2.8-2.3-5.7-3.3-8.5c-2-5.2-3.9-10.4-6-15.6c-2.2-5.7-4.4-11.4-6.6-17.1c-1-2.7-1.3-2.7-4.1-2.3
			c-1.1,0.2-2.2,0.3-3.2,0.2c-2.3-0.1-4-1.1-4.9-3.2c-0.4-0.9-0.4-2-0.5-3c-0.5-3.2-1-6.4-1.5-9.6c-0.4-2.4-0.7-4.8-1.2-7.1
			c-0.7-3.4-1.4-6.8-2.2-10.1c-0.8-3.6-1.7-7.2-2.6-10.8c-0.3-1.2-0.7-2.3-0.9-3.5c-0.1-0.4,0-0.9,0.1-1.2c0.9-2.7,1.8-5.4,2.7-8.2
			c2.4-7.8,4.9-15.7,7.3-23.5c1.4-4.4,2.7-8.9,4-13.4c0.5-1.6,0.8-3.3,1.3-5c0.1-0.2,0.4-0.4,0.7-0.4c1.3,0,2.7,0,4,0
			c-0.4,0.2-1,0.3-1.2,0.6c-0.3,0.3-0.3,0.9-0.3,1.3c-0.3,3.2-0.6,6.3-0.9,9.5c0,0.4-0.1,0.8-0.1,1.2c0.1,0,0.1,0,0.2,0.1
			c0.4-1,0.9-1.9,1.3-2.9c1.4-3.1,2.7-6.2,4.1-9.3c0.1-0.2,0.4-0.4,0.6-0.4c0.7-0.1,1.5,0,2.3,0c-1,2.3-2,4.5-3,6.7
			c-1.9,4.3-3.8,8.7-5.7,13c-0.8,1.9-0.7,3.9-0.9,5.9c-0.3,2.7-0.5,5.4-0.7,8.2c0,0.3,0,0.7,0,1c0.1,0,0.2,0.1,0.2,0.1
			c0.3-0.2,0.6-0.4,0.8-0.7c2.6-2.6,5.3-5.2,7.9-7.8c3-2.9,6-5.8,8.9-8.9c3.1-3.2,6-6.6,9-9.9c2.1-2.3,4.3-4.6,6.5-6.9
			c0.5-0.5,1-0.8,1.7-0.7c0.6,0,1.1,0,2,0c-0.8,0.9-1.4,1.6-2,2.3c-2.5,2.7-5.1,5.3-7.5,8c-1.8,1.9-3.4,4-5.1,5.9
			c-1.4,1.5-2.8,3-4.3,4.5c-2.4,2.4-4.9,4.9-7.3,7.3c-2.5,2.5-5,5.1-7.5,7.6c-0.1,0.1-0.2,0.3-0.4,0.5c0,0,0.1,0.1,0.1,0.1
			c0.5-0.4,1-0.8,1.5-1.2c3.7-3.4,7.5-6.8,11.2-10.3c2.3-2.2,4.4-4.6,6.6-6.9c2.7-2.8,5.5-5.6,8.2-8.5c2.8-2.9,5.5-5.8,8.2-8.8
			c0.5-0.5,1-0.5,1.6-0.5c5.1,0,10.2,0,15.2,0c2.6,0,5.2,0,7.8,0c0.3,0,0.7,0.1,1,0.3c2.1,1.3,4.1,2.7,6.2,4
			c1.8,1.1,3.6,2.3,5.5,3.4c0.8,0.5,1.8,0.4,2.6,0c2.2-1,4.4-2.1,6.6-3.2c0.6-0.3,0.8-0.7,0.4-1.3c-0.4-0.7,0-0.9,0.5-1
			c0.7-0.1,1.3-0.1,2,0c1.8,0.2,3.4-0.6,4.9-1.5c1.2-0.7,2.3-0.8,3.6-0.5c-0.7,0.3-1.3,0.7-2,0.9c-0.9,0.4-1.7,0.7-1.7,2
			c0,0.6-0.5,1-1.2,1c-0.7,0-1.5-0.2-2.1,0c-1.1,0.3-2.2,0.7-3.2,1.1c-1.2,0.5-2.3,1.1-3.4,1.6c-1,0.5-2,1-3,1.5
			c-0.8,0.5-0.8,1.1-0.2,1.8c0.3,0.3,0.6,0.6,0.9,0.8c2.4,1.5,4.7,3,7.1,4.6c2.5,1.6,4.9,3.2,7.3,4.8c3.3,2.1,6.6,4.3,9.9,6.5
			c4.2,2.8,8.4,5.5,12.5,8.3c4.1,2.7,8.2,5.6,12.4,8.1c3.2,1.9,6.2,4,9.1,6.2c3.2,2.5,6.8,4.6,10.2,6.8c1.5,1,3.1,2.1,4.6,3.1
			c0.2,0.1,0.4,0.2,0.6,0.2c1.9-0.5,3.7-0.1,5.6,0.4c0.5,0.1,1,0.3,1.4,0.6c1.5,1.2,3,0.7,4.6,0.3c0.1,0,0.2-0.5,0.1-0.6
			c-0.5-0.7-1-1.3-1.5-1.9c-1.1-1.2-2.2-2.3-3.3-3.5c-1.3-1.6-2.4-3.2-3.7-4.8c-1.3-1.6-2.6-3.2-3.9-4.8c-2.6-3.1-5.2-6.1-7.8-9.1
			c-1.7-1.9-3.5-3.7-5.2-5.5c-0.6-0.6-1.1-0.5-1.4,0.3c-0.6,1.8-1.2,3.7-1.9,5.5c-0.4,1.1-0.9,2.1-1.3,3.1c-0.1,0.2-0.1,0.4-0.2,0.6
			c-0.1,0.2-0.3,0.4-0.4,0.6c-0.1-0.2-0.4-0.5-0.4-0.7c0-1.4-0.1-2.8,0.1-4.1c0.2-2,0.5-3.9,0.8-5.8c0.2-1.1,0.5-2.1,0.5-3.2
			c0-0.8-0.5-1.6-0.9-2.3c-2.4-3.1-4.9-6.2-7.3-9.3c-1-1.3-2.3-1.9-3.8-2.2c-1.9-0.3-3.7-1-5.5-1.5c0-0.1,0-0.1,0-0.2
			c0.1,0,0.2-0.1,0.3,0c1.9,0.4,3.9,0.8,5.8,1.3c1.2,0.3,2.2-0.1,3.1-0.9c0.6-0.6,1.1-1.3,1.5-2c0.5-0.9,0.2-1.7-0.4-2.4
			c-1.8-2.3-3.6-4.5-5.4-6.8c-0.1-0.1-0.2-0.3-0.3-0.4c1.4-0.5,2.6-0.2,3.4,0.8c1.1,1.4,2.2,2.8,3.3,4.3c0.7,0.9,1.3,0.9,1.9-0.1
			c0.8-1.5,1.7-3,2.6-4.5c0.2-0.4,0.6-0.7,1.1-0.6c0.6,0,1.2,0,2,0c-0.5,0.8-0.8,1.4-1.2,2c-1.1,1.7-2.1,3.5-3.2,5.2
			c-0.4,0.6-0.4,1.2,0,1.7c1.5,1.9,3,3.7,4.5,5.5c0.4,0.4,0.8,0.2,1-0.5c0.1-0.6,0.2-1.2,0.3-1.9c0.6-3.5,1.1-7.1,1.7-10.6
			c0.2-1.2,0.5-1.5,1.7-1.5c1.6,0,3.1,0,4.7,0c0.6,0,0.8,0.2,0.7,0.8c-0.6,2-1.2,4.1-1.8,6.1c-0.3,1.1-0.5,2.3-0.8,3.5
			c-0.3,1.3-0.7,2.6-1,3.8c-0.5,1.8-1,3.6-1.3,5.4c-0.1,0.5,0.1,1.3,0.5,1.8c1.9,2.8,3.8,5.5,5.8,8.2c3.2,4.2,6.4,8.4,9.6,12.6
			c1.6,2.1,3.3,4.1,4.9,6.1c0.3,0.3,0.6,0.5,0.8,0.7c0.4-0.4,0.7-0.8,1-0.9c1.9-0.4,3.2-1.7,4.5-3c1.2-1.2,2.3-2.5,4-3.1
			c0.2-0.1,0.4-0.7,0.4-1c-0.3-1.4-0.6-2.8-1-4.2c-1.3-3.9-2.7-7.8-4.1-11.6c-1.2-3.4-2.5-6.8-3.7-10.2c-1.3-3.5-2.6-7.1-3.9-10.6
			c-0.5-1.2-1-2.4-1.5-3.7c-0.1-0.2-0.1-0.3-0.2-0.7c1.2,0,2.2-0.1,3.3,0c0.3,0,0.6,0.6,0.8,1c0.4,0.8,0.6,1.6,0.9,2.5
			c1.7,5,3.5,9.9,5.2,14.9c1.9,5.5,3.8,11,5.7,16.5c0.4,1.3,1,2.5,1.5,3.8c0.1,0.2,0.4,0.4,0.7,0.4c0.2,0,0.5-0.1,0.9-0.1
			c0,4.5,0,9,0,13.5c-0.6-1.4-1.2-2.8-1.8-4.2c-0.1-0.3-0.2-0.5-0.3-0.8c-0.4-0.9-0.7-0.9-1.5-0.3c-0.7,0.5-1.5,0.8-2.3,1.2
			c-1.1,0.5-2.3,1-3.2,1.6c-0.9,0.7-1.7,1.6-2.5,2.4c-0.1,0.1-0.1,0.5,0.1,0.6c1.1,1.6,2.3,3.1,3.5,4.7c0.1,0.2,0.4,0.3,0.6,0.3
			c1-0.1,2.1-0.2,3-0.5c1.3-0.4,2.6-0.9,3.9-1.4c0.2-0.1,0.4,0,0.7-0.1c0,1.4,0,2.7,0,4c0,0.1-0.3,0.3-0.5,0.4
			c-1.3,0.4-2.6,0.8-3.8,1.3c-0.6,0.2-0.3,0.6-0.1,0.9c1.1,1.6,2.2,3.3,3.4,4.8c0.9,1.1,1.3,2.1,1.2,3.5c-0.1,1.3,0,2.5-0.2,3.9
			c-0.9-1.1-1.7-2.2-2.7-3.2c-2.4-2.7-4.9-5.4-7.3-8c-0.3-0.4-0.7-0.6-1.2-0.4c-0.3,0.1-0.7,0-1.1-0.1c-0.2,0-0.4-0.1-0.5,0
			c-0.6,0.7-1.5,0.4-2.2,0.6c-0.5,0.2-1,0.1-1.4-0.4c-0.3-0.4-0.7-0.3-1,0c-0.3,0.3-0.4,0.7,0,1c1,0.9,2,1.8,3.1,2.6
			c4.6,3.3,9.3,6.6,13.9,9.9c0.5,0.4,0.8,0.8,0.7,1.4c-0.1,1,0,2.1,0,3.3c-0.6-0.4-1.1-0.8-1.6-1.1c-5.4-3.7-10.8-7.5-16.2-11.2
			c-1.5-1-3.2-1.9-4.8-2.9c-0.5-0.3-1-0.4-1.5,0c-0.5,0.3-1,0.4-1.5,0.6c-1.7,0.7-3.4,1.3-5.1,2c-0.3,0.1-0.5,0.5-0.7,0.7
			c0.3,0.2,0.5,0.5,0.8,0.7c2.9,1.2,5.9,2.4,8.8,3.6c7,2.8,13.9,5.7,20.9,8.5c0.7,0.3,0.9,0.7,0.9,1.4c0,2.6,0,5.2,0,7.8
			c-1.1,0-2.2,0.1-3.4,0.1c-5.2,0.1-10.4,0.1-15.5,0.3c-9.3,0.3-18.7,0.7-28,1c-4.5,0.2-8.9,0.4-13.4,0.6c-4.9,0.2-9.8,0.4-14.6,0.7
			c-6.3,0.3-12.6,0.6-18.9,1c-3.9,0.2-7.8,0.4-11.7,0.6c-0.2,0-0.4,0-0.6,0.1c-0.5,0.1-0.7,0.4-0.3,0.8c0.8,0.7,1.6,1.5,2.5,2.1
			c3.9,2.9,7.7,5.8,11.6,8.7c3.4,2.6,6.8,5.1,10.2,7.7c1.4,1.1,2.9,2.1,4.3,3.3c0.7,0.6,1.5,0.7,2.3,0.5c2.6-0.8,5.3-1.7,7.9-2.5
			c12.3-4,24.5-8,36.8-12.1c10-3.3,19.9-6.7,29.9-10c0.2-0.1,0.5-0.1,0.9-0.3c0,0.7,0.1,1.2,0,1.8c0,0.2-0.4,0.5-0.7,0.6
			c-5.1,1.7-10.3,3.4-15.4,5.1c-8.9,2.9-17.8,5.9-26.7,8.8c-8.2,2.7-16.4,5.3-24.6,8c-1.7,0.5-3.4,1.1-5.1,1.7
			c-0.5,0.2-0.8,0.6-1.3,0.9c0.3,0.4,0.6,0.8,0.9,1.1c2.4,1.8,5.1,2.7,8,2.9c4.3,0.3,8.7,0.5,13,0.8c2.3,0.1,4.5,0.2,6.8,0.4
			c3.6,0.2,7.3,0.4,10.9,0.6c2.2,0.1,4.5,0.2,6.7,0.3c1,0.1,1.8-0.2,2.6-0.9c2.3-2.1,4.5-4.1,6.8-6.2c4.8-4.5,9.6-9,14.3-13.5
			c1-1,2-1.9,3.1-2.9c0.2-0.2,0.3-0.3,0.7-0.5c0,1.1,0,1.9,0,2.8c0,0.3-0.3,0.6-0.5,0.8c-3,2.8-6,5.7-9,8.5
			c-3.5,3.3-7.1,6.6-10.6,9.9c-0.4,0.4-0.7,0.9-1,1.4c-0.3,0.5-0.1,0.9,0.6,0.9c2.3,0.1,4.5,0.2,6.8,0.3c2,0.1,4.1,0.4,6.1,0.5
			c1.1,0.1,2.2,0.1,3.3,0.1c1.2,0.1,2.4,0.2,3.6,0.3c0.9,0.1,0.5,0.9,0.5,1.3c0.1,0.5-0.3,0.6-0.7,0.5c-4.8-0.3-9.5-0.6-14.3-0.9
			c-2.4-0.2-4.9-0.4-7.3-0.6c-1.3-0.1-2.3,0.3-3.2,1.1c-2.3,2.1-4.6,4.2-7,6.3c-2,1.8-4,3.5-6,5.3c-0.5,0.4-1,0.9-1.5,1.4
			c-0.6,0.6-0.7,1.1-0.2,1.8c0.8,1.2,1.7,2.3,2.5,3.5c1.9,2.8,3.9,5.7,5.8,8.6c2.4,3.5,4.7,6.9,7.1,10.4c1.4,2.1,2.8,4.2,4.2,6.4
			c1.9,2.8,3.7,5.6,5.6,8.4c2.3,3.5,4.6,7.1,7,10.6c1.2,1.7,2.3,3.5,3.5,5.2c0.3,0.5,0.6,1.1,0.9,1.7c-1.5,0-3.1,0-4.6,0
			c-0.2-0.3-0.4-0.7-0.6-0.9c-3-3.5-6-7-8.9-10.5c-3.1-3.6-6.2-7.3-9.4-10.9c-3.5-4.1-7.1-8.1-10.6-12.2c-2.6-3-5.2-6-7.8-9
			c-2-2.2-3.9-4.5-5.9-6.7c-0.9-1.1-1.9-2.2-2.8-3.3c-1.4-1.7-3.4-1.7-5.3-1.6c-3.1,0.1-6.2,0.2-9.3,0.3c-4.2,0.1-8.3,0.2-12.5,0.3
			c-5.8,0.2-11.6,0.3-17.4,0.5c-4,0.1-8.1,0.2-12.1,0.3c-5.8,0.2-11.7,0.4-17.5,0.5c-5.2,0.1-10.4,0.1-15.5,0.2
			c-0.5,0-1.1,0-1.6,0.1c-0.2,0-0.6,0.2-0.7,0.4c-0.1,0.2,0.1,0.6,0.3,0.7c0.4,0.3,0.8,0.6,1.3,0.8c1.9,0.8,3.8,1.5,5.6,2.2
			c5.3,2.1,10.6,4.2,15.9,6.3c5.8,2.3,11.6,4.7,17.4,7c4.7,1.9,9.4,3.8,14.1,5.6c4,1.6,7.9,3.1,11.9,4.7c3.1,1.3,6.2,2.6,9.3,3.8
			c2.3,0.9,4.6,1.8,6.9,2.8c2.9,1.2,5.8,2.4,8.7,3.6c2.2,0.9,4.4,1.7,6.6,2.6c1.5,0.6,3,1.3,4.5,1.9c3.1,1.3,6.2,2.5,9.3,3.7
			c1,0.4,1.9,0.8,2.9,1.2c1.6,0.6,3.2,1.2,4.8,1.8c1.9,0.8,3.8,1.6,5.6,2.4c0.9,0.4,1.8,0.9,2.7,1.4
			C741.5,32.3,740.2,32.3,738.9,32.3z M730.4-106.5c-0.2-0.2-0.3-0.4-0.5-0.6c-1.6-1.2-3.1-2.4-4.7-3.5c-2.3-1.5-4.7-2.8-6.9-4.4
			c-2.8-1.9-5.5-3.9-8.2-5.8c-4.2-2.9-8.5-5.8-12.8-8.6c-3.9-2.6-7.9-5.2-11.8-7.8c-3.8-2.5-7.6-5-11.4-7.4c-4.1-2.7-8.2-5.3-12.4-8
			c-1.4-0.9-2.7-1.8-4.2-2.6c-0.6-0.3-1.5-0.7-1.9-0.5c-0.9,0.4-1.7,1.2-2.4,2c-0.4,0.4-0.2,1.1,0.2,1.5c0.6,0.6,1.2,1.2,1.8,1.8
			c1.6,1.6,3.2,3.3,4.7,4.9c1.4,1.5,2.9,3,4.3,4.5c0.6,0.6,1.2,1.3,1.8,1.9c1.2,1.4,2.3,2.8,3.5,4.2c0.2,0.3,0.2,0.7,0.3,1
			c-0.3-0.1-0.7-0.1-1-0.3c-0.1,0-0.1-0.2-0.2-0.2c-0.8-0.7-1.7-1.4-2.5-2.1c-1.2-1-2.5-1.9-3.7-2.9c-1.5-1.3-2.9-2.6-4.3-3.9
			c-1-0.9-2.1-1.8-3.2-2.8c-1.6-1.5-3.1-3.1-4.6-4.6c-0.3-0.3-0.8-0.5-1.2-0.5c-1.8-0.1-3.5,0-5.1,1c-1.1,0.7-1.4,1.5-0.8,2.7
			c0.9,1.6,1.7,3.3,2.6,4.9c1.3,2.4,2.5,4.9,3.7,7.3c1.1,2.2,2.3,4.5,3.4,6.8c0.5,1.1,1.3,1.9,2.4,2.3c5.6,2.1,11.2,4.3,16.8,6.4
			c4,1.5,8,3,12,4.6c1.9,0.7,3.8,1.1,5.7,1.7c3.2,1,6.3,2.5,9.5,3.8c2.7,1.1,5.3,2.3,8,3.4c2.3,0.9,4.8,1.6,7.1,2.5
			c1.6,0.6,3.2,1.3,4.8,2c0.3,0.1,0.6,0.1,0.9,0c0.8-0.3,1.5-0.7,2.3-1.1C725-104.2,727.6-105.4,730.4-106.5z M609-24.1
			c0.5-0.1,0.8-0.1,1-0.2c2-0.7,4.1-1.3,6.1-2c4.6-1.4,9.2-2.9,13.8-4.3c6.2-2,12.4-3.9,18.5-5.9c5.8-1.8,11.6-3.7,17.5-5.5
			c4.3-1.4,8.6-2.7,12.9-4.1c0.7-0.2,1.4-0.5,2-0.8c1.1-0.5,1.1-0.9,0.1-1.7c-1.5-1.1-3.1-2.3-4.6-3.4c-4.5-3.4-9.1-6.8-13.6-10.3
			c-2.9-2.2-5.8-4.3-8.7-6.5c-1.8-1.4-3.6-2.7-6.1-2.6c-0.7,0-1.3,0.1-1.8,0.6c-0.3,0.3-0.6,0.7-0.9,1c-3,3.7-6,7.4-9.1,11.1
			c-6.1,7.3-12.3,14.7-18.4,22c-3,3.6-6.2,7.1-9.2,10.7c-0.3,0.3-0.6,0.9-0.5,1.2C608.1-24.4,608.8-24.2,609-24.1z M703.4-93.6
			c0-0.9-0.1-1.5,0-2.2c0.1-0.7,0.1-1.5,0.4-2.1c0.9-1.5,1.9-2.9,2.9-4.3c0.5-0.8,0.5-1-0.4-1.3c-1.3-0.5-2.7-0.9-4-1.4
			c-3.3-1.2-6.6-2.5-9.8-3.8c-3-1.2-6-2.7-9.1-3.9c-9.1-3.6-18.1-7.1-27.2-10.7c-2-0.8-4-1-6.2-0.8c-3.7,0.5-7.4,0.9-11.2,1.3
			c-3,0.4-5.9,0.7-8.9,1.1c-1.5,0.2-1.9,0.4-2.1,2c-0.6,3.6-1.1,7.1-1.7,10.7c-0.3,2-0.3,2.1,1.8,2.4c7.1,1.2,14.3,2.4,21.4,3.6
			c10.6,1.8,21.1,3.7,31.7,5.5c6.4,1.1,12.7,2.2,19.1,3.3C701.1-94,702.2-93.8,703.4-93.6z M748-81.2c0,0,0-0.1,0-0.1
			c-0.1,0-0.2-0.1-0.3-0.1c-8.2-1.5-16.3-3.1-24.5-4.5c-4.6-0.8-9.3-1.6-13.9-2.4c-0.5-0.1-1.1-0.1-1.6,0.1
			c-1.9,0.7-3.7,1.5-5.6,2.3c-0.6,0.2-1,0-1-0.7c0-0.7-0.1-1.5,0-2.2c0.2-0.8-0.2-1-0.9-1.1c-1.5-0.3-3.1-0.5-4.6-0.8
			c-2.5-0.5-5-1.1-7.5-1.6c-17.7-3.2-35.4-6.3-53.1-9.5c-2.7-0.5-5.4-1-8.1-1.4c-1.4-0.2-1.6-0.1-1.7,1.2c-0.3,1.8-0.5,3.5-0.8,5.3
			c-0.2,1.5-0.3,1.5,1.1,2c3.5,1.4,6.9,2.7,10.4,4.1c1.5,0.6,3,1.3,4.5,2.1c0.6,0.3,1.2,0.6,1.9,0.7c3.2,0.2,6.5,0.5,9.7,0.7
			c4.7,0.3,9.5,0.7,14.2,1c3.3,0.2,6.6,0.3,9.9,0.6c6.1,0.4,12.1,0.8,18.2,1.2c5.1,0.3,10.2,0.6,15.3,0.9c6.7,0.4,13.4,0.8,20.1,1.2
			c4,0.2,8,0.5,11.9,0.8C743.7-81.5,745.8-81.3,748-81.2z M663.9-23.1C663.9-23.1,663.9-23.1,663.9-23.1c1.3,0,2.5-0.1,3.8-0.2
			c5.1-0.2,10.1-0.3,15.2-0.5c5.4-0.2,10.9-0.3,16.3-0.5c0.9,0,1.8-0.1,2.7-0.4c0.8-0.2,1-0.9,0.5-1.5c-1.4-1.7-2.8-3.4-4.2-5.1
			c-1.9-2.2-3.9-4.3-5.8-6.5c-1.9-2.2-4.2-3.2-7.1-2.4c-2.5,0.7-5.1,1.2-7.7,1.8c-3.4,0.8-6.8,1.5-10.2,2.3
			c-3.6,0.8-7.2,1.7-10.8,2.6c-5.7,1.3-11.3,2.7-17,4c-3.4,0.8-6.8,1.7-10.2,2.5c-3.4,0.8-6.8,1.5-10.3,2.3c-1.7,0.4-3.4,0.8-5,1.3
			c-0.3,0.1-0.5,0.4-0.7,0.6c0.3,0.1,0.5,0.4,0.8,0.4c1.7,0.1,3.3,0.3,5,0.3c5.4-0.1,10.8-0.3,16.2-0.4c3.2-0.1,6.3-0.1,9.5-0.2
			C651.2-22.8,657.5-23,663.9-23.1z M643.4-71.1c-0.4,0-0.6-0.1-0.8,0c-5.4,0.2-10.8,0.5-16.2,0.7c-2.1,0.1-4.2,0.1-6.3,0.2
			c-2,0.1-2.6,0.5-3.1,2.4c-0.7,2.5-1.3,4.9-1.9,7.4c-1.3,5.1-2.5,10.3-3.8,15.4c-1.2,4.9-2.4,9.7-3.5,14.6
			c-0.1,0.5-0.5,1.2,0.2,1.6c0.7,0.3,1.1-0.3,1.5-0.8c1.4-1.6,2.7-3.2,4-4.8c4.2-5,8.3-9.9,12.4-14.9c5.4-6.6,10.8-13.2,16.3-19.9
			C642.6-69.8,642.9-70.4,643.4-71.1z M583.5-82.5c0,0,0.1,0,0.1,0.1c0,0.2,0,0.5,0.1,0.7c0.8,2.2,1.7,4.4,2.6,6.6
			c0.4,1,0.8,1,1.9,0.8c2.8-0.7,5.6-1.5,8.5-2.2c3.9-1,7.8-1.9,11.7-2.9c2.7-0.7,5.5-1.4,8.2-2.1c1.2-0.3,2.1-1,2.3-2.4
			c0.2-0.9,0.4-1.8,0.7-2.7c0.2-0.8,0-1.2-0.7-1.5c-0.2-0.1-0.4-0.2-0.6-0.3c-7.6-3.8-15.1-7.6-22.7-11.4c-0.6-0.3-1.3-0.6-2-0.7
			c-0.3-0.1-0.8,0.2-0.9,0.4c-1,1.8-2,3.6-2.9,5.5c-1.7,3.3-3.5,6.7-5.2,10C584.2-83.9,583.9-83.2,583.5-82.5z M595.9-69.5
			C595.9-69.5,595.9-69.4,595.9-69.5c-1.6,0.1-3.1,0-4.7,0.1c-2.4,0.1-2.4,0.2-1.6,2.5c1.4,3.7,2.9,7.4,4.3,11.1
			c3.2,8.5,6.3,17,9.5,25.5c0.2,0.5,0.4,1.3,1.1,1.2c0.7,0,0.8-0.8,0.9-1.3c0.9-3.6,1.7-7.1,2.5-10.7c0.9-3.7,1.7-7.5,2.7-11.2
			c1.2-4.9,2.6-9.8,3.8-14.7c0.1-0.5,0.2-0.9,0.3-1.4c0-1.1-0.3-1.4-1.4-1.4c-0.9,0-1.8,0.1-2.7,0.1
			C605.7-69.7,600.8-69.6,595.9-69.5z M712.3-24.6C712.3-24.6,712.3-24.6,712.3-24.6c1.4,0,2.7,0,4.1,0c1,0,1.9-0.2,2.6-0.9
			c1.4-1.3,2.9-2.5,4.4-3.8c2.4-2.1,4.8-4.3,7.1-6.5c0.6-0.6,1.2-1.3,1.7-2.1c0.4-0.6,0.1-1-0.6-1c-2-0.1-4.1-0.2-6.1-0.3
			c-1.9-0.1-3.7-0.2-5.6-0.4c-3.8-0.2-7.6-0.5-11.4-0.7c-2.9-0.2-5.8-0.4-8.7-0.6c-1.7-0.1-3.5-0.2-5.3-0.2c-0.5,0-1.2,0.3-1.5,0.7
			c-0.2,0.2,0.3,0.9,0.5,1.4c0.1,0.2,0.3,0.4,0.5,0.6c3.7,4.1,7.4,8.3,11.1,12.4c0.8,0.9,1.8,1.4,3,1.4
			C709.5-24.6,710.9-24.6,712.3-24.6z M622.7-165.7c-0.1-0.1-0.2-0.1-0.2-0.2c-0.3,0.2-0.7,0.4-1,0.7c-1.9,1.9-3.7,3.8-5.6,5.8
			c-1.4,1.4-2.8,2.9-4.2,4.3c-2.9,3-5.6,6.1-8.5,9c-3.7,3.7-7.5,7.2-11.3,10.8c-2.7,2.5-5.4,5-8.1,7.4c-1.6,1.4-2.7,3-2.8,5.2
			c0,0.8,0.3,1.1,1.1,0.8c0.4-0.1,0.8-0.3,1.2-0.5c1.5-0.7,2.9-1.4,4.4-2.1c4.8-2.3,9.7-4.6,14.4-7c3.3-1.7,6-4.1,7.5-7.7
			c0.8-2,1.9-3.9,2.9-5.9c2-4,4-8,6.1-12.1c1.2-2.5,2.5-4.9,3.7-7.4C622.4-164.9,622.6-165.3,622.7-165.7z M630.3-124.5
			c1.4-0.2,3.1-0.4,4.8-0.6c4.8-0.6,9.6-1.3,14.5-1.9c1.4-0.2,1.6-0.7,1-2c-0.5-1-1-2-1.6-3.1c-1.9-3.6-3.8-7.3-5.7-10.9
			c-0.7-1.3-1.3-2.6-2-3.8c-0.6-1.1-1.6-1.6-2.7-0.9c-1.7,0.9-3.4,1.7-5.1,2.5c-1.8,0.8-2.9,2.1-2.9,4.2c-0.1,1.7-0.3,3.4-0.5,5.2
			c-0.4,3.3-0.9,6.7-1.3,10C628.6-124.8,629-124.4,630.3-124.5z M605.4-121.4c0.2,0,0.5,0,0.8,0c3.1-0.4,6.2-0.8,9.3-1.2
			c3.2-0.4,6.3-0.8,9.5-1.2c1.3-0.2,1.6-0.6,1.8-1.9c0.4-3.4,0.8-6.8,1.2-10.2c0.2-1.7,0.5-3.4,0.7-5.1c0.1-0.9-0.3-1.3-1.2-1.2
			c-0.3,0-0.6,0.1-0.8,0.2c-2.5,1.2-4.9,2.4-7.4,3.6c-2.8,1.3-5.6,2.7-8,4.7c-0.8,0.6-1.7,1.2-2.2,2c-1.7,2.9-3.1,5.9-4.7,8.8
			C603.5-121.5,603.6-121.4,605.4-121.4z M695.7-81.7c0-0.1,0-0.2-0.1-0.3c-1.8-0.1-3.5-0.2-5.3-0.3c-7.5-0.5-14.9-1-22.4-1.5
			c-7.3-0.5-14.7-1-22-1.5c-1.6-0.1-3.3,0.2-4.9-0.1c-1.5-0.2-2.7,0.4-4,0.7c-0.2,0-0.4,0.2-0.4,0.4c0,0.1,0.2,0.4,0.3,0.5
			c0.8,0.4,1.5,1,2.3,1.3c1.6,0.6,2.9,1.6,4,2.9c0.7,0.8,1.6,1.7,2.6,2.2c1.1,0.5,2.3,0.9,3.5,0.9c1.7,0,3.4-0.4,5-0.5
			c4.5-0.4,8.9-0.9,13.4-1.3c3.2-0.3,6.5-0.6,9.7-0.9c3.5-0.3,7-0.7,10.5-1c1.9-0.2,3.7-0.4,5.6-0.6C694.3-81.2,695-81.5,695.7-81.7
			z M622.7-107.5c0.9,0.1,1.2-0.3,1.3-1.1c0.3-1.9,0.6-3.9,1-5.8c0.3-1.6,0.6-3.3,0.9-4.9c0.2-1.3-0.2-1.8-1.5-1.7
			c-0.6,0.1-1.1,0.1-1.7,0.2c-5.1,0.6-10.3,1.2-15.4,1.8c-1.6,0.2-3.3,0.7-4.9,1.1c-0.3,0.1-0.7,0.4-0.8,0.7c-0.7,1.2-1.4,2.4-2,3.6
			c-1.1,2.2-1.4,2.1,1.4,2.6c4,0.7,8.1,1.3,12.2,2C616.3-108.5,619.5-108,622.7-107.5z M713.2-23.3c-1.2,0.1-2.1,0.2-2.9,0.4
			c-1.2,0.3-1.4,0.9-0.6,1.8c1.7,2,3.4,3.9,5,5.8c2.6,3,5.3,6.1,7.9,9.1c2.7,3.1,5.3,6.2,8,9.2c2.8,3.2,5.7,6.4,8.6,9.5
			c0.4,0.4,0.9,0.8,1.4,1.1c0.2,0.1,0.5,0.1,0.6,0c0.1-0.1,0.2-0.4,0.2-0.6c-0.1-0.5-0.3-0.9-0.5-1.3c-1.4-2.5-2.8-5-4.4-7.4
			c-1.4-2.2-3-4.4-4.4-6.6c-2-3-4-6.1-6-9.1c-2-2.9-3.9-5.9-6-8.7c-0.7-1-1.3-2.1-2.5-2.5C716.1-22.8,714.5-23,713.2-23.3z
			 M611.8-136.9c0,0.1,0.1,0.2,0.1,0.3c0.7-0.2,1.4-0.4,2-0.6c2.5-1.1,5-2.2,7.4-3.5c2.6-1.4,5.4-2.2,7.6-4.3
			c0.9-0.8,1.3-1.7,1.2-2.9c-0.1-2.1-0.2-4.2-0.3-6.4c-0.2-3-0.3-6.1-0.5-9.1c-0.1-1-0.2-1.9-0.4-2.8c0-0.3-0.3-0.5-0.5-0.8
			c-0.2,0.2-0.5,0.3-0.6,0.5c-0.3,0.5-0.5,1-0.8,1.4c-1.1,1.9-2.3,3.7-3.3,5.6c-1.9,3.4-3.7,6.9-5.5,10.3c-1.8,3.4-3.6,6.7-5.4,10.1
			C612.5-138.4,612.2-137.6,611.8-136.9z M582.1-85.5c0.3-0.5,0.5-0.7,0.7-1c0.7-1.4,1.3-2.9,2.1-4.3c1.6-3.1,3.2-6.1,4.9-9.2
			c1-1.9,0.9-2.3-1-3.3c-2.4-1.2-4.7-2.4-7.1-3.6c-1.7-0.9-1.9-0.7-2,1.2c-0.2,2.7-0.4,5.4-0.6,8.1c-0.1,1.8-0.6,3.5,0.2,5.2
			c0.6,1.3,1.1,2.8,1.6,4.1C581.2-87.3,581.6-86.5,582.1-85.5z M622.1-96.1c0.3-2.2,0.6-4.2,0.8-6.2c0.2-1.5,0.1-1.6-1.4-1.9
			c-0.2,0-0.3-0.1-0.5-0.1c-5.7-1-11.4-2-17-2.9c-1.9-0.3-3.9-0.6-5.8-0.9c-1.1-0.2-2,0.1-2.3,1.6
			C604.6-103.1,613.3-99.6,622.1-96.1z M683.8-45.6c-0.4,0.1-1,0.2-1.5,0.4c-2.7,0.8-5.4,1.7-8.1,2.5c-6.9,2.2-13.7,4.4-20.6,6.6
			c-2.8,0.9-5.5,1.9-8.3,2.9c-0.2,0.1-0.4,0.3-0.5,0.5c0.3,0.1,0.5,0.2,0.8,0.2c2.4-0.5,4.8-0.9,7.2-1.5c3.3-0.8,6.6-1.6,9.9-2.4
			c3.4-0.8,6.7-1.4,10.1-2.2c3.7-0.8,7.4-1.7,11.1-2.6c0.8-0.2,1.6-0.4,2.4-0.7c0.7-0.3,1-1.1,0.7-1.7
			C686.6-44.6,685-45.6,683.8-45.6z M581.9-118.5c0.2,0,0.4,0,0.6,0c3.6-0.4,7.3-0.8,10.9-1.3c1.9-0.3,3.9-0.7,5.8-1.1
			c1-0.2,1.7-0.8,2.1-1.9c0.5-1.4,1.3-2.8,2-4.2c0.5-1,1.1-1.9,1.6-2.9c0.1-0.2,0.1-0.5,0.2-0.8c-0.3,0-0.6-0.1-0.9,0
			c-1.2,0.5-2.4,1-3.5,1.5c-5.6,2.7-11.3,5.5-16.9,8.2c-1,0.5-1.9,0.9-2.6,1.8c-0.3,0.4-0.3,0.7,0.2,0.8
			C581.5-118.6,581.7-118.6,581.9-118.5z M642.4-76.2c-0.7-0.4-1.4-0.8-2-1.1c-2.7-1.4-5.4-2.7-8.1-4.1c-0.7-0.3-1.4-0.7-2.1-1
			c-0.3-0.1-0.7-0.1-1.1,0c-1.6,0.5-3.2,1-4.8,1.4c-1,0.3-2,0.6-3,0.9c-0.3,0.1-0.7,0.5-0.8,0.8c0,0.2,0.5,0.5,0.6,0.6
			c-0.1,0.3-0.2,0.7-0.3,1c-0.1,0.3-0.1,0.6-0.2,0.8c-0.4,0.7-0.3,0.9,0.5,1c0.5,0,1.1-0.1,1.6-0.1c1.4,0.1,2.7,0.4,4.1,0
			c0.4-0.1,0.9,0,1.3,0c0.7,0.1,1.5,0.2,2.2,0.2c1.7,0,3.3-0.1,5-0.2C637.6-76,639.9-76.1,642.4-76.2z M595.2-103.6
			c-0.4,0.2-0.8,0.3-1.1,0.5c0.2,0.3,0.4,0.7,0.6,0.9c0.5,0.4,1,0.7,1.6,1c7.5,3.7,14.9,7.4,22.4,11.1c1.6,0.8,1.6,0.8,2-1
			c0.4-1.8-0.1-2.8-1.8-3.5c-1.7-0.7-3.4-1.3-5-2c-5-1.9-9.9-3.9-14.9-5.8C597.7-102.8,596.5-103.2,595.2-103.6z M631.6-159.1
			c0.1,0,0.2,0,0.3,0c0,2.3,0,4.6,0,6.8c0,1.4,0.1,2.7,0.2,4.1c0.1,1.3,0.9,1.8,2.1,1.3c1.4-0.6,2.8-1.4,4.2-2c0.8-0.4,1-1,0.7-1.7
			c-0.4-1-0.8-1.9-1.3-2.8c-1.1-2.2-2.3-4.4-3.5-6.5c-0.5-0.9-1.1-1.7-1.8-2.5c-0.1-0.2-0.5-0.2-0.8-0.2c-0.1,0-0.1,0.4-0.2,0.6
			C631.6-161.1,631.6-160.1,631.6-159.1z M745-115.4c-0.1-0.2-0.1-0.5-0.2-0.7c-0.8-1.2-1.7-2.5-2.6-3.6
			c-5.8-7.5-11.5-14.9-17.3-22.4c-0.2-0.3-0.7-0.7-1-0.6c-0.3,0.1-0.7,0.6-0.8,1c-0.1,0.3,0,0.8,0.2,1.1c0.3,0.6,0.7,1.2,1,1.8
			c1.3,2.3,3,4.2,4.7,6.2C734.1-126.8,739-120.6,745-115.4z M712.8-77.5c-0.1,0-0.2-0.1-0.3-0.1c-2.5-0.1-5-0.2-7.5-0.3
			c-1.5-0.1-3-0.2-4.5-0.2c-1.6,0-3.2-0.2-4.7,0c-1.5,0.2-3,0.2-4.5,0.1c-1.3-0.1-2.5-0.2-3.8-0.1c-3.8,0.3-7.6,0.7-11.4,1.1
			c-3.3,0.3-6.7,0.7-10,1c-2.3,0.2-4.5,0.4-6.8,0.5C677.1-75.9,695-75.6,712.8-77.5z M596.7-117.8c-0.2,0-0.6,0-0.9,0.1
			c-4.5,0.5-8.9,1-13.4,1.6c-0.5,0.1-1.1,0.3-1.6,0.5c-0.6,0.3-0.6,0.7,0,1c0.4,0.2,0.9,0.4,1.3,0.5c1.2,0.2,2.4,0.4,3.5,0.6
			c2.8,0.4,5.5,0.9,8.3,1.2c1,0.1,2,0,2.5-1.1c0.5-1,1-2,1.6-3c0.6-1.2,0.5-1.4-0.9-1.4C597-117.8,596.9-117.8,596.7-117.8z
			 M634.5-165.4c-0.1,0.1-0.2,0.1-0.3,0.2c0.2,0.4,0.3,0.9,0.5,1.3c1,2,2.1,4.1,3.1,6.1c1,1.9,2,3.8,3,5.6c0.6,1,1.3,1.3,2.3,0.9
			c0.6-0.2,1.2-0.5,1.8-0.9c1.6-1,1.6-2.1,0.3-3.4c-2.7-2.4-5.3-4.9-7.9-7.4C636.4-163.8,635.4-164.6,634.5-165.4z M576.5-98.4
			c0.1-0.3,0.2-0.4,0.2-0.5c0.2-2.9,0.3-5.8,0.5-8.7c0-0.7-0.2-1.3-0.8-1.6c-1.7-1-3.5-1.8-5.2-2.7c-0.2-0.1-0.6,0-0.8,0.1
			c-0.1,0.2-0.1,0.6,0,0.8c1.8,3.9,3.7,7.9,5.6,11.8C576-99,576.2-98.8,576.5-98.4z M711.6-153.5c0.1,0.2,0.2,0.6,0.4,0.9
			c1.7,2,3.3,3.9,5.1,5.8c0.4,0.4,0.9,0.7,1.4,1c0.2,0.1,0.6,0,0.8-0.1c0.4-0.4,0.4-2.4,0.1-2.8c-1.1-1.6-2.1-3.2-3.3-4.8
			c-0.7-0.9-1.4-1.8-2.2-2.6c-0.2-0.2-0.9-0.4-0.9-0.2C712.4-155.6,711.6-154.9,711.6-153.5z M579.8-140c0,0-0.1,0-0.1,0
			c-0.1,0.1-0.1,0.2-0.2,0.3c-2.4,5.2-4.8,10.4-7.2,15.5c-0.2,0.4-0.3,0.9-0.4,1.4c0.1,0,0.1,0.1,0.2,0.1c0.2-0.2,0.4-0.3,0.6-0.5
			c1.3-1.3,2.6-2.6,4-3.9c1.6-1.6,2.7-3.5,2.6-5.9c0-0.3,0-0.5,0.1-0.8C579.5-135.9,579.6-137.9,579.8-140z M639.4-166.8
			c0,0-0.1,0.1-0.1,0.1c0,0.1,0.1,0.2,0.1,0.3c1.4,1.4,2.7,2.7,4.1,4.1c0.9,0.9,1.9,1.9,2.8,2.8c0.8,0.8,1.6,1.7,2.5,2.6
			c0.3,0.2,0.6,0.5,1,0.5c1.1,0,2.2,0,3.3-0.1c0.8-0.1,1-0.6,0.4-1.2c-0.3-0.3-0.6-0.6-0.9-0.9c-4.1-2.6-8.2-5.1-12.3-7.7
			C640-166.5,639.7-166.6,639.4-166.8z M745.6-87.9c0-0.1,0-0.1,0.1-0.2c-0.2-0.1-0.5-0.2-0.7-0.3c-2.7-1.1-5.4-2.2-8.1-3.2
			c-3.2-1.2-6.5-2.4-9.7-3.6c-0.2-0.1-0.8,0-0.8,0.1c-0.1,0.5-0.2,1,0,1.4c0.7,2,2.4,2.5,4.2,2.8c3.3,0.6,6.6,1.2,9.9,1.8
			C742.2-88.8,743.9-88.3,745.6-87.9z M740.3-79.3c0,0,0-0.1,0-0.1c-13.1-0.8-26.2-1.5-39.4-2.3c0,0.1,0,0.2,0,0.3
			c1.2,0.3,2.3,0.8,3.5,1c2.5,0.3,5,0.4,7.5,0.5c4.4,0.2,8.8,0.2,13.3,0.4c2.6,0.1,5.2,0.2,7.9,0.3
			C735.5-79.3,737.9-79.3,740.3-79.3z M629.3-85c0.5-0.1,0.9-0.2,1.3-0.4c0.6-0.2,0.6-0.5,0.1-0.9c-0.5-0.4-0.9-0.7-1.4-1.1
			c-1.6-1.2-3.1-2.4-4.7-3.6c-0.9-0.7-1.6-0.4-1.8,0.7c-0.1,0.4-0.2,0.8-0.3,1.2c-0.2,0.6,0,0.9,0.5,1.2c1.5,0.7,2.9,1.5,4.4,2.2
			C628-85.4,628.7-85.2,629.3-85z M580.9-154.3c-2.8,6.9-4.6,14.2-7,21.3c1.9-3.9,3.6-7.9,5.4-11.9
			C580.6-147.9,580.7-151.1,580.9-154.3z M581.1-72.6c0.7-0.2,1.4-0.3,2.1-0.5c0.7-0.1,1-0.6,0.7-1.2c-0.6-1.4-1.2-2.8-1.8-4.2
			c-0.2-0.6-0.6-0.5-0.8,0c-0.6,1.2-1.3,2.4-1.9,3.7C579-74,580.1-72.6,581.1-72.6z M626.2-92.1c0,0.1-0.1,0.1-0.1,0.2
			c0.3,0.3,0.6,0.6,0.9,0.8c1.7,1.3,3.4,2.5,5.1,3.8c1.4,1.1,4,1,5.5-0.2C633.7-89.1,630-90.6,626.2-92.1z M571.8-102.8
			c0.6,2.7,1,5.4,1.7,8.1c0.4,1.9,1,3.8,1.6,5.7c0.1,0.3,0.3,0.5,0.5,0.8c0.1,0,0.2,0,0.3-0.1c0-1.3,0.3-2.7,0-4
			C575.2-96,573.4-99.4,571.8-102.8z M578.3-87.8c-0.1,0-0.2,0.1-0.3,0.1c-0.1,2.1-0.3,4.1-0.2,6.2c0,0.5,0.7,1,1.1,1.5
			c0.1,0.1,0.6-0.1,0.7-0.2c0.7-1,1.1-2.1,0.5-3.4c-0.3-0.6-0.5-1.3-0.8-2C578.9-86.4,578.6-87.1,578.3-87.8z M626.4-84.2
			c0-0.1,0-0.1,0-0.2c-1.3-0.6-2.6-1.3-3.9-1.8c-0.2-0.1-0.6,0.2-0.7,0.4c-0.2,0.5-0.4,1.1-0.5,1.7c-0.2,0.9,0.1,1.3,0.9,1.1
			C623.6-83.4,625-83.8,626.4-84.2z M572.8-117.9c0.1,0.1,0.2,0.2,0.3,0.4c1.4-0.8,2.8-1.5,4.2-2.4c1-0.7,1.3-1.8,0.8-3
			C576.3-121.2,574.2-119.9,572.8-117.9z M583-108c0.1,0.1,0.1,0.2,0.2,0.3c2.5,1.2,5.1,2.5,7.7,3.7c0.2,0.1,0.6,0,0.9,0
			C591.4-105.2,584.5-108.2,583-108z M611.3-76.8c0,0.1,0.1,0.2,0.1,0.3c0.3,0,0.7,0,1,0c0.6-0.1,1.2-0.3,1.7-0.2
			c1,0.3,1.5-0.2,2-0.9c0.2-0.2,0.2-0.5,0.3-0.7c-0.3,0-0.6-0.2-0.9-0.1c-1.1,0.3-2.2,0.7-3.2,1.1C611.9-77.2,611.6-77,611.3-76.8z
			 M587.9-110.1c0,0.1,0,0.1-0.1,0.2c0.2,0.1,0.3,0.3,0.5,0.4c1.4,0.5,2.8,1.1,4.2,1.6c0.2,0.1,0.4,0.1,0.5,0.1
			c0.2-0.1,0.4-0.3,0.6-0.4c-0.1-0.2-0.2-0.5-0.4-0.6c-0.4-0.2-0.8-0.4-1.3-0.5C590.7-109.6,589.3-109.8,587.9-110.1z M720.7-90.6
			c0,0.1,0,0.2,0,0.2c1.9,0.7,5.9,1.2,6.4,0.9c-0.3-0.2-0.5-0.5-0.8-0.6c-0.3-0.2-0.7-0.4-1.1-0.4c-1.2-0.1-2.3,0-3.5-0.1
			C721.4-90.6,721-90.6,720.7-90.6z M746.1-113.9c0,1.2,3.4,5,4.9,5.9C749.4-110.1,747.9-112.2,746.1-113.9z M635.5-81.9
			c-1.1-1.7-1.5-2.1-3.2-1.4C633.5-82.8,634.5-82.3,635.5-81.9z"/>
		<path style="opacity:0.3;fill:#014D41;" d="M483.4-167.6c0.9,0.4,1.8,0.8,2.7,1.2c2.4,1,4.9,2,7.3,3c2.8,1.2,5.7,2.4,8.5,3.5
			c2.4,1,4.9,2,7.4,3c3.6,1.5,7.2,3,10.9,4.5c3.2,1.3,6.5,2.6,9.7,3.9c5.1,2,10.2,4.1,15.3,6.1c2.9,1.2,5.8,2.5,8.7,3.6
			c4,1.6,8,3.2,12.1,4.8c3.7,1.4,7.3,2.9,10.9,4.4c4.5,1.8,9,3.5,13.5,5.3c5,2,9.9,4.2,14.9,6.1c2.8,1.1,5.7,2.1,8.5,3.1
			c2.5,0.9,4.2,2.7,5.2,5c1.3,2.8,2.3,5.7,3.3,8.5c2,5.2,3.9,10.4,6,15.6c2.2,5.7,4.4,11.4,6.6,17.1c1,2.7,1.3,2.7,4.1,2.3
			c1.1-0.2,2.2-0.3,3.2-0.2c2.3,0.1,4,1.1,4.9,3.2c0.4,0.9,0.4,2,0.5,3c0.5,3.2,1,6.4,1.5,9.6c0.4,2.4,0.7,4.8,1.2,7.1
			c0.7,3.4,1.4,6.8,2.2,10.1c0.8,3.6,1.7,7.2,2.6,10.8c0.3,1.2,0.7,2.3,0.9,3.5c0.1,0.4,0,0.9-0.1,1.2c-0.9,2.7-1.8,5.4-2.7,8.2
			c-2.4,7.8-4.9,15.7-7.3,23.5c-1.4,4.4-2.7,8.9-4,13.4c-0.5,1.6-0.8,3.3-1.3,5c-0.1,0.2-0.4,0.4-0.7,0.4c-1.3,0-2.7,0-4,0
			c0.4-0.2,1-0.3,1.2-0.6c0.3-0.3,0.3-0.9,0.3-1.3c0.3-3.2,0.6-6.3,0.9-9.5c0-0.4,0.1-0.8,0.1-1.2c-0.1,0-0.1,0-0.2-0.1
			c-0.4,1-0.9,1.9-1.3,2.9c-1.4,3.1-2.7,6.2-4.1,9.3c-0.1,0.2-0.4,0.4-0.6,0.4c-0.7,0.1-1.5,0-2.3,0c1-2.3,2-4.5,3-6.7
			c1.9-4.3,3.8-8.7,5.7-13c0.8-1.9,0.7-3.9,0.9-5.9c0.3-2.7,0.5-5.4,0.7-8.2c0-0.3,0-0.7,0-1c-0.1,0-0.2-0.1-0.2-0.1
			c-0.3,0.2-0.6,0.4-0.8,0.7c-2.6,2.6-5.3,5.2-7.9,7.8c-3,2.9-6,5.8-8.9,8.9c-3.1,3.2-6,6.6-9,9.9c-2.1,2.3-4.3,4.6-6.5,6.9
			c-0.5,0.5-1,0.8-1.7,0.7c-0.6,0-1.1,0-2,0c0.8-0.9,1.4-1.6,2-2.3c2.5-2.7,5.1-5.3,7.5-8c1.8-1.9,3.4-4,5.1-5.9
			c1.4-1.5,2.8-3,4.3-4.5c2.4-2.4,4.9-4.9,7.3-7.3c2.5-2.5,5-5.1,7.5-7.6c0.1-0.1,0.2-0.3,0.4-0.5c0,0-0.1-0.1-0.1-0.1
			c-0.5,0.4-1,0.8-1.5,1.2c-3.7,3.4-7.5,6.8-11.2,10.3c-2.3,2.2-4.4,4.6-6.6,6.9c-2.7,2.8-5.5,5.6-8.2,8.5c-2.8,2.9-5.5,5.8-8.2,8.8
			c-0.5,0.5-1,0.5-1.6,0.5c-5.1,0-10.2,0-15.2,0c-2.6,0-5.2,0-7.8,0c-0.3,0-0.7-0.1-1-0.3c-2.1-1.3-4.1-2.7-6.2-4
			c-1.8-1.1-3.6-2.3-5.5-3.4c-0.8-0.5-1.8-0.4-2.6,0c-2.2,1-4.4,2.1-6.6,3.2c-0.6,0.3-0.8,0.7-0.4,1.3c0.4,0.7,0,0.9-0.5,1
			c-0.7,0.1-1.3,0.1-2,0c-1.8-0.2-3.4,0.6-4.9,1.5c-1.2,0.7-2.3,0.8-3.6,0.5c0.7-0.3,1.3-0.7,2-0.9c0.9-0.4,1.7-0.7,1.7-2
			c0-0.6,0.5-1,1.2-1c0.7,0,1.5,0.2,2.1,0c1.1-0.3,2.2-0.7,3.2-1.1c1.2-0.5,2.3-1.1,3.4-1.6c1-0.5,2-1,3-1.5
			c0.8-0.5,0.8-1.1,0.2-1.8c-0.3-0.3-0.6-0.6-0.9-0.8c-2.4-1.5-4.7-3-7.1-4.6c-2.5-1.6-4.9-3.2-7.3-4.8c-3.3-2.1-6.6-4.3-9.9-6.5
			c-4.2-2.8-8.4-5.5-12.5-8.3c-4.1-2.7-8.2-5.6-12.4-8.1c-3.2-1.9-6.2-4-9.1-6.2c-3.2-2.5-6.8-4.6-10.2-6.8c-1.5-1-3.1-2.1-4.6-3.1
			c-0.2-0.1-0.4-0.2-0.6-0.2c-1.9,0.5-3.7,0.1-5.6-0.4c-0.5-0.1-1-0.3-1.4-0.6c-1.5-1.2-3-0.7-4.6-0.3c-0.1,0-0.2,0.5-0.1,0.6
			c0.5,0.7,1,1.3,1.5,1.9c1.1,1.2,2.2,2.3,3.3,3.5c1.3,1.6,2.4,3.2,3.7,4.8c1.3,1.6,2.6,3.2,3.9,4.8c2.6,3.1,5.2,6.1,7.8,9.1
			c1.7,1.9,3.5,3.7,5.2,5.5c0.6,0.6,1.1,0.5,1.4-0.3c0.6-1.8,1.2-3.7,1.9-5.5c0.4-1.1,0.9-2.1,1.3-3.1c0.1-0.2,0.1-0.4,0.2-0.6
			c0.1-0.2,0.3-0.4,0.4-0.6c0.1,0.2,0.4,0.5,0.4,0.7c0,1.4,0.1,2.8-0.1,4.1c-0.2,2-0.5,3.9-0.8,5.8c-0.2,1.1-0.5,2.1-0.5,3.2
			c0,0.8,0.5,1.6,0.9,2.3c2.4,3.1,4.9,6.2,7.3,9.3c1,1.3,2.3,1.9,3.8,2.2c1.9,0.3,3.7,1,5.5,1.5c0,0.1,0,0.1,0,0.2
			c-0.1,0-0.2,0.1-0.3,0c-1.9-0.4-3.9-0.8-5.8-1.3c-1.2-0.3-2.2,0.1-3.1,0.9c-0.6,0.6-1.1,1.3-1.5,2c-0.5,0.9-0.2,1.7,0.4,2.4
			c1.8,2.3,3.6,4.5,5.4,6.8c0.1,0.1,0.2,0.3,0.3,0.4c-1.4,0.5-2.6,0.2-3.4-0.8c-1.1-1.4-2.2-2.8-3.3-4.3c-0.7-0.9-1.3-0.9-1.9,0.1
			c-0.8,1.5-1.7,3-2.6,4.5c-0.2,0.4-0.6,0.7-1.1,0.6c-0.6,0-1.2,0-2,0c0.5-0.8,0.8-1.4,1.2-2c1.1-1.7,2.1-3.5,3.2-5.2
			c0.4-0.6,0.4-1.2,0-1.7c-1.5-1.9-3-3.7-4.5-5.5c-0.4-0.4-0.8-0.2-1,0.5c-0.1,0.6-0.2,1.2-0.3,1.9c-0.6,3.5-1.1,7.1-1.7,10.6
			c-0.2,1.2-0.5,1.5-1.7,1.5c-1.6,0-3.1,0-4.7,0c-0.6,0-0.8-0.2-0.7-0.8c0.6-2,1.2-4.1,1.8-6.1c0.3-1.1,0.5-2.3,0.8-3.5
			c0.3-1.3,0.7-2.6,1-3.8c0.5-1.8,1-3.6,1.3-5.4c0.1-0.5-0.1-1.3-0.5-1.8c-1.9-2.8-3.8-5.5-5.8-8.2c-3.2-4.2-6.4-8.4-9.6-12.6
			c-1.6-2.1-3.3-4.1-4.9-6.1c-0.3-0.3-0.6-0.5-0.8-0.7c-0.4,0.4-0.7,0.8-1,0.9c-1.9,0.4-3.2,1.7-4.5,3c-1.2,1.2-2.3,2.5-4,3.1
			c-0.2,0.1-0.4,0.7-0.4,1c0.3,1.4,0.6,2.8,1,4.2c1.3,3.9,2.7,7.8,4.1,11.6c1.2,3.4,2.5,6.8,3.7,10.2c1.3,3.5,2.6,7.1,3.9,10.6
			c0.5,1.2,1,2.4,1.5,3.7c0.1,0.2,0.1,0.3,0.2,0.7c-1.2,0-2.2,0.1-3.3,0c-0.3,0-0.6-0.6-0.8-1c-0.4-0.8-0.6-1.6-0.9-2.5
			c-1.7-5-3.5-9.9-5.2-14.9c-1.9-5.5-3.8-11-5.7-16.5c-0.4-1.3-1-2.5-1.5-3.8c-0.1-0.2-0.4-0.4-0.7-0.4c-0.2,0-0.5,0.1-0.9,0.1
			c0-4.5,0-9,0-13.5c0.6,1.4,1.2,2.8,1.8,4.2c0.1,0.3,0.2,0.5,0.3,0.8c0.4,0.9,0.7,0.9,1.5,0.3c0.7-0.5,1.5-0.8,2.3-1.2
			c1.1-0.5,2.3-1,3.2-1.6c0.9-0.7,1.7-1.6,2.5-2.4c0.1-0.1,0.1-0.5-0.1-0.6c-1.1-1.6-2.3-3.1-3.5-4.7c-0.1-0.2-0.4-0.3-0.6-0.3
			c-1,0.1-2.1,0.2-3,0.5c-1.3,0.4-2.6,0.9-3.9,1.4c-0.2,0.1-0.4,0-0.7,0.1c0-1.4,0-2.7,0-4c0-0.1,0.3-0.3,0.5-0.4
			c1.3-0.4,2.6-0.8,3.8-1.3c0.6-0.2,0.3-0.6,0.1-0.9c-1.1-1.6-2.2-3.3-3.4-4.8c-0.9-1.1-1.3-2.1-1.2-3.5c0.1-1.3,0-2.5,0.2-3.9
			c0.9,1.1,1.7,2.2,2.7,3.2c2.4,2.7,4.9,5.4,7.3,8c0.3,0.4,0.7,0.6,1.2,0.4c0.3-0.1,0.7,0,1.1,0.1c0.2,0,0.4,0.1,0.5,0
			c0.6-0.7,1.5-0.4,2.2-0.6c0.5-0.2,1-0.1,1.4,0.4c0.3,0.4,0.7,0.3,1,0c0.3-0.3,0.4-0.7,0-1c-1-0.9-2-1.8-3.1-2.6
			c-4.6-3.3-9.3-6.6-13.9-9.9c-0.5-0.4-0.8-0.8-0.7-1.4c0.1-1,0-2.1,0-3.3c0.6,0.4,1.1,0.8,1.6,1.1c5.4,3.7,10.8,7.5,16.2,11.2
			c1.5,1,3.2,1.9,4.8,2.9c0.5,0.3,1,0.4,1.5,0c0.5-0.3,1-0.4,1.5-0.6c1.7-0.7,3.4-1.3,5.1-2c0.3-0.1,0.5-0.5,0.7-0.7
			c-0.3-0.2-0.5-0.5-0.8-0.7c-2.9-1.2-5.9-2.4-8.8-3.6c-7-2.8-13.9-5.7-20.9-8.5c-0.7-0.3-0.9-0.7-0.9-1.4c0-2.6,0-5.2,0-7.8
			c1.1,0,2.2-0.1,3.4-0.1c5.2-0.1,10.4-0.1,15.5-0.3c9.3-0.3,18.7-0.7,28-1c4.5-0.2,8.9-0.4,13.4-0.6c4.9-0.2,9.8-0.4,14.6-0.7
			c6.3-0.3,12.6-0.6,18.9-1c3.9-0.2,7.8-0.4,11.7-0.6c0.2,0,0.4,0,0.6-0.1c0.5-0.1,0.7-0.4,0.3-0.8c-0.8-0.7-1.6-1.5-2.5-2.1
			c-3.9-2.9-7.7-5.8-11.6-8.7c-3.4-2.6-6.8-5.1-10.2-7.7c-1.4-1.1-2.9-2.1-4.3-3.3c-0.7-0.6-1.5-0.7-2.3-0.5
			c-2.6,0.8-5.3,1.7-7.9,2.5c-12.3,4-24.5,8-36.8,12.1c-10,3.3-19.9,6.7-29.9,10c-0.2,0.1-0.5,0.1-0.9,0.3c0-0.7-0.1-1.2,0-1.8
			c0-0.2,0.4-0.5,0.7-0.6c5.1-1.7,10.3-3.4,15.4-5.1c8.9-2.9,17.8-5.9,26.7-8.8c8.2-2.7,16.4-5.3,24.6-8c1.7-0.5,3.4-1.1,5.1-1.7
			c0.5-0.2,0.8-0.6,1.3-0.9c-0.3-0.4-0.6-0.8-0.9-1.1c-2.4-1.8-5.1-2.7-8-2.9c-4.3-0.3-8.7-0.5-13-0.8c-2.3-0.1-4.5-0.2-6.8-0.4
			c-3.6-0.2-7.3-0.4-10.9-0.6c-2.2-0.1-4.5-0.2-6.7-0.3c-1-0.1-1.8,0.2-2.6,0.9c-2.3,2.1-4.5,4.1-6.8,6.2c-4.8,4.5-9.6,9-14.3,13.5
			c-1,1-2,1.9-3.1,2.9c-0.2,0.2-0.3,0.3-0.7,0.5c0-1.1,0-1.9,0-2.8c0-0.3,0.3-0.6,0.5-0.8c3-2.8,6-5.7,9-8.5
			c3.5-3.3,7.1-6.6,10.6-9.9c0.4-0.4,0.7-0.9,1-1.4c0.3-0.5,0.1-0.9-0.6-0.9c-2.3-0.1-4.5-0.2-6.8-0.3c-2-0.1-4.1-0.4-6.1-0.5
			c-1.1-0.1-2.2-0.1-3.3-0.1c-1.2-0.1-2.4-0.2-3.6-0.3c-0.9-0.1-0.5-0.9-0.5-1.3c-0.1-0.5,0.3-0.6,0.7-0.5c4.8,0.3,9.5,0.6,14.3,0.9
			c2.4,0.2,4.9,0.4,7.3,0.6c1.3,0.1,2.3-0.3,3.2-1.1c2.3-2.1,4.6-4.2,7-6.3c2-1.8,4-3.5,6-5.3c0.5-0.4,1-0.9,1.5-1.4
			c0.6-0.6,0.7-1.1,0.2-1.8c-0.8-1.2-1.7-2.3-2.5-3.5c-1.9-2.8-3.9-5.7-5.8-8.6c-2.4-3.5-4.7-6.9-7.1-10.4c-1.4-2.1-2.8-4.2-4.2-6.4
			c-1.9-2.8-3.7-5.6-5.6-8.4c-2.3-3.5-4.6-7.1-7-10.6c-1.2-1.7-2.3-3.5-3.5-5.2c-0.3-0.5-0.6-1.1-0.9-1.7c1.5,0,3.1,0,4.6,0
			c0.2,0.3,0.4,0.7,0.6,0.9c3,3.5,6,7,8.9,10.5c3.1,3.6,6.2,7.3,9.4,10.9c3.5,4.1,7.1,8.1,10.6,12.2c2.6,3,5.2,6,7.8,9
			c2,2.2,3.9,4.5,5.9,6.7c0.9,1.1,1.9,2.2,2.8,3.3c1.4,1.7,3.4,1.7,5.3,1.6c3.1-0.1,6.2-0.2,9.3-0.3c4.2-0.1,8.3-0.2,12.5-0.3
			c5.8-0.2,11.6-0.3,17.4-0.5c4-0.1,8.1-0.2,12.1-0.3c5.8-0.2,11.7-0.4,17.5-0.5c5.2-0.1,10.4-0.1,15.5-0.2c0.5,0,1.1,0,1.6-0.1
			c0.2,0,0.6-0.2,0.7-0.4c0.1-0.2-0.1-0.6-0.3-0.7c-0.4-0.3-0.8-0.6-1.3-0.8c-1.9-0.8-3.8-1.5-5.6-2.2c-5.3-2.1-10.6-4.2-15.9-6.3
			c-5.8-2.3-11.6-4.7-17.4-7c-4.7-1.9-9.4-3.8-14.1-5.6c-4-1.6-7.9-3.1-11.9-4.7c-3.1-1.3-6.2-2.6-9.3-3.8c-2.3-0.9-4.6-1.8-6.9-2.8
			c-2.9-1.2-5.8-2.4-8.7-3.6c-2.2-0.9-4.4-1.7-6.6-2.6c-1.5-0.6-3-1.3-4.5-1.9c-3.1-1.3-6.2-2.5-9.3-3.7c-1-0.4-1.9-0.8-2.9-1.2
			c-1.6-0.6-3.2-1.2-4.8-1.8c-1.9-0.8-3.8-1.6-5.6-2.4c-0.9-0.4-1.8-0.9-2.7-1.4C480.7-167.6,482.1-167.6,483.4-167.6z M491.9-28.7
			c0.2,0.2,0.3,0.4,0.5,0.6c1.6,1.2,3.1,2.4,4.7,3.5c2.3,1.5,4.7,2.8,6.9,4.4c2.8,1.9,5.5,3.9,8.2,5.8c4.2,2.9,8.5,5.8,12.8,8.6
			c3.9,2.6,7.9,5.2,11.8,7.8c3.8,2.5,7.6,5,11.4,7.4c4.1,2.7,8.2,5.3,12.4,8c1.4,0.9,2.7,1.8,4.2,2.6c0.6,0.3,1.5,0.7,1.9,0.5
			c0.9-0.4,1.7-1.2,2.4-2c0.4-0.4,0.2-1.1-0.2-1.5c-0.6-0.6-1.2-1.2-1.8-1.8c-1.6-1.6-3.2-3.3-4.7-4.9c-1.4-1.5-2.9-3-4.3-4.5
			c-0.6-0.6-1.2-1.3-1.8-1.9c-1.2-1.4-2.3-2.8-3.5-4.2c-0.2-0.3-0.2-0.7-0.3-1c0.3,0.1,0.7,0.1,1,0.3c0.1,0,0.1,0.2,0.2,0.2
			c0.8,0.7,1.7,1.4,2.5,2.1c1.2,1,2.5,1.9,3.7,2.9c1.5,1.3,2.9,2.6,4.3,3.9c1,0.9,2.1,1.8,3.2,2.8c1.6,1.5,3.1,3.1,4.6,4.6
			c0.3,0.3,0.8,0.5,1.2,0.5c1.8,0.1,3.5,0,5.1-1c1.1-0.7,1.4-1.5,0.8-2.7c-0.9-1.6-1.7-3.3-2.6-4.9c-1.3-2.4-2.5-4.9-3.7-7.3
			c-1.1-2.2-2.3-4.5-3.4-6.8c-0.5-1.1-1.3-1.9-2.4-2.3c-5.6-2.1-11.2-4.3-16.8-6.4c-4-1.5-8-3-12-4.6c-1.9-0.7-3.8-1.1-5.7-1.7
			c-3.2-1-6.3-2.5-9.5-3.8c-2.7-1.1-5.3-2.3-8-3.4c-2.3-0.9-4.8-1.6-7.1-2.5c-1.6-0.6-3.2-1.3-4.8-2c-0.3-0.1-0.6-0.1-0.9,0
			c-0.8,0.3-1.5,0.7-2.3,1.1C497.3-31,494.6-29.9,491.9-28.7z M613.3-111.2c-0.5,0.1-0.8,0.1-1,0.2c-2,0.7-4.1,1.3-6.1,2
			c-4.6,1.4-9.2,2.9-13.8,4.3c-6.2,2-12.4,3.9-18.5,5.9c-5.8,1.8-11.6,3.7-17.5,5.5c-4.3,1.4-8.6,2.7-12.9,4.1
			c-0.7,0.2-1.4,0.5-2,0.8c-1.1,0.5-1.1,0.9-0.1,1.7c1.5,1.1,3.1,2.3,4.6,3.4c4.5,3.4,9.1,6.8,13.6,10.3c2.9,2.2,5.8,4.3,8.7,6.5
			c1.8,1.4,3.6,2.7,6.1,2.6c0.7,0,1.3-0.1,1.8-0.6c0.3-0.3,0.6-0.7,0.9-1c3-3.7,6-7.4,9.1-11.1c6.1-7.3,12.3-14.7,18.4-22
			c3-3.6,6.2-7.1,9.2-10.7c0.3-0.3,0.6-0.9,0.5-1.2C614.1-110.8,613.5-111,613.3-111.2z M518.9-41.6c0,0.9,0.1,1.5,0,2.2
			c-0.1,0.7-0.1,1.5-0.4,2.1c-0.9,1.5-1.9,2.9-2.9,4.3c-0.5,0.8-0.5,1,0.4,1.3c1.3,0.5,2.7,0.9,4,1.4c3.3,1.2,6.6,2.5,9.8,3.8
			c3,1.2,6,2.7,9.1,3.9c9.1,3.6,18.1,7.1,27.2,10.7c2,0.8,4,1,6.2,0.8c3.7-0.5,7.4-0.9,11.2-1.3c3-0.4,5.9-0.7,8.9-1.1
			c1.5-0.2,1.9-0.4,2.1-2c0.6-3.6,1.1-7.1,1.7-10.7c0.3-2,0.3-2.1-1.8-2.4c-7.1-1.2-14.3-2.4-21.4-3.6c-10.6-1.8-21.1-3.7-31.7-5.5
			c-6.4-1.1-12.7-2.2-19.1-3.3C521.1-41.2,520.1-41.4,518.9-41.6z M474.3-54c0,0,0,0.1,0,0.1c0.1,0,0.2,0.1,0.3,0.1
			c8.2,1.5,16.3,3.1,24.5,4.5c4.6,0.8,9.3,1.6,13.9,2.4c0.5,0.1,1.1,0.1,1.6-0.1c1.9-0.7,3.7-1.5,5.6-2.3c0.6-0.2,1,0,1,0.7
			c0,0.7,0.1,1.5,0,2.2c-0.2,0.8,0.2,1,0.9,1.1c1.5,0.3,3.1,0.5,4.6,0.8c2.5,0.5,5,1.1,7.5,1.6c17.7,3.2,35.4,6.3,53.1,9.5
			c2.7,0.5,5.4,1,8.1,1.4c1.4,0.2,1.6,0.1,1.7-1.2c0.3-1.8,0.5-3.5,0.8-5.3c0.2-1.5,0.3-1.5-1.1-2c-3.5-1.4-6.9-2.7-10.4-4.1
			c-1.5-0.6-3-1.3-4.5-2.1c-0.6-0.3-1.2-0.6-1.9-0.7c-3.2-0.2-6.5-0.5-9.7-0.7c-4.7-0.3-9.5-0.7-14.2-1c-3.3-0.2-6.6-0.3-9.9-0.6
			c-6.1-0.4-12.1-0.8-18.2-1.2c-5.1-0.3-10.2-0.6-15.3-0.9c-6.7-0.4-13.4-0.8-20.1-1.2c-4-0.2-8-0.5-11.9-0.8
			C478.6-53.8,476.4-53.9,474.3-54z M558.4-112.1C558.4-112.1,558.4-112.1,558.4-112.1c-1.3,0-2.5,0.1-3.8,0.2
			c-5.1,0.2-10.1,0.3-15.2,0.5c-5.4,0.2-10.9,0.3-16.3,0.5c-0.9,0-1.8,0.1-2.7,0.4c-0.8,0.2-1,0.9-0.5,1.5c1.4,1.7,2.8,3.4,4.2,5.1
			c1.9,2.2,3.9,4.3,5.8,6.5c1.9,2.2,4.2,3.2,7.1,2.4c2.5-0.7,5.1-1.2,7.7-1.8c3.4-0.8,6.8-1.5,10.2-2.3c3.6-0.8,7.2-1.7,10.8-2.6
			c5.7-1.3,11.3-2.7,17-4c3.4-0.8,6.8-1.7,10.2-2.5c3.4-0.8,6.8-1.5,10.3-2.3c1.7-0.4,3.4-0.8,5-1.3c0.3-0.1,0.5-0.4,0.7-0.6
			c-0.3-0.1-0.5-0.4-0.8-0.4c-1.7-0.1-3.3-0.3-5-0.3c-5.4,0.1-10.8,0.3-16.2,0.4c-3.2,0.1-6.3,0.1-9.5,0.2
			C571.1-112.4,564.7-112.2,558.4-112.1z M578.9-64.1c0.4,0,0.6,0.1,0.8,0c5.4-0.2,10.8-0.5,16.2-0.7c2.1-0.1,4.2-0.1,6.3-0.2
			c2-0.1,2.6-0.5,3.1-2.4c0.7-2.5,1.3-4.9,1.9-7.4c1.3-5.1,2.5-10.3,3.8-15.4c1.2-4.9,2.4-9.7,3.5-14.6c0.1-0.5,0.5-1.2-0.2-1.6
			c-0.7-0.3-1.1,0.3-1.5,0.8c-1.4,1.6-2.7,3.2-4,4.8c-4.2,5-8.3,9.9-12.4,14.9c-5.4,6.6-10.8,13.2-16.3,19.9
			C579.6-65.5,579.3-64.8,578.9-64.1z M638.7-52.7c0,0-0.1,0-0.1-0.1c0-0.2,0-0.5-0.1-0.7c-0.8-2.2-1.7-4.4-2.6-6.6
			c-0.4-1-0.8-1-1.9-0.8c-2.8,0.7-5.6,1.5-8.5,2.2c-3.9,1-7.8,1.9-11.7,2.9c-2.7,0.7-5.5,1.4-8.2,2.1c-1.2,0.3-2.1,1-2.3,2.4
			c-0.2,0.9-0.4,1.8-0.7,2.7c-0.2,0.8,0,1.2,0.7,1.5c0.2,0.1,0.4,0.2,0.6,0.3c7.6,3.8,15.1,7.6,22.7,11.4c0.6,0.3,1.3,0.6,2,0.7
			c0.3,0.1,0.8-0.2,0.9-0.4c1-1.8,2-3.6,2.9-5.5c1.7-3.3,3.5-6.7,5.2-10C638.1-51.3,638.4-52,638.7-52.7z M626.4-65.7
			C626.4-65.8,626.4-65.8,626.4-65.7c1.6-0.1,3.1,0,4.7-0.1c2.4-0.1,2.4-0.2,1.6-2.5c-1.4-3.7-2.9-7.4-4.3-11.1
			c-3.2-8.5-6.3-17-9.5-25.5c-0.2-0.5-0.4-1.3-1.1-1.2c-0.7,0-0.8,0.8-0.9,1.3c-0.9,3.6-1.7,7.1-2.5,10.7c-0.9,3.7-1.7,7.5-2.7,11.2
			c-1.2,4.9-2.6,9.8-3.8,14.7c-0.1,0.5-0.2,0.9-0.3,1.4c0,1.1,0.3,1.4,1.4,1.4c0.9,0,1.8-0.1,2.7-0.1
			C616.6-65.5,621.5-65.6,626.4-65.7z M509.9-110.6C509.9-110.6,509.9-110.6,509.9-110.6c-1.4,0-2.7,0-4.1,0c-1,0-1.9,0.2-2.6,0.9
			c-1.4,1.3-2.9,2.5-4.4,3.8c-2.4,2.1-4.8,4.3-7.1,6.5c-0.6,0.6-1.2,1.3-1.7,2.1c-0.4,0.6-0.1,1,0.6,1c2,0.1,4.1,0.2,6.1,0.3
			c1.9,0.1,3.7,0.2,5.6,0.4c3.8,0.2,7.6,0.5,11.4,0.7c2.9,0.2,5.8,0.4,8.7,0.6c1.7,0.1,3.5,0.2,5.3,0.2c0.5,0,1.2-0.3,1.5-0.7
			c0.2-0.2-0.3-0.9-0.5-1.4c-0.1-0.2-0.3-0.4-0.5-0.6c-3.7-4.1-7.4-8.3-11.1-12.4c-0.8-0.9-1.8-1.4-3-1.4
			C512.7-110.6,511.3-110.6,509.9-110.6z M599.5,30.5c0.1,0.1,0.2,0.1,0.2,0.2c0.3-0.2,0.7-0.4,1-0.7c1.9-1.9,3.7-3.8,5.6-5.8
			c1.4-1.4,2.8-2.9,4.2-4.3c2.9-3,5.6-6.1,8.5-9c3.7-3.7,7.5-7.2,11.3-10.8c2.7-2.5,5.4-5,8.1-7.4c1.6-1.4,2.7-3,2.8-5.2
			c0-0.8-0.3-1.1-1.1-0.8c-0.4,0.1-0.8,0.3-1.2,0.5c-1.5,0.7-2.9,1.4-4.4,2.1c-4.8,2.3-9.7,4.6-14.4,7c-3.3,1.7-6,4.1-7.5,7.7
			c-0.8,2-1.9,3.9-2.9,5.9c-2,4-4,8-6.1,12.1c-1.2,2.5-2.5,4.9-3.7,7.4C599.9,29.7,599.7,30.1,599.5,30.5z M591.9-10.7
			c-1.4,0.2-3.1,0.4-4.8,0.6c-4.8,0.6-9.6,1.3-14.5,1.9c-1.4,0.2-1.6,0.7-1,2c0.5,1,1,2,1.6,3.1c1.9,3.6,3.8,7.3,5.7,10.9
			c0.7,1.3,1.3,2.6,2,3.8c0.6,1.1,1.6,1.6,2.7,0.9c1.7-0.9,3.4-1.7,5.1-2.5c1.8-0.8,2.9-2.1,2.9-4.2c0.1-1.7,0.3-3.4,0.5-5.2
			c0.4-3.3,0.9-6.7,1.3-10C593.7-10.4,593.3-10.8,591.9-10.7z M616.8-13.8c-0.2,0-0.5,0-0.8,0c-3.1,0.4-6.2,0.8-9.3,1.2
			c-3.2,0.4-6.3,0.8-9.5,1.2c-1.3,0.2-1.6,0.6-1.8,1.9c-0.4,3.4-0.8,6.8-1.2,10.2c-0.2,1.7-0.5,3.4-0.7,5.1
			c-0.1,0.9,0.3,1.3,1.2,1.2c0.3,0,0.6-0.1,0.8-0.2c2.5-1.2,4.9-2.4,7.4-3.6c2.8-1.3,5.6-2.7,8-4.7c0.8-0.6,1.7-1.2,2.2-2
			c1.7-2.9,3.1-5.9,4.7-8.8C618.7-13.7,618.6-13.9,616.8-13.8z M526.6-53.5c0,0.1,0,0.2,0.1,0.3c1.8,0.1,3.5,0.2,5.3,0.3
			c7.5,0.5,14.9,1,22.4,1.5c7.3,0.5,14.7,1,22,1.5c1.6,0.1,3.3-0.2,4.9,0.1c1.5,0.2,2.7-0.4,4-0.7c0.2,0,0.4-0.2,0.4-0.4
			c0-0.1-0.2-0.4-0.3-0.5c-0.8-0.4-1.5-1-2.3-1.3c-1.6-0.6-2.9-1.6-4-2.9c-0.7-0.8-1.6-1.7-2.6-2.2c-1.1-0.5-2.3-0.9-3.5-0.9
			c-1.7,0-3.4,0.4-5,0.5c-4.5,0.4-8.9,0.9-13.4,1.3c-3.2,0.3-6.5,0.6-9.7,0.9c-3.5,0.3-7,0.7-10.5,1c-1.9,0.2-3.7,0.4-5.6,0.6
			C528-54,527.3-53.7,526.6-53.5z M599.5-27.7c-0.9-0.1-1.2,0.3-1.3,1.1c-0.3,1.9-0.6,3.9-1,5.8c-0.3,1.6-0.6,3.3-0.9,4.9
			c-0.2,1.3,0.2,1.8,1.5,1.7c0.6-0.1,1.1-0.1,1.7-0.2c5.1-0.6,10.3-1.2,15.4-1.8c1.6-0.2,3.3-0.7,4.9-1.1c0.3-0.1,0.7-0.4,0.8-0.7
			c0.7-1.2,1.4-2.4,2-3.6c1.1-2.2,1.4-2.1-1.4-2.6c-4-0.7-8.1-1.3-12.2-2C605.9-26.7,602.7-27.2,599.5-27.7z M509.1-112
			c1.2-0.1,2.1-0.2,2.9-0.4c1.2-0.3,1.4-0.9,0.6-1.8c-1.7-2-3.4-3.9-5-5.8c-2.6-3-5.3-6.1-7.9-9.1c-2.7-3.1-5.3-6.2-8-9.2
			c-2.8-3.2-5.7-6.4-8.6-9.5c-0.4-0.4-0.9-0.8-1.4-1.1c-0.2-0.1-0.5-0.1-0.6,0c-0.1,0.1-0.2,0.4-0.2,0.6c0.1,0.5,0.3,0.9,0.5,1.3
			c1.4,2.5,2.8,5,4.4,7.4c1.4,2.2,3,4.4,4.4,6.6c2,3,4,6.1,6,9.1c2,2.9,3.9,5.9,6,8.7c0.7,1,1.3,2.1,2.5,2.5
			C506.1-112.5,507.8-112.2,509.1-112z M610.4,1.7c0-0.1-0.1-0.2-0.1-0.3c-0.7,0.2-1.4,0.4-2,0.6c-2.5,1.1-5,2.2-7.4,3.5
			c-2.6,1.4-5.4,2.2-7.6,4.3c-0.9,0.8-1.3,1.7-1.2,2.9c0.1,2.1,0.2,4.2,0.3,6.4c0.2,3,0.3,6.1,0.5,9.1c0.1,1,0.2,1.9,0.4,2.8
			c0,0.3,0.3,0.5,0.5,0.8c0.2-0.2,0.5-0.3,0.6-0.5c0.3-0.5,0.5-1,0.8-1.4c1.1-1.9,2.3-3.7,3.3-5.6c1.9-3.4,3.7-6.9,5.5-10.3
			c1.8-3.4,3.6-6.7,5.4-10.1C609.7,3.2,610.1,2.4,610.4,1.7z M640.2-49.7c-0.3,0.5-0.5,0.7-0.7,1c-0.7,1.4-1.3,2.9-2.1,4.3
			c-1.6,3.1-3.2,6.1-4.9,9.2c-1,1.9-0.9,2.3,1,3.3c2.4,1.2,4.7,2.4,7.1,3.6c1.7,0.9,1.9,0.7,2-1.2c0.2-2.7,0.4-5.4,0.6-8.1
			c0.1-1.8,0.6-3.5-0.2-5.2c-0.6-1.3-1.1-2.8-1.6-4.1C641.1-47.9,640.6-48.7,640.2-49.7z M600.1-39.1c-0.3,2.2-0.6,4.2-0.8,6.2
			c-0.2,1.5-0.1,1.6,1.4,1.9c0.2,0,0.3,0.1,0.5,0.1c5.7,1,11.4,2,17,2.9c1.9,0.3,3.9,0.6,5.8,0.9c1.1,0.2,2-0.1,2.3-1.6
			C617.7-32.1,609-35.6,600.1-39.1z M538.4-89.6c0.4-0.1,1-0.2,1.5-0.4c2.7-0.8,5.4-1.7,8.1-2.5c6.9-2.2,13.7-4.4,20.6-6.6
			c2.8-0.9,5.5-1.9,8.3-2.9c0.2-0.1,0.4-0.3,0.5-0.5c-0.3-0.1-0.5-0.2-0.8-0.2c-2.4,0.5-4.8,0.9-7.2,1.5c-3.3,0.8-6.6,1.6-9.9,2.4
			c-3.4,0.8-6.7,1.4-10.1,2.2c-3.7,0.8-7.4,1.7-11.1,2.6c-0.8,0.2-1.6,0.4-2.4,0.7c-0.7,0.3-1,1.1-0.7,1.7
			C535.7-90.6,537.2-89.6,538.4-89.6z M640.4-16.7c-0.2,0-0.4,0-0.6,0c-3.6,0.4-7.3,0.8-10.9,1.3c-1.9,0.3-3.9,0.7-5.8,1.1
			c-1,0.2-1.7,0.8-2.1,1.9c-0.5,1.4-1.3,2.8-2,4.2c-0.5,1-1.1,1.9-1.6,2.9c-0.1,0.2-0.1,0.5-0.2,0.8c0.3,0,0.6,0.1,0.9,0
			c1.2-0.5,2.4-1,3.5-1.5c5.6-2.7,11.3-5.5,16.9-8.2c1-0.5,1.9-0.9,2.6-1.8c0.3-0.4,0.3-0.7-0.2-0.8
			C640.7-16.7,640.5-16.7,640.4-16.7z M579.9-59.1c0.7,0.4,1.4,0.8,2,1.1c2.7,1.4,5.4,2.7,8.1,4.1c0.7,0.3,1.4,0.7,2.1,1
			c0.3,0.1,0.7,0.1,1.1,0c1.6-0.5,3.2-1,4.8-1.4c1-0.3,2-0.6,3-0.9c0.3-0.1,0.7-0.5,0.8-0.8c0-0.2-0.5-0.5-0.6-0.6
			c0.1-0.3,0.2-0.7,0.3-1c0.1-0.3,0.1-0.6,0.2-0.8c0.4-0.7,0.3-0.9-0.5-1c-0.5,0-1.1,0.1-1.6,0.1c-1.4-0.1-2.7-0.4-4.1,0
			c-0.4,0.1-0.9,0-1.3,0c-0.7-0.1-1.5-0.2-2.2-0.2c-1.7,0-3.3,0.1-5,0.2C584.6-59.3,582.3-59.2,579.9-59.1z M627.1-31.6
			c0.4-0.2,0.8-0.3,1.1-0.5c-0.2-0.3-0.4-0.7-0.6-0.9c-0.5-0.4-1-0.7-1.6-1c-7.5-3.7-14.9-7.4-22.4-11.1c-1.6-0.8-1.6-0.8-2,1
			c-0.4,1.8,0.1,2.8,1.8,3.5c1.7,0.7,3.4,1.3,5,2c5,1.9,9.9,3.9,14.9,5.8C624.5-32.4,625.8-32.1,627.1-31.6z M590.7,23.9
			c-0.1,0-0.2,0-0.3,0c0-2.3,0-4.6,0-6.8c0-1.4-0.1-2.7-0.2-4.1c-0.1-1.3-0.9-1.8-2.1-1.3c-1.4,0.6-2.8,1.4-4.2,2
			c-0.8,0.4-1,1-0.7,1.7c0.4,1,0.8,1.9,1.3,2.8c1.1,2.2,2.3,4.4,3.5,6.5c0.5,0.9,1.1,1.7,1.8,2.5c0.1,0.2,0.5,0.2,0.8,0.2
			c0.1,0,0.1-0.4,0.2-0.6C590.7,25.9,590.7,24.9,590.7,23.9z M477.3-19.8c0.1,0.2,0.1,0.5,0.2,0.7c0.8,1.2,1.7,2.5,2.6,3.6
			c5.8,7.5,11.5,14.9,17.3,22.4c0.2,0.3,0.7,0.7,1,0.6c0.3-0.1,0.7-0.6,0.8-1c0.1-0.3,0-0.8-0.2-1.1c-0.3-0.6-0.7-1.2-1-1.8
			c-1.3-2.3-3-4.2-4.7-6.2C488.2-8.5,483.3-14.6,477.3-19.8z M509.5-57.8c0.1,0,0.2,0.1,0.3,0.1c2.5,0.1,5,0.2,7.5,0.3
			c1.5,0.1,3,0.2,4.5,0.2c1.6,0,3.2,0.2,4.7,0c1.5-0.2,3-0.2,4.5-0.1c1.3,0.1,2.5,0.2,3.8,0.1c3.8-0.3,7.6-0.7,11.4-1.1
			c3.3-0.3,6.7-0.7,10-1c2.3-0.2,4.5-0.4,6.8-0.5C545.1-59.3,527.3-59.6,509.5-57.8z M625.6-17.5c0.2,0,0.6,0,0.9-0.1
			c4.5-0.5,8.9-1,13.4-1.6c0.5-0.1,1.1-0.3,1.6-0.5c0.6-0.3,0.6-0.7,0-1c-0.4-0.2-0.9-0.4-1.3-0.5c-1.2-0.2-2.4-0.4-3.5-0.6
			c-2.8-0.4-5.5-0.9-8.3-1.2c-1-0.1-2,0-2.5,1.1c-0.5,1-1,2-1.6,3c-0.6,1.2-0.5,1.4,0.9,1.4C625.2-17.5,625.3-17.5,625.6-17.5z
			 M587.8,30.2c0.1-0.1,0.2-0.1,0.3-0.2c-0.2-0.4-0.3-0.9-0.5-1.3c-1-2-2.1-4.1-3.1-6.1c-1-1.9-2-3.8-3-5.6c-0.6-1-1.3-1.3-2.3-0.9
			c-0.6,0.2-1.2,0.5-1.8,0.9c-1.6,1-1.6,2.1-0.3,3.4c2.7,2.4,5.3,4.9,7.9,7.4C585.9,28.6,586.8,29.4,587.8,30.2z M645.8-36.8
			c-0.1,0.3-0.2,0.4-0.2,0.5c-0.2,2.9-0.3,5.8-0.5,8.7c0,0.7,0.2,1.3,0.8,1.6c1.7,1,3.5,1.8,5.2,2.7c0.2,0.1,0.6,0,0.8-0.1
			c0.1-0.2,0.1-0.6,0-0.8c-1.8-3.9-3.7-7.9-5.6-11.8C646.2-36.2,646-36.4,645.8-36.8z M510.7,18.3c-0.1-0.2-0.2-0.6-0.4-0.9
			c-1.7-2-3.3-3.9-5.1-5.8c-0.4-0.4-0.9-0.7-1.4-1c-0.2-0.1-0.6,0-0.8,0.1c-0.4,0.4-0.4,2.4-0.1,2.8c1.1,1.6,2.1,3.2,3.3,4.8
			c0.7,0.9,1.4,1.8,2.2,2.6c0.2,0.2,0.9,0.4,0.9,0.2C509.8,20.4,510.6,19.7,510.7,18.3z M642.5,4.8c0,0,0.1,0,0.1,0
			c0.1-0.1,0.1-0.2,0.2-0.3c2.4-5.2,4.8-10.4,7.2-15.5c0.2-0.4,0.3-0.9,0.4-1.4c-0.1,0-0.1-0.1-0.2-0.1c-0.2,0.2-0.4,0.3-0.6,0.5
			c-1.3,1.3-2.6,2.6-4,3.9C644-6.4,643-4.5,643-2.2c0,0.3,0,0.5-0.1,0.8C642.8,0.7,642.6,2.7,642.5,4.8z M582.9,31.5
			c0,0,0.1-0.1,0.1-0.1c0-0.1-0.1-0.2-0.1-0.3c-1.4-1.4-2.7-2.7-4.1-4.1c-0.9-0.9-1.9-1.9-2.8-2.8c-0.8-0.8-1.6-1.7-2.5-2.6
			c-0.3-0.2-0.6-0.5-1-0.5c-1.1,0-2.2,0-3.3,0.1c-0.8,0.1-1,0.6-0.4,1.2c0.3,0.3,0.6,0.6,0.9,0.9c4.1,2.6,8.2,5.1,12.3,7.7
			C582.3,31.2,582.6,31.4,582.9,31.5z M476.6-47.3c0,0.1,0,0.1-0.1,0.2c0.2,0.1,0.5,0.2,0.7,0.3c2.7,1.1,5.4,2.2,8.1,3.2
			c3.2,1.2,6.5,2.4,9.7,3.6c0.2,0.1,0.8,0,0.8-0.1c0.1-0.5,0.2-1,0-1.4c-0.7-2-2.4-2.5-4.2-2.8c-3.3-0.6-6.6-1.2-9.9-1.8
			C480-46.4,478.3-46.9,476.6-47.3z M482-55.9c0,0,0,0.1,0,0.1c13.1,0.8,26.2,1.5,39.4,2.3c0-0.1,0-0.2,0-0.3
			c-1.2-0.3-2.3-0.8-3.5-1c-2.5-0.3-5-0.4-7.5-0.5c-4.4-0.2-8.8-0.2-13.3-0.4c-2.6-0.1-5.2-0.2-7.9-0.3
			C486.8-55.9,484.4-55.9,482-55.9z M593-50.2c-0.5,0.1-0.9,0.2-1.3,0.4c-0.6,0.2-0.6,0.5-0.1,0.9c0.5,0.4,0.9,0.7,1.4,1.1
			c1.6,1.2,3.1,2.4,4.7,3.6c0.9,0.7,1.6,0.4,1.8-0.7c0.1-0.4,0.2-0.8,0.3-1.2c0.2-0.6,0-0.9-0.5-1.2c-1.5-0.7-2.9-1.5-4.4-2.2
			C594.2-49.8,593.6-50,593-50.2z M641.4,19c2.8-6.9,4.6-14.2,7-21.3c-1.9,3.9-3.6,7.9-5.4,11.9C641.7,12.6,641.6,15.8,641.4,19z
			 M641.2-62.6c-0.7,0.2-1.4,0.3-2.1,0.5c-0.7,0.1-1,0.6-0.7,1.2c0.6,1.4,1.2,2.8,1.8,4.2c0.2,0.6,0.6,0.5,0.8,0
			c0.6-1.2,1.3-2.4,1.9-3.7C643.2-61.2,642.2-62.6,641.2-62.6z M596.1-43.2c0-0.1,0.1-0.1,0.1-0.2c-0.3-0.3-0.6-0.6-0.9-0.8
			c-1.7-1.3-3.4-2.5-5.1-3.8c-1.4-1.1-4-1-5.5,0.2C588.5-46.1,592.3-44.6,596.1-43.2z M650.4-32.4c-0.6-2.7-1-5.4-1.7-8.1
			c-0.4-1.9-1-3.8-1.6-5.7c-0.1-0.3-0.3-0.5-0.5-0.8c-0.1,0-0.2,0-0.3,0.1c0,1.3-0.3,2.7,0,4C647-39.2,648.9-35.9,650.4-32.4z
			 M644-47.4c0.1,0,0.2-0.1,0.3-0.1c0.1-2.1,0.3-4.1,0.2-6.2c0-0.5-0.7-1-1.1-1.5c-0.1-0.1-0.6,0.1-0.7,0.2c-0.7,1-1.1,2.1-0.5,3.4
			c0.3,0.6,0.5,1.3,0.8,2C643.3-48.8,643.7-48.1,644-47.4z M595.9-51c0,0.1,0,0.1,0,0.2c1.3,0.6,2.6,1.3,3.9,1.8
			c0.2,0.1,0.6-0.2,0.7-0.4c0.2-0.5,0.4-1.1,0.5-1.7c0.2-0.9-0.1-1.3-0.9-1.1C598.6-51.8,597.3-51.4,595.9-51z M649.4-17.3
			c-0.1-0.1-0.2-0.2-0.3-0.4c-1.4,0.8-2.8,1.5-4.2,2.4c-1,0.7-1.3,1.8-0.8,3C646-14,648-15.3,649.4-17.3z M639.3-27.2
			c-0.1-0.1-0.1-0.2-0.2-0.3c-2.5-1.2-5.1-2.5-7.7-3.7c-0.2-0.1-0.6,0-0.9,0C630.9-30,637.8-27,639.3-27.2z M611-58.4
			c0-0.1-0.1-0.2-0.1-0.3c-0.3,0-0.7,0-1,0c-0.6,0.1-1.2,0.3-1.7,0.2c-1-0.3-1.5,0.2-2,0.9c-0.2,0.2-0.2,0.5-0.3,0.7
			c0.3,0,0.6,0.2,0.9,0.1c1.1-0.3,2.2-0.7,3.2-1.1C610.3-58,610.6-58.2,611-58.4z M634.3-25.1c0-0.1,0-0.1,0.1-0.2
			c-0.2-0.1-0.3-0.3-0.5-0.4c-1.4-0.5-2.8-1.1-4.2-1.6c-0.2-0.1-0.4-0.1-0.5-0.1c-0.2,0.1-0.4,0.3-0.6,0.4c0.1,0.2,0.2,0.5,0.4,0.6
			c0.4,0.2,0.8,0.4,1.3,0.5C631.6-25.6,633-25.4,634.3-25.1z M501.5-44.6c0-0.1,0-0.2,0-0.2c-1.9-0.7-5.9-1.2-6.4-0.9
			c0.3,0.2,0.5,0.5,0.8,0.6c0.3,0.2,0.7,0.4,1.1,0.4c1.2,0.1,2.3,0,3.5,0.1C500.9-44.6,501.2-44.6,501.5-44.6z M476.2-21.3
			c0-1.2-3.4-5-4.9-5.9C472.9-25.1,474.3-23,476.2-21.3z M586.7-53.4c1.1,1.7,1.5,2.1,3.2,1.4C588.7-52.5,587.7-52.9,586.7-53.4z"/>
	</g>
</g>
<polygon style="fill:#007A6C;" points="126.6,31.1 59.3,31.1 25.6,89.4 59.3,147.7 126.6,147.7 160.3,89.4 "/>
<polygon style="fill:#014D41;" points="219.5,26.3 152.2,26.3 118.5,84.6 152.2,142.9 219.5,142.9 253.2,84.6 "/>
<polygon style="fill:#05897B;" points="175,67.7 107.6,67.7 74,126 107.6,184.4 175,184.4 208.6,126 "/>
</svg>
