<svg xmlns="http://www.w3.org/2000/svg" viewBox="0 0 600 300"><style>.st0{fill:#464655}.st1{fill:#fff}.st2{fill:#bec8dc}.st3{fill:#afbbd0}.st4{fill:#96a5b9}.st5{fill:#66beff}.st6{fill:#04a573}.st7{fill:#fff5f6}.st8{fill:#dee3ed}.st9{fill:#ffdc69}.st10{fill:#b4e173}.st11{fill:#ff969b}.st12{fill:#a0dcf0}.st13{fill:none}</style><path class="st0" d="M385.9 72H214.1c-3.5 0-6.4 2.9-6.4 6.4v101.9h184.6V78.4c0-3.5-2.8-6.4-6.4-6.4zm-3.1 28.7v70H217.2V81.6h165.5v19.1zm0 0"/><path class="st1" d="M218.1 170.5h165.5v-70H218.1v70zm130.5-54.1v-3.2c0-1.8 1.4-3.2 3.2-3.2h19.1c1.8 0 3.2 1.4 3.2 3.2v44.6c0 1.8-1.4 3.2-3.2 3.2h-19.1c-1.8 0-3.2-1.4-3.2-3.2v-41.4zm-35 0v-3.2c0-1.8 1.4-3.2 3.2-3.2h19.1c1.8 0 3.2 1.4 3.2 3.2v44.6c0 1.8-1.4 3.2-3.2 3.2h-19.1c-1.8 0-3.2-1.4-3.2-3.2v-41.4zm-35 0v-3.2c0-1.8 1.4-3.2 3.2-3.2h19.1c1.8 0 3.2 1.4 3.2 3.2v44.6c0 1.8-1.4 3.2-3.2 3.2h-19.1c-1.8 0-3.2-1.4-3.2-3.2v-41.4zm-50.9 0v-3.2c0-1.8 1.4-3.2 3.2-3.2h35c1.8 0 3.2 1.4 3.2 3.2v44.6c0 1.8-1.4 3.2-3.2 3.2h-35c-1.8 0-3.2-1.4-3.2-3.2v-41.4zm0 0"/><path class="st2" d="M207.7 193c0 3.5 2.9 6.4 6.4 6.4H386c3.5 0 6.4-2.8 6.4-6.4v-12.7H207.7V193zm92.3-8c2.6 0 4.8 2.1 4.8 4.8 0 2.6-2.1 4.8-4.8 4.8-2.6 0-4.8-2.1-4.8-4.8 0-2.7 2.2-4.8 4.8-4.8zm0 0"/><path class="st3" d="M271.8 221.6h56.5l-2-15.9h-52.5l-2 15.9zm0 0"/><path class="st2" d="M271.4 221.6c-1.8 0-3.2 1.4-3.2 3.2 0 1.8 1.4 3.2 3.2 3.2h57.3c1.8 0 3.2-1.4 3.2-3.2 0-1.8-1.4-3.2-3.2-3.2h-57.3zm0 0"/><path class="st4" d="M273.7 205.7h52.5l-.8-6.4h-50.9l-.8 6.4zm0 0"/><path class="st5" d="M217.2 100.7h165.5V81.6H217.2v19.1zm143.3-12.8h12.7c1.8 0 3.2 1.4 3.2 3.2 0 1.8-1.4 3.2-3.2 3.2h-12.7c-1.8 0-3.2-1.4-3.2-3.2 0-1.7 1.4-3.2 3.2-3.2zm-25.5 0h12.7c1.8 0 3.2 1.4 3.2 3.2 0 1.8-1.4 3.2-3.2 3.2H335c-1.8 0-3.2-1.4-3.2-3.2 0-1.7 1.5-3.2 3.2-3.2zm-25.5 0h12.7c1.8 0 3.2 1.4 3.2 3.2 0 1.8-1.4 3.2-3.2 3.2h-12.7c-1.8 0-3.2-1.4-3.2-3.2.1-1.7 1.5-3.2 3.2-3.2zm-25.4 0h12.7c1.8 0 3.2 1.4 3.2 3.2 0 1.8-1.4 3.2-3.2 3.2h-12.7c-1.8 0-3.2-1.4-3.2-3.2 0-1.7 1.4-3.2 3.2-3.2zm-25.5 0h12.7c1.8 0 3.2 1.4 3.2 3.2 0 1.8-1.4 3.2-3.2 3.2h-12.7c-1.8 0-3.2-1.4-3.2-3.2 0-1.7 1.5-3.2 3.2-3.2zm-31.8 0h19.1c1.8 0 3.2 1.4 3.2 3.2 0 1.8-1.4 3.2-3.2 3.2h-19.1c-1.8 0-3.2-1.4-3.2-3.2 0-1.7 1.4-3.2 3.2-3.2zm0 0"/><path class="st6" d="M226.8 94.3h19.1c1.8 0 3.2-1.4 3.2-3.2 0-1.8-1.4-3.2-3.2-3.2h-19.1c-1.8 0-3.2 1.4-3.2 3.2 0 1.8 1.4 3.2 3.2 3.2zm0 0"/><path class="st7" d="M258.6 94.3h12.7c1.8 0 3.2-1.4 3.2-3.2 0-1.8-1.4-3.2-3.2-3.2h-12.7c-1.8 0-3.2 1.4-3.2 3.2 0 1.8 1.5 3.2 3.2 3.2zm0 0M284.1 94.3h12.7c1.8 0 3.2-1.4 3.2-3.2 0-1.8-1.4-3.2-3.2-3.2h-12.7c-1.8 0-3.2 1.4-3.2 3.2 0 1.8 1.4 3.2 3.2 3.2zm0 0M309.5 94.3h12.7c1.8 0 3.2-1.4 3.2-3.2 0-1.8-1.4-3.2-3.2-3.2h-12.7c-1.8 0-3.2 1.4-3.2 3.2.1 1.8 1.5 3.2 3.2 3.2zm0 0M335 94.3h12.7c1.8 0 3.2-1.4 3.2-3.2 0-1.8-1.4-3.2-3.2-3.2H335c-1.8 0-3.2 1.4-3.2 3.2 0 1.8 1.5 3.2 3.2 3.2zm0 0M360.5 94.3h12.7c1.8 0 3.2-1.4 3.2-3.2 0-1.8-1.4-3.2-3.2-3.2h-12.7c-1.8 0-3.2 1.4-3.2 3.2 0 1.8 1.4 3.2 3.2 3.2zm0 0"/><path class="st8" d="M230 161.1h35c1.8 0 3.2-1.4 3.2-3.2v-41.4c0 1.8-1.4 3.2-3.2 3.2h-35c-1.8 0-3.2-1.4-3.2-3.2V158c0 1.7 1.4 3.1 3.2 3.1zm0 0M280.9 161.1H300c1.8 0 3.2-1.4 3.2-3.2v-41.4c0 1.8-1.4 3.2-3.2 3.2h-19.1c-1.8 0-3.2-1.4-3.2-3.2V158c0 1.7 1.4 3.1 3.2 3.1zm0 0M315.9 161.1H335c1.8 0 3.2-1.4 3.2-3.2v-41.4c0 1.8-1.4 3.2-3.2 3.2h-19.1c-1.8 0-3.2-1.4-3.2-3.2V158c0 1.7 1.5 3.1 3.2 3.1zm0 0M350.9 161.1H370c1.8 0 3.2-1.4 3.2-3.2v-41.4c0 1.8-1.4 3.2-3.2 3.2h-19.1c-1.8 0-3.2-1.4-3.2-3.2V158c0 1.7 1.5 3.1 3.2 3.1zm0 0"/><path class="st9" d="M230 119.8h35c1.8 0 3.2-1.4 3.2-3.2v-3.2c0-1.8-1.4-3.2-3.2-3.2h-35c-1.8 0-3.2 1.4-3.2 3.2v3.2c0 1.7 1.4 3.2 3.2 3.2zm0 0"/><path class="st10" d="M280.9 119.8H300c1.8 0 3.2-1.4 3.2-3.2v-3.2c0-1.8-1.4-3.2-3.2-3.2h-19.1c-1.8 0-3.2 1.4-3.2 3.2v3.2c0 1.7 1.4 3.2 3.2 3.2zm0 0"/><path class="st11" d="M315.9 119.8H335c1.8 0 3.2-1.4 3.2-3.2v-3.2c0-1.8-1.4-3.2-3.2-3.2h-19.1c-1.8 0-3.2 1.4-3.2 3.2v3.2c0 1.7 1.5 3.2 3.2 3.2zm0 0"/><path class="st12" d="M350.9 119.8H370c1.8 0 3.2-1.4 3.2-3.2v-3.2c0-1.8-1.4-3.2-3.2-3.2h-19.1c-1.8 0-3.2 1.4-3.2 3.2v3.2c0 1.7 1.5 3.2 3.2 3.2zm0 0"/><path class="st4" d="M304.8 189.8c0 2.6-2.1 4.8-4.8 4.8-2.6 0-4.8-2.1-4.8-4.8 0-2.6 2.1-4.8 4.8-4.8 2.6 0 4.8 2.1 4.8 4.8zm0 0"/><path class="st13" d="M0 0h600v300H0z"/></svg>