<?xml version="1.0" encoding="utf-8"?>
<!-- Generator: Adobe Illustrator 22.1.0, SVG Export Plug-In . SVG Version: 6.00 Build 0)  -->
<svg version="1.1" id="Layer_1" xmlns="http://www.w3.org/2000/svg" xmlns:xlink="http://www.w3.org/1999/xlink" x="0px" y="0px"
	 viewBox="0 0 300 200" style="enable-background:new 0 0 300 200;" xml:space="preserve">
<g>
	<defs>
		<rect id="SVGID_1_" width="300" height="200"/>
	</defs>
	<clipPath id="SVGID_2_">
		<use xlink:href="#SVGID_1_"  style="overflow:visible;"/>
	</clipPath>
	<rect style="display:none;clip-path:url(#SVGID_2_);fill:#007A6C;" width="300" height="200"/>
	<g style="clip-path:url(#SVGID_2_);">
		<path style="fill:#007A6C;" d="M28.7-30.3c1.3,1.3,2.5,3.1,4,3.7C43.6-22.3,54.5-18,65.5-14c13.3,4.8,27.3,6.1,41.2,8.3
			c8,1.2,16,2.9,24,4.3c4.9,0.8,9.8,1.4,14.6,2.4c8,1.6,15.9,3.6,23.8,5.4c3.6,0.8,7.3,1.5,10.9,2.5c2.1,0.6,5.1,0.4,5.4,3.9
			c0.1,0.7,1,1.4,2,1.8c-0.3-2-0.6-3.9-0.9-5.9c0.4-0.1,0.8-0.2,1.1-0.4c1.2,3.7,2.4,7.3,3.6,11c0.3,0.9,0.4,2.2,1.1,2.6
			c4.1,2.2,4.1,2.1,3.6,6.6c-1.8-0.6-3.7-1.2-5.5-2c-9.4-3.6-18.7-7.4-28.1-10.9c-2.8-1-5.8-0.2-8.8-1.3c-7.2-2.7-14.8-4.5-22.2-6.7
			c-0.1,0.4-0.2,0.7-0.4,1.1c1.6,0.8,3.2,1.7,4.8,2.5c-0.1,0.3-0.3,0.6-0.4,0.9c-1.8-0.7-3.7-1.3-5.4-2.2
			c-5.4-2.9-11.4-3.7-17.3-4.5c-2.7-0.4-5.3-1-7.9-1.5c-1.4-0.2-3.4-1.4-2.8,1.9c-12.5-5-25.2-3.8-37.6-5.3c-0.3,0-0.6-0.2-0.9-0.2
			c-2.9-0.1-5.8-0.3-9.4-0.5c1,1.2,1.6,2,1.7,2c2-0.3,3.3-0.5,4.5-0.7c1.1-0.2,2.2-0.6,3.2-0.9c0.8,0.6,1.5,1.6,2.4,1.8
			c4.5,1.3,9.1,2.3,13.6,3.5c-0.1,0.4-0.2,0.9-0.4,1.3c-1.7-0.5-3.4-1.2-5.1-1.3c-4.4-0.5-8.7-0.7-13.1-1c-1.5-0.1-3,0-4.5-0.3
			c-5-0.9-5.5-0.6-7,4.1c-0.2-1.3-0.4-2.6-0.7-3.9c-0.2,0-0.3,0-0.5-0.1c-0.3,1.1-0.5,2.1-0.8,3.2c-0.2,0-0.4,0-0.6,0
			c-0.4-1.1-0.7-2.1-1.3-3.7c-1.1,5.2-0.6,5.6,6.7,6c-0.3-1-0.6-1.9-0.8-2.5c3-0.1,6.2-0.9,8.8-0.1C65.9,9,71.9,7.9,77.7,9.4
			c1.4,0.4,3,0.1,4.5,0.1c3.3,0,6.6,0,9.9,0c0.7,0,1.4-0.2,2.1-0.3c0.6-0.1,1.2-0.4,1.8-0.3c8.3,1.4,16.7,2.6,24.9,4.5
			c2.5,0.6,4.3-0.5,6.4-0.2c2.8,0.4,5.6,1.5,8.2,2.6c6.8,2.9,13.6,6.1,20.4,9.1c1.2,0.5,2.5,0.9,3.7,1.4c0.1-0.2,0.2-0.5,0.3-0.7
			c-4.2-2.3-8.3-4.5-12.5-6.8c0.2-0.4,0.4-0.8,0.6-1.2c15.2,7.1,30.5,14.1,45.7,21.2c-0.2,0.3-0.3,0.7-0.5,1
			c-6.5-0.2-11.4-4.5-16.3-6.5c-2.6,1.6-4.8,2.9-6.9,4.3c-0.3,0.2-0.4,0.7-0.5,1.1c-1.7,4.7-4.6,5.9-9.5,4c-0.2-0.1-0.4-0.1-0.7-0.2
			c-2.7,2-5.4,4-8.8,6.5c-1.4-0.2-4.1-0.5-6.8-0.9c-1.9-0.3-3.7-0.5-5.6-1c-1.7-0.4-2.3,0.2-2.6,1.8c-0.7,4.4-3.8,6.4-8.1,5.5
			c-1.1-0.2-2.3,0.1-3.4,0c-1.5-0.1-3.4,0.1-4.2-0.7c-2.2-2-4.6-2.2-7.2-2.3c-2.1-0.1-2.9-1.1-3.3-3.2c-0.5-3.2-1.3-6.3-2.2-9.4
			c-0.2-0.6-1.4-1.1-2.2-1.3c-1.2-0.3-2.5-0.3-4.2-0.4c0.2,0.9,0.4,1.7,0.6,2.8c-0.7,0.4-1.6,0.8-1.6,0.8c-1,3.5-1.8,6.3-2.6,9.3
			c0,0,0.5,0.1,1,0.3c-0.1,0.2-0.2,0.3-0.3,0.5c-2,1.7-4.1,3.4-6,5.3c-2.5,2.5-5.5,3.2-8.9,3.8c-3.7,0.7-6-1.4-8.8-2.6
			c-0.6-0.3-0.8-1.6-1.3-2.6c-0.3,0.8-0.5,1.4-0.8,2.3c-1.2-1.1-2.3-2-3.4-3c0.5-0.6,1-1.1,2.2-2.4c-3,0-5.2,0-8.2,0
			c1.3-1,2.2-1.6,3.1-2.3c0-0.2-0.1-0.4-0.1-0.7c-1.4,0.1-2.8,0.2-4.3,0.3c0.3-0.9,0.6-1.7,0.9-2.5c-1.7-0.3-3.1-0.5-4.5-0.7
			c1.5-1.7,2.8-3.1,4.5-5.1c-1.7,0.2-3.1,0.3-4.4,0.5c-0.1-0.3-0.1-0.5-0.2-0.8c0.8-0.5,1.6-1.1,2.4-1.6c0-0.3-0.1-0.5-0.1-0.8
			c-7,2.7-14.2,3.2-21.6,1.2c-0.2-0.3-0.7-1.3-1.5-1.8c-6.1-3.4-12.3-6.8-18.5-10c-1.4-0.7-3.2-0.9-4.8-1.3
			C9.3,25.2,5.1,24.4,1,23.6c0-0.4,0.1-0.7,0.1-1.1c1.3,0,2.5,0,4.5,0c-1.9-1.5-3.3-2.5-4.6-3.6c0.1-0.2,0.2-0.5,0.2-0.7
			c2.3,0.6,4.6,1.1,6.9,1.7c0-0.1,0.1-0.2,0.1-0.3c-1.9-1-4-1.8-5.7-3.1c-2.1-1.6-1.4-3.6-0.1-5.6C2,10.2,1.5,9.4,1,8.6
			c0.9-0.1,1.8-0.5,2.6-0.3c2.3,0.5,4.5,1.1,6.8,1.7c0.1-0.3,0.1-0.5,0.2-0.8C7.6,8.4,4.5,7.7,0.8,6.8c0-18.7,0-37.6,0-56.5
			c0.6,0,1.3,0,1.9,0c0.6,0.8,1,1.7,1.8,2.3c6.8,5.6,12.2,12.9,20.6,16.4C26.3-30.5,27.5-30.5,28.7-30.3L28.7-30.3z M65.3,29.3
			c0.2-0.4,0.4-0.7,0.7-1.1c-4.2-2.7-8.2-6-12.7-8c-4.4-2-9.4-3-14.2-3.7c-3.7-0.6-7.7,0.4-11.5-0.1c-6.3-0.9-12.5-2.4-18.7-3.5
			C7.5,12.5,6,12.9,4.6,13c0,0.4,0.1,0.8,0.1,1.1c1.1,0,2.1,0,3.4,0c-0.6,0.8-1,1.3-1.9,2.5c3.9,0.6,7.3,1.4,10.7,1.5
			c9,0.3,18.1-0.3,27.1,0.6c4.6,0.4,9,3,13.3,5.1C60.2,25.2,62.6,27.4,65.3,29.3z M30.9,4.3c-1.4-1.5-2.7-2.6-3.3-3.9
			c-1-2.3-3.1-2.3-4.6-1.9c-1.2,0.3-2.3,2-3,3.3c-0.5,0.9-0.5,2.2-1,4.5c-1.9-1.8-3.1-3-4.8-4.6c0.3,1.5,0.2,3.3,0.8,3.6
			c3,1.3,6.1,2.2,9.2,3.2c0.1-0.2,0.1-0.3,0.2-0.5c-1.2-1.1-2.4-2.2-3.9-3.6c5.5,1.6,10.2,3,15,4.3c0.2-0.3,0.4-0.7,0.5-1
			c-0.6-0.6-1.2-1.2-2-1.9c3.2,0.9,6.2,1.8,9.3,2.7c0.8-3.7,0.6-3.9-2.9-4c-0.8,0-1.7-0.5-2.5-0.9c-0.9-0.4-1.7-1.1-2.6-1.3
			c-1.3-0.3-2.7-0.2-4.4-0.3C31,2.3,31,3.1,30.9,4.3z M125.9,26.3c-0.1,0.3-0.1,0.6-0.2,0.9c3.5,0.7,7.1,1.3,10.5,2
			c3.7,0.8,7.3,1.6,10.9,2.6c5.5,1.5,10.9,3.3,16.3,4.8c0.6,0.2,1.5-0.4,2.3-0.6C152.6,31.5,139.7,27.1,125.9,26.3z M60.3,30.7
			c-1.9-1.8-3.6-3.5-5.4-5.3c-1.7,3.2-3.1,5.7-4.6,8.5C54.1,33.7,57.6,34.1,60.3,30.7z M146.9,3.4c-0.1,0.4-0.2,0.9-0.3,1.3
			c2.5,0.6,5,1.1,7.4,1.8c2.2,0.6,4.8,0.9,6.5,2.3c2.9,2.3,2.6,2.6,4.1-0.9C158.6,6.4,152.8,4.9,146.9,3.4z M64.5,19.8
			c0,0.3,0,0.6-0.1,0.9c5.1,2.3,10.6,0.5,15.9,0.4c-2.6-0.3-5.2-0.2-7.8-0.4C69.8,20.6,67.1,20.1,64.5,19.8z M175,9.5
			c-0.6,1.4-1.3,2.9-1.9,4.3c1,0.2,1.9,0.4,2.9,0.6c0-0.8,0-1.7,0-3.4c0.8,1.4,1.1,1.9,1.5,2.3c0.4,0.4,0.9,0.7,1.5,1.2
			C178.9,11.6,178.9,11.6,175,9.5z M34.2,32.4c4.6,3.3,6.9,3.8,10,2.3C40.6,33.9,37.4,33.2,34.2,32.4z M101.5-1.3
			c-0.3-2.8-1.9-3.4-7.2-2C96.7-2.6,99.1-2,101.5-1.3z M147.5,42.2c1.8-1.1,3.7-2.2,5.7-3.4C150.1,37.1,149.2,37.6,147.5,42.2z
			 M3.6,2.3c0.4,0,0.9,0,1.3-0.1C4.7-0.3,4.5-2.7,4.3-5.2c-0.2,0-0.5,0-0.7,0.1C3.6-2.7,3.6-0.2,3.6,2.3z M29.9-2.3
			c0.1-0.4,0.2-0.8,0.3-1.2c-2.5-0.6-5-1.2-7.5-1.8c-0.1,0.3-0.2,0.6-0.2,0.9C25-3.7,27.5-3,29.9-2.3z M12.3,3.4
			c0.4-0.1,0.7-0.1,1.1-0.2c-0.5-2.4-1-4.7-1.5-7.1C11.8-1.5,10.5,1.2,12.3,3.4z"/>
		<path style="fill:#007A6C;" d="M198.3-49.7c2.6,6.6,5.2,13.2,7.8,19.8c0.2,0,0.3,0,0.5,0c-0.4-2-0.8-4-1.3-6.5
			c0.8,0.4,1.3,0.5,1.4,0.8c5.4,12,16,18.5,26.4,25.3c3.3,2.2,6.3,4.7,9.5,7c-0.2,0.4-0.5,0.8-0.7,1.1c-2.8-1.8-5.6-3.6-7.5-4.8
			c-2.5,2.3-4.7,5.6-6,5.3c-2.5-0.6-4.6-3.2-6.9-5.1c-1,1.4,2.4,5.7-3.2,5.8c2.8,3.7,6.4,4.3,9.2,4.2c3-2.6,5.2-4.5,7.5-6.5
			c0.4,1.4,0.8,2.8,1.1,4.1c0.3-0.1,0.7-0.2,1-0.3c-0.2-0.7-0.5-1.4-0.7-2c0.2-0.2,0.4-0.4,0.6-0.6c0.4,1.2,0.9,2.4,1.3,3.5
			c0.4-0.3,0.7-0.6,1.1-0.9c0.7-0.5,1.3-1,2.1-1.4c2.8-1.5,5.6-3.2,8.8-0.5c1,0.9,3.3,0.2,4.3,1.1c2,1.7,3.9,3.7,4.9,6
			c0.7,1.7,1,2.6,2.9,3c2.7,0.6,5.3,1.6,7.7,2.8c1.2,0.6,2.3,2.1,2.9,3.4c1.5,3.5,4.8,4.6,7.6,6.4c0.5,0.3,0.9,0.7,1.3,1.1
			c-0.1,0.3-0.3,0.5-0.4,0.8c-2.2-1-4.4-2-6.2-2.8c-1.6,0.3-2.9,0.6-3.9,0.8c1.1,1.7,2.4,3.8,4.2,6.6c0.5,0,2,0,3.4,0
			c0.1,0.2,0.1,0.5,0.2,0.7c-0.8,0.5-1.5,0.9-2,1.2c2.1,1,4.2,1.9,6.6,3c3.2-2.6,7.4-3,11.3-0.7c0.9,0.4,1.9,0.8,2.8,1.3
			c0.7-0.2,1.4-0.4,2.1-0.6c0,9.9,0,19.9,0,29.8c-0.2,0-0.3,0-0.3,0c-2.1,1.1-3,0.2-2.9-2.2c-0.3,0.1-0.6,0.2-0.9,0.3
			c0,2.9,0,5.8,0,8.6c-0.4,0-0.8,0-1.2,0c0-3.7,0.3-7.4-0.1-11c-0.3-2.4-1.6-4.7-2.4-7.1c-0.4,0.1-0.7,0.1-1.1,0.2
			c0,5.6,0,11.3,0,17.9c-1-1.2-1.4-1.5-1.6-1.9c-0.2-0.3-0.1-0.7-0.2-1.4c-0.6,0.9-1,1.4-1.4,1.9c-2.5-1.5-5-2.7-7.3-4.3
			c-1.4-1-2.4-2.4-3.4-3.8c-0.6-0.9-1.5-2.2-1.2-2.9c0.3-0.8,1.7-1.2,2.8-1.8c-0.9-2.6-3.7-4.4-6.1-3.1c0-2.7,0-5.3,0-8.2
			c-0.7,1.2-1.3,2.1-2.3,3.7c-0.1-1.6-0.2-2.5-0.3-4c-1.3,1.4-2.3,2.4-3.2,3.4c-0.3-0.2-0.5-0.4-0.8-0.6c1.4-1.8,2.8-3.7,4.2-5.5
			c-0.3-0.3-0.7-0.5-1-0.8c-4.2,5-8.5,9.9-12.7,14.9c3.7-8.4,9.3-15.3,16.2-21.2c-0.2-0.3-0.4-0.7-0.5-1c-1.8,0.8-3.7,1.5-5.7,2.4
			c0-0.4-0.1-1.2-0.2-2c-4.1-0.4-3.6,4.3-7,5.9c1.1-2.7,1.9-4.7,2.8-6.8c-0.2-0.2-0.4-0.3-0.6-0.5c-3.8,3.8-7.5,7.6-11.1,11.1
			c0.1-0.4,0.5-1.4,0.4-2.3c-0.2-1.3-0.5-3-1.4-3.6c-3.1-2.1-6.5-3.9-9.8-5.7c-0.5-0.3-1.3-0.7-1.8-0.5c-0.9,0.2-1.9,0.7-2.3,1.4
			c-0.2,0.4,0.6,1.6,1.2,2.1c0.5,0.4,1.4,0.4,2.2,0.5c-0.4,0.5-0.9,1-1.3,1.5c-2.5-1.6-5.1-3.3-7.7-5c0.7-0.9,1.3-1.8,2.1-2.9
			c-3,0.9-5.7,1.8-8.5,2.6l0.1,0.1c0.8-1.1,1.6-2.2,2.3-3.3c-0.2-0.3-0.3-0.5-0.5-0.8c-1.9,0.8-3.7,1.7-6.1,2.8
			c1-1.4,1.7-2.5,2.5-3.6c-0.2-0.3-0.4-0.5-0.5-0.8c-1.3,0.7-2.5,1.4-4,2.2c0.3-1.6,0.6-3.2,1.1-5.5c-1.7,1-2.8,1.7-4.7,2.9
			c0.9-1.6,1.4-2.3,2.1-3.6c-1.6,0.3-2.6,0.4-3.7,0.6c0-1.5,0-3,0-5c-2.4,2.1-4.2,3.6-6,5.1c-0.2,0.1-0.9-0.5,0.1-0.1
			c1-2,2.1-3.9,3.4-6.3c-1.1-0.7-2.7-1.8-4.3-2.8c-0.1,0.2-0.1,0.4-0.2,0.7c-0.5-1.7-1-3.3-1.5-5C203.3,7.9,203.2,8,203,8
			c-0.2,2.5-0.5,5-0.7,7.8c-2.7-5.6-3.9-11.9-4.8-17.3c-0.7-3.7-2.5-7.6-4.8-10.6c-6.3-8.2-7.9-18.1-11.1-27.5
			c-1.1-3.3-2.2-6.7-3.3-10.1c0.4,0,0.9,0,1.3,0c4.1,10.7,6.3,22.2,13.1,31.7c-0.6-2.9-1.4-5.7-2.4-8.4c-2-5.5-4.2-11-6-16.5
			c-0.7-2.1-0.6-4.5-0.9-6.8c0.4,0,0.9,0,1.3,0c0.2,1.5,0.1,3.1,0.6,4.4c2.8,7.6,5.7,15.2,8.6,22.8c1.7,4.4,3.5,8.7,5.2,13
			c1.3,3.3,2.5,6.6,3.7,9.9c0.4-0.2,0.8-0.3,1.2-0.5c-1.1-2.4-2.2-4.8-3.3-7.2c0.2-0.1,0.4-0.2,0.6-0.3c0.4,0.7,0.8,1.4,1.3,2
			c-0.4-4-0.9-7.9-2.2-11.6c-4-10.9-8.2-21.8-12.4-32.7c0.6,0,1.3,0,1.9,0c6.7,17.2,13.7,34.4,18,52.5c1.2-7.9-0.8-15.2-2.9-22.5
			c-2.3-8.2-4.9-16.3-7.5-24.5c-0.6-1.9-1.6-3.7-2.4-5.5C196.2-49.7,197.3-49.7,198.3-49.7z M215.2-0.6c-0.4-1.6-1.2-3-0.9-3.5
			c2-2.5-0.4-3.9-1.3-5.6c-1.4-3-3.2-5.9-4.4-9c-1.2-3-2-6.2-3-9.3C204.5-22.7,210.7-3.8,215.2-0.6z M211.9-15.7
			c1.6,5,2.3,5.3,7,3.7C216.4-13.3,214.4-14.4,211.9-15.7z M298.1,44.3c0-0.3,0-0.5,0-0.8c-1.7-0.2-3.3-0.4-5.4-0.7
			c0.5,1.3,0.9,2.3,1.3,3.3C295.5,45.5,296.8,44.9,298.1,44.3z"/>
		<path style="fill:#007A6C;" d="M69.5-49.7c0,5.2-0.1,10.5,0,15.7c0.1,4.2,0.4,8.4,0.6,12.6c0.1,2,0,4,0,6c-0.5,0-1,0-1.4,0
			c0-11.1,0-22.3,0-33.4c-0.5,0-1.1,0-1.6,0c0,10.9,0,21.8,0,32.7c-0.4,0-0.9,0-1.3,0c0-10.8,0-21.5,0-32.3
			c-0.4-0.1-0.9-0.1-1.3-0.2c-0.2,1.5-0.7,3-0.7,4.5c-0.1,8,0,16,0,23.9c0,1-0.1,1.9-0.9,2.8c0-10.2,0-20.5,0-30.7
			c-0.3,0-0.6-0.1-0.9-0.1c-0.3,1.4-0.9,2.8-0.9,4.1c-0.1,7.3,0,14.6,0.1,22c0,1.2-0.1,2.4-0.2,3.5c-0.3,0-0.7,0-1,0
			c0-9,0-18,0-27.1c-0.4,0-0.9,0-1.3,0c0,8.7,0,17.3,0,25.9c-1.6-0.3-2.9-0.5-4.5-0.7c0-3.2,0-6.8,0-10.4c-0.3,0-0.6,0-0.8-0.1
			c-0.3,0.8-0.5,1.7-1,3c-0.5-1.2-0.9-1.9-1.5-3.4c-0.3,1.9-0.5,3-0.8,4.2c-0.2,0-0.5,0-0.7,0.1c-0.4-6.2-0.7-12.5-1.1-18.7
			c-2.6,7.4,1.9,15.3-2.2,22.6c0-6.5,0-13,0-19.5c-0.4,0-0.7,0-1.1,0c0,6.3,0,12.7,0,19.8c-1.9-2-2.1-4.5-1.8-7.5
			c0.3-2.7,0.1-5.5-0.7-8.4c-0.4,1.3-0.8,2.6-1.2,3.7c-0.4-0.5-1-1.1-2.1-2.2c0,3.9,0,7,0,10.2c-0.4,0-0.7,0.1-1.1,0.1
			c-0.2-2.9-0.4-5.7-0.6-8.6c-0.3,0-0.7,0-1,0c0,2.3,0,4.6,0,7.8c-3.1-1-5.5-1.8-7.9-2.6c0,0,0.1,0.1,0.1,0.1
			c-1.4-0.8-2.9-1.5-4.2-2.5c-3.4-2.6-6.6-5.6-10.2-8c-2.7-1.8-2.6-3.4-1.4-5.5c1.4,0.8,2.6,1.6,3.8,2.3c-0.4-2.4-0.7-4.1-1-5.7
			c0.2,0,0.4,0,0.6,0c0.4,1,0.8,2.1,1,2.5c1.8,0,3.1,0,4.7,0c-0.4-0.9-0.8-1.7-1.2-2.5C37.1-49.7,53.3-49.7,69.5-49.7z M56.9-45.3
			c-0.2,0-0.4,0-0.6,0c0,7.7,0,15.4,0,23.1c0.2,0,0.4,0,0.6,0C56.9-29.9,56.9-37.6,56.9-45.3z M53-32.8c0.3,0,0.6,0,0.9,0
			c0-4.5,0-8.9,0-13.4c-0.3,0-0.6,0-0.9,0C53-41.7,53-37.3,53-32.8z M51.3-45.6c-0.4,0-0.7,0-1.1,0c0.3,4.2-0.9,8.4,1.1,12.4
			C51.3-37.2,51.3-41.4,51.3-45.6z"/>
		<path style="fill:#007A6C;" d="M195.1-49.7c0.8,1.8,1.8,3.6,2.4,5.5c2.6,8.1,5.2,16.3,7.5,24.5c2.1,7.3,4.1,14.6,2.9,22.5
			c-4.3-18.1-11.3-35.2-18-52.5C191.6-49.7,193.4-49.7,195.1-49.7z"/>
		<path style="fill:#007A6C;" d="M188-49.7c4.1,10.9,8.4,21.7,12.4,32.7c1.3,3.6,1.8,7.6,2.2,11.6c-0.4-0.7-0.8-1.4-1.3-2
			c-0.2,0.1-0.4,0.2-0.6,0.3c1.1,2.4,2.2,4.8,3.3,7.2c-0.4,0.2-0.8,0.3-1.2,0.5c-1.2-3.3-2.4-6.6-3.7-9.9c-1.7-4.4-3.5-8.7-5.2-13
			c-2.9-7.6-5.8-15.2-8.6-22.8c-0.5-1.4-0.4-3-0.6-4.4C185.8-49.7,186.9-49.7,188-49.7z"/>
		<path style="fill:#007A6C;" d="M156.9-49.7c2.6,5.8,5.1,11.5,7.7,17.3c3,6.6,6,13.2,8.8,19.9c2.1,5.1,3.9,10.3,5.8,15.5
			c0.4,1.1,0.6,2.2,0.9,3.3c-0.3,0.1-0.5,0.2-0.8,0.3c-0.5-1-1-2-1.4-3c-4.7-11.4-9.5-22.9-14.2-34.3c-2.7-6.4-5.5-12.7-8.2-19
			C156-49.7,156.5-49.7,156.9-49.7z"/>
		<path style="fill:#007A6C;" d="M15.7-49.7c0.3,1.7,0.6,3.3,1,5.7c-1.2-0.8-2.4-1.5-3.8-2.3c-1.2,2.1-1.3,3.7,1.4,5.5
			c3.6,2.4,6.8,5.4,10.2,8c1.3,1,2.8,1.7,4.2,2.5c-1.2-0.2-2.5-0.3-3.6-0.7c-8.4-3.6-13.8-10.9-20.6-16.4c-0.7-0.6-1.2-1.5-1.8-2.3
			C7.1-49.7,11.4-49.7,15.7-49.7z"/>
		<path style="fill:#007A6C;" d="M166-49.7c2.4,6.3,4.7,12.7,7.1,19c4.3,11.4,8.6,22.7,12.9,34.1c0.4,1.1,0.6,2.2,0.9,3.7
			c-0.9-0.4-1.5-0.4-1.6-0.7c-3.2-8-6.6-15.9-9.6-24c-3.9-10.6-7.4-21.4-11.1-32.1C165.1-49.7,165.5-49.7,166-49.7z"/>
		<path style="fill:#007A6C;" d="M151.7-49.7c1.7,4.9,3.1,10,5.1,14.8c4.7,10.9,9.7,21.6,14.6,32.4c0.5,1.1,0.8,2.3,0.8,3.6
			c-8.7-16.4-16.4-33.2-22.4-50.8C150.4-49.7,151.1-49.7,151.7-49.7z"/>
		<path style="fill:#007A6C;" d="M129.1-49.7c1.2,3.3,2.4,6.6,3.7,9.8c2.3,5.6,4.8,11.2,7,16.8c2.2,5.8,4.3,11.6,6.4,17.5
			c0.4,1.1,0.4,2.3,0,3.6c-0.8-1.7-1.8-3.4-2.5-5.2c-3.2-8.6-6.3-17.3-9.6-25.9c-1.7-4.6-3.8-9.1-5.6-13.6c-0.4-1-0.5-2.1-0.7-3.1
			C128.2-49.7,128.6-49.7,129.1-49.7z"/>
		<path style="fill:#007A6C;" d="M183.4-49.7c0.3,2.3,0.2,4.7,0.9,6.8c1.8,5.6,4,11,6,16.5c1,2.7,1.8,5.5,2.4,8.4
			c-6.8-9.6-9-21-13.1-31.7C180.9-49.7,182.2-49.7,183.4-49.7z"/>
		<path style="fill:#007A6C;" d="M122.6-49.7c2.3,5.9,4.5,11.9,7,17.8c3,7.1,6.2,14,9.2,21c1.1,2.7,1.9,5.5,2.9,8.3
			c-0.3,0.1-0.6,0.2-1,0.4c-1.3-3.2-2.5-6.4-3.9-9.5c-3.4-7.6-7-15.2-10.3-22.8c-2.1-5-3.9-10.1-5.9-15.1
			C121.3-49.7,121.9-49.7,122.6-49.7z"/>
		<path style="fill:#007A6C;" d="M84.6-29.3c-0.5-0.3-1.2-0.6-1.3-1.1c-1.7-5.7-3.2-11.4-5.5-17c0,9,0,18.1,0,27.1
			c-0.4,0-0.8,0-1.1,0c0-9.8,0-19.6,0-29.4c1.5,0,3,0,4.5,0c0,1.5,0,2.9,0,4.4c0,1.1-0.1,2.2,0.1,3.2C82.2-37.8,83.4-33.5,84.6-29.3
			L84.6-29.3z"/>
		<path style="fill:#007A6C;" d="M103.8-49.7c1.7,6.3,3.3,12.6,5,18.8c1.8,6.6,3.6,13.2,5.3,19.8c0.2,0.8,0,1.8,0,2.7
			c-0.3,0-0.6,0.1-0.8,0.1c-1-3.9-2-7.7-3-11.6c-2.2-8.4-4.5-16.8-6.8-25.2c-0.4-1.6-1.1-3.2-1.7-4.7
			C102.5-49.7,103.2-49.7,103.8-49.7z"/>
		<path style="fill:#007A6C;" d="M110.3-49.7c1.7,6.3,3.3,12.6,5.1,18.9c1.9,6.9,3.8,13.8,5.7,20.7c0.3,1,0.1,2.1,0.2,3.2
			c-0.3,0.1-0.6,0.1-0.9,0.2c-4-14.3-8-28.7-12-43C109-49.7,109.6-49.7,110.3-49.7z"/>
		<path style="fill:#007A6C;" d="M300,195.7c-0.9-0.3-1.7-0.6-2.5-0.9c0.5,1.4,1.7,2.9,1.3,3.9c-0.5,1.1-2.2,1.7-3.6,2.6
			c-1.5-2.4-3-4.8-4.1-6.5c1.6-2,3-3.6,4-4.9c1.5,0.1,3.2,0.3,4.9,0.5C300,192.3,300,194,300,195.7z"/>
		<path style="fill:#007A6C;" d="M300,132.3c-5.1-5.1-10.2-10.3-15.4-15.4c0.4-0.4,0.8-0.8,1.1-1.1c3.4,3.6,6.9,7.3,10.3,10.9
			c0.2-0.2,0.5-0.5,0.7-0.7c-1.5-2-3-4-4.4-6c0.1-0.1,0.2-0.2,0.4-0.3c2.4,2.3,4.8,4.5,7.3,6.8C300,128.4,300,130.3,300,132.3z"/>
		<path style="fill:#007A6C;" d="M88.3-49.7c1.9,7.1,5.4,13.8,5.3,21.4c-2.2-7.1-4.4-14.3-6.6-21.4C87.4-49.7,87.8-49.7,88.3-49.7z"
			/>
		<path style="fill:#007A6C;" d="M74.7-49.7c0,10.2,0,20.5,0,30.7c-0.3,0-0.7,0-1,0c0-2.9,0-5.8,0-8.7c-0.1-7.4-0.2-14.7-0.3-22.1
			C73.8-49.7,74.2-49.7,74.7-49.7z"/>
		<path style="fill:#007A6C;" d="M141.4-49.7c2.1,5.4,4.2,10.9,6.3,16.3c0.5,1.3,0.6,2.7,0.3,4.3c-2.6-6.9-5.2-13.8-7.9-20.6
			C140.5-49.7,140.9-49.7,141.4-49.7z"/>
		<path style="fill:#007A6C;" d="M94.1-49.7c1.7,4.6,3.3,9.3,5,13.9c-0.5,0.2-0.9,0.3-1.4,0.5c-1.6-4.8-3.2-9.6-4.9-14.4
			C93.2-49.7,93.7-49.7,94.1-49.7z"/>
		<path style="fill:#007A6C;" d="M300,123.8c-4.3-3.2-10.7-11.8-12.1-15.7c3.7,4.2,7.9,9,12.1,13.8C300,122.5,300,123.2,300,123.8z"
			/>
		<path style="fill:#007A6C;" d="M116.1-49.7c1.5,4.6,3,9.2,4.4,13.8c0.3,1,1.8,2.5-0.7,2.8l0.1,0.1c-1.7-5.6-3.3-11.1-5-16.7
			C115.2-49.7,115.7-49.7,116.1-49.7z"/>
		<path style="fill:#007A6C;" d="M299.7,62.4c0,0,0.1,0,0.3,0c0,3.7,0,7.3,0,11c-0.5,0.1-1.3,0.3-1.4,0.2
			C297.2,71,297.9,64.4,299.7,62.4z"/>
		<path style="fill:#007A6C;" d="M85.7-49.7c0.3,4,0.6,7.9,0.9,11.9c-0.3,0-0.6,0-0.9,0.1c-0.4-4-0.9-7.9-1.3-11.9
			C84.8-49.7,85.2-49.7,85.7-49.7z"/>
		<path style="fill:#007A6C;" d="M300,107.7c-2.2-2.2-4.3-4.3-6.5-6.5l-0.1,0.1c2.2,1.1,4.4,2.1,6.5,3.2
			C300,105.5,300,106.6,300,107.7z"/>
		<path style="fill:#007A6C;" d="M99.3-49.7c0.8,3.7,1.7,7.4,2.5,11.1c-0.2,0.1-0.5,0.1-0.7,0.2c-1-3.8-2-7.5-3-11.3
			C98.4-49.7,98.8-49.7,99.3-49.7z"/>
		<path style="fill:#007A6C;" d="M20.9-49.7c0.4,0.8,0.7,1.6,1.2,2.5c-1.6,0-2.9,0-4.7,0c-0.2-0.4-0.6-1.4-1-2.5
			C17.9-49.7,19.4-49.7,20.9-49.7z"/>
		<path style="fill:#007A6C;" d="M208.1-49.7c0.4,2.9,0.7,5.8,1.1,8.7c-0.1,0-0.3,0-0.4,0.1c-0.9-2.9-1.7-5.8-2.6-8.7
			C206.8-49.7,207.4-49.7,208.1-49.7z"/>
		<path style="fill:#007A6C;" d="M72.1-49.7c0,3.2,0,6.4,0,9.6c-0.2,0-0.5,0-0.7,0c-0.2-3.2-0.4-6.4-0.6-9.6
			C71.2-49.7,71.6-49.7,72.1-49.7z"/>
		<path style="fill:#007A6C;" d="M152.9,110.4c-0.5-0.3-1.1-0.6-1.9-1.1c-1.1,3-2.4,5.9-3.3,9c-2.6,8.9-6.8,17.1-13,23.7
			c-4.6,4.9-3,7.9-0.8,12.4c4.6,9.5,8.9,19.1,12.8,29c3.7,9.4,7,19.1,10,28.8c1.2,3.8,1.2,8,1.3,12.2c-3.2-20.2-11.9-38.2-22.2-55.5
			c6.8,19.5,13.7,39.1,20.5,58.6c-0.4,0.2-0.8,0.5-1.2,0.7c-0.7-1.1-1.6-2.1-2-3.3c-3.2-9.3-6.2-18.6-9.4-27.9
			c-3.1-8.8-6.4-17.6-9.4-26.5c-2.3-6.6-4.4-13.3-6.6-19.9c-0.5-0.4-1-0.8-1.5-1.1c-0.4,1-0.7,2.1-1.2,3c-2.8,4.7-5.7,9.4-8.7,14.1
			c-2.2,3.4-4.2,7.1-7,10.1c-5.7,6.1-11.8,11.8-17.6,17.8c-5.4,5.6-11.3,10.6-18.8,13c-5.9,1.9-12.1,3.2-18.4,1.6
			c-1-0.2-1.8-1.2-2.6-1.8c0.8-0.9,1.4-1.9,2.3-2.5c1-0.7,2.2-1.1,3.4-1.5c1.9-0.6,4-1.4,4.4,0.7c2.2-0.4,4-1.2,5.7-0.8
			c1.8,0.4,3.2,0.3,4.7-0.7c0.4-0.3,1.2-0.7,1.4-0.5c3.5,2.3,5.9-0.7,8.1-2.2c3.5-2.4,6.5-5.5,9.5-8.7c-3.4-0.2-6.9-2.1-9.1,1.9
			c-0.2,0.3-1.7,0.2-1.7,0.1c-0.7-3.2-2.6-1.2-4.1-1.1c-5.4,0.2-10.9,0.2-16.3,0.2c-1.7,0-3.4,0.2-5,0c-4.5-0.5-7.8-3-10.5-6.6
			c-1.2-1.7-3.4-2.6-4.7-4.2c-8.3-10.1-18.8-17.8-27.9-27c-2.3-2.4-4.6-4.7-6.9-7.1c-3.1-3.4-4.6-7.2-4.4-12c0.4-8.5,0-17,0.2-25.5
			c0-1.1,0.9-2.3,1.5-3.5c-2.2-1.7-2.3-3.7,0.1-5.8c2.8-2.4,5.4-4.8,8.1-7.3c0.2,0.2,0.4,0.4,0.7,0.5c-3,3.5-6,7-9.1,10.4
			c0.2,0.3,0.3,0.5,0.5,0.8c3.3-1.7,6.5-3.3,9.8-5c0.1,0.1,0.3,0.3,0.4,0.4c-2.1,1.7-4.1,3.4-6.2,5.1c0.1,0.3,0.3,0.5,0.4,0.8
			c1.9-0.8,3.9-1.6,5.9-2.5c1.2,1.2,1.2,1.2-3.8,6.5c2-1.1,4-2.2,6.1-3.3c0.3,0.3,0.5,0.6,0.8,1c-1.9,1.7-3.7,3.5-5.6,5.2
			c0.1,0.2,0.1,0.4,0.2,0.7c2.7-0.8,5.3-1.7,8-2.5c0.1,0.2,0.3,0.3,0.4,0.5c-1.6,1.4-3.3,2.8-4.9,4.3c0.1,0.2,0.2,0.5,0.3,0.7
			c2.7-0.6,5.4-1.2,8.5-1.8c-1.9,1.5-3.8,3-5.7,4.4c0.3,0.4,0.6,0.8,1,1.2c2.1-1.2,4.3-2.4,6.6-3.6c0.3,0.7,0.5,1.4,0.5,1.5
			c4.5-3.3,8.9-6.5,13.3-9.8c0.3,0.3,0.6,0.7,0.9,1c-1,1.3-2.1,2.6-3.6,4.5c4-1.9,7.2-3.5,10.5-5c0.2,0.3,0.3,0.5,0.5,0.8
			c-0.5,0.9-1.1,1.7-1.6,2.6c0.1,0.2,0.3,0.4,0.4,0.6c2.1-1.2,4.3-2.3,6.4-3.5c0.1,0.1,0.3,0.3,0.4,0.4c-1.5,1-3,2.1-4.5,3.1
			c0.4,0.5,0.7,1.1,1.1,1.6c1.7-0.6,3.4-1.1,5.1-1.7c-0.3,0.8-0.6,1.6-1,2.5c4.3,0.1,6.5-1.3,7.3-4.7c-1.1,0.4-2,0.8-2.9,1.2
			c-0.1-0.2-0.2-0.5-0.1-0.6c2.9-3.5,2.9-5.3,0.8-9.6c-0.8-1.6-0.9-3.8-0.6-5.6c1.2-5.6,3.6-10.6,7.1-15.2c1.1-1.4,1.5-3.7,4.4-3.1
			c-4.1,4.3-6.4,9.3-8,14.6c-1.1,3.6,0.5,6.3,4.4,7.4c5.8,1.8,11.6,3.6,17.3,5.4c0.2-0.3,0.5-0.6,0.7-0.9c-0.9-0.3-1.8-0.6-2.6-0.8
			c0.3-0.3,0.6-0.7,0.9-1c5.6,3.1,11.2,6.3,17.6,9.9c5.2-2.7,11.5-5.9,17.9-9.2c0.2,0.4,0.5,0.8,0.7,1.2c-1.6,1-3.4,1.9-4.8,3.1
			c-0.8,0.7-1.6,2.7-1.3,3c2.2,2.2,1.5,4.2-0.4,6.2c0.2,0.2,0.5,0.3,0.7,0.5c1-0.8,2-1.6,3-2.5c4.5,2.5,9,5,13.5,7.6
			c-0.8-2.4-1.7-5.2-2.6-8.1c0.4-0.2,0.9-0.3,1.3-0.5c1.6,3.5,3.3,6.9,4.6,10.5c0.3,0.8-0.8,2.1-1.1,3.1c-0.2,0.7-0.1,1.5-0.1,2.3
			c0.7-0.3,1.4-0.5,2.3-0.9c0.3,0.5,0.7,1.2,1.5,2.4c0-1.3,0-1.9,0-2.5c0.2,0,0.5,0,0.7-0.1c0.2,1.4,0.4,2.7,0.6,4.7
			c4.5-6.8,7.7-13.6,10.8-21.6c3.5-2.1,3.2-7.6,5.8-11.4c2.8-4.1,5-8.5,7.5-12.8c0.3,0.2,0.6,0.3,1,0.5c-0.4,1.1-0.7,2.3-1.3,3.4
			c-2.4,4.9-5.1,9.6-7.3,14.6c-0.5,1.1,0.5,2.8,0.8,4.2C153.1,110.2,153,110.3,152.9,110.4z M104.2,138.2c-9,5.2-18.3,8.8-28.8,4.4
			c0.8,0.4,1.6,0.7,2.4,1.1c-0.1,0.3-0.1,0.6-0.2,0.8c-0.6-0.1-1.3,0-1.8-0.2c-4.6-1.5-9-3.3-13.7-4.5c-5.6-1.4-10.6-3.9-15.3-7.2
			c-1.9-1.3-3.9-2.6-5.9-3.9c-2-1.3-3.6-0.9-5.5,0.6c-4.4,3.3-7.4,7.5-9.5,12.6c1.5,0.9,3.1,1.9,5,3.1c-2.3,1.5-5.2-1.9-6.5,1.3
			c0.9,0.1,1.9,0.2,3.7,0.3c-1.3,0.5-1.7,0.7-2.8,1c4.1,1.5,7.6,2.8,11.1,4c-0.1,0.3-0.1,0.7-0.2,1c-2.3,0.3-4.6,0.7-7.2,1.1
			c3.3,1.9,6.3,3.5,9.2,5.2c-0.1,0.3-0.3,0.6-0.4,0.9c-0.9-0.1-1.9-0.3-2.8-0.4c0.2,0.7,0.3,1.2,0.7,2.5c-4.2-3.3-7.8-6.1-11.4-8.9
			c4.3,9.7,10.9,17,20.4,21.2c0.2,0.9,0.5,1.9,0.7,2.8c0.4,0.2,0.8,0.5,1.2,0.7c0.6-1.4,1.2-2.7,1.8-4.1c0.3,0.1,0.6,0.2,0.9,0.3
			c0.8,4.8,5.1,1.8,7.4,4c-1.3,1-2.5,1.9-4,3.1c2.7,1.1,4.9,1.9,6.5,2.5c1.1-2.6,2.3-5.4,3.3-7.8c2.5,0.4,4.2,0.7,5.8,0.9
			c1-0.8,2.1-1.7,3.2-2.6c0.2,0.2,0.3,0.4,0.5,0.6c-0.6,1.4-1.1,2.8-1.7,4.2c0.4,0.2,0.7,0.3,1.1,0.5c1.1-1.5,2.3-3.1,3.5-4.7
			c0.5,0.7,0.9,1.3,1.3,1.9c1.8-1.9,3.5-3.8,5.2-5.7c0,1.4,0,2.9,0,3.6c1.7,0.7,2.9,1.2,4,1.7c0.2-0.2,0.4-0.4,0.5-0.6
			c-1.6-1.6-3.1-3.1-4.7-4.7c-0.4-0.4-0.6-1.1-1.1-1.3c-2.8-1.5-4.8,0.5-6.9,1.8c-2.9,1.7-4.3,1.2-5.1-2.1c-0.9-3.5-2.2-4.1-5.2-2.5
			c-0.2-0.7-0.3-2.1-0.6-2.1c-5.4-0.4-4.4-4.9-5.6-8.8c4.3,1,8,2.3,11.7,2.6c4.5,0.3,9.1,0.1,13.5-0.5c6.9-0.9,14.4,2,20.8-2.9
			c0.1-0.1,0.3,0.1,0.6,0.3c-1.4,1.9-2.5,4-4.2,5.5c-2,1.8-4.7,2.9-6.8,4.7c-2.1,1.7-4.5,3.5-5.5,5.8c-1,2.1-0.4,5-0.4,7.5
			c0,1.3,0.2,2.6,0.3,4c2.7-3.8,4.8-0.5,6.4,0.1c0.2-1,0.3-1.9,0.6-3.3c0.8,1.4,1.1,1.9,1.1,1.8c1.7-0.7,3.1-1.2,4.4-1.7
			c-0.2,0-0.5-0.1-0.7-0.1c2-3.4,3.9-6.8,5.9-10.2c1.1,1.2,2,2.1,3.1,3.3c1.1-1.2,2.1-2,2.7-3c3.2-4.9,6.4-9.7,9.4-14.7
			c0.6-1,0.5-2.3,0.9-3.5c0.4-1.1,1.2-3.1,1.6-3c3,0.6,2.4-0.6,1.8-2.6c-1.3-3.7-2.5-7.5,0.4-11.1c0.2-0.3-0.1-1.6-0.4-1.6
			c-2-0.5-4.3-1.7-6.1-1.1C113.2,133.9,108.7,136.2,104.2,138.2L104.2,138.2z M101.9,130.5c0,0.2,0.1,0.5,0.1,0.7
			c-1.6,0.8-3.2,1.6-4.7,2.4c0,0.1,0.1,0.2,0.1,0.3c5.6-1.3,11.3-2.5,16.9-3.8c-3.7-0.7-7.1-1.9-10.4-1.8c-3.5,0.1-6.4-0.5-8.7-3.2
			c0-0.1-0.2,0-0.3,0c-4.6,0.5-9.5,0.2-13.8,1.6c-5.3,1.6-10.3,3.3-15.7,1.2c-1.1-0.4-2.2-0.6-3.4-0.9c-3.1-0.8-6.2-2.1-9.3,0.3
			c-0.5,0.4-1.6,0.3-2.5,0.4c0.2-0.9,0.3-1.5,0.4-2.1c-1.9,0.4-3.6,0.8-5.8,1.2c2.2,0.9,3.8,1.7,5.5,2.2c2.5,0.8,5.1,1.5,7.7,2.1
			c2.2,0.5,4.6,3,6.7-0.2c0.1-0.1,0.4,0,0.6,0c3.5,0.4,7,0.9,10.4,1.1c5.4,0.3,10.8,0.6,16.1,0.4C95.3,132.4,98.6,131.2,101.9,130.5
			z M73.6,137.2c5.2,3.4,12.1,3.6,14,0.9C83,137.8,78.2,137.5,73.6,137.2z"/>
		<path style="fill:#007A6C;" d="M153.2,110.1c1.8,2,3.7,4,5.3,6.1c4.2,5.5,8.9,10.7,12.3,16.6c3.2,5.5,5,11.7,7.3,17.7
			c4.2,10.9,6.1,22.4,6.9,34c0.4,4.9-0.2,10.4-2.2,14.8c-4,9.2-9.2,17.9-14,26.8c-0.7,1.2-1.8,2.2-3.4,3.9c3-1.4,5.5-1.9,7-3.5
			c1.8-1.8,2.7-4.5,4.6-6.7c-0.8,2.1-1.4,4.4-2.6,6.3c-3.5,5.8-7.3,11.5-11,17.3c-0.1,0.2-0.3,0.3-0.4,0.5
			c-3.7,6.1-3.7,6.1-11.5,5.4c1.2-2.8,2.3-5.5,3.5-8.2c1.1-2.5,3.1-5,3.3-7.6c0.3-4.5,2.7-8.6,2-13.5c-1.2-8.6-2.8-17.1-5.7-25.3
			c-3.6-10.1-6.4-20.6-11.9-30c-0.4-0.6-0.5-1.4-0.4-2.2c5.7,7,9.8,14.7,12.5,23.2c2.6,8.2,4.9,16.6,7.5,24.8
			c0.6-6.1-0.1-12.1-1.8-18c-3.2-10.6-6-21.4-8.9-32.1c-0.6-2-1.3-4-1.3-6.2c5.6,12.1,6.7,25.6,12.4,37.8c0-1.1,0.2-2.2,0-3.3
			c-1.1-6.4-1.9-12.8-3.5-19c-1.1-4.2-3.5-7.9-5-12c-2.7-7-5.1-14.2-7.3-21.4c8.2,10.3,9.1,23.7,15,35c0.3-0.1,0.7-0.2,1-0.3
			c-0.7-2.9-1.2-5.9-2-8.8c-2.6-8.6-5.3-17.2-8-25.8c-0.1-0.4,0.1-1,0.8-1.7c2.5,8,5,16,7.4,24c0.3,0,0.6,0,0.9-0.1
			c0.3-0.7,0.7-1.4,1.3-2.8c0.3,2.5,0.6,4.5,0.8,6.4c1.8-6.6-1.5-12.5-2.4-18.7c0.3-0.1,0.7-0.2,1-0.4c1.5,4,3.2,7.9,4.4,11.9
			c1.2,4.1,1.8,8.3,2.9,13.4c1.3-8.5-1.1-15.4-3.2-22.5c-0.8-0.2-3.1,0.9-1.6-1.8c0.4-0.8,0.2-2.1,0-3c-1.8-5.8-4.1-11.5-5.4-17.5
			c-1.1-5.2-4.9-8.8-6.9-13.4C153,110.3,153.1,110.2,153.2,110.1z M166.1,165.3c1.6,9.5,3.1,19,4.7,28.7c-1.7,0.8-1.6,1.9-0.3,2.4
			c-0.5,3-1,5.6-1.3,8.2c-0.3,2.6-0.5,5.3-0.8,8c-1.1-10.5,1.2-21-1.4-32.1c-1,13.1-2,25.4-2.9,37c0.5-0.7,1.4-2,2.5-3.5
			c0.8,4.9-5.9,7.6-2,13.4c2.3-3.9,4.5-7.5,6.6-11.2c4.3-7.5,6.6-15.7,8.1-24.2c0.2-1-0.4-2.1-0.8-3.6c-2.2,1.7-3.7,2.9-5.2,4.2
			c0-1.5,0-2.8,0-4.1c-0.3,0-0.6-0.1-0.8-0.1c-0.4,0.7-0.8,1.5-1.5,2.9C170.6,181.7,170.4,173.2,166.1,165.3z M169.8,147.8
			c0.3,0,0.6-0.1,0.9-0.1c-1.1-3.8-2.2-7.6-3.3-11.4c1.2,1.3,1.6,2.8,2.3,4.2c0.6,1.3,1.5,2.6,2.3,3.8c0.4-0.2,0.7-0.4,1.1-0.6
			c-3.7-7.3-7.5-14.6-11.2-21.9c-0.3,0.1-0.5,0.3-0.8,0.4C164,130.8,166.9,139.3,169.8,147.8z"/>
		<path style="fill:#007A6C;" d="M226.4,137c1.4-0.9,2.9-1.9,4.3-2.8c-0.2-0.3-0.4-0.6-0.6-0.9c0.1,0.8,0.1,1.6,0.2,2.5
			c0.3,0.1,0.6,0.2,0.9,0.2c2.9-7.1,5.7-14.3,8.8-21.3c2.1-5,4.6-9.7,8.3-13.9c3.4-3.8,5.7-8.5,8.5-12.8c0.3-0.5,0.8-1,1.8-1.1
			c-0.6,1.1-1.1,2.2-1.8,3.3c-2.8,4.3-4.8,9.1-8.7,12.9c-2.7,2.6-3.9,6.7-5.5,10.3c-3.2,7.5-6.6,15.1-9.3,22.8
			c-1.1,3.2-0.8,7-0.3,10.5c5.5-14.6,11.1-29.2,16.6-43.8c0.4,0.1,0.8,0.3,1.2,0.4c-6.2,17.3-13.4,34.3-15.7,52.7
			c0.3,0.1,0.5,0.2,0.8,0.3c3.2-8.3,6.3-16.6,9.5-24.9c0.2,0.1,0.4,0.1,0.6,0.2c-1.9,6.6-3.8,13.2-5.7,19.8c0.3,0.1,0.7,0.2,1,0.4
			c0.6-1.4,1.2-2.9,1.8-4.3c0.2,0,0.3,0.1,0.5,0.1c-0.3,1.8-0.6,3.7-0.9,5.5c0.2,0.1,0.4,0.1,0.6,0.2c1.2-3.2,2.4-6.3,3.5-9.5
			c3.1-9.4,5.7-18.9,9.1-28.1c3.2-8.5,7.1-16.7,10.7-25c0.4-1,1.2-1.8,2.2-2.5c-10.5,21.7-16.8,44.7-23.1,67.7
			c0.3,0.1,0.6,0.2,0.9,0.4c0.5-1,0.9-1.9,1.4-2.9c0.3,0.1,0.6,0.2,0.9,0.2c-1.6,4.7-3.1,9.4-4.7,14.1c4.3-8.6,8.6-17.1,10.1-27.2
			c2.3,6.8-1.8,12.4-1.7,18.8c1.3-1.7,2.7-3.5,4-5.2c1.1-1.5,2.1-3,3.2-4.4c0.3,0.2,0.7,0.4,1,0.6c-0.5,1.5-0.8,3-1.4,4.3
			c-3.2,6.4-5.8,13.2-9.8,19c-4.2,6-9.9,11.1-15,16.5c-0.3,0.3-1.1,0.1-2.4,0.2c7-6.4,12.3-13.2,15.9-21.2c-2.8,2.9-5.4,6.1-8.4,8.8
			c-2.9,2.6-5.3,6-9.2,7.1c-0.2-0.2-0.3-0.5-0.5-0.7c3-2.8,6-5.6,9-8.4c-0.2-0.1-0.4-0.3-0.6-0.4c-2.8,0.8-5.9,2.5-8.5,2.1
			c-2.8-0.5-5.3-3-8.1-4.8c-3.3,8.3-8,15.9-14.4,22.3c-1.2,1.2-2,2.9-3.4,3.7c-1,0.6-2.5,0.3-3.8,0.4c-0.1-0.4-0.2-0.9-0.3-1.3
			c1.7-1.2,3.4-2.4,5-3.6c8.7-6.6,14.1-15.2,16.1-26c0.5-2.5,1-4.5,4.2-5.6c4-1.4,4.7-4.7,2.9-8.8c-0.3-0.6-0.6-1.2-0.7-1.8
			c-0.4-4.9-0.7-9.8-1-14.7C226.3,137.2,226.4,137,226.4,137z M230.2,154c0.4,0,0.8,0,1.2,0c-0.2-3.4-0.3-6.9-0.5-10.3
			c-0.2,0-0.5,0-0.7,0C230.2,147.1,230.2,150.6,230.2,154z"/>
		<path style="fill:#007A6C;" d="M37.6,226.2c-12.3-5.5-24.6-11.1-37.6-17c1.5-1.3,2.2-1.9,2.3-2c-2.1-7-0.9-13.9-1.3-20.6
			c-0.1-0.8,0-1.6,0-2.9c4.7,3,9,5.8,13.3,8.4c8.5,5.2,16.8,11,25.7,15.1c7.7,3.6,16.3,4.8,24.9,3.2c3.9-0.8,7.9-1.6,12.3-2.5
			c-0.6,1-0.9,1.5-1.5,2.6c2.3-1.2,4.1-2.1,6.4-3.3c0-0.4,0-1.6,0-3c1.2,1.5,1.9,2.7,3,3.4c0.3,0.2,1.8-1.1,2.5-1.9
			c1.6-2,3-4.1,4.5-6.1c0.2,0.2,0.5,0.3,0.7,0.5c-1.4,2.4-2.6,4.9-4.2,7.1c-2.9,4-5.6,8.4-10.2,10.8c-4.1,2.1-8.4,3.9-12.8,5.4
			c-3,1-6.2,1.5-9.3,2c-8.8,1.5-16.4-2.4-24.1-5.7c-7.7-3.2-15.3-6.7-22.9-10c-0.8-0.4-1.7-0.5-2.6-0.7c-0.1,0.3-0.2,0.6-0.3,0.9
			c10.6,4.8,21.3,9.7,31.9,14.5C38.1,225.1,37.8,225.6,37.6,226.2z M63,221.6c1.4-1.2,2.9-2.5,5.2-4.4c-1.9,0.7-2.8,1.2-3.8,1.3
			c-4.1,0.7-8.3,2.1-12.3,1.7c-8.8-1.1-16.9-4.5-24.6-8.9c-1.5-0.8-3-1.6-4.6-2.4c-0.1,0.5-0.2,1-0.3,1.6c-5-3.1-9.7-7.2-16.2-3.7
			C24.3,215.7,42.3,223.5,63,221.6z M73.3,218.2c1.7-1,3.4-2.1,5.8-3.5c-2.7,0-4.7,0-6.5,0C72.7,215.6,72.9,216.7,73.3,218.2z"/>
		<path style="fill:#007A6C;" d="M81.2,249.7c-1.7-1.1-3.4-2.1-5.5-3.4c-2.2,4.1-6.2,3-9.8,3.1c-2.5,0-5,0-7.4,0
			c-4.2,0-6.2-2-6.6-6.5c-0.1-0.7-0.8-1.5-1.4-1.9c-5.4-3.6-10.8-7.2-16.3-10.8c-2.8-1.9-5.7-3.7-8.3-6.1c0.6,0.1,1.2,0.1,1.7,0.3
			c3.1,1.2,5.9,2.2,9.6,2.3c5.8,0.2,11.7-0.3,17.4,0.3c4.9,0.5,8.1,4.5,11.5,7.7c4.3,4.1,8.8,7.8,13.3,11.7c0.9,0.7,2,1.2,2.9,1.8
			C82,248.7,81.6,249.2,81.2,249.7z"/>
		<path style="fill:#007A6C;" d="M226.4,137c0,0-0.1,0.2-0.1,0.2c-2,0.7-2.6,0-2.1-2c1.2-4.7,2.4-9.5,3.7-14.4
			c-4.2,0.4-5.5-3.6-8-5.8c-0.3-0.3-0.1-1.8,0.4-2.3c3.5-4.2,7-8.4,10.8-12.3c1.2-1.2,3.3-1.5,4.9-2.5c2.5-1.5,4.9-3.2,7.4-4.8
			c1.8-1.2,3.5-2.4,5.6-3.1c-7.6,6.3-11.5,15.1-16.5,23.1c0.3,0.3,0.6,0.5,0.9,0.8c1.1-1.3,2.2-2.6,3.2-3.9c1.1-1.4,2-2.9,3-4.4
			c0.3,0.2,0.5,0.3,0.8,0.5c-4.9,7.9-9.8,15.9-14.6,23.8c0.4,0.2,0.8,0.5,1.2,0.7c2.2-3.8,4.4-7.5,6.7-11.3c0.3,0.2,0.7,0.4,1,0.5
			C231.9,125.6,229.2,131.3,226.4,137z"/>
		<path style="fill:#007A6C;" d="M141.1,226.3c-1.2-2.8-2.5-5.7-3.7-8.5c-0.2,0.1-0.5,0.1-0.7,0.2c1.2,3.7,2.4,7.3,3.6,11
			c-0.2,0.1-0.5,0.2-0.7,0.3c-1.9-3.8-3.8-7.7-5.9-11.9c-0.3-0.3-2.8,2.1-1.8-1.4c0.5-1.5-1.1-3.7-1.8-5.7
			c-1.4-4.3-2.8-8.5-4.2-12.8c-0.1-0.4,0-1,0.7-1.7c1.7,3.7,3.4,7.5,5.1,11.2c0.1,0,0.2,0,0.3-0.1c-3.3-12.5-6.6-24.9-9.8-37.4
			c0.4-0.1,0.8-0.2,1.3-0.4C129.6,188.1,138.2,206.2,141.1,226.3z"/>
		<path style="fill:#007A6C;" d="M101.8,215.5c3.6-13.7,5.3-27.8,11.7-40.8c-0.1,0.9-0.1,1.8-0.2,2.7c-0.9,4.7-1.9,9.4-2.5,14.2
			c-0.3,2.1,0.6,4.3,0.5,6.4c-0.3,5.3-0.8,10.6-1.4,15.9c-0.3,3.1-0.9,6.1-1.2,9.2c-0.9,8.7-3.3,17.2-5.1,25.7c-0.3,0-0.6,0-0.9,0
			c-0.1-0.6-0.5-1.3-0.4-1.8c1.6-4.2,2.7-8.5,1.6-13.1c-0.3-1.3,0.9-3,1.4-4.5c0.7-2.1,1.3-4.2,2-6.4c-0.4-0.1-0.7-0.2-1.1-0.3
			c-0.6,1.8-1.2,3.7-1.7,5.5c-0.2-0.1-0.5-0.1-0.7-0.2c0.8-3,1.5-6,2.3-9c1.4-5.3,2.8-10.5,4.1-15.8c0.2-0.7-0.5-1.7-0.9-3
			c-2.4,5.6-4.5,10.5-6.7,15.4C102.4,215.6,102.1,215.6,101.8,215.5z"/>
		<path style="fill:#007A6C;" d="M281.5,160.8c1.4,3.4-1.6,6-3.1,6.8c-3.8,2-7.7,4.8-12.5,3.8c-0.6-0.1-1.3-0.1-1.8-0.4
			c-3.9-2.2-3.9-3.2-0.1-5.6c3.5-2.2,7-4.4,10.5-6.6c1.7-1.1,3.5-2.1,5.6-0.6C280.5,159,281,159.9,281.5,160.8z"/>
		<path style="fill:#007A6C;" d="M14,249.3c-4.5,0-8.5,0-12.8,0c0-8.3,0-16.5,0-24.1C5.2,232.8,9.5,240.9,14,249.3z"/>
		<path style="fill:#007A6C;" d="M124.3,160.6c4.2,6.2,6.2,13,8.3,19.9c2.9,9.5,6.7,18.7,10.1,28.1c2.2,6.1,4.5,12.2,6.3,18.4
			c0.9,3.1,0.8,6.5,1.1,9.9c-0.7-0.2-1.1-0.2-1.1-0.3c-1.5-13.3-6.6-25.5-11.5-37.8c-3.2-8.2-5.6-16.7-8.5-25.1
			c-1.1-3.3-2.6-6.4-3.9-9.7C124.7,163,124.6,161.8,124.3,160.6z"/>
		<path style="fill:#007A6C;" d="M180.4,103.1c-2.5,0.5-4,0.9-5.6,1.2c0,0.3,0,0.6,0,1c5.1,1.3,10.2,2.6,15.3,3.9
			c0.1-0.4,0.2-0.9,0.3-1.3c-2.5-0.5-5-1.1-7.5-1.6c3.9-1.2,7.6-0.9,11.2,1.3c1.3,0.8,3.2,0.7,4.5,1.5c4.3,2.5,8.5,5.2,12.7,7.8
			c0.4,0.3,0.6,1,0.8,1.5c-4.6-2.5-8.9-5-13.4-7.1c-1.5-0.7-3.5-0.5-5.2-0.6c-2.8-0.2-5.6-0.1-8.3-0.5c-5.7-1-11.1-2.6-15.6-6.8
			c1,0.3,2.1,0.6,3,0.9c0.9-0.8,1.8-1.7,2.7-2.5c-1-0.2-2.1-0.5-3.3-0.8c0.1-0.4,0.3-0.8,0.4-1.2C175,100.8,177.4,101.8,180.4,103.1
			z"/>
		<path style="fill:#007A6C;" d="M268.1,121.9c3.6,10.7,8.5,20.6,16.3,29.1c-2.2,1-4.3,2-6.5,2.9C271.8,144,270.7,132.7,268.1,121.9
			z"/>
		<path style="fill:#007A6C;" d="M281.5,160.8c-0.5-0.9-1-1.8-1.5-2.6c-1.5-2.9,1.3-3.4,2.7-4.6c1.1-0.9,2.6-1.4,3.3-1.8
			c-4.2-8.4-8.3-16.6-12.4-24.9c0.3-0.2,0.7-0.3,1-0.5c4.9,7.8,7.3,17.1,14.4,24c0.5-1.3,0.8-2.4,1.1-3.4l-0.1-0.1
			c0.3,5.3-4,8.4-6,12.7C283.8,160.2,282.4,160.4,281.5,160.8z"/>
		<path style="fill:#007A6C;" d="M290.1,147c-1.1-1.6-2.4-3.1-3.2-4.9c-3.7-7.7-7.3-15.4-10.9-23.1c-1.2-2.7-2.2-5.5-3-8.4
			c5.7,10.3,11.5,20.6,17.1,30.9c0.8,1.4,1,3.2,1.3,4.8C291.5,146.4,290.5,146.7,290.1,147C290,146.9,290.1,147,290.1,147z"/>
		<path style="fill:#007A6C;" d="M221.6,249.4c-5.8-13.8-11.5-27.7-17.3-41.5c8.2,12.8,13.6,26.8,18.6,41
			C222.5,249.1,222.1,249.3,221.6,249.4z"/>
		<path style="fill:#007A6C;" d="M151.9-1.6c-5.6-15-11.1-30-16.7-44.9c0.4-0.1,0.7-0.3,1.1-0.4c3,7.5,6.2,14.9,8.9,22.4
			c2.7,7.5,5.1,15.1,7.6,22.6C152.5-1.8,152.2-1.7,151.9-1.6z"/>
		<path style="fill:#007A6C;" d="M129.9,109.1c-4.9-10.4-9.9-20.9-14.8-31.3c0.4-0.2,0.9-0.4,1.3-0.6c4.5,10.7,12.7,19.6,14.3,31.6
			C130.4,108.9,130.2,109,129.9,109.1z"/>
		<path style="fill:#007A6C;" d="M232.4,97.6c4.3-3.4,8-6.3,11.7-9.3c3-2.4,8-2.2,9.4-6.8c5.9-1.5,7.4-7,10.2-11.2
			c0.3,0.2,0.6,0.3,0.8,0.5c-2.1,3.3-3.5,7.5-6.4,9.8c-7.6,6.1-15.9,11.4-24,17C234.1,97.9,233.7,97.7,232.4,97.6z"/>
		<path style="fill:#007A6C;" d="M146.9-43.6c5.3,12.3,10.5,24.6,15.9,37C159-9.5,146.8-38.1,146.9-43.6z"/>
		<path style="fill:#007A6C;" d="M193.2-1.2c-9.8-14.4-15-26.4-16.9-40.4c1.3,3.8,2.7,7.5,3.8,11.4c2.1,6.8,4.1,13.6,8.5,19.4
			C190.7-8.1,191.6-4.4,193.2-1.2C193.1-1.1,193.2-1.2,193.2-1.2z"/>
		<path style="fill:#007A6C;" d="M134.3-2.5c-3.5-9.1-7.1-18.1-10.6-27.2c0.4-0.2,0.9-0.4,1.3-0.5c3.6,9.1,7.1,18.1,10.7,27.2
			C135.2-2.8,134.8-2.6,134.3-2.5z"/>
		<path style="fill:#007A6C;" d="M101.4-34.5c2,8.6,6.6,16.6,6.8,25.6C106.1-17.6,101.1-25.4,101.4-34.5z"/>
		<path style="fill:#007A6C;" d="M119.7-33.1c2.6,9.3,5.3,18.5,7.9,27.8c-0.2,0.1-0.4,0.1-0.5,0.2c-1.5-3.7-3.1-7.4-4.4-11.1
			c-1.2-3.4-2.1-7-2.8-10.5C119.5-28.7,119.8-30.9,119.7-33.1C119.8-33,119.7-33.1,119.7-33.1z"/>
		<path style="fill:#007A6C;" d="M188.9-2.7c2.7,7.5,5.4,15,8.1,22.5c-0.6,0.2-1.1,0.4-1.7,0.6c-2.4-7.5-4.9-15.1-7.3-22.6
			C188.3-2.4,188.6-2.5,188.9-2.7z"/>
		<path style="fill:#007A6C;" d="M118.6,241.4c-1.9-2-1.7-0.3-2.1,1c-0.3,1-1.2,1.9-2.1,2.5c1.9-6.3,3.9-12.5,5.8-18.8
			c0.1,0,0.1,0,0.2,0C119.7,231.2,119.2,236.3,118.6,241.4z"/>
		<path style="fill:#007A6C;" d="M183.2,220.7c0,2.1-0.6,4.6,0.2,6.3c0.9,2.1,3.1,3.6,5,5.6C180.9,231.8,178.4,226.4,183.2,220.7z"
			/>
		<path style="fill:#007A6C;" d="M290.1,235.6c0.2,1.3,0.4,2.6,0.6,3.8c-1.5-0.3-2.7-0.6-3.9-0.9c0.1-5.2-5-7.9-7.6-12
			c0.3-0.2,0.5-0.5,0.8-0.7c2.6,2.8,5.2,5.6,7.8,8.3c0.7,0.7,1.7,1.1,2.5,1.7L290.1,235.6z"/>
		<path style="fill:#007A6C;" d="M150.5-21.9c2.3,6.9,6.9,12.9,7,20.7c-2.8-6.9-5.5-13.6-8.2-20.4C149.7-21.7,150.1-21.8,150.5-21.9
			z"/>
		<path style="fill:#007A6C;" d="M193.1-1.1c2,5,4.1,10,6,15c0.5,1.3,0.8,2.7,0.5,4.3c-0.4-0.8-0.9-1.5-1.2-2.3
			C196.7,10.2,194.9,4.5,193.1-1.1C193.2-1.2,193.1-1.1,193.1-1.1z"/>
		<path style="fill:#007A6C;" d="M297.6,100.1c-4.1-2.7-8.2-5.4-12.3-8.1C288.7,90.5,292.5,92.8,297.6,100.1z"/>
		<path style="fill:#007A6C;" d="M223.4,30.4c-0.8,2.5-1.5,5-2.5,7.4c-0.9,2.2-2.1,4.3-3.1,6.4C216.9,41.6,220.3,33.2,223.4,30.4
			C223.5,30.5,223.4,30.4,223.4,30.4z"/>
		<path style="fill:#007A6C;" d="M297.6,232.4c-5,2-6.9-1-8.5-4.7C291.9,229.3,294.7,230.9,297.6,232.4z"/>
		<path style="fill:#007A6C;" d="M97.5,216.4c-1.9,5.1-3.7,10.3-5.6,15.4c-0.3-0.1-0.5-0.2-0.8-0.3c1.7-5.2,3.4-10.4,5.1-15.6
			C96.7,216.2,97.1,216.3,97.5,216.4z"/>
		<path style="fill:#007A6C;" d="M266.6,229.1c2,3.2,3.9,6.3,5.8,9.4C268.5,237.5,266.7,234.5,266.6,229.1z"/>
		<path style="fill:#007A6C;" d="M291.8,161.6c1.5-3.6,3-7.2,4.5-10.9C297.8,154,296,158.2,291.8,161.6L291.8,161.6z"/>
		<path style="fill:#007A6C;" d="M84.5-29.2c0.8,4.9,1.5,9.8,2.3,14.7c-0.5,0.1-0.9,0.1-1.4,0.2C85.1-19.3,84.8-24.3,84.5-29.2
			C84.6-29.3,84.5-29.2,84.5-29.2z"/>
		<path style="fill:#007A6C;" d="M130.4,112.7c1.5,3.2,3,6.3,4.4,9.5c-0.3,0.2-0.6,0.3-1,0.5c-4.1-1.7-1.5-7-4.9-9.1
			C129.5,113.2,129.9,112.9,130.4,112.7z"/>
		<path style="fill:#007A6C;" d="M88.3-34.8c0,4.7,0,9.3,0,14c-0.1,0-0.2,0-0.3,0c0-4.7,0-9.3,0-14C88.1-34.8,88.2-34.8,88.3-34.8z"
			/>
		<path style="fill:#007A6C;" d="M293.5,101.2c-1.9-0.8-4-1.3-5.7-2.3c-2.6-1.6-4.9-3.6-6.9-6c1.3,0.8,2.5,1.5,3.8,2.3
			c2.6,1.6,5.2,3.1,7.8,4.7C292.9,100.1,293.1,100.8,293.5,101.2C293.5,101.2,293.5,101.2,293.5,101.2z"/>
		<path style="fill:#007A6C;" d="M164.4,78.1c1.7-3.5,3.5-7,5.2-10.4c0.3,0.1,0.5,0.3,0.8,0.4c-1.7,3.5-3.3,7.1-5,10.6
			C165.1,78.5,164.8,78.3,164.4,78.1z"/>
		<path style="fill:#007A6C;" d="M197.4,36.1c1.8-2.1,3.5-4.2,5.3-6.3c0.4,0.4,0.9,0.7,1.3,1.1c-1.8,2.1-3.5,4.2-5.3,6.2
			C198.3,36.7,197.9,36.4,197.4,36.1z"/>
		<path style="fill:#007A6C;" d="M217.8,141.6c-0.9-4.8-1.7-9.6-2.6-14.4c0.3-0.1,0.6-0.1,0.9-0.2c0.9,4.8,1.8,9.7,2.7,14.5
			C218.5,141.6,218.2,141.6,217.8,141.6z"/>
		<path style="fill:#007A6C;" d="M246.3,37.1c0.3,2.8,0.5,5.5,0.8,8.3c-0.6,0-1.1,0.1-1.7,0.1c-0.2-2.8-0.4-5.5-0.7-8.3
			C245.3,37.2,245.8,37.2,246.3,37.1z"/>
		<path style="fill:#007A6C;" d="M71.9-35.6c0,4.4,0,8.8,0,13.3c-0.2,0-0.4,0-0.6,0c0-4.4,0-8.9,0-13.3
			C71.5-35.6,71.7-35.6,71.9-35.6z"/>
		<path style="fill:#007A6C;" d="M195.5,92.7c3,1.9,5.9,3.7,8.9,5.6c-0.2,0.4-0.5,0.7-0.7,1.1c-3-1.9-5.9-3.8-8.9-5.8
			C195.1,93.3,195.3,93,195.5,92.7z"/>
		<path style="fill:#007A6C;" d="M165.7,89.3c2.8,2,5.6,4,8.5,6c-0.1,0.2-0.2,0.3-0.3,0.5c-0.9-0.4-1.8-0.8-2.6-1.3
			c-0.8-0.5-1.6-1.6-2.3-1.6C165.7,93.1,166,90.8,165.7,89.3z"/>
		<path style="fill:#007A6C;" d="M252.2,247.5c-0.9-2.5-1.8-5-2.7-7.3c3,1.6,3.9,3.3,3.6,7C252.8,247.3,252.5,247.4,252.2,247.5z"/>
		<path style="fill:#007A6C;" d="M219.5,223.8c-1.8-2.9-3.6-5.8-5.5-8.7c0.2-0.2,0.5-0.3,0.7-0.5c1.9,2.8,3.9,5.6,5.8,8.4
			C220.2,223.3,219.9,223.6,219.5,223.8z"/>
		<path style="fill:#007A6C;" d="M213.4,26c-1.8,3.2-3.5,6.3-5.3,9.5c-0.3-0.2-0.6-0.3-0.9-0.5c1.8-3.1,3.6-6.3,5.4-9.4
			C212.9,25.7,213.2,25.9,213.4,26z"/>
		<path style="fill:#007A6C;" d="M224.7,201.2c-2-2.3-4.1-4.7-6.1-7c0.3-0.3,0.6-0.5,0.9-0.8c2,2.3,4.1,4.7,6.1,7
			C225.3,200.7,225,201,224.7,201.2z"/>
		<path style="fill:#007A6C;" d="M146.5,107.9c-1,1.5-2.1,2.9-3.1,4.4c-0.2-0.1-0.5-0.3-0.7-0.4c1-2.1,2-4.1,3.2-6.7
			c0.6,1.3,1,2.2,1.4,3.1C147,108.1,146.8,108,146.5,107.9z"/>
		<path style="fill:#007A6C;" d="M202.3,29.1c-2.7,0.6-3.3-1.5-4.2-3.3c0.2-0.3,0.3-0.5,0.5-0.8c1.5,1,3,1.9,4.4,2.9
			C202.9,28.3,202.6,28.7,202.3,29.1z"/>
		<path style="fill:#007A6C;" d="M237.6,86.2c-2.4,1.8-4.8,3.5-7.2,5.3c-0.2-0.3-0.5-0.7-0.7-1c2.4-1.8,4.8-3.6,7.2-5.3
			C237.2,85.5,237.4,85.9,237.6,86.2z"/>
		<path style="fill:#007A6C;" d="M291.7,161.5c-2,3-4,6.1-6,9.1c-0.4-0.3-0.8-0.6-1.2-0.9C287,167,289.4,164.3,291.7,161.5
			C291.8,161.6,291.7,161.5,291.7,161.5z"/>
		<path style="fill:#007A6C;" d="M181.6,99.5c-2-0.9-4-1.7-6-2.6c0.2-0.4,0.4-0.9,0.5-1.3c2,0.8,4,1.7,6.1,2.5
			C182,98.6,181.8,99,181.6,99.5z"/>
		<path style="fill:#007A6C;" d="M80-29.6c0.4,3.1,0.7,6.1,1.1,9.2c-0.4,0-0.7,0.1-1.1,0.1c-0.3-3.1-0.6-6.1-0.8-9.2
			C79.5-29.5,79.8-29.5,80-29.6z"/>
		<path style="fill:#007A6C;" d="M295.8,144.1c-1.7-2.9-3.3-5.9-5-8.8c0.2-0.1,0.4-0.2,0.6-0.4c1.8,2.8,3.7,5.7,5.5,8.5
			C296.5,143.6,296.2,143.9,295.8,144.1z"/>
		<path style="fill:#007A6C;" d="M276.1,152.9c-1,0.4-1.7,0.7-2.4,0.9c0.1,0.2,0.1,0.5,0.2,0.7c-1.2-0.5-2.4-1-3.8-1.7
			C272.3,151.3,274.1,150.9,276.1,152.9z"/>
		<path style="fill:#007A6C;" d="M190.5,100.2c2.7,1.2,5.4,2.4,8.2,3.6c-0.1,0.3-0.3,0.6-0.4,0.9c-2.7-1.2-5.5-2.4-8.2-3.6
			C190.2,100.8,190.3,100.5,190.5,100.2z"/>
		<path style="fill:#007A6C;" d="M170.6,86.8c2.2,1.2,4.5,2.4,6.7,3.6c-0.3,0.4-0.5,0.8-0.8,1.3c-2.1-1.4-4.3-2.7-6.4-4.1
			C170.2,87.3,170.4,87.1,170.6,86.8z"/>
		<path style="fill:#007A6C;" d="M6.9,87.2c-1.9,2.6-3.8,5.2-5.6,7.6C1.1,92.6,2.4,90.3,6.9,87.2z"/>
		<path style="fill:#007A6C;" d="M93.9-10.4c-0.3-3.5-0.6-6.9-0.9-10.4c0.3,0,0.5-0.1,0.8-0.1c0.3,3.5,0.5,6.9,0.8,10.4
			C94.3-10.4,94.1-10.4,93.9-10.4z"/>
		<path style="fill:#007A6C;" d="M290.2,235.7c-1.1-1.7-2.2-3.4-3.2-5.1c0.3-0.2,0.5-0.4,0.8-0.6c1.7,2.1,3.4,4.2,5.1,6.4
			c-0.2,0.2-0.4,0.4-0.6,0.6C291.6,236.6,290.9,236.1,290.2,235.7C290.1,235.6,290.2,235.7,290.2,235.7z"/>
		<path style="fill:#007A6C;" d="M258.2,56.9c1.7-2.2,3.4-4.4,5.1-6.6c0.3,0.2,0.6,0.5,0.9,0.7c-1.7,2.2-3.4,4.4-5.2,6.5
			C258.7,57.3,258.5,57.1,258.2,56.9z"/>
		<path style="fill:#007A6C;" d="M99.3-11.1c-0.2-2.3-0.5-4.5-0.7-6.8c0.3,0,0.6-0.1,0.8-0.1c0.4,2.3,0.8,4.5,1.2,6.8
			C100.1-11.3,99.7-11.2,99.3-11.1z"/>
		<path style="fill:#007A6C;" d="M72.5,65.1c0.2-1.2,0.5-2.4,0.8-4.3c0.8,0.8,1.9,1.6,1.7,2c-0.4,1.1-1.3,1.9-1.9,2.9
			C72.9,65.5,72.7,65.3,72.5,65.1z"/>
		<path style="fill:#007A6C;" d="M30.1,231.3c-2.1-1.2-4.2-2.4-6.3-3.6c0.2-0.3,0.3-0.6,0.5-1c2.1,1.1,4.3,2.2,6.4,3.3
			C30.5,230.4,30.3,230.9,30.1,231.3z"/>
		<path style="fill:#007A6C;" d="M205.6,45.8c1.5-2.8,3-5.5,4.5-8.3c0.2,0.1,0.4,0.2,0.6,0.3c-1.5,2.8-3,5.5-4.5,8.3
			C206,46,205.8,45.9,205.6,45.8z"/>
		<path style="fill:#007A6C;" d="M297.9,33.1c-0.9-0.4-1.9-0.9-2.8-1.3c-2.8-1.9-5.7-3.8-8.5-5.9c-0.5-0.3-0.5-1.2-0.8-1.8
			c0.8-0.1,1.9-0.5,2.5-0.2c2.9,2,5.6,4.2,8.4,6.3c0.3,0.3,1,0.3,1.1,0.6C298.1,31.6,297.9,32.4,297.9,33.1z"/>
		<path style="fill:#007A6C;" d="M215.2-0.6c-4.5-3.2-10.7-22.1-9.5-27.5c1,3.1,1.8,6.3,3,9.3c1.3,3.1,3,6,4.4,9
			c0.8,1.7,3.3,3.1,1.3,5.6C214-3.6,214.8-2.2,215.2-0.6z"/>
		<path style="fill:#007A6C;" d="M211.9-15.7c2.5,1.3,4.4,2.3,7,3.7C214.2-10.3,213.6-10.7,211.9-15.7z"/>
		<path style="fill:#007A6C;" d="M298.1,44.3c-1.3,0.6-2.6,1.2-4.1,1.9c-0.4-1-0.8-2.1-1.3-3.3c2.1,0.3,3.8,0.5,5.4,0.7
			C298.1,43.8,298.1,44.1,298.1,44.3z"/>
		<path style="fill:#007A6C;" d="M56.9-45.3c0,7.7,0,15.4,0,23.1c-0.2,0-0.4,0-0.6,0c0-7.7,0-15.4,0-23.1
			C56.5-45.3,56.7-45.3,56.9-45.3z"/>
		<path style="fill:#007A6C;" d="M53-32.8c0-4.5,0-8.9,0-13.4c0.3,0,0.6,0,0.9,0c0,4.5,0,8.9,0,13.4C53.6-32.8,53.3-32.8,53-32.8z"
			/>
		<path style="fill:#007A6C;" d="M51.3-45.6c0,4.2,0,8.3,0,12.5c-2-4-0.8-8.3-1.1-12.4C50.5-45.5,50.9-45.6,51.3-45.6z"/>
		<path style="fill:#007A6C;" d="M166.1,165.3c4.3,7.9,4.5,16.4,4.7,25.8c0.8-1.5,1.2-2.2,1.5-2.9c0.3,0,0.6,0.1,0.8,0.1
			c0,1.3,0,2.7,0,4.1c1.5-1.2,3-2.4,5.2-4.2c0.4,1.5,1,2.6,0.8,3.6c-1.5,8.5-3.8,16.7-8.1,24.2c-2.1,3.7-4.3,7.3-6.6,11.2
			c-3.8-5.7,2.8-8.5,2-13.4c-1.1,1.5-2,2.8-2.5,3.5c0.9-11.6,1.9-23.9,2.9-37c2.7,11.1,0.4,21.6,1.4,32.1c0.3-2.7,0.5-5.3,0.8-8
			c0.3-2.6,0.8-5.2,1.3-8.2c-1.3-0.5-1.4-1.6,0.3-2.4C169.2,184.3,167.7,174.8,166.1,165.3z"/>
		<path style="fill:#007A6C;" d="M169.8,147.8c-2.9-8.5-5.8-17-8.7-25.5c0.3-0.1,0.5-0.3,0.8-0.4c3.7,7.3,7.5,14.6,11.2,21.9
			c-0.4,0.2-0.7,0.4-1.1,0.6c-0.8-1.3-1.6-2.5-2.3-3.8c-0.7-1.4-1.1-2.9-2.3-4.2c1.1,3.8,2.2,7.6,3.3,11.4
			C170.4,147.7,170.1,147.8,169.8,147.8z"/>
		<path style="fill:#007A6C;" d="M230.2,154c0-3.4,0-6.9,0-10.3c0.2,0,0.5,0,0.7,0c0.2,3.4,0.3,6.9,0.5,10.3
			C231,154,230.6,154,230.2,154z"/>
		<path style="fill:#007A6C;" d="M106.9,146.2c-2.4,2.4-4.8,4.8-7.2,7.3c-0.2-0.2-0.4-0.4-0.6-0.5c1.5-2.1,3-4.2,4.7-6.6
			c-0.4-0.6-1.1-1.5-1.7-2.5c0.1-0.1,0.2-0.3,0.3-0.4C103.9,144.3,105.5,145.3,106.9,146.2C107,146.2,106.9,146.2,106.9,146.2z"/>
		<path style="fill:#007A6C;" d="M104.2,138.3c0.6,0.8,1,2.2,1.7,2.4c3.1,1,2.8,2.6,1.1,4.6c-0.2,0.2-0.1,0.6-0.2,0.9
			c0,0,0.1,0,0.1,0c-0.4-1.3-0.7-2.6-1.2-3.8C105.3,141,104.7,139.6,104.2,138.3C104.2,138.2,104.2,138.3,104.2,138.3z"/>
	</g>
</g>
</svg>
