<svg xmlns="http://www.w3.org/2000/svg" viewBox="0 0 53.8 100"><style>.st0{fill:none}</style><path class="st0" d="M17.8 53s-2.6 1.5 1.9 2c5.4.6 8.2.5 14.2-.6 0 0 1.6 1 3.8 1.8C24.2 62.1 7.2 56 17.8 53zm-1.7-7.5c-11.6 3.9 6.5 8.2 22.7 3.5-1.7-.6-2.8-1.7-2.8-1.7-7.9 1.5-12.5 1.5-18.3.9-4.5-.5-1.6-2.7-1.6-2.7zM30 32.8c3.3 3.8-.9 7.2-.9 7.2s8.4-4.3 4.5-9.8c-3.6-5.1-6.4-7.6 8.6-16.3 0 .1-23.4 6-12.2 18.9zm17.7 25.8s1.9 1.6-2.1 2.8c-7.7 2.3-32.3 3.1-39.1.1-2.4-1.1 2.1-2.5 3.6-2.9 1.5-.3 2.4-.3 2.4-.3-2.7-1.9-17.6 3.8-7.6 5.4 27.4 4.5 49.9-1.9 42.8-5.1zM19 37.8s-4.8-.3-10.8 2.6c-7 3.4 17.4 5 30.1 1.6 1.3-.9 3.1-1.7 3.1-1.7s-5.2.9-10.3 1.4c-6.3.5-13.1.6-16.5.2-8-1.2 4.4-4.1 4.4-4.1zm22.4 12.5c-.1.2-.3.3-.3.3 17.2-4.5 10.9-15.9 2.6-13-.7.3-1.1.8-1.1.8s.5-.2 1.5-.4c4.2-.9 10.2 5.6-2.7 12.3zM33.6 0c2.9 11.3-10.1 14.7-14.8 21.8-3.2 4.8 1.6 10 8.1 15.8-2.5-5.7-11.1-10.7 0-19.5C40.8 7.1 33.6 0 33.6 0zM20.3 68.4c12.4.8 31.3-.4 31.8-6.3 0 0-.9 2.2-10.2 4-10.5 2-23.5 1.8-31.3.5 0-.1 1.6 1.3 9.7 1.8zm31.2 10.5V80h.3v-1.1h.4v-.2h-1v.2h.3zm2 0v1h.2v-1.3h-.4l-.3.9-.3-.9h-.4v1.3h.2v-1l.4 1h.2l.4-1zM18.3 90.7V87h-1.4c-3.7 0-4.6 1.2-4.6 2.8 0 1.5.9 2.5 2.4 2.5 1.2 0 2.4-.6 3.6-1.6zm3.2 3.6H19l-.3-1.7c-1.4 1.2-2.9 2-4.9 2-3.1 0-4.7-1.6-4.7-4.4 0-3.2 2.5-5.4 8-5.4h1.1v-1.4c0-1.9-1-2.8-3.3-2.8-1.6 0-3.3.4-4.6.9l-.5-2c1.6-.7 3.7-1.3 6-1.3 3.9 0 5.6 1.9 5.6 4.8v11.3h.1zm10.7 0c2.3-4.9 3.9-10.5 4.9-15.7h-3.4c-.5 4.1-1.6 8.4-3.1 12.6l-.7-2.9-3-9.7h-3.5l4.8 15.7h4zm15.4-3.6V87h-1.4c-3.7 0-4.6 1.2-4.6 2.8 0 1.5.9 2.5 2.4 2.5 1.2 0 2.4-.6 3.6-1.6zm3.2 3.6h-2.5l-.3-1.7c-1.4 1.2-2.9 2-4.9 2-3.1 0-4.7-1.6-4.7-4.4 0-3.2 2.5-5.4 8-5.4h1.1v-1.4c0-1.9-1-2.8-3.2-2.8-1.6 0-3.3.4-4.6.9l-.5-2c1.6-.7 3.7-1.3 6-1.3 3.9 0 5.6 1.9 5.6 4.8v11.3zM5.6 97c.9-1.4 1.2-2.8 1.2-6.3V73H3.4v18c0 2.6-.2 3.7-.6 4.5-.5 1-1.5 2-2.8 2.6l1.6 1.9c1.6-.6 3.1-1.7 4-3z"/></svg>