<svg xmlns="http://www.w3.org/2000/svg" viewBox="0 0 90.7 100"><style>.st0{fill:none}</style><path class="st0" d="M41.3 1.1c2.5-1.4 5.7-1.4 8.2 0 12.5 7 24.9 14.1 37.4 21.1 2.3 1.3 3.9 3.9 3.9 6.6v42.4c0 2.8-1.7 5.5-4.2 6.8-12.4 7-24.8 14-37.3 21-2.5 1.4-5.8 1.3-8.3-.2-3.7-2.2-7.5-4.3-11.2-6.5-.8-.5-1.6-.8-2.2-1.6.5-.6 1.3-.7 2-1 1.6-.5 3-1.3 4.4-2.1.4-.2.8-.2 1.1.1 3.2 1.8 6.3 3.7 9.5 5.5.7.4 1.4-.1 2-.5C59 85.9 71.2 79.1 83.3 72.2c.5-.2.7-.7.7-1.2V29.1c.1-.6-.3-1.1-.8-1.3-12.4-7-24.8-14-37.1-20.9-.4-.3-1-.3-1.5 0-12.4 7-24.7 14-37.1 20.9-.5.2-.8.7-.8 1.2v41.9c0 .5.2 1 .7 1.2 3.3 1.9 6.6 3.7 9.9 5.6 1.9 1 4.1 1.6 6.2.8 1.8-.6 3.1-2.5 3-4.4V32.4c0-.6.5-1.1 1.1-1.1h4.8c.7 0 1.1.6 1 1.3v42c0 3.7-1.5 7.8-5 9.6-4.2 2.2-9.5 1.7-13.7-.4-3.6-1.8-7.1-4-10.7-5.9-2.3-1.2-4-3.9-4-6.7V28.8c0-2.8 1.6-5.4 4-6.7 12.4-7 24.9-14 37.3-21zm10.8 29.3c-3.9.4-8 1.5-10.9 4.4-2.9 2.9-3.6 7.5-2.2 11.3 1 2.7 3.5 4.4 6.1 5.3C51.5 53.7 58.5 53 65 55c1.3.4 2.7 1.1 3.1 2.5.4 1.7 0 3.6-1.3 4.7-2.5 2-5.9 2.1-9 2.2-3.7-.1-7.7.1-10.9-2-1.7-1.1-2.4-3.1-2.7-5.1 0-.6-.5-1.1-1.1-1.1h-4.7c-.6 0-1.1.4-1.2.9-.1 3.4 1.2 7 3.8 9.2 3.1 2.7 7.2 3.7 11.1 4.2 4.2.4 8.5.4 12.7-.5 3.1-.7 6.2-2.1 8.4-4.5 2.6-3 3.2-7.4 2-11.2-.9-2.8-3.5-4.6-6.2-5.5-6.4-2.2-13.3-2.1-19.9-3.8-1.1-.4-2.5-.7-3-1.9-.5-1.7-.1-3.7 1.4-4.8 2-1.4 4.4-1.6 6.7-1.7 3.2 0 6.5-.1 9.4 1.3 1.9 1 3 3 3.4 5 .1.6.5 1.2 1.1 1.2h4.7c.5 0 1.1-.3 1.2-.8-.1-4.2-2.2-8.5-5.9-10.5-4.8-2.6-10.6-2.7-16-2.4z"/></svg>