<svg xmlns="http://www.w3.org/2000/svg" viewBox="0 0 600 300"><style>.st0{fill:none}.st1{fill:#707384}.st2{fill:#63afdb}.st3{fill:#468cbe}.st4{fill:#464655}.st5{fill:#0ba06a}.st6{fill:#00dccd}.st7{fill:#ffdc69}.st8{fill:#fff}.st9{fill:#ffa055}.st10{fill:#a0d778}.st11{fill:#ea13b2}.st12{fill:#72c6e8}</style><path class="st0" d="M0 0h600v300H0z"/><path class="st1" d="M332.1 72.5H268c-4.4 0-8 3.6-8 8v139c0 4.4 3.6 8 8 8h64.1c4.4 0 8-3.6 8-8v-139c0-4.4-3.6-8-8-8zm-42.8 10.7c0-1.5 1.2-2.7 2.7-2.7h16c1.5 0 2.7 1.2 2.7 2.7 0 1.5-1.2 2.7-2.7 2.7h-16c-1.5 0-2.7-1.2-2.7-2.7zm-8-2.7c1.5 0 2.7 1.2 2.7 2.7 0 1.5-1.2 2.7-2.7 2.7-1.5 0-2.7-1.2-2.7-2.7 0-1.5 1.2-2.7 2.7-2.7zM300 222.2c-3 0-5.3-2.4-5.3-5.3 0-3 2.4-5.3 5.3-5.3 3 0 5.3 2.4 5.3 5.3s-2.3 5.3-5.3 5.3zm34.7-48.1v32.1h-69.5V93.9h69.5v80.2zm0 0"/><path class="st2" d="M265.3 174.1h21.4c0-1.5 1.2-2.7 2.7-2.7 1.5 0 2.7 1.2 2.7 2.7h5.3c0-1.5 1.2-2.7 2.7-2.7 1.5 0 2.7 1.2 2.7 2.7h5.3c0-1.5 1.2-2.7 2.7-2.7 1.5 0 2.7 1.2 2.7 2.7h21.4V93.9h-69.5v80.2zm48.1-66.9c0-1.5 1.2-2.7 2.7-2.7h10.7c1.5 0 2.7 1.2 2.7 2.7v10.7c0 1.5-1.2 2.7-2.7 2.7H316c-1.5 0-2.7-1.2-2.7-2.7v-10.7zm0 21.4c0-1.5 1.2-2.7 2.7-2.7h10.7c1.5 0 2.7 1.2 2.7 2.7v10.7c0 1.5-1.2 2.7-2.7 2.7H316c-1.5 0-2.7-1.2-2.7-2.7v-10.7zm0 21.4c0-1.5 1.2-2.7 2.7-2.7h10.7c1.5 0 2.7 1.2 2.7 2.7v10.7c0 1.5-1.2 2.7-2.7 2.7H316c-1.5 0-2.7-1.2-2.7-2.7V150zM292 107.2c0-1.5 1.2-2.7 2.7-2.7h10.7c1.5 0 2.7 1.2 2.7 2.7v10.7c0 1.5-1.2 2.7-2.7 2.7h-10.7c-1.5 0-2.7-1.2-2.7-2.7v-10.7zm0 21.4c0-1.5 1.2-2.7 2.7-2.7h10.7c1.5 0 2.7 1.2 2.7 2.7v10.7c0 1.5-1.2 2.7-2.7 2.7h-10.7c-1.5 0-2.7-1.2-2.7-2.7v-10.7zm0 21.4c0-1.5 1.2-2.7 2.7-2.7h10.7c1.5 0 2.7 1.2 2.7 2.7v10.7c0 1.5-1.2 2.7-2.7 2.7h-10.7c-1.5 0-2.7-1.2-2.7-2.7V150zm-21.4-42.8c0-1.5 1.2-2.7 2.7-2.7H284c1.5 0 2.7 1.2 2.7 2.7v10.7c0 1.5-1.2 2.7-2.7 2.7h-10.7c-1.5 0-2.7-1.2-2.7-2.7v-10.7zm0 21.4c0-1.5 1.2-2.7 2.7-2.7H284c1.5 0 2.7 1.2 2.7 2.7v10.7c0 1.5-1.2 2.7-2.7 2.7h-10.7c-1.5 0-2.7-1.2-2.7-2.7v-10.7zm0 21.4c0-1.5 1.2-2.7 2.7-2.7H284c1.5 0 2.7 1.2 2.7 2.7v10.7c0 1.5-1.2 2.7-2.7 2.7h-10.7c-1.5 0-2.7-1.2-2.7-2.7V150zm0 0"/><path class="st3" d="M310.7 176.7c-1.5 0-2.7-1.2-2.7-2.7h-5.3c0 1.5-1.2 2.7-2.7 2.7-1.5 0-2.7-1.2-2.7-2.7H292c0 1.5-1.2 2.7-2.7 2.7-1.5 0-2.7-1.2-2.7-2.7h-21.4v32.1h69.5V174h-21.4c.1 1.5-1.1 2.7-2.6 2.7zm-24.1 18.7c0 1.5-1.2 2.7-2.7 2.7h-10.7c-1.5 0-2.7-1.2-2.7-2.7v-10.7c0-1.5 1.2-2.7 2.7-2.7H284c1.5 0 2.7 1.2 2.7 2.7v10.7zm21.4 0c0 1.5-1.2 2.7-2.7 2.7h-10.7c-1.5 0-2.7-1.2-2.7-2.7v-10.7c0-1.5 1.2-2.7 2.7-2.7h10.7c1.5 0 2.7 1.2 2.7 2.7v10.7zm8-13.3h10.7c1.5 0 2.7 1.2 2.7 2.7v10.7c0 1.5-1.2 2.7-2.7 2.7H316c-1.5 0-2.7-1.2-2.7-2.7v-10.7c.1-1.5 1.3-2.7 2.7-2.7zm0 0"/><path class="st4" d="M292 85.9h16c1.5 0 2.7-1.2 2.7-2.7 0-1.5-1.2-2.7-2.7-2.7h-16c-1.5 0-2.7 1.2-2.7 2.7 0 1.5 1.2 2.7 2.7 2.7zm0 0M284 83.2c0 1.5-1.2 2.7-2.7 2.7-1.5 0-2.7-1.2-2.7-2.7 0-1.5 1.2-2.7 2.7-2.7 1.5 0 2.7 1.2 2.7 2.7zm0 0M305.3 216.8c0 3-2.4 5.3-5.3 5.3-3 0-5.3-2.4-5.3-5.3 0-3 2.4-5.3 5.3-5.3 3 0 5.3 2.4 5.3 5.3zm0 0"/><path class="st2" d="M305.3 182.1h-10.7c-1.5 0-2.7 1.2-2.7 2.7v10.7c0 1.5 1.2 2.7 2.7 2.7h10.7c1.5 0 2.7-1.2 2.7-2.7v-10.7c0-1.5-1.2-2.7-2.7-2.7zm-5.3 13.3c-3 0-5.3-2.4-5.3-5.3 0-3 2.4-5.3 5.3-5.3 3 0 5.3 2.4 5.3 5.3s-2.3 5.3-5.3 5.3zm0 0"/><path class="st5" d="M313.4 195.4c0 1.5 1.2 2.7 2.7 2.7h10.7c1.5 0 2.7-1.2 2.7-2.7v-10.7c0-1.5-1.2-2.7-2.7-2.7H316c-1.5 0-2.7 1.2-2.7 2.7v10.7zm0 0"/><path class="st6" d="M284 182.1h-10.7c-1.5 0-2.7 1.2-2.7 2.7v10.7c0 1.5 1.2 2.7 2.7 2.7H284c1.5 0 2.7-1.2 2.7-2.7v-10.7c-.1-1.5-1.3-2.7-2.7-2.7zm0 0"/><path class="st7" d="M294.7 163.4h10.7c1.5 0 2.7-1.2 2.7-2.7V150c0-1.5-1.2-2.7-2.7-2.7h-10.7c-1.5 0-2.7 1.2-2.7 2.7v10.7c0 1.5 1.2 2.7 2.7 2.7zm0 0"/><path class="st8" d="M316 163.4h10.7c1.5 0 2.7-1.2 2.7-2.7V150c0-1.5-1.2-2.7-2.7-2.7H316c-1.5 0-2.7 1.2-2.7 2.7v10.7c.1 1.5 1.3 2.7 2.7 2.7zm0-8.1c0-1.5 1.2-2.7 2.7-2.7h5.3c1.5 0 2.7 1.2 2.7 2.7 0 1.5-1.2 2.7-2.7 2.7h-5.3c-1.5 0-2.7-1.2-2.7-2.7zm0 0"/><path class="st3" d="M273.3 163.4H284c1.5 0 2.7-1.2 2.7-2.7V150c0-1.5-1.2-2.7-2.7-2.7h-10.7c-1.5 0-2.7 1.2-2.7 2.7v10.7c0 1.5 1.2 2.7 2.7 2.7zm0-8.1c0-1.5 1.2-2.7 2.7-2.7h5.3c1.5 0 2.7 1.2 2.7 2.7 0 1.5-1.2 2.7-2.7 2.7H276c-1.5 0-2.7-1.2-2.7-2.7zm0 0"/><path class="st4" d="M294.7 142h10.7c1.5 0 2.7-1.2 2.7-2.7v-10.7c0-1.5-1.2-2.7-2.7-2.7h-10.7c-1.5 0-2.7 1.2-2.7 2.7v10.7c0 1.5 1.2 2.7 2.7 2.7zm0-8c0-1.5 1.2-2.7 2.7-2.7h5.3c1.5 0 2.7 1.2 2.7 2.7 0 1.5-1.2 2.7-2.7 2.7h-5.3c-1.5-.1-2.7-1.3-2.7-2.7zm0 0"/><path class="st9" d="M316 142h10.7c1.5 0 2.7-1.2 2.7-2.7v-10.7c0-1.5-1.2-2.7-2.7-2.7H316c-1.5 0-2.7 1.2-2.7 2.7v10.7c.1 1.5 1.3 2.7 2.7 2.7zm0 0"/><path class="st10" d="M273.3 142H284c1.5 0 2.7-1.2 2.7-2.7v-10.7c0-1.5-1.2-2.7-2.7-2.7h-10.7c-1.5 0-2.7 1.2-2.7 2.7v10.7c0 1.5 1.2 2.7 2.7 2.7zm5.3-13.4c3 0 5.3 2.4 5.3 5.3 0 3-2.4 5.3-5.3 5.3-3 0-5.3-2.4-5.3-5.3s2.4-5.3 5.3-5.3zm0 0"/><path class="st11" d="M294.7 120.6h10.7c1.5 0 2.7-1.2 2.7-2.7v-10.7c0-1.5-1.2-2.7-2.7-2.7h-10.7c-1.5 0-2.7 1.2-2.7 2.7v10.7c0 1.5 1.2 2.7 2.7 2.7zm0 0"/><path class="st6" d="M316 120.6h10.7c1.5 0 2.7-1.2 2.7-2.7v-10.7c0-1.5-1.2-2.7-2.7-2.7H316c-1.5 0-2.7 1.2-2.7 2.7v10.7c.1 1.5 1.3 2.7 2.7 2.7zm5.4-13.4c3 0 5.3 2.4 5.3 5.3 0 3-2.4 5.3-5.3 5.3-3 0-5.3-2.4-5.3-5.3-.1-2.9 2.3-5.3 5.3-5.3zm0 0"/><path class="st7" d="M273.3 120.6H284c1.5 0 2.7-1.2 2.7-2.7v-10.7c0-1.5-1.2-2.7-2.7-2.7h-10.7c-1.5 0-2.7 1.2-2.7 2.7v10.7c0 1.5 1.2 2.7 2.7 2.7zm0 0M284 134c0 3-2.4 5.3-5.3 5.3-3 0-5.3-2.4-5.3-5.3 0-3 2.4-5.3 5.3-5.3 2.9-.1 5.3 2.3 5.3 5.3zm0 0M305.3 190.1c0 3-2.4 5.3-5.3 5.3-3 0-5.3-2.4-5.3-5.3 0-3 2.4-5.3 5.3-5.3 3-.1 5.3 2.3 5.3 5.3zm0 0"/><path class="st8" d="M326.7 112.6c0 3-2.4 5.3-5.3 5.3-3 0-5.3-2.4-5.3-5.3 0-3 2.4-5.3 5.3-5.3 2.9-.1 5.3 2.3 5.3 5.3zm0 0"/><path class="st3" d="M297.3 136.6h5.3c1.5 0 2.7-1.2 2.7-2.7 0-1.5-1.2-2.7-2.7-2.7h-5.3c-1.5 0-2.7 1.2-2.7 2.7.1 1.5 1.3 2.7 2.7 2.7zm0 0"/><path class="st12" d="M318.7 158h5.3c1.5 0 2.7-1.2 2.7-2.7 0-1.5-1.2-2.7-2.7-2.7h-5.3c-1.5 0-2.7 1.2-2.7 2.7 0 1.5 1.2 2.7 2.7 2.7zm0 0"/><path class="st8" d="M275.9 158h5.3c1.5 0 2.7-1.2 2.7-2.7 0-1.5-1.2-2.7-2.7-2.7h-5.3c-1.5 0-2.7 1.2-2.7 2.7.1 1.5 1.3 2.7 2.7 2.7zm0 0"/><path class="st4" d="M292 174.1c0 1.5-1.2 2.7-2.7 2.7-1.5 0-2.7-1.2-2.7-2.7 0-1.5 1.2-2.7 2.7-2.7 1.5 0 2.7 1.2 2.7 2.7zm0 0"/><path class="st8" d="M302.7 174.1c0 1.5-1.2 2.7-2.7 2.7-1.5 0-2.7-1.2-2.7-2.7 0-1.5 1.2-2.7 2.7-2.7 1.5 0 2.7 1.2 2.7 2.7zm0 0M313.4 174.1c0 1.5-1.2 2.7-2.7 2.7-1.5 0-2.7-1.2-2.7-2.7 0-1.5 1.2-2.7 2.7-2.7 1.5 0 2.7 1.2 2.7 2.7zm0 0"/></svg>