<svg width="1108" height="694" viewBox="0 0 1108 694" fill="none" xmlns="http://www.w3.org/2000/svg">
  <defs>
    <style>
      .solid { fill: #FFFFFF; }
      .soft { fill: #FFFFFF; opacity: 0.35; }
      .faint { fill: #FFFFFF; opacity: 0.18; }
      .line {
        stroke: #FFFFFF;
        stroke-width: 5;
        stroke-linecap: round;
        stroke-linejoin: round;
      }
      .thin {
        stroke: #FFFFFF;
        stroke-width: 4;
        stroke-linecap: round;
        stroke-linejoin: round;
      }
    </style>
  </defs>

  <rect class="solid" width="151" height="694"/>
  <rect class="soft" width="151" height="47"/>
  <rect class="faint" y="47" width="151" height="33"/>

  <rect class="solid" x="43" y="102" width="40" height="6" rx="3"/>
  <rect class="solid" x="43" y="156" width="40" height="6" rx="3"/>
  <rect class="solid" x="43" y="210" width="40" height="6" rx="3"/>
  <rect class="solid" x="43" y="264" width="40" height="6" rx="3"/>
  <rect class="solid" x="43" y="318" width="40" height="6" rx="3"/>
  <rect class="solid" x="43" y="372" width="40" height="6" rx="3"/>
  <rect class="solid" x="43" y="426" width="40" height="6" rx="3"/>
  <rect class="solid" x="43" y="480" width="40" height="6" rx="3"/>
  <rect class="solid" x="43" y="534" width="40" height="6" rx="3"/>
  <rect class="solid" x="43" y="588" width="40" height="6" rx="3"/>

  <rect class="solid" x="151" width="957" height="37"/>
  <rect class="soft" x="168" y="12" width="21" height="4" rx="2"/>
  <rect class="soft" x="168" y="20" width="21" height="4" rx="2"/>
  <rect class="soft" x="168" y="28" width="21" height="4" rx="2"/>
  <circle class="faint" cx="971" cy="19" r="13"/>
  <circle class="faint" cx="1005" cy="19" r="13"/>
  <circle class="faint" cx="1039" cy="19" r="13"/>
  <circle class="faint" cx="1073" cy="19" r="13"/>

  <rect class="faint" x="168" y="42" width="924" height="12"/>

  <rect class="solid" x="168" y="52" width="606" height="238" rx="2"/>
  <rect class="solid" x="797" y="52" width="291" height="238" rx="2"/>

  <rect class="soft" x="179" y="60" width="38" height="8" rx="4"/>
  <rect class="soft" x="179" y="107" width="81" height="19" rx="3"/>
  <rect class="faint" x="179" y="141" width="59" height="7" rx="3.5"/>
  <rect class="faint" x="179" y="158" width="18" height="15" rx="2"/>
  <rect class="soft" x="179" y="190" width="85" height="8" rx="4"/>
  <rect class="soft" x="179" y="201" width="104" height="31" rx="3"/>

  <circle class="soft" cx="189" cy="263" r="13"/>
  <rect class="faint" x="213" y="256" width="61" height="8" rx="4"/>
  <rect class="faint" x="213" y="271" width="42" height="6" rx="3"/>

  <circle class="soft" cx="339" cy="263" r="13"/>
  <rect class="faint" x="363" y="256" width="61" height="8" rx="4"/>
  <rect class="faint" x="363" y="271" width="42" height="6" rx="3"/>

  <circle class="soft" cx="489" cy="263" r="13"/>
  <rect class="faint" x="513" y="256" width="61" height="8" rx="4"/>
  <rect class="faint" x="513" y="271" width="42" height="6" rx="3"/>

  <circle class="soft" cx="639" cy="263" r="13"/>
  <rect class="faint" x="663" y="256" width="61" height="8" rx="4"/>
  <rect class="faint" x="663" y="271" width="42" height="6" rx="3"/>

  <g class="soft">
    <rect x="420" y="138" width="8" height="88" rx="4"/>
    <rect x="437" y="121" width="8" height="105" rx="4"/>
    <rect x="455" y="105" width="8" height="121" rx="4"/>
    <rect x="472" y="85" width="8" height="141" rx="4"/>
    <rect x="490" y="76" width="8" height="150" rx="4"/>
    <rect x="508" y="132" width="8" height="94" rx="4"/>
    <rect x="543" y="85" width="8" height="141" rx="4"/>
    <rect x="561" y="143" width="8" height="83" rx="4"/>
    <rect x="578" y="84" width="8" height="142" rx="4"/>
    <rect x="596" y="116" width="8" height="110" rx="4"/>
    <rect x="614" y="98" width="8" height="128" rx="4"/>
    <rect x="631" y="110" width="8" height="116" rx="4"/>
    <rect x="649" y="87" width="8" height="139" rx="4"/>
    <rect x="667" y="112" width="8" height="114" rx="4"/>
    <rect x="684" y="85" width="8" height="141" rx="4"/>
    <rect x="702" y="134" width="8" height="92" rx="4"/>
    <rect x="720" y="144" width="8" height="82" rx="4"/>
    <rect x="737" y="152" width="8" height="74" rx="4"/>
  </g>

  <rect class="soft" x="812" y="60" width="62" height="8" rx="4"/>
  <path class="line" d="M838 193L860 165L893 199L908 146L930 179L950 161L978 216L999 150L1026 190L1053 197L1072 135L1087 190"/>

  <rect class="faint" x="815" y="247" width="42" height="14"/>
  <rect class="faint" x="922" y="247" width="42" height="14"/>
  <rect class="faint" x="1029" y="247" width="42" height="14"/>

  <rect class="solid" x="168" y="304" width="228" height="87" rx="2"/>
  <rect class="solid" x="403" y="304" width="228" height="87" rx="2"/>
  <rect class="solid" x="638" y="304" width="228" height="87" rx="2"/>
  <rect class="solid" x="873" y="304" width="215" height="87" rx="2"/>

  <path class="thin" d="M223 355V321M208 336L223 321L238 336"/>
  <path class="thin" d="M518 321V355M503 340L518 355L533 340"/>
  <path class="thin" d="M716 340H675M690 325L675 340L690 355"/>
  <path class="thin" d="M926 340H967M952 325L967 340L952 355"/>

  <rect class="faint" x="253" y="321" width="90" height="45" rx="22.5"/>
  <rect class="faint" x="488" y="321" width="90" height="45" rx="22.5"/>
  <rect class="faint" x="723" y="321" width="90" height="45" rx="22.5"/>
  <rect class="faint" x="958" y="321" width="90" height="45" rx="22.5"/>

  <rect class="solid" x="168" y="406" width="299" height="269" rx="2"/>
  <rect class="solid" x="481" y="406" width="607" height="269" rx="2"/>

  <rect class="soft" x="194" y="429" width="52" height="7" rx="3.5"/>
  <rect class="soft" x="194" y="470" width="36" height="7" rx="3.5"/>
  <rect class="soft" x="194" y="511" width="36" height="7" rx="3.5"/>
  <rect class="soft" x="194" y="552" width="36" height="7" rx="3.5"/>
  <rect class="soft" x="194" y="593" width="36" height="7" rx="3.5"/>

  <circle class="soft" cx="255" cy="472" r="11"/>
  <circle class="soft" cx="255" cy="513" r="11"/>
  <circle class="soft" cx="255" cy="554" r="11"/>
  <circle class="soft" cx="255" cy="595" r="11"/>
  <circle class="soft" cx="255" cy="636" r="11"/>

  <rect class="faint" x="281" y="463" width="69" height="8" rx="4"/>
  <rect class="faint" x="281" y="477" width="87" height="6" rx="3"/>
  <rect class="faint" x="281" y="504" width="69" height="8" rx="4"/>
  <rect class="faint" x="281" y="518" width="87" height="6" rx="3"/>
  <rect class="faint" x="281" y="545" width="69" height="8" rx="4"/>
  <rect class="faint" x="281" y="559" width="87" height="6" rx="3"/>
  <rect class="faint" x="281" y="586" width="69" height="8" rx="4"/>
  <rect class="faint" x="281" y="600" width="87" height="6" rx="3"/>
  <rect class="faint" x="281" y="627" width="69" height="8" rx="4"/>
  <rect class="faint" x="281" y="641" width="87" height="6" rx="3"/>

  <rect class="soft" x="506" y="429" width="57" height="7" rx="3.5"/>
  <rect class="soft" x="506" y="442" width="90" height="7" rx="3.5"/>
  <rect class="soft" x="506" y="461" width="49" height="22" rx="3"/>
  <rect class="faint" x="562" y="461" width="24" height="22" rx="2"/>
  <rect class="faint" x="591" y="461" width="24" height="22" rx="2"/>
  <rect class="faint" x="620" y="461" width="24" height="22" rx="2"/>
  <rect class="faint" x="969" y="461" width="89" height="22" rx="2"/>

  <rect class="faint" x="506" y="506" width="555" height="25"/>
  <rect class="soft" x="506" y="513" width="31" height="7" rx="3.5"/>
  <rect class="soft" x="610" y="513" width="24" height="7" rx="3.5"/>
  <rect class="soft" x="751" y="513" width="24" height="7" rx="3.5"/>
  <rect class="soft" x="959" y="513" width="24" height="7" rx="3.5"/>

  <g class="faint">
    <rect x="506" y="542" width="33" height="8" rx="3"/>
    <rect x="506" y="566" width="33" height="8" rx="3"/>
    <rect x="506" y="590" width="33" height="8" rx="3"/>
    <rect x="506" y="614" width="33" height="8" rx="3"/>
    <rect x="506" y="638" width="33" height="8" rx="3"/>

    <rect x="610" y="542" width="33" height="8" rx="3"/>
    <rect x="610" y="566" width="33" height="8" rx="3"/>
    <rect x="610" y="590" width="33" height="8" rx="3"/>
    <rect x="610" y="614" width="33" height="8" rx="3"/>
    <rect x="610" y="638" width="33" height="8" rx="3"/>

    <rect x="751" y="542" width="33" height="8" rx="3"/>
    <rect x="751" y="566" width="33" height="8" rx="3"/>
    <rect x="751" y="590" width="33" height="8" rx="3"/>
    <rect x="751" y="614" width="33" height="8" rx="3"/>
    <rect x="751" y="638" width="33" height="8" rx="3"/>

    <rect x="834" y="542" width="33" height="8" rx="3"/>
    <rect x="834" y="566" width="33" height="8" rx="3"/>
    <rect x="834" y="590" width="33" height="8" rx="3"/>
    <rect x="834" y="614" width="33" height="8" rx="3"/>
    <rect x="834" y="638" width="33" height="8" rx="3"/>
  </g>

  <rect class="soft" x="956" y="541" width="36" height="16"/>
  <rect class="soft" x="956" y="576" width="36" height="16"/>
  <rect class="soft" x="956" y="611" width="36" height="16"/>
  <rect class="soft" x="956" y="646" width="36" height="16"/>
</svg>