<svg width="240" height="180" viewBox="0 0 240 180" fill="none" xmlns="http://www.w3.org/2000/svg">
  <style>
    path, rect, line {
      stroke: #FFFFFF;
      stroke-width: 1;
      stroke-linecap: round;
      stroke-linejoin: round;
    }
  </style>

  <rect x="10" y="10" width="220" height="160" rx="8" />
  <rect x="10" y="10" width="40" height="160" rx="8" />

  <circle cx="30" cy="40" r="4" fill="#FFFFFF" />
  <rect x="26" y="60" width="8" height="8" rx="1" />
  <line x1="26" y1="85" x2="34" y2="85" />
  <line x1="26" y1="105" x2="34" y2="105" />
  <line x1="50" y1="10" x2="50" y2="170" />

  <text x="60" y="35" fill="#FFFFFF" font-family="Golos Text, sans-serif" font-size="12" font-weight="600">Employee Management</text>
  <line x1="60" y1="45" x2="160" y2="45" />

  <rect x="180" y="20" width="40" height="16" rx="4" />

  <rect x="60" y="60" width="160" height="10" rx="2" />
  <line x1="60" y1="75" x2="220" y2="75" />
  <rect x="60" y="85" width="160" height="8" rx="2" stroke-dasharray="2 2" />
  <rect x="60" y="100" width="160" height="8" rx="2" stroke-dasharray="2 2" />

  <rect x="60" y="120" width="100" height="40" rx="4" />
  <path d="M65 150 L85 130 L105 145 L125 125 L145 140" fill="none" />

  <rect x="170" y="120" width="50" height="40" rx="4" />
</svg>