<svg xmlns="http://www.w3.org/2000/svg" viewBox="0 0 2250 500"><defs><style>.a{fill:#fafafa;}</style></defs><path class="a" d="M623.9,136.8q0-26.4,29.4-26.4,29.4,0,29.4,26.4c0,8.4-2.5,14.9-7.4,19.6s-12.3,7-22.1,7C633.7,163.3,623.9,154.5,623.9,136.8Zm56.3,249.3H626.1V188h54.1Z"/><path class="a" d="M862.8,386.1l-10.5-26.9h-1.4c-9.1,11.5-18.5,19.4-28.1,23.8s-22.2,6.6-37.7,6.6q-28.5,0-44.9-16.3c-10.9-10.9-16.4-26.3-16.4-46.4q0-31.5,22.1-46.5,22.05-15,66.5-16.6l34.4-1.1V254q0-30.15-30.8-30.1-23.7,0-55.8,14.4l-17.9-36.5q34.2-17.85,75.9-17.9,39.9,0,61.1,17.4,21.3,17.4,21.3,52.8v132H862.8Zm-16-91.8-20.9.7c-15.7.5-27.4,3.3-35.1,8.5-7.7,5.2-11.5,13.1-11.5,23.7,0,15.2,8.7,22.9,26.2,22.9q18.75,0,30-10.8c7.5-7.2,11.3-16.8,11.3-28.7Z"/><path class="a" d="M1133.6,386.1h-54.1V270.4c0-14.3-2.4-25-7.19995-32.2-4.80005-7.1-12.30005-10.7-22.6-10.7-13.80005,0-23.9,5.1-30.1,15.2-6.3,10.2-9.4,26.9-9.4,50.2v93.2h-54.1V188h41.3l7.3,25.3h3a55.4342,55.4342,0,0,1,23-21.4c10-5.1,21.6-7.7,34.6-7.7C1095,184.2,1115,193.9,1125.6001,213.3h4.8a52.69714,52.69714,0,0,1,23.5-21.4c10.30005-5.1,22-7.6,35-7.6q33.6,0,50.9,17.3,17.25,17.25,17.30005,55.4V386.2h-54.19995V270.4c0-14.3-2.4-25-7.2-32.2-4.8-7.1-12.3-10.7-22.6-10.7-13.19995,0-23.1,4.7-29.69995,14.2s-9.80005,24.5-9.80005,45L1133.6,386.1Z"/><path class="a" d="M1393,389.7q-92.54992,0-92.5-101.5,0-50.55,25.19995-77.2,25.20007-26.7,72.1-26.7,34.35,0,61.7,13.5l-15.9,41.8q-12.75-5.1-23.7-8.4a76.22107,76.22107,0,0,0-22-3.3q-42.15,0-42.19995,59.9c0,38.8,14.1,58.1,42.19995,58.1a95.67265,95.67265,0,0,0,28.9-4.2,105.306,105.306,0,0,0,26.6-13V375a85.07469,85.07469,0,0,1-26.5,11.5C1417.9,388.6,1406.6,389.7,1393,389.7Z"/><path class="a" d="M1679.2,286.7q0,48.45-25.5,75.7-25.5,27.3-71.1,27.3-28.5,0-50.30005-12.5-21.75-12.45-33.5-35.9-11.70007-23.4-11.69995-54.6c0-32.4,8.4-57.5,25.3-75.5s40.6-26.9,71.2-26.9q28.5,0,50.3,12.4a83,83,0,0,1,33.5,35.6Q1679.25007,255.55,1679.2,286.7Zm-137,0c0,19.6,3.19995,34.4,9.69995,44.5,6.4,10,16.9,15.1,31.5,15.1,14.4,0,24.80005-5,31.1-15,6.3-10,9.5-24.8,9.5-44.6q0-29.4-9.6-44.1c-6.4-9.8-16.8-14.7-31.4-14.7-14.4,0-24.80005,4.9-31.2,14.6S1542.2,267,1542.2,286.7Z"/><path class="a" d="M1777.9,386.1h-54.1V110.3h54.1Z"/><path class="a" d="M2012,386.1h-54V270.4c0-14.3-2.4-25-7.19995-32.2-4.80005-7.1-12.30005-10.7-22.6-10.7-13.80005,0-23.9,5.1-30.1,15.2-6.30005,10.2-9.4,26.9-9.4,50.2v93.2h-54.1V188h41.3l7.30005,25.3h3a55.4345,55.4345,0,0,1,23-21.4c10-5.1,21.6-7.7,34.6-7.7,29.69995,0,49.69995,9.7,60.19995,29.1h4.80005a52.69719,52.69719,0,0,1,23.5-21.4c10.30005-5.1,22.00012-7.6,35.00012-7.6q33.59987,0,51,17.3,17.25,17.25,17.3,55.4V386.2h-54.2V270.4c0-14.3-2.3999-25-7.19995-32.2-4.80005-7.1-12.30005-10.7-22.6001-10.7-13.19995,0-23.1,4.7-29.69995,14.2s-9.80005,24.5-9.80005,45v99.4Z"/><path class="a" d="M0,0V500H500V0ZM270,420H80V230h40V380H270Zm150,0H380V270H230V120H80V80H270V230H420Z"/></svg>