<svg xmlns="http://www.w3.org/2000/svg" viewBox="0 0 234.61378 129.5488"><defs><style>.a{fill:#dfebfa;}.b{fill:#eef6ff;}.c{fill:#afcdfb;}.d{fill:#cde0fb;}.e{fill:#dfebf9;}.f{fill:#fff;}.g{fill:#2b478b;}.h{fill:#dceaff;}.i{fill:#f99746;}.j{fill:#ed7d2b;}.k{fill:#233862;}.l{fill:#ffb27d;}.m{fill:#ed975d;}.n{fill:#2e3552;}.o{fill:#e5173f;}.p{fill:#415da5;}.q{fill:#2c3a64;}.r{fill:#699dee;}.s{fill:#519661;}</style></defs><path class="a" d="M190.84294,42.81884H185.41v-12.118l-.251-.145h-1.62v-.006h-9.423v.006h-.008v1.81305h.008v1.249h-.008v1.816h.008v1.254h-.008v1.817h.008v.007l-1-.007v-9.5H162.542v1.2h-.005v1.816h.005v1.6h-.005v1.816h.005v1.254h-.005v1.817h.005v1.16h-.005v1.817h.005v1.16h-.005v1.817h.005v1.092h-.005v1.154h.005v.126H150.62309v10.4h-4.453v2.618h-4.8v-4.51h-8.637v-12.256h-1.351v-1.217h-.193v1.221h-6.72v-1.221h-.193v1.219h-1.459v6.162l-7.255-.034v3.8h-6.151v-23.51H91.186v25.186H85.621v-13.623H67.398v88.111l124.523-.475Z"/><path class="a" d="M67.415,57.11584v71.466H51.89v-71.466Z"/><rect class="b" x="95.875" y="29.50484" width="13.534" height="3.985"/><rect class="b" x="95.875" y="35.63884" width="13.534" height="3.985"/><rect class="b" x="95.875" y="41.90084" width="13.534" height="3.985"/><rect class="b" x="95.875" y="48.26184" width="13.534" height="3.985"/><rect class="b" x="95.875" y="54.39984" width="13.534" height="3.985"/><rect class="b" x="162.545" y="29.00584" width="6.767" height="2.42"/><rect class="b" x="162.545" y="32.73084" width="6.767" height="2.42"/><rect class="b" x="162.545" y="36.53384" width="6.767" height="2.42"/><rect class="b" x="162.545" y="40.39784" width="6.767" height="2.42"/><rect class="b" x="162.545" y="44.12484" width="6.767" height="2.42"/><rect class="b" x="162.545" y="48.22784" width="6.767" height="2.42"/><rect class="b" x="162.545" y="51.95284" width="6.767" height="2.42"/><rect class="b" x="162.545" y="55.75584" width="6.767" height="2.42"/><rect class="b" x="162.545" y="59.61984" width="6.767" height="2.42"/><rect class="b" x="162.545" y="63.34684" width="6.767" height="2.42"/><rect class="b" x="174.128" y="30.59284" width="6.767" height="2.42"/><rect class="b" x="174.128" y="34.31784" width="6.767" height="2.42"/><rect class="b" x="174.128" y="38.12084" width="6.767" height="2.42"/><rect class="b" x="174.128" y="41.98384" width="6.767" height="2.42"/><rect class="b" x="174.128" y="45.71184" width="6.767" height="2.42"/><rect class="b" x="174.128" y="49.59884" width="6.767" height="2.42"/><rect class="b" x="174.128" y="53.32384" width="6.767" height="2.42"/><rect class="b" x="174.128" y="57.12684" width="6.767" height="2.42"/><rect class="b" x="174.128" y="60.99084" width="6.767" height="2.42"/><rect class="b" x="174.128" y="64.71784" width="6.767" height="2.42"/><rect class="b" x="174.128" y="68.99285" width="6.767" height="2.42"/><rect class="b" x="174.128" y="72.71785" width="6.767" height="2.42"/><rect class="b" x="174.128" y="76.52085" width="6.767" height="2.42"/><rect class="b" x="174.128" y="80.38485" width="6.767" height="2.42"/><rect class="b" x="174.128" y="84.11185" width="6.767" height="2.42"/><rect class="a" x="152.843" y="41.98484" width="0.336" height="4.938"/><rect class="a" x="158.501" y="37.74384" width="0.522" height="9.563"/><rect class="a" x="92.396" y="27.74384" width="0.218" height="1.761"/><rect class="a" x="97.009" y="27.74384" width="0.218" height="1.761"/><rect class="a" x="107.584" y="27.74384" width="0.218" height="1.761"/><rect class="a" x="163.592" y="27.64684" width="0.168" height="1.359"/><rect class="a" x="171.531" y="27.64684" width="0.168" height="1.359"/><rect class="a" x="103.45" y="27.74384" width="0.218" height="1.761"/><path class="c" d="M180.25806,107.60788c-1.97095.748-15.03,2.119-14.492,3.773s9.66394,3.322,14.4,1.218c0,0-3.839,14.017-11.03,14.18006s-9.913-3.98-14.356-3.8-7.521,1.747-5.17895,2.672,9.7-.752,13.611,1.85095c.574.382,1.132.741,1.64294,1.08105.308.205.6.4.87.6h-26.161c0-.212,0-.412-.005-.6a15.44583,15.44583,0,0,0-.11694-1.73205s-13.54-5.611-8.754-15.963c0,0,4.041-6.486,8.941-8.611,0,0-1.009,14.713,1.74,14.731s-.058-16.47595-.058-16.47595,12.616-8.015,17.926-8.127c0,0-6.637,15.035-3.967,14.376s10.3-15.983,10.3-15.983,13.415-4.16,16.577,3.707S182.23108,106.85983,180.25806,107.60788Z"/><path class="d" d="M73.042,4.46084c2.4-6.828,14-3.785,14-3.785s7.085,12.78,9.386,13.241-3.924-12.109-3.924-12.109c4.531-.1,15.592,6.255,15.592,6.255s-1.77295,14.171.571,14.051.93006-12.627.93006-12.627c4.258,1.627,7.948,7.006,7.948,7.006,4.47094,8.647-6.864,13.942-6.864,13.942a23.21832,23.21832,0,0,0,2.123,10.809h0a16.83007,16.83007,0,0,1,1.179,2.924l-1.187-.087q-.11-.488-.254-.945v-.019c-.068-.19-.165-.459-.288-.788h0c-.31006-.737-.517-1.279-.644-1.669h0c-.922-2.309-2.27405-5.328-3.27405-6.014a2.31093,2.31093,0,0,0,.29394-.526l-.29394.526c-2.353,4.2-12.566,4.183-18.141,2.6s-2.99-2.993.249-5.36,9.575-1.214,11.536-2.091-.72094-2.1-4.516-2.084-5.96,3.647-12.1,3.779-9.939-11.676-9.939-11.676c4.113,1.616,11.83106-.151,12.228-1.581s-10.79-2.108-12.5-2.671S70.64307,11.28883,73.042,4.46084Z"/><path class="e" d="M162.52,12.15985c-1.859-5.288-10.84-2.932-10.84-2.932s-5.488,9.9-7.27,10.255,3.03894-9.378,3.03894-9.378c-3.51-.081-12.07605,4.845-12.07605,4.845s1.37305,10.975-.442,10.883-.72-9.78-.72-9.78c-3.3,1.26-6.156,5.426-6.156,5.426-3.463,6.7,5.316,10.8,5.316,10.8a17.97944,17.97944,0,0,1-1.644,8.371h0a13.04928,13.04928,0,0,0-.913,2.264l.91895-.068q.085-.378.2-.732h0v-.01c.053-.147.12805-.356.223-.61h0c.24-.571.4-.991.5-1.293h0c.715-1.788,1.761-4.126,2.535-4.657a1.79442,1.79442,0,0,1-.228-.407l.228.407c1.822,3.256,9.732,3.239,14.05005,2.017s2.316-2.318-.193-4.151-7.416-.94-8.935-1.619.559-1.623,3.5-1.614,4.616,2.825,9.37,2.927,7.7-9.043,7.7-9.043c-3.18506,1.252-9.163-.117-9.471-1.224s8.356-1.632,9.681-2.069S164.379,17.44784,162.52,12.15985Z"/><path class="c" d="M64.305,72.73385c1.724-7.111,13.7-5.221,13.7-5.221s8.417,12.14,10.778,12.371c2.361.231-5.17-11.784-5.17-11.784,4.548-.562,16.315,4.718,16.315,4.718s-.353,14.433,1.993,14.076-.34-12.8-.34-12.8c4.447,1.206,8.7,6.24506,8.7,6.24506,5.37,8.24694-5.5,14.717-5.5,14.717a23.47258,23.47258,0,0,0,3.227,10.65906h0a17.012,17.012,0,0,1,1.482,2.822l-1.2.032q-.15994-.47992-.351-.925v-.005l-.006-.01294c-.087-.184-.213-.44495-.369-.76294h0c-.387-.71-.649-1.234-.816-1.614h0c-1.161-2.229-2.826-5.13-3.9-5.719a2.33329,2.33329,0,0,0,.243-.558l-.243.558c-1.942,4.467-12.218,5.47595-17.985,4.45105s-3.31-2.709-.291-5.416,9.509-2.187,11.393-3.26794-.937-2.036-4.753-1.64-5.627,4.27-11.788,5.02295S68.247,87.9382,68.247,87.9382c4.3,1.21,11.886-1.34595,12.141-2.824s-11.066-1.031-12.843-1.425S62.576,79.83981,64.305,72.73385Z"/><path class="c" d="M175.09705,79.14584c3.157-5.337-5.229-11.269-5.229-11.269s-12.28894,2.393-13.859,1.138,10.10706-4.1,10.10706-4.1c-2.429-3.031-12.7-6.783-12.7-6.783s-8.32,8.972-9.53406,7.368,7.773-7.568,7.773-7.568c-3.41394-1.9-8.976-1.354-8.976-1.354-8.137,1.831-5.365,12.185-5.365,12.185a19.89243,19.89243,0,0,1-8.262,4.563h0a14.424,14.424,0,0,0-2.568.837l.71106.731c.254-.131.50806-.25.76-.354h.011c.162-.06.392-.144.67505-.245h0c.654-.2,1.124-.366,1.45-.5h0c2.02295-.667,4.749-1.444,5.75-1.166a1.97133,1.97133,0,0,1,.183-.483l-.183.483c-1.463,3.86,4.18,10.549,8.287,13.338s3.611.313,3.379-3.116-4.48-6.951-4.985-8.721,1.773-.682,3.856,1.815.891,5.92,4.187,10.02,13.13793.087,13.13793.087c-3.327-1.808-6.421-7.845-5.7-8.894s7.328,5.918,8.64,6.729S171.93994,84.48282,175.09705,79.14584Z"/><path class="f" d="M123.892,19.06284h0a31.464,31.464,0,0,1,31.464,31.464h0v46.8a31.465,31.465,0,0,1-31.465,31.465h0a31.464,31.464,0,0,1-31.464-31.462v-46.8a31.465,31.465,0,0,1,31.463-31.467Z"/><path class="g" d="M149.523,129.52582H98.26006a6.573,6.573,0,0,1-6.56494-6.565v-98.063a6.573,6.573,0,0,1,6.56494-6.565H149.523a6.573,6.573,0,0,1,6.56494,6.565v98.065A6.573,6.573,0,0,1,149.523,129.52582ZM98.26006,19.79785a5.107,5.107,0,0,0-5.1,5.1v98.065a5.106,5.106,0,0,0,5.1,5.1H149.523a5.106,5.106,0,0,0,5.1-5.1v-98.065a5.107,5.107,0,0,0-5.1-5.1Z"/><rect class="h" x="95.347" y="31.60184" width="21.054" height="8.936"/><rect class="h" x="95.347" y="43.47784" width="21.054" height="8.936"/><rect class="h" x="121.537" y="31.48084" width="9.611" height="21.054"/><circle class="h" cx="114.31827" cy="82.1687" r="10.012"/><rect class="h" x="95.347" y="82.16885" width="57.356" height="1.555"/><rect class="h" x="95.347" y="54.87984" width="55.801" height="1.555"/><rect class="h" x="114.098" y="56.36584" width="1.555" height="53.161"/><rect class="h" x="151.147" y="30.52084" width="1.555" height="53.161"/><rect class="h" x="133.601" y="31.60184" width="1.555" height="77.925"/><circle class="f" cx="114.31791" cy="82.16985" r="6.742"/><rect class="h" x="117.692" y="58.33684" width="7.69" height="11.942"/><rect class="h" x="95.347" y="67.32384" width="7.495" height="8.581"/><rect class="h" x="95.347" y="58.33684" width="15.083" height="7.495"/><rect class="h" x="126.68" y="58.33684" width="5.379" height="7.423"/><rect class="h" x="126.68" y="67.32384" width="5.379" height="12.405"/><rect class="h" x="126.68" y="85.19584" width="5.379" height="7.345"/><rect class="h" x="138.611" y="58.33684" width="4.34" height="21.392"/><rect class="h" x="144.36" y="58.33684" width="5.379" height="21.392"/><rect class="h" x="141.651" y="31.31184" width="7.655" height="21.392"/><rect class="h" x="137.788" y="85.97785" width="14.915" height="23.549"/><rect class="h" x="117.215" y="100.62085" width="14.844" height="8.906"/><rect class="h" x="117.215" y="94.21984" width="14.844" height="4.721"/><rect class="h" x="95.347" y="94.21984" width="13.333" height="15.307"/><rect class="h" x="95.347" y="84.55584" width="5.614" height="8.248"/><path class="i" d="M145.32207,122.26078a9.53409,9.53409,0,0,1-8.172-4.64795,13.279,13.279,0,0,0-11.417-6.406H95.3471v11.359a3.54,3.54,0,0,0,3.57605,3.5h50.88794a2.863,2.863,0,0,0,2.892-2.833v-.974Z"/><path class="i" d="M141.301,116.05292a4.075,4.075,0,1,1,4.07507,4.075H145.376A4.075,4.075,0,0,1,141.301,116.05292Z"/><path class="f" d="M142.975,116.23993l3.933-1.96594-1.21106,4.335-.969-1.657Z"/><rect class="f" x="107.545" y="119.52085" width="22.301" height="0.953"/><rect class="j" x="97.381" y="119.52085" width="10.165" height="0.953"/><path class="k" d="M105.84209,116.71683l7.61,3.35095-7.772,3.471,1.243-3.411Z"/><path class="f" d="M131.20892,119.99784a1.585,1.585,0,1,1,1.58508,1.585h-.00012A1.58494,1.58494,0,0,1,131.20892,119.99784Z"/><path class="c" d="M101.225,19.83684h45.26a8.13,8.13,0,0,1,8.13,8.13H93.178v-.083A8.047,8.047,0,0,1,101.225,19.83684Z"/><path class="l" d="M216.296,63.40481a4.39982,4.39982,0,0,1-1.62207,2.346,2.50924,2.50924,0,0,0-1.041.756l-.594-.344-.708-.412s.01709-.079.051-.207.08692-.305.15894-.5a.68585.68585,0,0,0,.084-.631,1.46281,1.46281,0,0,1,.1211-1.223c.227-.33.447-1.144.583-1.12.33106.057-.16308,1.176-.021,1.383a.245.245,0,0,0,.31811.109h.00611c.92993-.409,2.05688-2.612,2.55591-2.315A4.45686,4.45686,0,0,1,216.296,63.40481Z"/><path class="g" d="M213.07987,64.73881l1.165.818a.183.183,0,0,0,.25488-.044l2.98291-4.245a.18293.18293,0,0,0-.04394-.255l-1.165-.818a.184.184,0,0,0-.25488.044l-2.98291,4.245A.18294.18294,0,0,0,213.07987,64.73881Z"/><path class="k" d="M214.146,65.49088l.68311.48a.14.14,0,0,0,.19409-.034l3.03394-4.317a.1401.1401,0,0,0-.03394-.194l-.6831-.48a.13885.13885,0,0,0-.19361.03345l-.00049.00055-3.03418,4.311a.139.139,0,0,0,.02686.19477Z"/><path class="k" d="M196.372,58.64785s5.926,10.336,8.07593,12.238l7.88306-5.877a2.87764,2.87764,0,0,1,1.645,1.5s-4.78711,9.753-9.5,10.166-11.3291-11.69-11.3291-11.69Z"/><path class="k" d="M182.96189,128.95181h-3.42407a2.0744,2.0744,0,0,1-.937-1.569c-.167-1.1-1.3999-1.7-1.6709-2.60705s1.1001-2.172,1.1001-2.172l.229-.3.239-.307,2.272.535s.05591.541.09107,1.231a15.71258,15.71258,0,0,1,.01,1.576c-.0669,1.2.33593,2.5,1.406,2.733C183.06882,128.25186,183.03391,128.71683,182.96189,128.95181Z"/><path class="k" d="M202.833,128.94888h-7.83105c-.376-.46-.238-2.155-.18091-2.709.012-.111.02-.177.02-.177s2.67407-2.139,3.041-.5c.011.051.02491.1.04.151.46289,1.532,2.53809,2.228,3.73706,2.422A1.35814,1.35814,0,0,1,202.833,128.94888Z"/><path class="i" d="M201.341,85.24075s-.406,5.066-.88306,11.155c-.64892,8.272-1.42895,18.432-1.5061,20.35706-.13306,3.342-.66895,8.689-.66895,8.689a4.2,4.2,0,0,1-3.81006.735,87.47214,87.47214,0,0,1-2.90991-15.708l-.03-.4c-.6001-8.221-1.53711-25.531-1.53711-25.531Z"/><path class="j" d="M201.341,85.24075s-.406,5.066-.88306,11.155l-8.895,14.073-.03-.4c-.6001-8.221-1.53711-25.531-1.53711-25.531Z"/><path class="i" d="M199.489,85.83878s-7.31909,18.34594-12.13111,26.968-6.31591,11.028-6.31591,11.028-2.75708-1.1-3.00806-1.855c0,0,1.84009-16.645,5.063-20.69995,1.821-2.293,3.96-9.173,4.06006-11.579s.6521-7.168.6521-7.168Z"/><path class="l" d="M197.66493,59.09683c-2.86011.9-7.8081-1.533-7.8081-1.533a7.44728,7.44728,0,0,0,2.5-6.094l2.21093,1.782,1.5,1.21a18.05265,18.05265,0,0,1-.16992,1.964c-.043.329-.1001.7-.165,1.1A6.84606,6.84606,0,0,1,197.66493,59.09683Z"/><path class="m" d="M196.069,54.46285a18.05222,18.05222,0,0,1-.16992,1.964c-1.66406-.286-3.552-2.976-3.552-2.976a5.30051,5.30051,0,0,1,2.22-.2Z"/><path class="l" d="M196.94276,54.39486s-4.72412.785-5.167-2.164-1.352-4.834,1.646-5.46,3.7539.411,4.14111,1.36S198.15981,54.11483,196.94276,54.39486Z"/><path class="g" d="M201.65614,85.66287a.462.462,0,0,1-.3.115c-1.074-.015-4.20605.582-6.855.31a19.74094,19.74094,0,0,1-6.334-1.828c-.282-.126-.93091-.473-.916-.788.009-.345.04395-.846.08692-1.476a78.92573,78.92573,0,0,0,.157-10.31c-.0459-.81-.07007-1.613-.073-2.4-.022-5.894,1.147-11.078,3.5-12.833.2-.144,1.43189.458,2.564,1.016a4.68407,4.68407,0,0,0,3.0791.373l.988.873a9.87257,9.87257,0,0,1,3.093,4.941,55.60759,55.60759,0,0,1,.93091,9.166c.071,1.661.12891,3.337.144,4.927v.057c.01392.158.01392.33.01392.487C201.78505,82.36886,201.72816,85.60482,201.65614,85.66287Z"/><path class="k" d="M187.33583,81.99484a78.96622,78.96622,0,0,0,.157-10.31c-.0459-.81-.07007-1.613-.073-2.4.978-2.373,1.77807-4.094,1.77807-4.094H191.664S193.47182,77.53481,187.33583,81.99484Z"/><path class="k" d="M174.705,95.98985l10.51709,1.5a2.52193,2.52193,0,0,0,2.844-2.134l.64892-4.558a2.521,2.521,0,0,0-2.134-2.843l-10.51709-1.5a2.52093,2.52093,0,0,0-2.843,2.134l-.64893,4.558A2.521,2.521,0,0,0,174.705,95.98985Z"/><path class="g" d="M187.174,89.31187h0a2.53289,2.53289,0,0,0-1.742-1.522h0c-.0791-.01905-.15991-.035-.24292-.047l-2.094-.3.13989-.984a.833.833,0,0,0-.707-.941l-.5459-.078-2.2-.313-.3999-.056a.83388.83388,0,0,0-.94092.707l-.13989.984-3.615-.515a2.53113,2.53113,0,0,0-2.854,2.142l-.657,4.611a2.53,2.53,0,0,0,2.14209,2.854l10.5,1.5a2.4646,2.4646,0,0,0,.5481.017h0a2.47878,2.47878,0,0,0,.81909-.207,2.52833,2.52833,0,0,0,1.48511-1.953l.657-4.61A2.49875,2.49875,0,0,0,187.174,89.31187Zm-8.21509-3.46a.31094.31094,0,0,1,.258-.26294.31913.31913,0,0,1,.094,0l.467.066,1.73.24695.94312.134a.311.311,0,0,1,.26391.35095l-.13989.984-3.75708-.536Z"/><path class="l" d="M182.703,82.41891a3.6516,3.6516,0,0,0-.574,1.03c-.148,1.99194.762,2.26794-1.60009,3.375,0,0-1.00611.384-1.023-.4s.7-.79394.56811-1.88794c-.15088-1.262-.136-1.273.6919-1.932l.54809-.906Z"/><path class="g" d="M181.298,82.98281a8.08637,8.08637,0,0,0,1.85107.1s2.636-8.144,2.97608-8.888,7.83008-9.549,7.83008-9.549l-3.1211-7.81s-8.1001,13.534-8.925,15.436c-1.35888,3.143-1.83105,10.188-1.83105,10.188A3.39009,3.39009,0,0,0,181.298,82.98281Z"/><path class="g" d="M191.77187,51.94589s.4851-.081.406-.749-.0769-1.54.46607-1.378.57006.6.793.343.22706-1.323,1.84205-1.4,2.272.488,3.02295.158.791-1.467.791-1.467a1.29227,1.29227,0,0,1-.53711.535s1.25293-1.714-.2-2.889-2.92993-.406-3.77-.355c-1.8501.112-3.04492.223-3.64893,1.439S190.58485,50.77584,191.77187,51.94589Z"/><path class="l" d="M181.83119,83.29489s.532.554.56494.785c.10791.74.355,1.06006.231,1.141-.25806.167-.6001-.381-.761-.87305A2.24576,2.24576,0,0,1,181.83119,83.29489Z"/><path class="n" d="M228.198,128.99887v.136c0,.228-.116.41395-.257.41395H.257c-.141,0-.257-.186-.257-.41395v-.136c0-.22705.116-.41394.257-.41394H227.941C228.082,128.58493,228.198,128.77084,228.198,128.99887Z"/><path class="o" d="M39.171,32.9479a8.879,8.879,0,0,0-8.66,9.084c0,5.017,8.66,14.885,8.66,14.885s8.66-9.868,8.66-14.885A8.879,8.879,0,0,0,39.171,32.9479Zm0,12.792a4.36,4.36,0,1,1,4.36-4.36h0A4.36,4.36,0,0,1,39.171,45.7399Z"/><path class="p" d="M54.666,91.82382a1.36916,1.36916,0,1,1,.00042.00146Z"/><path class="q" d="M42.302,70.13882c-.009-.12805-.161-1.509-2.272-1.5,0,0,1.041.085,1.237.53406,0,0-.727-.537-1.295-.334s-.868,1.223-.859,1.554.368,1.387.737,1.464a1.11411,1.11411,0,0,0,.442-.016,4.971,4.971,0,0,0-.264.516c-.776,1.75806.154,3.413.859,3.2.452-.137.611.63794.611.63794l4.3-3.759S44.045,69.12283,42.302,70.13882Z"/><path class="m" d="M40.821,92.84689s.793,1.64905,1.794,3.934a84.46332,84.46332,0,0,1,3.335,8.658,13.96979,13.96979,0,0,1,.718,3.6c0,.3-1.168,1.534-1.505,2-2.129,2.963-5.037,6.91894-5.037,6.91894l-.794-.2s1.112-4.949,2.731-7.41895c.318-.486,1.216-1.077,1.173-1.131h0c-.14-.175-.489-.615-.964-1.241a60.0826,60.0826,0,0,1-5.119-7.80506q-.143-.27411-.276-.545a9.88964,9.88964,0,0,1-1.284-4.3Z"/><path class="k" d="M38.628,117.95192l.546.34594c.2.087.37.119.573.214a.6.6,0,0,1,.375.386v.009l2.32,1.468c.111-.046.177-.275.212-.452a.39.39,0,0,0-.092-.33606,2.96167,2.96167,0,0,1-.836-1.281c-.107-.384-.681-1.594-.681-1.594h0c-.021-.01293-.141-.045-.809.047-.345.047-.439-.65295-.439-.65295a.64536.64536,0,0,0-.234.09094.68128.68128,0,0,0-.275.325,2.73225,2.73225,0,0,1-.711.755c-.155.125-.272.209-.272.209S38.195,117.59486,38.628,117.95192Z"/><path class="k" d="M39.562,116.19191a2.04765,2.04765,0,0,0,.4.66894c.226.188,1.085-.14905,1.085-.14905h0c-.021-.01293-.141-.045-.809.047-.345.047-.439-.65295-.439-.65295A.64617.64617,0,0,0,39.562,116.19191Z"/><path class="k" d="M38.628,117.95192l.546.34594c.2.087.37.119.573.214a.6.6,0,0,1,.375.386v.009l2.32,1.468c.111-.046.177-.275.212-.452-.031-.10705-.262.215-.335.244a12.24586,12.24586,0,0,1-1.963-1.324,1.32478,1.32478,0,0,0-.808-.661,2.50023,2.50023,0,0,1-.974-.90906c-.155.125-.272.209-.272.209S38.195,117.59584,38.628,117.95192Z"/><rect class="p" x="38.34693" y="99.26587" width="1.103" height="20.465" transform="translate(-31.49815 17.04674) rotate(-17.73)"/><path class="i" d="M40.965,119.46675l-14.709-1.279,27.28-18.444-1.561,3.19494L29.453,117.35762l11.608,1.01Z"/><path class="i" d="M42.948,118.60285l-.927-.6,11.318-18.131,1.318,1.364Z"/><path class="p" d="M44.492,116.01779l2.07,1.2a.512.512,0,0,1,.18732.69946l-.00031.00049h0a.512.512,0,0,1-.6994.18738l-.00061-.00037-2.07-1.19995a.512.512,0,0,1-.18731-.69946l.0003-.00049h0a.512.512,0,0,1,.6994-.18738Z"/><path class="p" d="M44.903,116.78993l-2.611,2.889-.241-.209,2.61-2.889Z"/><path class="i" d="M36.496,106.8919a.55224.55224,0,0,1-.468-.048h0c-4.962-3-11.826-1.871-13.812-1.454h0a.176.176,0,0,1-.212-.172V104.83a.6.6,0,0,1,.51-.592,44.86881,44.86881,0,0,1,4.986-.509h.114a18.01677,18.01677,0,0,1,8.082,1.673,1.88078,1.88078,0,0,0,1.462.09l.612-.215a.67106.67106,0,0,1,.855.41h0a.433.433,0,0,1-.265.552Z"/><path class="p" d="M31.884,99.33786s-.2-.9.368-.965,2.636.38306,3.187.322,3.433-.536,3.938-.046.291.919-.72,1.011a7.2757,7.2757,0,0,0-2.743.582C35.531,100.56088,32.758,101.51388,31.884,99.33786Z"/><circle class="p" cx="42.014" cy="119.24385" r="2.758"/><rect class="c" x="25.46226" y="108.86383" width="0.245" height="9.074" transform="translate(-36.79963 15.3064) rotate(-19.741)"/><path class="c" d="M18.544,121.64582l-.1-.225,8.672-3.725,5.7-8.144.2.141-5.741,8.2-.032.014Z"/><path class="c" d="M23.761,127.21079l-.233-.078c.061-.184,3.414-9.00806,3.557-9.38306l.087-.229,5.4,8.54394-.207.131-5.141-8.129C25.999,121.2988,23.807,127.0709,23.761,127.21079Z"/><rect class="c" x="22.26512" y="111.47114" width="0.245" height="9.765" transform="translate(-96.07707 118.69692) rotate(-80.242)"/><rect class="c" x="24.76416" y="112.76694" width="8.917" height="0.245" transform="translate(-87.11175 104.87096) rotate(-71.544)"/><path class="c" d="M27.177,117.92091l-.036-.018-8.827-4.475.111-.219,8.791,4.457,9.461-1.587.041.24194Z"/><path class="c" d="M30.761,126.90492c-.052-.154-2.317-5.728-3.586-8.845l-4.9,7.707-.207-.132,5.154-8.108.09.22c.148.363,3.619,8.894,3.681,9.079Z"/><rect class="c" x="17.64583" y="118.37555" width="9.6037" height="0.24497" transform="translate(-17.17764 4.58791) rotate(-8.45426)"/><rect class="c" x="23.95062" y="109.39161" width="0.245" height="8.038" transform="translate(-68.47478 43.57961) rotate(-40.98)"/><rect class="c" x="22.67893" y="122.78965" width="8.918" height="0.245" transform="translate(-97.59402 139.81792) rotate(-85.268)"/><rect class="c" x="30.8483" y="115.10558" width="0.24507" height="10.22198" transform="translate(-85.46657 77.16372) rotate(-55.26138)"/><path class="c" d="M20.238,124.37785l-.174-.173,7.014-7.075v-9.205h.245v9.306Z"/><path class="r" d="M25.39,117.79281a1.808,1.808,0,1,1,1.808,1.808h0A1.808,1.808,0,0,1,25.39,117.79281Z"/><path class="p" d="M27.199,128.398a10.6,10.6,0,1,1,5.365-1.45605A10.6,10.6,0,0,1,27.199,128.398Zm0-19.738a9.136,9.136,0,1,0,9.133,9.139v-.006A9.144,9.144,0,0,0,27.199,108.65992Z"/><path class="i" d="M27.281,127.19575a9.341,9.341,0,1,1,9.341-9.34094h0A9.351,9.351,0,0,1,27.281,127.19575Zm0-18.3a8.964,8.964,0,1,0,8.964,8.964h0a8.97394,8.97394,0,0,0-8.964-8.96789Z"/><rect class="c" x="60.0453" y="108.86338" width="0.24497" height="9.07275" transform="translate(-34.79228 27.01542) rotate(-19.7579)"/><path class="c" d="M53.125,121.64582l-.1-.225,8.672-3.725,5.7-8.144.2.141-5.741,8.2-.032.014Z"/><path class="c" d="M58.343,127.21079l-.233-.078c.061-.184,3.414-9.00806,3.557-9.38306l.087-.229,5.4,8.54394-.207.131-5.14-8.129C60.581,121.2988,58.389,127.0709,58.343,127.21079Z"/><rect class="c" x="56.84713" y="111.47114" width="0.245" height="9.765" transform="translate(-67.35628 152.7786) rotate(-80.242)"/><rect class="c" x="59.34616" y="112.76694" width="8.917" height="0.245" transform="translate(-63.47759 137.67431) rotate(-71.544)"/><path class="c" d="M61.762,117.92091l-.036-.018-8.827-4.475.111-.219,8.791,4.457,9.461-1.587.041.24194Z"/><path class="c" d="M65.343,126.90492c-.052-.154-2.317-5.728-3.586-8.845l-4.9,7.707-.207-.132,5.154-8.108.09.22c.148.363,3.619,8.894,3.681,9.079Z"/><rect class="c" x="52.22783" y="118.37555" width="9.6037" height="0.24497" transform="translate(-16.80185 9.67215) rotate(-8.45426)"/><rect class="c" x="58.53267" y="109.39156" width="0.245" height="8.038" transform="translate(-60.00084 66.26043) rotate(-40.981)"/><rect class="c" x="57.26093" y="122.78965" width="8.918" height="0.245" transform="translate(-65.86487 174.28205) rotate(-85.268)"/><rect class="c" x="65.42907" y="115.10628" width="0.245" height="10.219" transform="matrix(0.56984, -0.82176, 0.82176, 0.56984, -70.59035, 105.57956)"/><path class="c" d="M54.819,124.37785l-.174-.173,7.014-7.075v-9.205h.245v9.306Z"/><path class="p" d="M61.781,128.398a10.6,10.6,0,1,1,5.365-1.45605A10.6,10.6,0,0,1,61.781,128.398Zm0-19.738a9.136,9.136,0,1,0,9.133,9.139v-.006A9.14405,9.14405,0,0,0,61.781,108.65992Z"/><path class="i" d="M61.863,127.19575a9.341,9.341,0,1,1,9.341-9.34094h0A9.351,9.351,0,0,1,61.863,127.19575Zm0-18.3a8.964,8.964,0,1,0,8.964,8.964h0a8.974,8.974,0,0,0-8.964-8.96789Z"/><path class="m" d="M44.867,80.10385a3.076,3.076,0,0,0-1.323,2.98c.176,2.136,2.137,5.5,3.627,6.339a36.09483,36.09483,0,0,0,4.595,1.7l.123-.927a37.28926,37.28926,0,0,1-3.379-2.433C47.221,86.42782,45.993,79.58676,44.867,80.10385Z"/><path class="l" d="M44.718,84.90793a5.51684,5.51684,0,0,1-.352,1.29c-.131.32995-.282.645-.437.973-.455.964-1.528,1.438-1.564,3.29-.012.63794-.544,2.074-.243,3.115,1.483,5.13-8.22.465-7.695-.9,1.044-2.708,2.536-4.27405,2.5-6.505a.09814.09814,0,0,0,0-.017c-.009-.108-.024-.4-.041-.78-.041-.936-.093-2.43005-.112-3.18506v-.052c-.008-.324-.018-.558-.03-.62.721-3.069,2.381-3.083,2.948-3.073.21,0,.43.017.612.033a4.54631,4.54631,0,0,0,1.291-2.7l.129.05506,2.175.92505s-.2.69995-.344,1.376a2.70561,2.70561,0,0,0-.1,1.17005c.171.062.273.1.273.1h0A12.05632,12.05632,0,0,1,44.718,84.90793Z"/><path class="m" d="M44.364,86.19687c-.131.32995-.282.645-.437.973-.455.964-1.528,1.438-1.564,3.29l-.1.009c-3.979.311-5.335-4.314-5.335-4.314-.009-.108-.024-.4-.041-.78l7.18.012A7.25462,7.25462,0,0,1,44.364,86.19687Z"/><path class="f" d="M45.376,84.00583c-.02.06006-.043.119-.067.178-.69,1.644-1.322,3.01794-1.322,3.01794l-.057-.032a6.693,6.693,0,0,0-1.6-.6,13.046,13.046,0,0,0-1.534-.277,23.9041,23.9041,0,0,0-3.858-.125v-.017c-.033-.372-.126-2.9-.153-3.966v-.052c.159-.127.313-.244.455-.356.457-.36.8-.666.8-1.042a2.9031,2.9031,0,0,0-.028-.451c-.01-.071-.022-.142-.035-.213a6.13352,6.13352,0,0,0-.483-1.417,5.55608,5.55608,0,0,1,2.2-.213s0,.079.005.207a7.66294,7.66294,0,0,0,.244,2.087c.219.3,4.057,1.532,4.241,1.1a7.67409,7.67409,0,0,0-.455-2.431h0a5.96972,5.96972,0,0,1,1.756.851C44.739,80.78085,45.907,82.41391,45.376,84.00583Z"/><path class="m" d="M43.902,76.75387s-.2.69995-.344,1.376a2.75092,2.75092,0,0,1-1.832-2.3Z"/><path class="l" d="M44.192,77.48288s-3.015-.58-2.625-2.452.263-3.208,2.205-2.917,2.166,1.083,2.188,1.74S44.987,77.58578,44.192,77.48288Z"/><path class="q" d="M46.088,72.79477c-.347-.66-.723-.61-.956-.48206a2.146,2.146,0,0,0-2.791-.134,3.65424,3.65424,0,0,1-1.612,1.868,2.54,2.54,0,0,0,1.807.39294,2.19355,2.19355,0,0,0,1.171-.49194,7.16111,7.16111,0,0,1-1.515,1.221c1.654-.381,2.7-2.35205,2.806-2.561a2.4,2.4,0,0,1,.472,1.01c.05.50806-.088,1.5.2,1.53C45.675,75.14779,46.608,73.78476,46.088,72.79477Z"/><path class="l" d="M47.838,91.14975l-.217.925s-5.059-.691-6.713-1.65406-4.158-6.621-4.355-9.01294q-.016-.18987-.02-.363c-.06-2.066.957-2.387.957-2.387.407-.187.913.512,1.449,1.6,1.124,2.288,2.381,6.3,3.128,7.493C42.64,88.66574,47.838,91.14975,47.838,91.14975Z"/><path class="f" d="M38.939,80.25973a2.68507,2.68507,0,0,0-2.406.785c-.06-2.066.957-2.387.957-2.387C37.897,78.47079,38.403,79.16879,38.939,80.25973Z"/><path class="f" d="M45.485,80.25583s.582,1.223.7,1.542a1.30012,1.30012,0,0,0-1.1.73706S45.041,80.45285,45.485,80.25583Z"/><path class="l" d="M34.33,92.87985s-2.243,3.555.529,5.511,12.1,2.891,11.646,3.27c-1.4,1.16-2.671,2.94494-2.6,13.629l.692.35706S51.251,101.171,50.805,99.447C50.50494,98.3038,40.795,92.12289,34.33,92.87985Z"/><path class="i" d="M39.711,100.27792s-5.654-.937-6.238-2.933c-.436-1.491-.565-2.1,2-6.917,0,0,1.071,2.03405,6.66,1.563,0,0-.029.264-.029.621.007.593.1,1.43505.564,1.677.007.007.021.007.029.014.735.335,1.874,1.012,2.045,1.077A7.43881,7.43881,0,0,0,39.711,100.27792Z"/><path class="k" d="M42.963,115.80784l.583.28c.21.063.381.07605.594.146a.60009.60009,0,0,1,.417.34v.00806l2.475,1.189c.1-.059.144-.29395.158-.473a.391.391,0,0,0-.13-.323,2.96078,2.96078,0,0,1-.979-1.175c-.151-.369-.862-1.5-.862-1.5h0c-.023-.01-.145-.02906-.8.14-.337.087-.512-.6-.512-.6a.64275.64275,0,0,0-.221.11694.68288.68288,0,0,0-.236.354,2.73383,2.73383,0,0,1-.618.833c-.139.142-.246.239-.246.239S42.492,115.50377,42.963,115.80784Z"/><path class="k" d="M43.686,113.95079a2.04691,2.04691,0,0,0,.475.618c.246.161,1.06-.27405,1.06-.27405h0c-.023-.01-.145-.029-.8.14-.337.087-.512-.6-.512-.6A.64357.64357,0,0,0,43.686,113.95079Z"/><path class="k" d="M42.963,115.81187l.583.28c.21.063.381.07605.594.146a.60007.60007,0,0,1,.417.34v.00806l2.475,1.189c.1-.059.144-.29394.158-.473-.043-.1-.236.244-.3.281a12.234,12.234,0,0,1-2.1-1.087,1.32494,1.32494,0,0,0-.88-.563,2.4994,2.4994,0,0,1-1.073-.79c-.139.142-.246.239-.246.239S42.492,115.50487,42.963,115.81187Z"/><path class="p" d="M57.029,104.05685a1.066,1.066,0,0,0-.926-.668c-4.578-10.517-4.627-10.6-4.7-10.713l-.662,1.311c-.035-.057,2.5,5.577,4.308,9.707l-.258.1,6.3,13.49,1.022-.417Z"/><path class="p" d="M55.699,92.75284l-8.044,2.019-.14-1.625,8.044-2.019Z"/><path class="l" d="M47.838,91.14975a2.90017,2.90017,0,0,0,1.293.474,4.18111,4.18111,0,0,1,1.216.2,1.18387,1.18387,0,0,1,.781,1.059s0,.246-1.126-.1c-.246-.076-.836.067-1.037,0s-.811-.72595-1.342-.709Z"/><path class="m" d="M51.889,90.18686a2.90017,2.90017,0,0,0,1.293.474,4.1811,4.1811,0,0,1,1.216.2,1.184,1.184,0,0,1,.781,1.06006s-.015.349-1.126-.1c-.3-.12305-.836.067-1.037,0a10.89188,10.89188,0,0,0-1.446-.771Z"/><path class="p" d="M46.113,94.24191a1.36673,1.36673,0,1,1,.00042.00147Z"/><path class="r" d="M59.973,117.79281a1.808,1.808,0,1,1,1.80805,1.808H61.781A1.808,1.808,0,0,1,59.973,117.79281Z"/><path class="s" d="M134.603,41.86685a5.179,5.179,0,0,0-5.051,5.3c0,2.926,5.051,8.682,5.051,8.682s5.051-5.756,5.051-8.682A5.179,5.179,0,0,0,134.603,41.86685Zm0,7.461a2.543,2.543,0,1,1,2.543-2.543h0a2.543,2.543,0,0,1-2.542,2.544h-.001Z"/><path class="o" d="M135.152,83.73681H122.508l.013-.562a12.35824,12.35824,0,0,0-.913-4.511,7.03609,7.03609,0,0,0-6.75-4.537,7.944,7.944,0,0,0-6.176,2.111c-2.594,2.633-2.43,6.881-2.428,6.924l.026.574H83.708l-26.555-20.3H39.128v-1.1h18.4l26.555,20.3h21.078a10.972,10.972,0,0,1,2.738-7.165,8.992,8.992,0,0,1,7-2.444,8.15708,8.15708,0,0,1,7.741,5.239,13.40016,13.40016,0,0,1,.974,4.371H134.06v-22.024h1.1Z"/><path class="f" d="M132.317,59.38582a2.285,2.285,0,1,1,2.285,2.285,2.285,2.285,0,0,1-2.285-2.285Z"/><path class="o" d="M134.602,62.09883a2.712,2.712,0,1,1,2.712-2.712A2.71187,2.71187,0,0,1,134.602,62.09883Zm0-4.571a1.858,1.858,0,1,0,1.858,1.858A1.85789,1.85789,0,0,0,134.602,57.52785Z"/><circle class="f" cx="39.17" cy="62.89785" r="2.285"/><path class="o" d="M39.17,65.61083a2.712,2.712,0,1,1,2.712-2.712v.00006A2.715,2.715,0,0,1,39.17,65.61083Zm0-4.571a1.858,1.858,0,1,0,1.858,1.858v-.00006A1.85994,1.85994,0,0,0,39.17,61.03985Z"/><path class="f" d="M103.56194,82.94576a2.285,2.285,0,1,1,0,.00012Z"/><path class="o" d="M105.844,85.6589a2.712,2.712,0,1,1,2.712-2.712A2.71187,2.71187,0,0,1,105.844,85.6589Zm0-4.571a1.858,1.858,0,1,0,1.858,1.858A1.8579,1.8579,0,0,0,105.844,81.08785Z"/><path class="f" d="M101.723,25.73082l-.752.539-.756-.534a.925.925,0,0,1,1.507-.006Z"/><path class="f" d="M100.972,24.02984a2.23405,2.23405,0,0,0-1.829.95l.47705.335a1.652,1.652,0,0,1,2.69995-.01l.475-.341A2.236,2.236,0,0,0,100.972,24.02984Z"/><path class="f" d="M100.972,21.53184a4.727,4.727,0,0,0-3.87,2.01l.477.335a4.149,4.149,0,0,1,6.767-.025l.473-.341A4.72816,4.72816,0,0,0,100.972,21.53184Z"/><path class="f" d="M100.97091,22.89884a3.381,3.381,0,0,0-2.759,1.425l.47705.335a2.79995,2.79995,0,0,1,4.553-.017l.473-.339A3.38109,3.38109,0,0,0,100.97091,22.89884Z"/><path class="d" d="M214.645,29.99585a6.23891,6.23891,0,0,0-6.085,6.383c0,3.525,6.085,10.459,6.085,10.459s6.085-6.934,6.085-10.459A6.23891,6.23891,0,0,0,214.645,29.99585Zm0,8.989a3.064,3.064,0,1,1,3.064-3.064h0A3.064,3.064,0,0,1,214.645,38.98486Z"/><path class="d" d="M226.417,101.75782l-.78808-.334,5.845-13.774v-18.56l-7.82007-.255v-11.34l-7.3501-7.35.6001-.605,7.6001,7.6v10.866l7.82006.255v19.563l-.03393.08Z"/><path class="f" d="M223.73993,101.93986a2.285,2.285,0,1,1,2.28491,2.285h0A2.285,2.285,0,0,1,223.73993,101.93986Z"/><path class="d" d="M226.02313,104.65287a2.713,2.713,0,1,1,2.71289-2.71313v.00012A2.716,2.716,0,0,1,226.02313,104.65287Zm0-4.56994a1.857,1.857,0,1,0,1.85694,1.85705h0A1.8589,1.8589,0,0,0,226.02313,100.08293Z"/><path class="f" d="M229.616,68.67386a2.285,2.285,0,1,1,2.28491,2.285h0A2.285,2.285,0,0,1,229.616,68.67386Z"/><path class="d" d="M231.90089,71.38681a2.713,2.713,0,1,1,2.71289-2.71313v.00012A2.71608,2.71608,0,0,1,231.90089,71.38681Zm0-4.571a1.857,1.857,0,1,0,1.85693,1.85705v-.00006a1.86012,1.86012,0,0,0-1.85693-1.861Z"/><circle class="d" cx="216.605" cy="49.83985" r="0.965"/><path class="f" d="M131.85693,46.98684a2.745,2.745,0,1,1,2.745,2.745h0A2.745,2.745,0,0,1,131.85693,46.98684Z"/></svg>