<?xml version="1.0" encoding="utf-8"?>
<!-- Generator: Adobe Illustrator 26.0.3, SVG Export Plug-In . SVG Version: 6.00 Build 0)  -->
<svg version="1.1" id="Layer_1" xmlns="http://www.w3.org/2000/svg" xmlns:xlink="http://www.w3.org/1999/xlink" x="0px" y="0px"
	 viewBox="0 0 2250 500" enable-background="new 0 0 2250 500" xml:space="preserve">
<g>
	<rect y="-0.5" fill="#67E8F9" width="500" height="500"/>
	<polygon fill="#FAFAFA" points="114,49.5 50,49.5 50,449.5 450,449.5 450,385.5 114,385.5 	"/>
	<polygon fill="#FAFAFA" points="322,177.5 322,49.5 178,49.5 178,113.5 258,113.5 258,241.5 386,241.5 386,321.5 450,321.5 
		450,177.5 	"/>
</g>
<g>
	<path fill="#666666" d="M634.052,141.2c-4.858-4.858-7.288-10.659-7.288-17.409c0-6.743,2.43-12.481,7.288-17.206
		c4.858-4.719,10.659-7.085,17.409-7.085c6.743,0,12.551,2.365,17.409,7.085c4.858,4.725,7.287,10.463,7.287,17.206
		c0,6.75-2.365,12.551-7.084,17.409c-4.726,4.858-10.597,7.288-17.612,7.288C644.71,148.488,638.91,146.058,634.052,141.2z
		 M634.456,186.545h34.008v206.478h-34.008V186.545z"/>
	<path fill="#666666" d="M746.2,390.594c-11.879-5.934-21.052-14.1-27.53-24.494c-6.479-10.388-9.717-22.198-9.717-35.426
		c0-21.862,8.23-38.929,24.696-51.213c16.46-12.28,37.248-18.422,62.349-18.422c12.411,0,23.95,1.354,34.615,4.049
		c10.66,2.702,18.826,5.807,24.494,9.311v-12.549c0-15.385-5.403-27.734-16.195-37.045c-10.798-9.312-24.43-13.968-40.89-13.968
		c-11.609,0-22.267,2.499-31.984,7.49c-9.717,4.997-17.409,11.943-23.077,20.85l-25.912-19.433
		c8.098-12.411,19.232-22.128,33.401-29.15c14.17-7.015,29.89-10.526,47.166-10.526c28.069,0,50.133,7.357,66.195,22.065
		c16.055,14.714,24.089,34.755,24.089,60.122v130.77h-32.793v-29.554h-1.62c-5.94,9.988-14.847,18.49-26.72,25.505
		c-11.881,7.015-25.241,10.526-40.082,10.526C771.567,399.5,758.075,396.528,746.2,390.594z M822.314,360.229
		c9.981-5.934,17.947-13.898,23.886-23.886c5.934-9.983,8.907-20.914,8.907-32.795c-6.479-4.313-14.443-7.825-23.888-10.525
		c-9.451-2.696-19.432-4.049-29.96-4.049c-18.896,0-33.134,3.915-42.712,11.741c-9.584,7.831-14.373,17.953-14.373,30.364
		c0,11.336,4.315,20.515,12.956,27.531c8.635,7.021,19.566,10.526,32.793,10.526C801.526,369.136,812.326,366.169,822.314,360.229z"
		/>
	<path fill="#666666" d="M935.671,186.545h32.793v30.364h1.619c5.934-10.526,14.841-19.294,26.72-26.316
		c11.875-7.015,24.425-10.526,37.653-10.526c15.113,0,28.27,3.644,39.474,10.932c11.196,7.287,19.231,17.004,24.089,29.149
		c7.287-12.146,16.934-21.862,28.947-29.149c12.007-7.288,25.974-10.932,41.903-10.932c23.747,0,41.63,7.224,53.643,21.66
		c12.007,14.442,18.017,34.078,18.017,58.907v132.389h-34.008V265.898c0-19.162-3.917-33.06-11.741-41.701
		c-7.832-8.635-19.433-12.955-34.818-12.955c-10.26,0-19.573,2.973-27.935,8.907c-8.37,5.94-14.917,13.904-19.636,23.887
		c-4.726,9.988-7.085,20.788-7.085,32.388v116.6h-34.413V266.302c0-19.433-3.915-33.464-11.741-42.105
		c-7.832-8.635-19.3-12.955-34.413-12.955c-10.261,0-19.573,3.036-27.936,9.109c-8.368,6.073-14.916,14.17-19.635,24.292
		c-4.726,10.121-7.085,20.989-7.085,32.591v115.789h-34.413V186.545z"/>
	<path fill="#666666" d="M1329.599,385.128c-15.929-9.577-28.341-22.671-37.248-39.271s-13.36-35.286-13.36-56.074
		c0-20.781,4.453-39.536,13.36-56.274c8.907-16.732,21.318-29.821,37.248-39.271c15.922-9.445,33.869-14.17,53.846-14.17
		c22.4,0,41.226,5.2,56.478,15.587c15.245,10.393,26.113,24.228,32.591,41.498l-31.174,12.955
		c-5.13-12.684-12.753-22.33-22.874-28.947c-10.122-6.61-22.338-9.919-36.64-9.919c-12.146,0-23.482,3.308-34.008,9.919
		c-10.526,6.617-18.965,15.859-25.304,27.733c-6.345,11.881-9.514,25.505-9.514,40.89c0,15.386,3.169,29.018,9.514,40.891
		c6.339,11.881,14.778,21.123,25.304,27.734c10.526,6.617,21.862,9.919,34.008,9.919c14.575,0,27.126-3.373,37.652-10.122
		c10.526-6.743,18.351-16.328,23.482-28.745l30.769,12.955c-7.022,17.005-18.289,30.769-33.806,41.296
		c-15.524,10.526-34.351,15.789-56.478,15.789C1363.468,399.5,1345.521,394.705,1329.599,385.128z"/>
	<path fill="#666666" d="M1549.438,384.925c-16.194-9.717-28.815-22.937-37.854-39.676c-9.047-16.732-13.563-35.222-13.563-55.466
		c0-20.242,4.516-38.727,13.563-55.465c9.04-16.732,21.661-29.96,37.854-39.676c16.194-9.717,34.412-14.575,54.655-14.575
		c20.243,0,38.463,4.858,54.656,14.575c16.194,9.717,28.808,22.944,37.854,39.676c9.04,16.738,13.563,35.223,13.563,55.465
		c0,20.244-4.523,38.734-13.563,55.466c-9.047,16.739-21.66,29.96-37.854,39.676c-16.194,9.717-34.414,14.575-54.656,14.575
		C1583.85,399.5,1565.632,394.642,1549.438,384.925z M1639.519,358.812c10.93-6.338,19.699-15.448,26.316-27.327
		c6.61-11.875,9.918-25.772,9.918-41.702c0-15.921-3.308-29.82-9.918-41.699c-6.617-11.874-15.386-20.983-26.316-27.328
		c-10.932-6.338-22.742-9.514-35.426-9.514c-12.689,0-24.563,3.176-35.627,9.514c-11.07,6.345-19.908,15.454-26.517,27.328
		c-6.617,11.879-9.919,25.778-9.919,41.699c0,15.929,3.302,29.827,9.919,41.702c6.61,11.879,15.448,20.989,26.517,27.327
		c11.064,6.345,22.938,9.515,35.627,9.515C1616.777,368.327,1628.588,365.157,1639.519,358.812z"/>
	<path fill="#666666" d="M1748.225,103.143h34.413v289.879h-34.413V103.143z"/>
	<path fill="#666666" d="M1833.65,186.545h32.793v30.364h1.619c5.934-10.526,14.841-19.294,26.72-26.316
		c11.875-7.015,24.425-10.526,37.653-10.526c15.113,0,28.27,3.644,39.474,10.932c11.196,7.287,19.231,17.004,24.089,29.149
		c7.287-12.146,16.934-21.862,28.947-29.149c12.007-7.288,25.974-10.932,41.903-10.932c23.747,0,41.63,7.224,53.643,21.66
		c12.007,14.442,18.017,34.078,18.017,58.907v132.389H2104.5V265.898c0-19.162-3.917-33.06-11.741-41.701
		c-7.832-8.635-19.433-12.955-34.818-12.955c-10.26,0-19.573,2.973-27.935,8.907c-8.37,5.94-14.917,13.904-19.636,23.887
		c-4.726,9.988-7.085,20.788-7.085,32.388v116.6h-34.412V266.302c0-19.433-3.915-33.464-11.741-42.105
		c-7.832-8.635-19.3-12.955-34.412-12.955c-10.262,0-19.573,3.036-27.936,9.109c-8.368,6.073-14.916,14.17-19.635,24.292
		c-4.726,10.121-7.085,20.989-7.085,32.591v115.789h-34.412V186.545z"/>
</g>
</svg>
