<svg xmlns="http://www.w3.org/2000/svg" viewBox="0 0 3311.05866 500"><defs><style>.a{fill:#f0f;}</style></defs><polygon class="a" points="500 428 500 500 0 500 0 0 72 0 72 428 500 428"/><polygon class="a" points="502.5 145 502.5 362 430.5 362 430.5 217 285.5 217 285.5 72.5 143.5 72.5 143.5 0.5 360.5 0.5 360.5 145 502.5 145"/><path class="a" d="M680.93739,86.40954Q666.249,71.73112,666.26231,50.549q0-21.16213,14.67508-35.86056Q695.62581.01,716.798,0q21.17214,0,35.86056,14.68842Q767.34693,29.38684,767.34693,50.549q0,21.18215-14.68842,35.86056Q737.97009,101.108,716.798,101.09129,695.62581,101.09129,680.93739,86.40954Zm-1.70764,65.23073h75.13641V500H679.22975Z"/><path class="a" d="M886.88213,485.31825q-29.37684-14.67841-45.75956-41.67056-16.38941-26.97546-16.39607-61.12838,0-53.95093,40.63663-85.38228,40.6433-31.418,102.80561-31.42469,30.73763,0,55.32505,5.81,24.59411,5.80332,38.94233,12.63391V266.3994q0-32.0984-23.907-52.25662-23.93373-20.14155-61.47525-20.15156a112.16092,112.16092,0,0,0-50.21545,11.61333,98.60128,98.60128,0,0,0-37.90173,32.10507l-52.6035-40.30311q23.21331-32.0984,60.11447-49.86192,36.88114-17.75017,81.967-17.75685,75.82347,0,116.8003,37.22135,40.9835,37.24134,40.9835,104.85344V489.07374h-73.76229V447.40985h-3.41529q-15.04863,22.53291-42.35762,37.5682-27.31566,15.00861-62.836,15.022Q916.24564,500,886.88213,485.31825Zm129.10069-60.45466a92.7091,92.7091,0,0,0,34.15291-34.83331,94.60819,94.60819,0,0,0,12.30039-47.13369,153.857,153.857,0,0,0-36.55429-14.34155,170.22941,170.22941,0,0,0-43.37154-5.46313q-42.36429,0-62.15563,16.73626-19.81135,16.7396-19.81136,43.37153,0,23.91371,18.45058,39.27585,18.43056,15.36882,47.81408,15.36881Q994.10361,437.84436,1015.98282,424.86359Z"/><path class="a" d="M1218.1654,151.64027h71.72112v45.76624h3.41529q15.709-25.26448,44.39879-40.98349a125.97819,125.97819,0,0,1,61.47525-15.709q37.56153,0,65.57093,17.41665,27.996,17.42,40.3031,46.10644a135.3942,135.3942,0,0,1,47.46722-46.10644q29.717-17.42,70.01347-17.41665,60.09446,0,91.18562,36.541,31.07781,36.551,31.08448,99.38365V500h-75.13641V289.61938q0-79.23543-67.62544-79.23876-36.20074,0-59.42073,29.37684-23.23332,29.37684-23.22665,72.40151V500H1444.255V289.61938q0-79.23543-69.66661-79.23876-35.54039,0-58.40682,29.37684-22.89312,29.37684-22.87979,72.40151V500H1218.1654Z"/><path class="a" d="M1898.14192,476.093a167.07481,167.07481,0,0,1-64.21014-65.91112q-22.89313-42.01408-22.87979-95.288,0-53.28054,22.87979-95.288a167.16167,167.16167,0,0,1,64.21014-65.91112q41.32369-23.90372,93.24013-23.907,57.37289,0,97.68267,25.95489,40.2831,25.96488,57.36622,70.35367l-68.98622,28.68978q-23.23332-55.33173-88.11718-55.33173a97.23957,97.23957,0,0,0-51.5629,14.34823q-23.57352,14.33821-37.56821,40.6433-14.008,26.29507-14.008,60.448,0,34.15959,14.008,60.79486,13.988,26.63527,37.56821,40.9835a97.29353,97.29353,0,0,0,51.5629,14.34155q32.79881,0,56.3523-14.68842,23.57352-14.67841,35.86056-42.00408l67.62544,29.37017q-19.81136,44.40546-60.10112,70.35367Q2048.7416,500,1991.38205,500,1939.47229,500,1898.14192,476.093Z"/><path class="a" d="M2278.94692,475.75276a170.35667,170.35667,0,0,1-64.89054-66.59818q-23.23332-42.34428-23.22665-94.26071,0-51.89974,23.22665-94.26071a170.5339,170.5339,0,0,1,64.89054-66.59818q41.66388-24.2439,94.26738-24.24724,52.59015,0,94.254,24.58744a173.03419,173.03419,0,0,1,64.89053,66.93837q23.21331,42.36429,23.22665,93.58032,0,51.91977-23.22665,94.26071a170.44755,170.44755,0,0,1-64.89053,66.59818q-41.66389,24.2439-94.254,24.24724Q2320.60414,500,2278.94692,475.75276Zm147.53792-58.74034q24.5941-13.998,39.27585-40.30311,14.68842-26.28507,14.68842-61.81544,0-35.51036-14.68842-61.47524-14.68842-25.95489-39.27585-39.95624a108.31945,108.31945,0,0,0-106.55442,0q-24.59411,14.008-39.27586,39.95624-14.68842,25.96488-14.68842,61.47524,0,35.52038,14.68842,61.81544,14.68842,26.30508,39.27586,40.30311a108.36444,108.36444,0,0,0,106.55442,0Z"/><path class="a" d="M2621.16979,10.93293h75.13641V500h-75.13641Z"/><path class="a" d="M2784.42339,151.64027h71.72112v45.76624h3.41529q15.709-25.26448,44.39879-40.98349a125.97819,125.97819,0,0,1,61.47525-15.709q37.56153,0,65.57092,17.41665,27.99606,17.42,40.30311,46.10644a135.3942,135.3942,0,0,1,47.46722-46.10644q29.717-17.42,70.01347-17.41665,60.09445,0,91.18561,36.541,31.07782,36.551,31.08449,99.38365V500h-75.13641V289.61938q0-79.23543-67.62544-79.23876-36.20074,0-59.42073,29.37684-23.23332,29.37684-23.22665,72.40151V500H3010.513V289.61938q0-79.23543-69.66661-79.23876-35.54039,0-58.40682,29.37684-22.89314,29.37684-22.87979,72.40151V500h-75.13641Z"/></svg>