<?xml version="1.0" encoding="utf-8"?>
<!-- Generator: Adobe Illustrator 26.0.3, SVG Export Plug-In . SVG Version: 6.00 Build 0)  -->
<svg version="1.1" id="Layer_1" xmlns="http://www.w3.org/2000/svg" xmlns:xlink="http://www.w3.org/1999/xlink" x="0px" y="0px"
	 viewBox="0 0 500 500" style="enable-background:new 0 0 500 500;" xml:space="preserve">
<style type="text/css">
	.st0{fill:#FAFAFA;}
	.st1{fill:#737373;}
	.st2{fill:url(#SVGID_1_);}
	.st3{fill:#FFFFFF;}
	.st4{fill:url(#SVGID_00000128487471426733318940000008255234155011911040_);}
</style>
<g>
	<path class="st0" d="M69.4-518.8c0-17.6,9.8-26.4,29.4-26.4c19.6,0,29.4,8.8,29.4,26.4c0,8.4-2.5,14.9-7.4,19.6
		c-4.9,4.7-12.3,7-22.1,7C79.2-492.3,69.4-501.1,69.4-518.8z M125.7-269.5H71.6v-198.1h54.1V-269.5z"/>
	<path class="st0" d="M308.3-269.5l-10.5-26.9h-1.4c-9.1,11.5-18.5,19.4-28.1,23.8s-22.2,6.6-37.7,6.6c-19,0-34-5.4-44.9-16.3
		s-16.4-26.3-16.4-46.4c0-21,7.4-36.5,22.1-46.5c14.7-10,36.9-15.5,66.5-16.6l34.4-1.1v-8.7c0-20.1-10.3-30.1-30.8-30.1
		c-15.8,0-34.4,4.8-55.8,14.4l-17.9-36.5c22.8-11.9,48.1-17.9,75.9-17.9c26.6,0,47,5.8,61.1,17.4c14.2,11.6,21.3,29.2,21.3,52.8v132
		L308.3-269.5L308.3-269.5z M292.3-361.3l-20.9,0.7c-15.7,0.5-27.4,3.3-35.1,8.5c-7.7,5.2-11.5,13.1-11.5,23.7
		c0,15.2,8.7,22.9,26.2,22.9c12.5,0,22.5-3.6,30-10.8c7.5-7.2,11.3-16.8,11.3-28.7V-361.3z"/>
	<path class="st0" d="M579.1-269.5H525v-115.7c0-14.3-2.4-25-7.2-32.2c-4.8-7.1-12.3-10.7-22.6-10.7c-13.8,0-23.9,5.1-30.1,15.2
		c-6.3,10.2-9.4,26.9-9.4,50.2v93.2h-54.1v-198.1h41.3l7.3,25.3h3c5.3-9.1,13-16.2,23-21.4c10-5.1,21.6-7.7,34.6-7.7
		c29.7,0,49.7,9.7,60.3,29.1h4.8c5.3-9.2,13.1-16.4,23.5-21.4c10.3-5.1,22-7.6,35-7.6c22.4,0,39.4,5.8,50.9,17.3s17.3,30,17.3,55.4
		v129.2h-54.2v-115.8c0-14.3-2.4-25-7.2-32.2c-4.8-7.1-12.3-10.7-22.6-10.7c-13.2,0-23.1,4.7-29.7,14.2s-9.8,24.5-9.8,45
		L579.1-269.5L579.1-269.5z"/>
	<path class="st0" d="M838.5-265.9c-61.7,0-92.5-33.8-92.5-101.5c0-33.7,8.4-59.4,25.2-77.2c16.8-17.8,40.8-26.7,72.1-26.7
		c22.9,0,43.5,4.5,61.7,13.5L889.1-416c-8.5-3.4-16.4-6.2-23.7-8.4c-7.3-2.2-14.7-3.3-22-3.3c-28.1,0-42.2,20-42.2,59.9
		c0,38.8,14.1,58.1,42.2,58.1c10.4,0,20-1.4,28.9-4.2c8.9-2.8,17.7-7.1,26.6-13v46.3c-8.7,5.6-17.6,9.4-26.5,11.5
		C863.4-267,852.1-265.9,838.5-265.9z"/>
	<path class="st0" d="M1124.7-368.9c0,32.3-8.5,57.5-25.5,75.7s-40.7,27.3-71.1,27.3c-19,0-35.8-4.2-50.3-12.5s-25.7-20.3-33.5-35.9
		s-11.7-33.8-11.7-54.6c0-32.4,8.4-57.5,25.3-75.5s40.6-26.9,71.2-26.9c19,0,35.8,4.1,50.3,12.4c14.5,8.3,25.7,20.1,33.5,35.6
		C1120.8-407.8,1124.7-389.7,1124.7-368.9z M987.7-368.9c0,19.6,3.2,34.4,9.7,44.5c6.4,10,16.9,15.1,31.5,15.1
		c14.4,0,24.8-5,31.1-15c6.3-10,9.5-24.8,9.5-44.6c0-19.6-3.2-34.3-9.6-44.1c-6.4-9.8-16.8-14.7-31.4-14.7
		c-14.4,0-24.8,4.9-31.2,14.6C990.9-403.4,987.7-388.6,987.7-368.9z"/>
	<path class="st0" d="M1223.4-269.5h-54.1v-275.8h54.1V-269.5z"/>
	<path class="st0" d="M1457.5-269.5h-54v-115.7c0-14.3-2.4-25-7.2-32.2c-4.8-7.1-12.3-10.7-22.6-10.7c-13.8,0-23.9,5.1-30.1,15.2
		c-6.3,10.2-9.4,26.9-9.4,50.2v93.2h-54.1v-198.1h41.3l7.3,25.3h3c5.3-9.1,13-16.2,23-21.4c10-5.1,21.6-7.7,34.6-7.7
		c29.7,0,49.7,9.7,60.2,29.1h4.8c5.3-9.2,13.1-16.4,23.5-21.4c10.3-5.1,22-7.6,35-7.6c22.4,0,39.4,5.8,51,17.3
		c11.5,11.5,17.3,30,17.3,55.4v129.2h-54.2v-115.8c0-14.3-2.4-25-7.2-32.2c-4.8-7.1-12.3-10.7-22.6-10.7c-13.2,0-23.1,4.7-29.7,14.2
		s-9.8,24.5-9.8,45v99.4H1457.5z"/>
</g>
<path class="st0" d="M-554.5-655.6v500h500v-500H-554.5z M-284.5-235.6h-190v-190h40v150h150V-235.6z M-134.5-235.6h-40v-150h-150
	v-150h-150v-40h190v150h150V-235.6z"/>
<path class="st0" d="M-554.5,0v500h500V0H-554.5z M-284.5,420h-190V230h40v150h150V420z M-134.5,420h-40V270h-150V120h-150V80h190
	v150h150V420z"/>
<g>
	<path class="st1" d="M69.4-1180c0-17.6,9.8-26.4,29.4-26.4c19.6,0,29.4,8.8,29.4,26.4c0,8.4-2.5,14.9-7.4,19.6
		c-4.9,4.7-12.3,7-22.1,7C79.2-1153.5,69.4-1162.3,69.4-1180z M125.7-930.7H71.6v-198.1h54.1V-930.7z"/>
	<path class="st1" d="M308.3-930.7l-10.5-26.9h-1.4c-9.1,11.5-18.5,19.4-28.1,23.8c-9.6,4.4-22.2,6.6-37.7,6.6
		c-19,0-34-5.4-44.9-16.3c-10.9-10.9-16.4-26.3-16.4-46.4c0-21,7.4-36.5,22.1-46.5c14.7-10,36.9-15.5,66.5-16.6l34.4-1.1v-8.7
		c0-20.1-10.3-30.1-30.8-30.1c-15.8,0-34.4,4.8-55.8,14.4l-17.9-36.5c22.8-11.9,48.1-17.9,75.9-17.9c26.6,0,47,5.8,61.1,17.4
		c14.2,11.6,21.3,29.2,21.3,52.8v132H308.3L308.3-930.7z M292.3-1022.5l-20.9,0.7c-15.7,0.5-27.4,3.3-35.1,8.5
		c-7.7,5.2-11.5,13.1-11.5,23.7c0,15.2,8.7,22.9,26.2,22.9c12.5,0,22.5-3.6,30-10.8s11.3-16.8,11.3-28.7V-1022.5z"/>
	<path class="st1" d="M579.1-930.7H525v-115.7c0-14.3-2.4-25-7.2-32.2c-4.8-7.1-12.3-10.7-22.6-10.7c-13.8,0-23.9,5.1-30.1,15.2
		c-6.3,10.2-9.4,26.9-9.4,50.2v93.2h-54.1v-198.1h41.3l7.3,25.3h3c5.3-9.1,13-16.2,23-21.4c10-5.1,21.6-7.7,34.6-7.7
		c29.7,0,49.7,9.7,60.3,29.1h4.8c5.3-9.2,13.1-16.4,23.5-21.4c10.3-5.1,22-7.6,35-7.6c22.4,0,39.4,5.8,50.9,17.3s17.3,30,17.3,55.4
		v129.2h-54.2v-115.8c0-14.3-2.4-25-7.2-32.2c-4.8-7.1-12.3-10.7-22.6-10.7c-13.2,0-23.1,4.7-29.7,14.2s-9.8,24.5-9.8,45
		L579.1-930.7L579.1-930.7z"/>
	<path class="st1" d="M838.5-927.1c-61.7,0-92.5-33.8-92.5-101.5c0-33.7,8.4-59.4,25.2-77.2c16.8-17.8,40.8-26.7,72.1-26.7
		c22.9,0,43.5,4.5,61.7,13.5l-15.9,41.8c-8.5-3.4-16.4-6.2-23.7-8.4c-7.3-2.2-14.7-3.3-22-3.3c-28.1,0-42.2,20-42.2,59.9
		c0,38.8,14.1,58.1,42.2,58.1c10.4,0,20-1.4,28.9-4.2s17.7-7.1,26.6-13v46.3c-8.7,5.6-17.6,9.4-26.5,11.5
		C863.4-928.2,852.1-927.1,838.5-927.1z"/>
	<path class="st1" d="M1124.7-1030.1c0,32.3-8.5,57.5-25.5,75.7s-40.7,27.3-71.1,27.3c-19,0-35.8-4.2-50.3-12.5
		s-25.7-20.3-33.5-35.9c-7.8-15.6-11.7-33.8-11.7-54.6c0-32.4,8.4-57.5,25.3-75.5s40.6-26.9,71.2-26.9c19,0,35.8,4.1,50.3,12.4
		c14.5,8.3,25.7,20.1,33.5,35.6C1120.8-1069,1124.7-1050.9,1124.7-1030.1z M987.7-1030.1c0,19.6,3.2,34.4,9.7,44.5
		c6.4,10,16.9,15.1,31.5,15.1c14.4,0,24.8-5,31.1-15c6.3-10,9.5-24.8,9.5-44.6c0-19.6-3.2-34.3-9.6-44.1
		c-6.4-9.8-16.8-14.7-31.4-14.7c-14.4,0-24.8,4.9-31.2,14.6S987.7-1049.8,987.7-1030.1z"/>
	<path class="st1" d="M1223.4-930.7h-54.1v-275.8h54.1V-930.7z"/>
	<path class="st1" d="M1457.5-930.7h-54v-115.7c0-14.3-2.4-25-7.2-32.2c-4.8-7.1-12.3-10.7-22.6-10.7c-13.8,0-23.9,5.1-30.1,15.2
		c-6.3,10.2-9.4,26.9-9.4,50.2v93.2h-54.1v-198.1h41.3l7.3,25.3h3c5.3-9.1,13-16.2,23-21.4c10-5.1,21.6-7.7,34.6-7.7
		c29.7,0,49.7,9.7,60.2,29.1h4.8c5.3-9.2,13.1-16.4,23.5-21.4c10.3-5.1,22-7.6,35-7.6c22.4,0,39.4,5.8,51,17.3
		c11.5,11.5,17.3,30,17.3,55.4v129.2h-54.2v-115.8c0-14.3-2.4-25-7.2-32.2c-4.8-7.1-12.3-10.7-22.6-10.7c-13.2,0-23.1,4.7-29.7,14.2
		s-9.8,24.5-9.8,45v99.4H1457.5z"/>
</g>
<g>
	<g>
		
			<linearGradient id="SVGID_1_" gradientUnits="userSpaceOnUse" x1="-554.4691" y1="-1316.7554" x2="-54.4691" y2="-816.7554" gradientTransform="matrix(1 0 0 -1 0 -2133.5107)">
			<stop  offset="0" style="stop-color:#7DD3FC"/>
			<stop  offset="1" style="stop-color:#0EA5E9"/>
		</linearGradient>
		<rect x="-554.5" y="-1316.8" class="st2" width="500" height="500"/>
	</g>
	<polygon class="st3" points="-134.5,-1086.8 -134.5,-896.8 -174.5,-896.8 -174.5,-1046.8 -324.5,-1046.8 -324.5,-1196.8 
		-474.5,-1196.8 -474.5,-1236.8 -284.5,-1236.8 -284.5,-1086.8 	"/>
	<polygon class="st3" points="-284.5,-936.8 -284.5,-896.8 -474.5,-896.8 -474.5,-1086.8 -434.5,-1086.8 -434.5,-936.8 	"/>
</g>
<g>
	<g>
		
			<linearGradient id="SVGID_00000145776503681620242960000002066948882141397163_" gradientUnits="userSpaceOnUse" x1="-9.094947e-13" y1="-2633.5107" x2="500" y2="-2133.5107" gradientTransform="matrix(1 0 0 -1 0 -2133.5107)">
			<stop  offset="0" style="stop-color:#7DD3FC"/>
			<stop  offset="1" style="stop-color:#0EA5E9"/>
		</linearGradient>
		<rect style="fill:url(#SVGID_00000145776503681620242960000002066948882141397163_);" width="500" height="500"/>
	</g>
	<polygon class="st3" points="420,230 420,420 380,420 380,270 230,270 230,120 80,120 80,80 270,80 270,230 	"/>
	<polygon class="st3" points="270,380 270,420 80,420 80,230 120,230 120,380 	"/>
</g>
</svg>
